<svg version="1.1" id="Layer_1" xmlns="http://www.w3.org/2000/svg" x="0" y="0" viewBox="0 0 581.2 335.6" height="335" width="581" xml:space="preserve"><style type="text/css">.st1{fill:#e29023}.st3{fill:#ffbe5c}.st5{fill:#eaf1fe}.st6{fill:#0b97ff}.st8{fill:#fff}</style><g id="Group_229" transform="translate(-683 -2235)"><g id="Group_181" transform="translate(683 2247)" opacity=".38"><path id="Path_309" class="st1" d="M294.3 238.1H25.1C11.3 238.1 0 226.8 0 213c0-13.9 11.3-25.1 25.1-25.1h269.2c13.9 0 25.1 11.3 25.1 25.1.1 13.8-11.2 25.1-25.1 25.1z"/><path id="Path_310" class="st1" d="M556.1 266.2H286.9c-13.9 0-25.1-11.3-25.1-25.1 0-13.9 11.3-25.1 25.1-25.1h269.2c13.9 0 25.1 11.3 25.1 25.1s-11.2 25.1-25.1 25.1z"/><circle id="Ellipse_31" class="st1" cx="247" cy="115.4" r="115.4"/><circle id="Ellipse_32" class="st1" cx="405.2" cy="186.3" r="69.5"/><circle id="Ellipse_33" class="st1" cx="465.9" cy="297.3" r="51.8"/><circle id="Ellipse_34" class="st1" cx="147.9" cy="272.1" r="68"/></g><g id="XMLID_2_" transform="translate(825.87 2234.6)"><g id="Group_180" transform="translate(.2 .4)"><path id="Path_293" d="M278 245c7.9 23.7 16.5 58.6 13.1 89.9l-.2 2.8-52.7-1.7-.1-.6-49.4.2H0l14.8-54.5c.7-2.8 18.6-69.6 24.8-82 5.5-10.8 17-14.4 21.9-15.3.4-1.8.7-3.3.9-3.9l.4-1.6 41.2-17.5 8.5-4.3.6-3.5 8.1-9.9.7.6-2.7-15.6c-3-3.9-5.5-8.2-7.3-12.8-4.7-1.5-11.7-6.4-12.9-17.5-1.1-10.2 2.3-15.6 5.1-18l-.2.1-9.4-26.3v-.4c0-.5-2.8-49.7 41.2-53.4l.9-.1.7.4c5.5 2.7 14.4 6.6 17 6.6 5.1 0 31.6 3.4 35.3 19.7 2.7 12.3 1.9 38.3 1.7 45.6 1.4.2 2.7.9 3.6 1.9 3.2 3.2 6.9 15.8 4.3 23.8-1.1 3.4-3.7 6-7.1 7.1-1.7 5.7-3.9 11.3-6.7 16.5.7 4 2.3 13.6 3.6 22.3 2.1 1.2 3.9 2.8 5.4 4.7 3.4 0 11.3.5 13.4 4.7 3 6.5 4.8 13.4 5.2 20.6l5.4-8 24.2 10.6-2.8 9.9c4 1.1 10.6 3.3 15.1 7.9 3.9 3.7 14.5 25.1 23.1 51zm7.4 86.5c4.6-56.3-28.9-127.4-34.8-133.3-4-4.1-10.7-6-13.6-6.6-1.2 6-5 12.9-6 14.7-1.1 4.4-10.8 39.4-26.1 47.9-1.3.7-2.6 1.2-4 1.6l14.2 6-15.2 42.7c4.5 16.5 6 22.6 6.4 25.1l30-.1c-2.9-12.3-9.6-46.2-1.8-67.4l5.7 2.1c-7.7 20.7.4 56.9 2.6 66l42.6 1.3zm-50.8-149.1l.9-2.8-14.7-6.4-1.1 1.7c3.7 1.1 10.9 3.6 14.9 7.5zm-9 21.2c1.6-2.8 5.7-11.1 5.7-15.4 0-1.5-5.6-5.2-14-7.7-4 1.3-12.4 11.6-20.1 31.7l-.2.4c-3.3 5.8-11.1 23-7.5 32 1 2.6 3.2 4.5 5.8 5.1 2.2.7 4.6.4 6.6-.9 11.4-6.3 20.7-34.3 23.3-44.6l.1-.4.3-.2zM213.2 176c.1-.1.1-.1.2-.1l-.2-.1v.2zm-19.5 127.9l13.7-38.7-29.3-12.3-8 76.6h14.5l9-25.3c0-.1 0-.2-.1-.2l.2-.1zm10.6-119.1c6.1-8.5.7-24.1-1.7-29.1-.5-.5-2.3-1-4.4-1.2 4.6 11.1 4.6 26.3 4.3 33.3.6-.9 1.2-1.9 1.8-3zM191 329.6h9.2c-.7-2.8-2.2-8.5-3.9-15l-5.3 15zm7.6-134.9l-24-8.8c-4.7 6.8-10.8 15.4-18.7 26.4l-2.8 23.3L185 249c-.4-.7-.8-1.4-1.1-2.2-5.1-12.9 6.4-34.5 7.8-37 .9-2.3 3.5-8.5 6.9-15.1zm-2.2-7.3c.5-9.6-.1-25.5-5.6-34.1.4 2.9.7 5 .7 5.7s0 2.6-13.1 21.8l18 6.6zm-2.9-91.5c2.2-6-1.3-16.2-2.7-17.6l-.1-.1c-.5.3-1 .7-1.3 1.2l-3.5 5.1-1.9-5.8-10.2-32.5-23.3-8.3c-5.7 2.7-16.4 2.8-18.7 2.8-11.7 0-18.5 10.5-19.9 13.1v28.9l-1.8.7c-.4.2-5.5 2.8-4.3 13.7 1.2 11.2 9.4 12.6 9.7 12.6l1.9.4.5 1.9c1.2 4.7 12.3 28.3 36.8 26.9 23.6-1.3 32.5-37.2 32.6-37.6l.5-2.1 1.8-.2c1.7 0 3.3-1.3 3.9-3.1zm-7.9-32.1c.2-10.7.1-27.4-1.7-36-2.4-11.1-24-15-29.3-15-4.6 0-15.4-5.1-19-6.8-15.4 1.6-26 9.7-31.4 24.3-2.4 7.1-3.6 14.5-3.5 22l4.7 13.3V52.3l.4-.6c.4-.7 8.8-17 25.8-17 5.4 0 14.1-.7 16.8-2.6l1.2-.9 28.9 10.2 7.1 22.4zm-.4 94.9c-.2-2.9-2.6-17.4-4.5-29.6-7.2 10-16.1 15.4-26 16.1-.8.1-1.7.1-2.6.1-9.2.1-18.1-3.2-25.2-9.1l8.9 50.7 16.9 19.5c15.1-21.1 30.8-43.8 32.5-47.7zM164 329.6l8.3-79-4.7-1.9-.1.2-94.7-24.6-13 105.3H164zm-14.2-117.4l-19.7-22.6-1.5-8.8-22.9 13.3 5.5-30-3.3 1.6-10 47.2.5.1.4.1 48.4 20.3 2.6-21.2zm-62.6 9.5l43.4 11.2-33.7-14.1-6.9-1.1-2.8 4zm40.7-45.1l-4.6-26-4.4 5.2-4.9 26.5 12.8-7.4 1.1 1.7zm-35.8 35.2l9.1-43.2-33.1 14c-1.2 5.6-2.7 13-2.7 14.7 0 .6-.1 1.7-.5 4.5-3 24.6-2.4 36.7-1 42.8l3.5-28.1 13.5 3.5 6.1-9.1 5.1.9zM53.5 329.6l9.2-75c-8.3-6.8-6.7-30.6-3.9-53.4.2-1.7.4-3.4.4-3.8.2-2.4.5-4.7 1-7.1-4.6 1.3-11.7 4.5-15.2 11.4-6 11.9-24.2 80.1-24.3 80.9L8 329.6h45.5z" fill="#193967"/><path id="Path_294" class="st3" d="M250.6 198.2c5.8 6 39.4 77 34.8 133.3l-42.4-1.3c-2.2-9.2-10.2-45.4-2.6-66l-5.7-2.1c-7.8 21.2-1 55.1 1.8 67.4l-30 .1c-.5-2.4-1.9-8.5-6.4-25.1l15.2-42.7-14.2-6c1.4-.4 2.7-.9 4-1.6 15.3-8.5 25.1-43.7 26.1-47.9 1-1.8 4.7-8.8 6-14.7 2.8.7 9.4 2.5 13.4 6.6z"/><path id="Path_295" d="M231.4 188.2c0 4.4-4.1 12.5-5.7 15.4l-.2.4-.1.4c-2.7 10.2-11.9 38.2-23.3 44.6-2 1.2-4.4 1.5-6.6.9-2.7-.6-4.9-2.5-5.8-5.1-3.5-8.9 4.3-26.1 7.5-32l.2-.4c7.7-20.2 16.2-30.4 20.1-31.7 8.3 2.3 13.9 6 13.9 7.5z" fill="#268ad6"/><path id="Path_296" class="st5" d="M207.6 265.1l-13.7 38.7-.2.1c0 .1 0 .1.1.2l-9 25.3h-14.5l8-76.6 29.3 12.3z"/><path id="Path_297" class="st3" d="M202.6 155.9c2.4 5 7.8 20.4 1.7 29.1l.1.1c-.7 1-1.4 2-1.9 3 .4-7.1.5-22.3-4.3-33.3 1.5 0 3 .4 4.4 1.1z"/><path id="Path_298" class="st5" d="M174.6 185.9l24 8.8c-2.6 5-4.8 10.1-6.8 15.3-1.3 2.4-13 24.1-7.8 37 .3.8.7 1.5 1.1 2.2l-31.9-13.4 2.8-23.3c7.8-11 13.9-19.8 18.6-26.6z"/><path id="Path_299" class="st5" d="M190.7 153.3c5.5 8.5 6.1 24.4 5.6 34.1l-18.1-6.6c13.1-19.2 13.1-20.9 13.1-21.8 0-1.9-.2-3.8-.6-5.7z"/><path id="Path_300" class="st5" d="M190.8 78.2c1.3 1.5 4.9 11.7 2.7 17.6-.5 1.9-2.1 3.2-4 3.3l-2.1.2-.5 2.1c-.1.4-9 36.2-32.6 37.6-24.4 1.6-35.6-22.1-36.7-26.8l-.5-1.9-1.9-.4c-.4 0-8.5-1.5-9.7-12.6-1.2-10.9 3.9-13.6 4.3-13.7l1.8-.7v-29c1.5-2.7 8.3-13.1 19.9-13.1 2.3 0 13-.1 18.7-2.8l23.3 8.3 10.3 32.3 1.9 5.8 3.5-5.1c.3-.5.8-.9 1.3-1.2.2 0 .2.1.3.1z"/><path id="Path_301" class="st6" d="M183.9 27.7c1.9 8.6 1.9 25.3 1.7 36l-7.1-22.3-28.9-10.2-1.2.9c-2.7 1.8-11.4 2.6-16.8 2.6-17 0-25.4 16.3-25.8 17l-.4.6v13.4l-4.7-13.3c-.2-7.5 1-15 3.5-22.1C109.6 15.7 120 7.5 135.6 6c3.5 1.7 14.4 6.8 19 6.8 5.2.1 26.7 4 29.3 14.9z"/><path id="Path_302" d="M180.7 129.1c1.9 12.2 4.3 26.6 4.5 29.6-1.7 4-17.5 26.6-32.5 47.7l-16.9-19.5-8.9-50.7c7.1 5.9 16 9.1 25.2 9.1.9 0 1.7 0 2.6-.1 10-.6 18.8-6.1 26-16.1z" fill="#e2e9f2"/><path id="Path_303" class="st6" d="M172.4 250.4l-8.4 79.2H59.7l13-105.3 94.9 24.4.1-.2 4.7 1.9z"/><path id="Path_304" class="st5" d="M130.2 189.6l19.6 22.6-2.4 21.2-48.5-20.3-.2-.1-.6-.1 10.1-47.1 3.2-1.7-5.5 30.2 22.9-13.4 1.4 8.7z"/><path id="Path_305" class="st5" d="M130.6 232.9l-43.4-11.2 2.8-4 6.9 1.1 33.7 14.1z"/><path id="Path_306" class="st5" d="M123.3 150.5l4.6 26-1-1.7-12.8 7.4 4.9-26.5 4.3-5.2z"/><path id="Path_307" class="st3" d="M101.2 168.7l-9.1 43.2-5-.9-6.1 9.1-13.5-3.5-3.5 28.1c-1.5-6.1-2.1-18.2 1-42.8.2-1.5.4-3 .5-4.5 0-1.7 1.5-9.1 2.7-14.7l33-14z"/><path id="Path_308" class="st3" d="M62.7 254.5l-9.2 75H8l12.8-46.8c.1-.7 18.4-69 24.3-80.9 3.5-6.9 10.6-10.1 15.2-11.4-.5 2.3-.8 4.7-1 7.1 0 .4-.2 2.1-.4 3.8-2.7 22.6-4.4 46.4 3.8 53.2z"/></g></g><g id="Group_182" transform="translate(1062 2293)"><path id="Path_311" class="st8" d="M6.3 40.6s5.6 5.1 11.7 5.1c2.5 0 5.1-1 5.1-3.9 0-5.5-22.3-6-22.3-20.7C.9 13.4 6.4 7.9 14 6.4V0h7.5v6.2c8.4 1 12.5 5.3 12.5 5.3l-5.1 9.8S24 17 18.1 17c-2.5 0-5.2 1.1-5.2 3.8 0 5.8 22.3 5.4 22.3 20.6 0 7.3-4.9 13.6-13.7 14.9v6.2H14v-6.2c-5.3-.7-10.2-3-14-6.7l6.3-9z"/></g><g id="Group_186" transform="translate(857 2309)"><path id="Path_311-2" class="st8" d="M8.1 52.5s7.2 6.6 15.1 6.6c3.2 0 6.6-1.3 6.6-5C29.9 47 1 46.3 1 27.3c.1-10 7.2-17.1 17.1-19V0h9.7v8C38.7 9.3 44 14.9 44 14.9l-6.6 12.7s-6.3-5.6-14-5.6c-3.2 0-6.7 1.4-6.7 4.9 0 7.5 28.8 7 28.8 26.6 0 9.4-6.3 17.6-17.7 19.3v8h-9.7v-8C11.3 71.9 5 68.9 0 64.2l8.1-11.7z"/></g><g id="Group_183" transform="translate(1118 2364)"><path id="Path_311-3" class="st8" d="M3.7 23.9s3.3 3 6.9 3c1.5 0 3-.6 3-2.3C13.6 21.4.5 21.1.5 12.4c.1-4.5 3.3-7.8 7.8-8.7V0h4.4v3.7C15.4 3.9 18 5 20 6.8l-3 5.8c-1.8-1.5-4-2.4-6.4-2.5-1.5 0-3.1.6-3.1 2.2 0 3.4 13.1 3.2 13.1 12.1 0 4.3-2.9 8-8.1 8.8v3.7H8.3v-3.7c-3.1-.4-6-1.8-8.3-4l3.7-5.3z"/></g><g id="Group_184" transform="translate(880 2247)"><path id="Path_311-4" class="st8" d="M2.5 15.8a8.7 8.7 0 0 0 4.6 2c1 0 2-.4 2-1.5C9.1 14.2.4 14 .4 8.2c.1-2.9 2.3-5.3 5.1-5.7V0h2.9v2.4c1.8.1 3.5.9 4.9 2.1l-2 3.8c-1.2-1-2.7-1.6-4.2-1.7-1 0-2 .4-2 1.5 0 2.3 8.7 2.1 8.7 8 0 3-2.3 5.6-5.3 5.8v2.4h-3v-2.4c-2-.3-4-1.2-5.5-2.6l2.5-3.5z"/></g><g id="Group_185" transform="translate(789 2406)"><path id="Path_311-5" class="st8" d="M3.7 23.9s3.3 3 6.9 3c1.5 0 3-.6 3-2.3C13.6 21.4.5 21.1.5 12.4c.1-4.5 3.3-7.8 7.8-8.7V0h4.4v3.7C15.4 3.9 18 5 20 6.8l-3 5.8c-1.8-1.5-4-2.4-6.4-2.5-1.5 0-3.1.6-3.1 2.2 0 3.4 13.1 3.2 13.1 12.1 0 4.3-2.9 8-8.1 8.8v3.7H8.3v-3.7c-3.1-.4-6-1.8-8.3-4l3.7-5.3z"/></g><g id="Group_187" transform="translate(1156 2482)"><path id="Path_311-6" class="st8" d="M3.7 23.9s3.3 3 6.9 3c1.5 0 3-.6 3-2.3C13.6 21.4.5 21.1.5 12.4c.1-4.5 3.3-7.8 7.8-8.7V0h4.4v3.7C15.4 3.9 18 5 20 6.8l-3 5.8c-1.8-1.5-4-2.4-6.4-2.5-1.5 0-3.1.6-3.1 2.2 0 3.4 13.1 3.2 13.1 12.1 0 4.3-2.9 8-8.1 8.8v3.7H8.3v-3.7c-3.1-.4-6-1.8-8.3-4l3.7-5.3z"/></g></g></svg>