<svg width="358" height="376" viewBox="0 0 358 376" fill="none" xmlns="http://www.w3.org/2000/svg">
<g clip-path="url(#clip0)">
<path opacity="0.65" d="M325.419 305.278C325.56 295.912 318.071 288.414 311.135 282.123C296.287 268.657 280.324 254.626 260.594 251.126C245.047 248.368 229.202 252.563 213.97 256.725L135.181 278.25L4.57568 313.93L2.16779 318.344C0.243153 328.937 6.53164 328.892 15.1216 335.376C23.7115 341.86 34.535 344.623 45.1904 346.123C55.8459 347.622 66.6819 348.016 77.1579 350.475C97.1975 355.175 115.018 367.213 135.213 371.179C156.113 375.282 177.613 370.41 198.352 365.559C204.208 364.189 210.08 362.813 215.946 361.392C238.908 377.733 270.638 380.871 296.332 369.295C303.256 366.175 310.62 360.452 309.921 352.885C309.367 346.899 303.904 342.65 298.572 339.874C296.235 338.665 293.831 337.592 291.37 336.661C296.567 334.19 301.668 331.509 306.671 328.619C315.71 323.363 325.261 315.733 325.419 305.278Z" fill="#EBEBEB"/>
<path d="M6.75082 188.841V198.382L105.33 236.584L345.039 167.321L343.451 159.393L6.75082 188.841Z" fill="#BD9675"/>
<path d="M6.82162 188.53L104.851 227.278L343.448 159.397L255.182 124.425L6.82162 188.53Z" fill="#F1C9A7"/>
<g opacity="0.32">
<path opacity="0.32" d="M22.3859 205.498C21.0395 200.484 24.0256 195.17 28.1098 191.972C32.1939 188.774 37.2424 187.137 41.9914 185.046C46.7404 182.955 51.506 180.119 53.9223 175.527" stroke="#96775E" stroke-width="0.05" stroke-miterlimit="10"/>
<path opacity="0.32" d="M36.1956 209.979C41.7085 206.225 47.8311 203.484 53.7459 200.402C59.6607 197.32 65.4858 193.809 69.9561 188.857C74.4264 183.906 77.4303 177.3 76.7988 170.657" stroke="#96775E" stroke-miterlimit="10"/>
<path opacity="0.32" d="M49.6753 216.178C62.5038 199.852 80.5813 188.505 99.0616 179.054C117.542 169.603 136.869 161.675 154.354 150.486" stroke="#96775E" stroke-miterlimit="10"/>
<path opacity="0.32" d="M263.156 128.864C253.225 142.578 236.408 149.522 219.912 153.316C203.416 157.111 186.293 158.462 170.376 164.221C157.615 168.839 145.907 176.199 132.873 179.974C120.005 183.702 106.127 183.849 93.8262 189.166C86.947 192.198 80.8302 196.727 75.9214 202.424C71.0125 208.121 67.4353 214.842 65.4503 222.097" stroke="#96775E" stroke-miterlimit="10"/>
<path opacity="0.32" d="M78.4855 225.218C76.7237 208.941 89.3403 192.422 105.497 189.846C118.324 187.802 131.173 193.573 144.157 193.282C155.032 193.036 165.371 188.551 174.843 183.191C184.315 177.831 193.265 171.51 203.182 167.038C216.513 161.027 231.108 158.561 245.277 154.951C260.874 150.975 276.072 145.572 290.679 138.81" stroke="#96775E" stroke-miterlimit="10"/>
<path opacity="0.32" d="M297.99 142.014C295.826 149.548 287.103 152.87 279.39 154.24C259.475 157.779 238.433 155.66 219.492 162.759C199.481 170.259 184.307 187.149 164.851 195.991C151.246 202.174 136.178 204.146 121.715 207.898C107.252 211.649 92.5143 217.796 83.5935 229.79" stroke="#96775E" stroke-miterlimit="10"/>
<path opacity="0.32" d="M163.732 148.353L149.719 160.286C148.445 161.371 147.039 162.822 147.417 164.453C147.883 166.461 150.563 166.883 152.602 166.584C162.153 165.183 169.6 157.797 178.389 153.802C189.861 148.588 203.059 149.367 215.388 146.765C230.363 143.605 245.475 136.263 255.183 124.423" stroke="#96775E" stroke-miterlimit="10"/>
<path opacity="0.32" d="M143.426 186.263C148.375 188.398 154.203 187.406 159.048 185.045C163.893 182.685 168.002 179.084 172.245 175.758C176.488 172.433 181.067 169.282 186.318 168.067C187.488 167.797 189.038 167.108 188.718 165.95C188.602 165.68 188.426 165.44 188.203 165.249C187.981 165.057 187.717 164.92 187.432 164.847C184.405 163.698 181.01 164.422 177.904 165.344C167.868 168.325 158.508 173.218 149.435 178.446C148.114 179.208 146.59 180.64 147.33 181.968C147.967 183.117 149.652 182.926 150.904 182.535C156.178 180.887 161.189 178.49 165.782 175.417" stroke="#96775E" stroke-width="0.05" stroke-miterlimit="10"/>
<path opacity="0.32" d="M123.398 232.03C124.629 222.672 132.905 215.663 141.677 212.197C150.45 208.73 160.018 207.881 169.083 205.279C193.942 198.143 213.378 178.437 237.57 169.292C263.079 159.646 292.679 162.19 316.372 148.678" stroke="#96775E" stroke-miterlimit="10"/>
<path opacity="0.32" d="M207.343 208.817C207.285 203.861 209.71 199.114 213.11 195.511C216.511 191.907 220.829 189.31 225.218 187.013C249.992 174.043 278.117 169.406 305.559 164.046C314.249 162.349 323.341 160.365 330.031 154.563" stroke="#96775E" stroke-width="0.05" stroke-miterlimit="10"/>
<path opacity="0.32" d="M237.145 197.964C243.034 190.554 250.38 184.433 258.728 179.977C267.076 175.522 276.249 172.828 285.679 172.062C294.465 171.399 303.294 172.442 312.102 172.191C320.91 171.941 330.068 170.224 337.017 164.803" stroke="#96775E" stroke-width="0.05" stroke-miterlimit="10"/>
</g>
<path opacity="0.33" d="M230.816 147.021C230.006 147.394 229.29 147.945 228.723 148.633C228.156 149.322 227.752 150.129 227.541 150.996C227.33 151.863 227.318 152.766 227.506 153.639C227.693 154.511 228.076 155.329 228.624 156.033C228.753 156.185 228.917 156.313 229.042 156.483C231.761 160.192 238.372 167.007 240.121 166.941C243.257 166.822 247.701 161.823 247.66 160.661C247.618 159.498 241.673 151.032 238.446 148.017C236.614 146.303 234.206 145.365 230.816 147.021Z" fill="#383838"/>
<path d="M232.935 145C232.125 145.373 231.41 145.924 230.843 146.612C230.276 147.3 229.872 148.108 229.661 148.975C229.45 149.842 229.438 150.745 229.625 151.617C229.813 152.489 230.195 153.307 230.743 154.011C230.872 154.163 231.037 154.292 231.16 154.461C233.879 158.171 240.491 164.986 242.241 164.92C245.372 164.801 249.82 159.802 249.779 158.64C249.737 157.477 243.792 149.011 240.564 145.996C238.734 144.282 236.325 143.344 232.935 145Z" fill="#EDEDED"/>
<path d="M234.219 147.335C234.496 147.178 234.813 147.106 235.131 147.127C235.449 147.148 235.753 147.262 236.008 147.454C236.51 147.846 236.929 148.334 237.24 148.89C237.399 149.086 237.491 149.329 237.502 149.582C237.484 149.833 237.216 150.074 236.99 149.965C236.918 149.925 236.856 149.869 236.807 149.803C236.033 148.884 235.033 148.236 234.254 147.313" fill="#CECCD6"/>
<path d="M249.652 158.053C250.279 160.89 247.222 163.532 244.511 164.57C243.263 165.109 241.856 165.147 240.581 164.675C239.812 164.288 239.112 163.776 238.51 163.159C236.28 161.206 234.183 159.105 232.234 156.871C231.02 155.563 230.141 153.98 229.674 152.257C229.455 151.222 229.49 150.149 229.776 149.13C230.062 148.111 230.59 147.176 231.315 146.405C232.04 145.635 232.941 145.052 233.941 144.706C234.94 144.36 236.009 144.261 237.055 144.418C237.055 144.418 238.883 143.923 241.317 146.738C244.314 150.344 247.097 154.122 249.652 158.053V158.053Z" stroke="#CECCD6" stroke-width="0.05" stroke-miterlimit="10"/>
<path d="M249.237 223.985L311.811 248.479L303.345 231.435L249.236 210.726L243.11 222.926L249.237 223.985Z" fill="#87654E"/>
<path d="M274.407 172.468L328.233 324.489L341.61 322.371L290.323 176.822L274.407 172.468Z" fill="#A37B5D"/>
<path d="M266.744 169.499L207.252 272.127H221.664L276.743 179.067L274.405 172.464L266.744 169.499Z" fill="#87654E"/>
<path opacity="0.33" d="M138.803 181.465C149.316 178.178 208.14 158.46 215.391 156.028C215.606 155.956 215.839 155.953 216.057 156.019C216.274 156.086 216.466 156.218 216.605 156.398L232.913 177.266C233.022 177.405 233.095 177.568 233.128 177.742C233.161 177.915 233.152 178.094 233.102 178.263C233.051 178.433 232.961 178.587 232.839 178.715C232.716 178.842 232.565 178.938 232.398 178.995L157.092 204.646C156.88 204.719 156.652 204.725 156.437 204.664C156.222 204.604 156.03 204.48 155.886 204.308L138.291 183.228C138.174 183.089 138.093 182.924 138.055 182.746C138.017 182.568 138.024 182.384 138.075 182.209C138.125 182.035 138.218 181.875 138.345 181.745C138.472 181.616 138.629 181.519 138.803 181.465Z" fill="#383838"/>
<path d="M137.872 178.855V180.148C137.871 180.399 137.961 180.642 138.124 180.832L156.552 202.404C156.69 202.566 156.873 202.682 157.078 202.738C157.283 202.794 157.5 202.787 157.701 202.717L233.832 176.492C234.04 176.421 234.22 176.287 234.347 176.108C234.474 175.929 234.542 175.715 234.542 175.496C234.542 174.9 234.542 174.404 234.195 174.333L138.892 177.803C138.619 177.811 138.36 177.926 138.169 178.122C137.979 178.318 137.872 178.581 137.872 178.855Z" fill="#CECCD6"/>
<path d="M137.872 177.839C138.818 177.849 216.788 151.693 216.788 151.693L234.537 174.403L157.039 200.802L137.872 177.839Z" fill="#EDEDED"/>
<path d="M143.278 178.712L144.437 179.973L148.593 178.407L147.724 177.204L143.278 178.712Z" fill="#CECCD6"/>
<path d="M149.362 176.429L150.547 177.666L154.671 176.014L153.776 174.828L149.362 176.429Z" fill="#CECCD6"/>
<path d="M155.899 174.281L157.084 175.519L161.207 173.866L160.313 172.68L155.899 174.281Z" fill="#CECCD6"/>
<path d="M162.436 172.138L163.621 173.376L167.744 171.723L166.85 170.538L162.436 172.138Z" fill="#CECCD6"/>
<path d="M168.973 169.994L170.157 171.231L174.281 169.579L173.387 168.394L168.973 169.994Z" fill="#CECCD6"/>
<path d="M175.51 167.848L176.694 169.086L180.818 167.434L179.924 166.248L175.51 167.848Z" fill="#CECCD6"/>
<path d="M182.044 165.703L183.229 166.941L187.353 165.289L186.458 164.103L182.044 165.703Z" fill="#CECCD6"/>
<path d="M188.583 163.559L189.768 164.797L193.892 163.144L192.998 161.959L188.583 163.559Z" fill="#CECCD6"/>
<path d="M195.12 161.414L196.305 162.651L200.429 160.999L199.534 159.814L195.12 161.414Z" fill="#CECCD6"/>
<path d="M201.657 159.268L202.842 160.506L206.966 158.854L206.071 157.668L201.657 159.268Z" fill="#CECCD6"/>
<path d="M208.194 157.124L209.379 158.362L213.503 156.709L212.608 155.524L208.194 157.124Z" fill="#CECCD6"/>
<path d="M152.118 183.655L148.544 185.23L146.476 182.392L150.008 180.954L152.118 183.655Z" fill="#CECCD6"/>
<path d="M157.835 181.377L154.261 182.952L152.194 180.114L155.726 178.676L157.835 181.377Z" fill="#CECCD6"/>
<path d="M164.287 179.615L160.654 181.048L158.699 178.131L162.284 176.833L164.287 179.615Z" fill="#CECCD6"/>
<path d="M170.091 177.563L166.457 178.996L164.503 176.079L168.088 174.78L170.091 177.563Z" fill="#CECCD6"/>
<path d="M175.894 175.511L172.261 176.943L170.306 174.026L173.891 172.728L175.894 175.511Z" fill="#CECCD6"/>
<path d="M181.696 173.458L178.063 174.891L176.108 171.974L179.693 170.676L181.696 173.458Z" fill="#CECCD6"/>
<path d="M187.499 171.406L183.866 172.839L181.911 169.922L185.496 168.623L187.499 171.406Z" fill="#CECCD6"/>
<path d="M193.301 169.354L189.668 170.788L187.713 167.87L191.298 166.572L193.301 169.354Z" fill="#CECCD6"/>
<path d="M199.822 167.278L196.189 168.711L194.234 165.794L197.819 164.496L199.822 167.278Z" fill="#CECCD6"/>
<path d="M206.344 165.202L202.71 166.636L200.755 163.719L204.341 162.421L206.344 165.202Z" fill="#CECCD6"/>
<path d="M212.864 163.126L209.231 164.559L207.276 161.641L210.861 160.343L212.864 163.126Z" fill="#CECCD6"/>
<path d="M219.385 161.049L215.757 162.479L213.802 159.562L217.387 158.264L219.385 161.049Z" fill="#CECCD6"/>
<path d="M155.391 187.409L151.817 188.984L149.749 186.146L153.281 184.708L155.391 187.409Z" fill="#CECCD6"/>
<path d="M161.109 185.13L157.536 186.705L155.468 183.867L159 182.429L161.109 185.13Z" fill="#CECCD6"/>
<path d="M167.562 183.368L163.928 184.801L161.974 181.884L165.559 180.585L167.562 183.368Z" fill="#CECCD6"/>
<path d="M173.365 181.317L169.732 182.75L167.777 179.832L171.362 178.534L173.365 181.317Z" fill="#CECCD6"/>
<path d="M179.167 179.264L175.534 180.697L173.579 177.78L177.164 176.482L179.167 179.264Z" fill="#CECCD6"/>
<path d="M184.967 177.212L181.334 178.645L179.379 175.728L182.964 174.43L184.967 177.212Z" fill="#CECCD6"/>
<path d="M190.773 175.16L187.14 176.593L185.185 173.675L188.77 172.377L190.773 175.16Z" fill="#CECCD6"/>
<path d="M196.575 173.107L192.942 174.541L190.987 171.624L194.572 170.326L196.575 173.107Z" fill="#CECCD6"/>
<path d="M203.097 171.031L199.463 172.464L197.508 169.547L201.094 168.248L203.097 171.031Z" fill="#CECCD6"/>
<path d="M209.618 168.955L205.985 170.388L204.03 167.47L207.615 166.172L209.618 168.955Z" fill="#CECCD6"/>
<path d="M216.138 166.878L212.505 168.311L210.55 165.394L214.135 164.096L216.138 166.878Z" fill="#CECCD6"/>
<path d="M222.659 164.802L219.026 166.235L217.071 163.318L220.656 162.019L222.659 164.802Z" fill="#CECCD6"/>
<path d="M158.939 191.505L155.366 193.08L153.298 190.242L156.83 188.804L158.939 191.505Z" fill="#CECCD6"/>
<path d="M164.657 189.227L161.083 190.802L159.016 187.964L162.548 186.526L164.657 189.227Z" fill="#CECCD6"/>
<path d="M171.109 187.465L167.476 188.898L165.522 185.979L169.107 184.681L171.109 187.465Z" fill="#CECCD6"/>
<path d="M176.912 185.413L173.279 186.846L171.324 183.929L174.91 182.63L176.912 185.413Z" fill="#CECCD6"/>
<path d="M182.716 183.361L179.082 184.794L177.127 181.876L180.713 180.578L182.716 183.361Z" fill="#CECCD6"/>
<path d="M188.516 181.308L184.882 182.741L182.927 179.824L186.513 178.526L188.516 181.308Z" fill="#CECCD6"/>
<path d="M194.321 179.256L190.688 180.689L188.733 177.772L192.318 176.474L194.321 179.256Z" fill="#CECCD6"/>
<path d="M200.124 177.206L196.491 178.639L194.536 175.722L198.121 174.423L200.124 177.206Z" fill="#CECCD6"/>
<path d="M206.644 175.128L203.011 176.561L201.056 173.644L204.641 172.346L206.644 175.128Z" fill="#CECCD6"/>
<path d="M213.165 173.052L209.532 174.485L207.577 171.566L211.163 170.267L213.165 173.052Z" fill="#CECCD6"/>
<path d="M219.686 170.976L216.052 172.409L214.098 169.491L217.683 168.193L219.686 170.976Z" fill="#CECCD6"/>
<path d="M226.207 168.899L222.574 170.332L220.619 167.415L224.204 166.117L226.207 168.899Z" fill="#CECCD6"/>
<path d="M162.138 195.567L158.565 197.142L156.497 194.304L160.029 192.866L162.138 195.567Z" fill="#CECCD6"/>
<path d="M167.856 193.29L164.282 194.865L162.214 192.026L165.746 190.588L167.856 193.29Z" fill="#CECCD6"/>
<path d="M174.309 191.527L170.676 192.96L168.721 190.043L172.306 188.745L174.309 191.527Z" fill="#CECCD6"/>
<path d="M180.113 189.475L176.479 190.908L174.524 187.991L178.11 186.692L180.113 189.475Z" fill="#CECCD6"/>
<path d="M185.915 187.422L182.281 188.855L180.327 185.938L183.912 184.64L185.915 187.422Z" fill="#CECCD6"/>
<path d="M191.718 185.37L188.085 186.803L186.13 183.886L189.715 182.588L191.718 185.37Z" fill="#CECCD6"/>
<path d="M197.52 183.319L193.887 184.752L191.932 181.835L195.517 180.536L197.52 183.319Z" fill="#CECCD6"/>
<path d="M203.323 181.266L199.69 182.699L197.735 179.782L201.32 178.484L203.323 181.266Z" fill="#CECCD6"/>
<path d="M209.844 179.19L206.211 180.623L204.256 177.706L207.841 176.408L209.844 179.19Z" fill="#CECCD6"/>
<path d="M216.365 177.114L212.731 178.547L210.776 175.63L214.362 174.331L216.365 177.114Z" fill="#CECCD6"/>
<path d="M222.886 175.037L219.253 176.47L217.298 173.553L220.883 172.255L222.886 175.037Z" fill="#CECCD6"/>
<path d="M229.406 172.961L225.773 174.394L223.818 171.477L227.403 170.179L229.406 172.961Z" fill="#CECCD6"/>
<path d="M216.788 151.693L137.872 177.839V180.536C137.872 180.536 156.798 202.666 157.47 202.949C157.47 202.949 159.745 202.009 161.109 201.54L233.827 176.491" stroke="#A3A3A3" stroke-width="0.05" stroke-miterlimit="10"/>
<path d="M138.181 177.35L156.863 199.624" stroke="#A3A3A3" stroke-width="0.05" stroke-miterlimit="10"/>
<path d="M66.5483 197.142C71.2301 197.142 75.0255 196.185 75.0255 195.004C75.0255 193.823 71.2301 192.866 66.5483 192.866C61.8665 192.866 58.0711 193.823 58.0711 195.004C58.0711 196.185 61.8665 197.142 66.5483 197.142Z" fill="#BD9675"/>
<path d="M129.82 148.506C131.131 149.616 132.124 151.054 132.698 152.673C133.272 154.292 133.407 156.034 133.089 157.722C132.771 159.411 132.011 160.984 130.886 162.283C129.762 163.581 128.314 164.558 126.689 165.113C123.716 166.129 120.472 165.65 117.347 165.332C106.717 164.255 95.6162 165.29 86.113 170.172C76.6099 175.055 68.9447 186.542 67.5972 197.146" stroke="#1D2542" stroke-miterlimit="10"/>
<path d="M42.4256 273.174L104.999 297.668L96.5337 280.624L42.4256 259.915L36.2999 272.115L42.4256 273.174Z" fill="#87654E"/>
<path d="M67.5973 221.658L121.422 373.678L134.8 371.56L84.2469 228.113L67.5973 221.658Z" fill="#A37B5D"/>
<path d="M59.9342 218.688L0.441467 321.316H14.8554L69.9352 228.256L67.5973 221.653L59.9342 218.688Z" fill="#87654E"/>
<path d="M103.019 190.45C103.019 190.45 87.8634 195.379 90.7827 201.301C93.702 207.223 105.309 208.085 113.31 206.992C121.797 205.834 131.177 200.732 128.078 193.527C124.98 186.323 103.019 190.45 103.019 190.45Z" fill="#D2D6FF"/>
<path d="M93.7145 180.92L100.072 197.472C100.794 198.546 101.726 199.462 102.812 200.165C105.535 201.102 108.45 201.339 111.289 200.854C114.128 200.37 116.799 199.179 119.058 197.392L120.357 178.075C120.368 177.016 120.107 175.972 119.597 175.044C119.088 174.116 118.348 173.335 117.449 172.777C114.538 171.002 109.337 169.249 101.352 171.351C92.8253 173.596 93.7145 180.92 93.7145 180.92Z" fill="#B1B5F5"/>
<path d="M120.171 178.55C120.897 178.086 121.748 177.855 122.608 177.889C123.469 177.924 124.299 178.221 124.986 178.741C125.658 179.28 126.189 179.974 126.535 180.764C126.88 181.553 127.029 182.415 126.969 183.275C126.823 185.004 126.068 186.625 124.837 187.846C124.19 188.553 123.376 189.085 122.47 189.395C122.017 189.546 121.537 189.598 121.062 189.548C120.587 189.498 120.129 189.346 119.717 189.104" stroke="#B1B5F5" stroke-miterlimit="10"/>
<path d="M118.377 177.534C117.885 179.037 116.84 180.296 115.454 181.058C114.05 181.765 112.53 182.216 110.966 182.388C106.708 183.021 102.372 182.923 98.1462 182.099C97.2667 181.997 96.432 181.656 95.7331 181.112C95.2587 180.596 94.9574 179.945 94.8713 179.25C94.7852 178.554 94.9187 177.85 95.253 177.234C95.9511 176.014 96.9856 175.02 98.2329 174.373C104.096 170.891 112.715 171.344 117.188 174.244C117.696 174.607 118.081 175.116 118.294 175.704C118.506 176.291 118.535 176.929 118.377 177.534Z" fill="#BD9675"/>
<path d="M95.0203 179.829C94.8197 179.293 94.7552 178.715 94.8326 178.147C94.91 177.579 95.1269 177.04 95.4639 176.577C96.1502 175.66 97.0351 174.91 98.0523 174.383C100.533 172.978 103.29 172.131 106.131 171.902C108.973 171.673 111.83 172.068 114.503 173.059C115.927 173.475 117.156 174.387 117.969 175.629" stroke="#949AD3" stroke-miterlimit="10"/>
<path d="M119.058 197.392C114.675 200.711 109.094 202.443 103.844 200.814C102.969 200.6 102.166 200.157 101.516 199.532C101.057 198.957 100.707 198.302 100.486 197.599C98.1727 191.568 95.8594 185.537 93.5465 179.507C93.5574 177.847 94.0919 176.233 95.0736 174.895C96.0554 173.558 97.4343 172.565 99.0136 172.058C104.754 169.903 113.889 169.64 117.969 173.134C117.969 173.134 120.232 175.328 120.357 177.251C120.482 179.173 119.559 189.926 119.559 189.926L119.058 197.392Z" stroke="#949AD3" stroke-miterlimit="10"/>
<path d="M103.338 186.397L104.011 189.12" stroke="#1D2542" stroke-miterlimit="10" stroke-linecap="round"/>
<path d="M106.325 186.042C106.568 186.935 106.751 187.845 106.871 188.763" stroke="#1D2542" stroke-miterlimit="10" stroke-linecap="round"/>
<path d="M101.26 189.547C101.628 190.546 102.352 191.373 103.292 191.872C104.232 192.371 105.323 192.505 106.356 192.25C107.389 191.995 108.292 191.368 108.892 190.489C109.492 189.609 109.748 188.54 109.61 187.484" stroke="#1D2542" stroke-miterlimit="10" stroke-linecap="round"/>
<path d="M97.9959 191.864C96.5229 192.491 95.1315 193.295 93.8523 194.258C92.5414 195.267 89.7546 197.729 89.7379 199.384C89.7118 202.026 92.1385 204.017 94.5234 205.143C98.9166 207.039 103.676 207.931 108.457 207.755C111.691 207.807 114.915 207.38 118.024 206.49C121.146 205.59 123.962 203.852 126.165 201.463C127.626 199.922 128.522 197.932 128.708 195.817C128.781 194.763 128.555 193.711 128.057 192.781C127.558 191.851 126.807 191.08 125.89 190.559" stroke="#949AD3" stroke-miterlimit="10"/>
<path opacity="0.24" d="M95.1925 179.841C95.2639 178.363 95.9105 176.971 96.994 175.964C98.0734 174.971 99.3458 174.212 100.732 173.734C104.712 172.235 109.073 172.076 113.152 173.283C114.303 173.576 115.378 174.11 116.307 174.849C116.768 175.224 117.14 175.697 117.394 176.233C117.649 176.77 117.78 177.357 117.779 177.951" stroke="#1D2542" stroke-miterlimit="10"/>
<path opacity="0.24" d="M101.462 178.075C100.317 177.527 99.3887 176.611 98.8259 175.473C98.2631 174.335 98.0983 173.04 98.3581 171.797C98.993 169.84 100.244 168.141 101.924 166.954C103.597 165.779 105.095 164.372 106.374 162.777C107.522 161.088 107.956 158.703 106.775 157.032C105.449 155.167 102.697 154.893 101.163 153.197C100.591 152.48 100.207 151.633 100.044 150.731C99.8815 149.829 99.9455 148.9 100.231 148.029C100.82 146.293 101.752 144.694 102.969 143.324C101.866 145.225 102.57 147.763 104.045 149.391C105.636 150.918 107.544 152.074 109.634 152.778C111.72 153.481 113.656 154.573 115.338 155.995C116.876 157.612 117.734 159.758 117.734 161.991C117.734 164.223 116.876 166.37 115.338 167.986C114.714 168.5 114.143 169.074 113.632 169.7C113.381 170.018 113.225 170.401 113.183 170.804C113.141 171.207 113.215 171.614 113.396 171.976C113.719 172.361 114.084 172.708 114.484 173.011C114.963 173.564 115.24 174.263 115.271 174.995C115.302 175.726 115.084 176.446 114.654 177.037C114.204 177.615 113.64 178.092 112.997 178.44C112.354 178.788 111.646 178.999 110.917 179.059C109.461 179.171 107.996 179.079 106.565 178.785" fill="white"/>
<path opacity="0.33" d="M89.5918 200.33C89.2515 203.926 91.6793 207.368 94.8428 209.112C98.0064 210.857 101.753 211.179 105.359 211.047C109.469 210.983 113.525 210.115 117.302 208.493C121.092 206.849 124.246 204.017 126.288 200.424C122.691 204.873 116.911 207.179 111.201 207.511C105.491 207.843 99.8152 206.392 94.4514 204.405C93.3694 204.056 92.3457 203.548 91.4142 202.896C90.9507 202.567 90.5586 202.147 90.2614 201.663C89.9642 201.178 89.768 200.638 89.6847 200.076" fill="#383838"/>
<path d="M134.488 7.34974L140.515 33.371L181.181 26.8297L175.206 0.36554L134.488 7.34974Z" fill="#8080EA"/>
<path d="M149.9 14.3377L151.455 21.8088L150.677 21.9711L149.959 18.5238L145.287 19.4979L146.005 22.9452L145.216 23.1098L143.66 15.6387L144.45 15.4742L145.143 18.8041L149.815 17.83L149.121 14.5001L149.9 14.3377Z" fill="white"/>
<path d="M153.929 14.2102L151.306 14.7573L151.163 14.0742L157.2 12.8154L157.342 13.4985L154.719 14.0456L156.132 20.8336L155.343 20.9982L153.929 14.2102Z" fill="white"/>
<path d="M166.215 10.9357L167.771 18.4068L167.013 18.5647L165.769 12.5878L163.883 18.2264L163.509 18.3042L159.536 13.9208L160.774 19.8657L160.017 20.0236L158.461 12.5525L159.112 12.4168L163.507 17.28L165.564 11.0713L166.215 10.9357Z" fill="white"/>
<path d="M168.648 10.4284L169.437 10.2639L170.85 17.0519L175.031 16.1801L175.173 16.8631L170.203 17.8995L168.648 10.4284Z" fill="white"/>
<path d="M170.132 27.6485C170.132 27.6485 176.014 34.8719 175.88 34.4698C175.747 34.0677 174.77 26.5779 174.77 26.5779L169.206 27.1137" fill="#8080EA"/>
<path opacity="0.33" d="M76.0014 225.218L128.21 372.605L121.426 373.678L67.6004 221.658L76.0014 225.218Z" fill="#383838"/>
<path opacity="0.33" d="M47.8676 265.544L89.2328 282.763L93.0393 292.986L42.4266 273.175L47.8676 265.544Z" fill="#383838"/>
<path opacity="0.33" d="M67.5973 221.658C65.4503 222.093 7.56182 321.317 7.56182 321.317H0.443573L59.9363 218.689L67.5973 221.658Z" fill="#383838"/>
<path d="M46.5984 181.364C47.3064 182.331 48.2041 183.144 49.2367 183.752C50.2694 184.361 51.4152 184.752 52.6041 184.902C54.9856 185.187 57.4 184.985 59.7015 184.31C61.5906 183.824 63.5768 183.089 64.6696 181.471C65.6726 179.986 65.7133 178.074 65.7133 176.281L65.7415 164.346C65.7415 162.598 65.6476 160.613 64.3189 159.476C61.9757 157.47 57.9302 159.755 55.4263 157.956C54.3388 157.173 53.795 155.762 52.6281 155.103C50.9915 154.184 48.8153 155.242 47.8624 156.86C47.0516 158.563 46.6921 160.446 46.8187 162.328L46.5056 181.611" fill="#929CF7"/>
<path opacity="0.6" d="M66.1756 142.239L66.1762 142.251L66.1763 142.254L67.2533 183.468C63.5094 185.931 59.7942 187.145 56.1006 187.145C52.4054 187.145 48.6884 185.93 44.9425 183.465L44.9433 183.371L44.9518 182.333C44.959 181.435 44.9689 180.144 44.98 178.569C45.0022 175.42 45.029 171.139 45.0472 166.612C45.0837 157.565 45.0865 147.518 44.9504 143.573L44.9502 143.568C44.8511 141.374 45.2215 139.184 46.0366 137.145C46.8517 135.107 48.0927 133.266 49.6764 131.746L49.8301 131.598V131.385V114.798H61.0262V131.928V132.195L61.2487 132.344C63.5533 133.881 64.7924 136.333 65.4536 138.451C65.7826 139.504 65.9637 140.46 66.0625 141.152C66.1118 141.498 66.1404 141.777 66.1566 141.967C66.1647 142.063 66.1697 142.136 66.1726 142.185C66.1741 142.209 66.1751 142.227 66.1756 142.239Z" fill="#F7F7F7" stroke="#D9D9D9"/>
<path d="M49.3101 114.552C51.1841 115.749 53.3605 116.388 55.5842 116.392C57.8079 116.396 59.9867 115.765 61.8651 114.574" stroke="#1D2542" stroke-miterlimit="10"/>
<path d="M44.345 184.383C47.7649 186.894 51.9258 188.189 56.1658 188.062C60.4058 187.934 64.4814 186.391 67.7444 183.679" stroke="#1D2542" stroke-miterlimit="10"/>
<path opacity="0.33" d="M44.4243 184.47C44.1582 187.41 46.2498 190.224 48.9458 191.421C51.7244 192.496 54.794 192.55 57.6087 191.573C61.8944 190.265 65.6203 187.561 68.1943 183.891C64.3533 185.412 60.4571 186.946 56.3531 187.409C52.2492 187.872 47.8405 187.14 44.6331 184.536" fill="#383838"/>
<path d="M193.868 186.049C195.599 182.995 197.33 179.941 199.06 176.886" stroke="#1D2542" stroke-width="0.05" stroke-miterlimit="10"/>
<path d="M253.516 321.065C253.516 321.832 256.579 332.554 256.579 332.554L272.652 330.256L268.477 316.878L253.516 321.065Z" fill="#F4F4F4"/>
<path d="M209.896 344.405C209.896 345.171 212.959 355.894 212.959 355.894L229.032 353.597L224.857 340.218L209.896 344.405Z" fill="#F4F4F4"/>
<path d="M206.561 228.008C206.561 228.008 203.156 214.896 219.649 213.491C232.202 212.419 260.853 219.179 260.853 219.179L252.871 247.803L206.561 228.008Z" fill="#272B35"/>
<path d="M216.111 248.479L248.507 331.157L276.3 323.161L256.063 267.846L216.111 248.479Z" fill="#272B35"/>
<path d="M256.063 223.705C256.063 223.705 193.08 211.417 179.029 227.331C171.531 235.823 205.509 348.334 205.509 348.334L234.219 344.234L215.16 258.839C215.16 258.839 293.737 276.609 295.993 235.471" fill="#363B49"/>
<path d="M275.022 84.5394L274.69 97.1604C274.624 97.8851 274.7 98.6157 274.915 99.3109C275.028 99.6569 275.238 99.963 275.52 100.193C275.803 100.422 276.145 100.566 276.506 100.606" fill="#F8B69C"/>
<path d="M276.066 74.3936C273.273 74.6602 270.464 74.0779 268.006 72.7225C266.505 71.9298 266.023 69.8148 267.145 66.5812C267.459 65.9575 267.935 65.4296 268.522 65.0526C269.11 64.6756 269.788 64.4634 270.485 64.438C272.476 64.6051 272.99 64.8725 273.892 64.1184C273.381 63.9214 272.915 63.6212 272.525 63.2365C272.135 62.8519 271.827 62.3909 271.623 61.8824C271.418 61.3738 271.32 60.8285 271.335 60.2805C271.35 59.7325 271.477 59.1933 271.709 58.6967C272.252 57.726 273.1 56.9612 274.121 56.5206C275.141 56.08 276.279 55.988 277.357 56.259C280.224 56.9535 282.09 59.6816 284.64 61.1679C287.685 62.9434 291.451 62.8055 294.942 62.3439C298.433 61.8822 301.995 61.1459 305.439 61.8864C310.675 63.0134 314.737 67.5076 316.502 72.569C318.267 77.6304 318.029 83.1795 317.122 88.4613C316.58 91.627 315.8 94.8407 316.3 98.0138C316.502 99.2932 316.909 100.536 317.057 101.823C317.278 103.114 316.994 104.44 316.262 105.526C315.468 106.55 306.679 106.675 305.606 105.954" fill="#1D2542"/>
<path d="M277.195 71.1151C276.614 71.1148 276.055 71.3385 275.634 71.74C275.213 72.1415 274.963 72.6897 274.936 73.2709C274.567 81.3549 274.707 107.751 281.615 111.908C284.896 113.882 293.534 112.238 293.534 112.238L295.708 131.815L317.159 130.314L313.841 105.841C313.841 105.841 305.734 108.192 306.043 91.9967C306.043 91.9967 314.838 89.6331 311.279 81.3434C308.857 75.7034 297.804 76.9034 299.068 86.3974L295.497 87.3375L291.765 72.8719C291.718 72.1917 291.415 71.5546 290.917 71.0893C290.419 70.624 289.764 70.3652 289.082 70.3652L277.195 71.1151Z" fill="#F8B69C"/>
<path d="M295.524 121.788C295.524 121.788 279.054 122.728 274.761 136.669L268.257 181.985L258.888 225.813L291.86 235.603L322.77 237.691C322.77 237.691 332.189 184.144 336.908 161.798C340.962 142.598 337.057 134.335 335.415 131.877C334.98 131.227 334.609 130.54 334.239 129.848C332.397 126.416 317.723 117.904 295.524 121.788Z" fill="#9071AF"/>
<path d="M193.301 186.233C193.301 186.233 238.39 210.664 244.191 207.128C249.992 203.591 272.242 176.908 272.242 176.908L277.231 132.415L236.615 187.414L199.006 176.536L193.301 186.233Z" fill="#9071AF"/>
<path d="M279.425 86.1301L279.433 88.0101" stroke="#1D2542" stroke-miterlimit="10" stroke-linecap="round"/>
<path d="M278.779 81.5001C279.131 81.2064 279.574 81.0415 280.032 81.0325C280.491 81.0236 280.94 81.1712 281.303 81.451" stroke="#1D2542" stroke-miterlimit="10" stroke-linecap="round"/>
<path d="M268.653 71.9329C275 73.4992 281.536 74.1609 288.067 73.8986C298.675 73.4265 298.832 75.0777 298.832 75.0777L293.097 68.3933L268.653 71.9329Z" fill="#1D2542"/>
<path d="M311.16 61.1292C311.11 59.8223 311.332 58.5192 311.811 57.3024" stroke="#1D2542" stroke-miterlimit="10" stroke-linecap="round"/>
<path d="M311.693 61.1752L313.737 59.5385" stroke="#1D2542" stroke-miterlimit="10" stroke-linecap="round"/>
<path opacity="0.21" d="M292.153 93.7743C291.829 94.1299 291.425 94.4025 290.974 94.5692C290.523 94.7359 290.038 94.7917 289.561 94.7321C288.606 94.5757 287.712 94.1579 286.979 93.5247C286.586 93.2759 286.262 92.9307 286.04 92.5218C285.817 92.113 285.702 91.654 285.706 91.1883C285.819 90.738 286.075 90.3364 286.435 90.0431C286.794 89.7497 287.239 89.5803 287.703 89.56C288.631 89.5417 289.552 89.7282 290.401 90.1063C290.401 90.1063 293.603 92.1179 292.153 93.7743Z" fill="#F46E62"/>
<path opacity="0.21" d="M305.367 81.2651C303.762 81.4311 303.088 81.4844 302.241 82.8568C301.785 83.5514 301.566 84.3744 301.614 85.2037C301.716 86.0844 302.15 86.8931 302.827 87.4649C303.46 88.0005 304.243 88.3258 305.069 88.3956C305.895 88.4654 306.722 88.2763 307.435 87.8545C308.128 87.4005 308.65 86.728 308.918 85.9436C309.186 85.1592 309.185 84.3077 308.914 83.5242C308.6 82.7577 308.024 82.1279 307.289 81.7477C306.553 81.3674 305.707 81.2615 304.9 81.4489" fill="#F46E62"/>
<path d="M306.019 80.6269C305.127 80.8657 304.354 81.4239 303.846 82.1956C303.338 82.9673 303.131 83.8986 303.264 84.813C303.479 84.2918 303.833 83.8398 304.288 83.5066C304.743 83.1734 305.28 82.9717 305.842 82.9236C306.177 82.8691 306.521 82.9061 306.837 83.0307C307.153 83.1552 307.429 83.3628 307.638 83.6314C307.846 83.9001 307.978 84.2199 308.019 84.5573C308.061 84.8946 308.011 85.237 307.875 85.5483C307.75 85.9502 307.543 86.3215 307.267 86.6383C306.99 86.955 306.65 87.2102 306.269 87.3874C305.887 87.5645 305.473 87.6597 305.053 87.6668C304.632 87.6738 304.215 87.5926 303.828 87.4283" stroke="#1D2542" stroke-miterlimit="10" stroke-linecap="round"/>
<path d="M275.022 84.789L274.69 97.4101C274.624 98.1347 274.7 98.8654 274.915 99.5606C275.028 99.9061 275.237 100.212 275.519 100.442C275.8 100.671 276.141 100.816 276.502 100.857" stroke="#1D2542" stroke-miterlimit="10"/>
<path d="M280.652 103.307C281.989 103.118 283.221 102.481 284.149 101.5C285.076 100.519 285.643 99.2519 285.757 97.9062" stroke="#1D2542" stroke-miterlimit="10" stroke-linecap="round"/>
<path d="M284.585 98.2268C285.292 97.892 286.099 97.8346 286.846 98.066" stroke="#1D2542" stroke-miterlimit="10" stroke-linecap="round"/>
<path d="M253.989 276.047C265.116 281.234 277.452 283.266 289.653 281.919C300.377 280.607 310.608 276.657 319.434 270.422L253.989 276.047Z" fill="#CCCBD1"/>
<path d="M316.299 158.528C316.299 158.528 299.405 160.483 295.707 179.19C292.856 193.621 293.632 228.094 285.865 249.471C282.709 258.156 271.67 262.745 262.455 263.312L230.996 263.57C230.996 263.57 221.31 276.643 275.054 276.26C275.054 276.26 302.827 276.886 317.554 271.216C329.617 266.57 337.482 257.58 342.354 248.134C347.227 238.688 351.686 220.882 353.97 207.473C356.254 194.063 358.799 167.832 357.429 164.024C356.059 160.216 352.862 158.363 346.923 158.527C340.984 158.691 316.299 158.528 316.299 158.528Z" fill="#998A99"/>
<path d="M281.752 282.365V340.007L289.113 339.31L289.88 281.306L281.752 282.365Z" fill="#CCCBD1"/>
<path d="M285.15 332.558C285.15 332.558 242.229 332.728 250.986 352.527C259.355 371.452 300.981 370.762 315.481 362.367C327.656 355.317 331.383 335.516 285.15 332.558Z" fill="#CCCBD1"/>
<path d="M281.775 328.609C281.715 331.372 281.354 334.119 280.697 336.803C280.031 339.5 278.614 341.952 276.61 343.875C275.602 344.823 274.394 345.531 273.074 345.945C271.755 346.359 270.359 346.469 268.991 346.267" stroke="#1D2542" stroke-miterlimit="10"/>
<path d="M289.369 326.046C289.359 329.139 289.647 332.225 290.23 335.262C290.824 338.317 292.291 341.133 294.453 343.369C297.264 346.085 301.183 347.245 304.94 348.316" stroke="#1D2542" stroke-miterlimit="10"/>
<path opacity="0.35" d="M233.384 270.422C247.881 274.356 261.46 272.54 275.802 268.084C283.021 265.84 290.259 262.444 294.798 256.394C299.926 249.571 300.814 240.561 301.518 232.053C302.971 214.501 304.425 196.949 305.878 179.397C306.217 175.309 306.579 171.126 308.279 167.393C309.978 163.66 313.305 160.395 317.38 159.948L328.017 158.517C328.017 158.517 297.957 153.418 295.459 180.555C292.96 207.692 290.82 232.816 288.342 241.148C285.865 249.479 275.078 262.35 265.846 262.939C250.226 263.932 230.995 263.579 230.995 263.579C230.995 263.579 228.376 269.064 233.384 270.422Z" fill="#1D2542"/>
<path d="M232.86 270.39C243.138 271.044 253.455 270.766 263.683 269.56C270.404 268.767 277.156 267.55 283.337 264.795C289.058 262.494 293.723 258.149 296.424 252.602C300.026 245.751 301.956 236.68 302.164 228.942C302.64 210.947 304.283 193.003 307.084 175.221C307.41 172.288 308.168 169.42 309.333 166.709C310.621 164.06 313.022 159.276 328.022 158.522C328.022 158.522 347.435 157.686 350.187 158.522C352.938 159.357 357.855 161.646 357.819 166.238" stroke="#1D2542" stroke-miterlimit="10"/>
<path d="M231.597 269.106C240.035 274.48 252.002 276.179 262.003 276.285C282.667 276.632 303.296 274.435 323.424 269.743" stroke="#1D2542" stroke-miterlimit="10"/>
<path d="M229.038 353.6C229.038 353.6 232.691 364.984 232.605 365.747C232.519 366.509 186.889 363.938 189.702 361.64C192.515 359.342 195.602 357.341 213.546 357.63L212.959 355.898L229.038 353.6Z" fill="#48435E"/>
<path d="M272.657 330.26C272.657 330.26 276.31 341.644 276.225 342.408C276.139 343.171 230.509 340.599 233.322 338.3C236.135 336.001 239.221 334.002 257.166 334.29L256.578 332.558L272.657 330.26Z" fill="#48435E"/>
<path d="M189.437 362.803C203.892 364.43 218.391 365.568 232.935 366.218" stroke="#1D2542" stroke-miterlimit="10"/>
<path d="M209.599 357.64C209.265 358.804 209.328 360.046 209.779 361.17" stroke="#1D2542" stroke-miterlimit="10"/>
<path d="M211.506 357.437C211.413 358.687 211.657 359.938 212.21 361.062" stroke="#1D2542" stroke-miterlimit="10"/>
<path d="M213.417 357.337C213.64 358.505 214.242 359.566 215.129 360.357" stroke="#1D2542" stroke-miterlimit="10"/>
<path d="M213.514 357.279L216.032 357.553" stroke="#1D2542" stroke-miterlimit="10"/>
<path d="M209.783 357.848C209.188 356.449 208.301 355.193 207.183 354.164C206.695 353.716 205.967 353.299 205.415 353.663C205.238 353.804 205.11 353.997 205.049 354.215C204.989 354.433 204.999 354.664 205.078 354.876C205.246 355.297 205.528 355.663 205.893 355.932C206.949 356.814 208.231 357.383 209.594 357.575" stroke="#1D2542" stroke-miterlimit="10"/>
<path d="M210.005 357.439C210.739 355.903 210.866 354.146 210.36 352.52C210.274 352.248 210.12 351.94 209.838 351.906C209.507 351.867 209.281 352.227 209.172 352.542C208.904 353.33 208.813 354.168 208.905 354.995C208.997 355.823 209.27 356.62 209.704 357.33" stroke="#1D2542" stroke-miterlimit="10"/>
<path d="M199.554 358.019C200.316 358.708 200.923 359.551 201.336 360.492C201.748 361.433 201.956 362.451 201.946 363.478" stroke="#1D2542" stroke-miterlimit="10"/>
<path d="M223.669 365.388C223.996 363.656 224.901 362.086 226.237 360.936C227.573 359.786 229.26 359.124 231.021 359.059" stroke="#1D2542" stroke-miterlimit="10"/>
<path d="M225.464 354.325L227.447 359.971" stroke="#1D2542" stroke-miterlimit="10"/>
<path d="M212.801 356.042L229.397 353.604" stroke="#1D2542" stroke-miterlimit="10"/>
<path d="M233.278 339.053C247.27 340.842 261.326 341.956 275.445 342.395" stroke="#1D2542" stroke-miterlimit="10"/>
<path d="M254.569 334.186L255.07 336.884" stroke="#1D2542" stroke-miterlimit="10"/>
<path d="M256.299 334.207C256.546 335.069 256.793 335.931 257.04 336.794" stroke="#1D2542" stroke-miterlimit="10"/>
<path d="M256.995 333.843L259.082 335.263" stroke="#1D2542" stroke-miterlimit="10"/>
<path d="M252.87 334.386C252.632 335.403 252.596 336.456 252.766 337.486" stroke="#1D2542" stroke-miterlimit="10"/>
<path d="M253.562 333.891C253.029 332.974 252.32 332.171 251.475 331.53C251.145 331.28 250.666 331.06 250.348 331.321C250.259 331.407 250.197 331.517 250.168 331.637C250.139 331.758 250.145 331.884 250.186 332.002C250.271 332.235 250.411 332.444 250.594 332.612C251.112 333.138 251.732 333.552 252.416 333.828C253.1 334.105 253.834 334.239 254.571 334.221" stroke="#1D2542" stroke-miterlimit="10"/>
<path d="M254.619 334.208C255.11 333.138 255.233 331.937 254.968 330.79C254.955 330.661 254.91 330.537 254.837 330.43C254.764 330.322 254.666 330.235 254.551 330.175C254.196 330.057 253.883 330.437 253.722 330.776C253.176 331.931 252.95 333.212 253.067 334.485" stroke="#1D2542" stroke-miterlimit="10"/>
<path d="M256.277 332.668L272.961 330.562" stroke="#1D2542" stroke-miterlimit="10"/>
<path d="M273.948 335.146C273.144 335.199 272.359 335.41 271.636 335.767C270.914 336.124 270.269 336.62 269.739 337.227C269.209 337.834 268.804 338.54 268.547 339.304C268.29 340.068 268.186 340.875 268.241 341.68" stroke="#1D2542" stroke-miterlimit="10"/>
<path d="M268.347 330.988C268.47 333.359 268.874 335.708 269.55 337.985" stroke="#1D2542" stroke-miterlimit="10"/>
<path d="M242.79 334.499C243.361 334.777 243.866 335.173 244.272 335.661C244.679 336.149 244.977 336.717 245.146 337.329C245.478 338.554 245.633 339.821 245.605 341.09" stroke="#1D2542" stroke-miterlimit="10"/>
<path d="M212.144 353.435C217.438 352.867 222.696 352.003 227.893 350.846" stroke="#9E663C" stroke-miterlimit="10"/>
<path d="M211.46 351.012C216.709 350.187 221.946 349.295 227.173 348.336" stroke="#9E663C" stroke-miterlimit="10"/>
<path d="M210.791 348.449C216.063 347.919 221.291 347.008 226.431 345.723" stroke="#9E663C" stroke-miterlimit="10"/>
<path d="M255.886 331.011C260.987 329.946 266.043 328.693 271.055 327.25" stroke="#9E663C" stroke-miterlimit="10"/>
<path d="M204.902 348.549C214.688 347.471 224.443 346.163 234.169 344.625" stroke="#1D2542" stroke-miterlimit="10"/>
<path d="M211.284 347.373L190.666 255.166C190.181 253.438 189.98 251.643 190.071 249.851C190.125 248.954 190.394 248.084 190.855 247.313C191.316 246.542 191.956 245.894 192.72 245.423C194.134 244.833 195.687 244.659 197.196 244.919C225.537 247.277 253.408 257.86 281.67 254.706" stroke="#1D2542" stroke-miterlimit="10"/>
<path d="M248.758 331.326C257.685 327.33 266.943 324.12 276.426 321.732" stroke="#1D2542" stroke-miterlimit="10"/>
<path d="M270.144 323.453C261.55 308.315 254.418 292.392 248.845 275.899" stroke="#1D2542" stroke-miterlimit="10"/>
<path d="M268.257 181.985C275.8 172.735 283.228 163.394 290.656 154.051" stroke="#1D2542" stroke-miterlimit="10"/>
<path d="M293.296 136.407C293.806 136.073 294.403 135.899 295.013 135.905C295.622 135.911 296.215 136.098 296.718 136.442C297.221 136.786 297.611 137.272 297.838 137.837C298.065 138.403 298.12 139.023 297.995 139.62C297.87 140.217 297.571 140.763 297.135 141.189C296.7 141.616 296.148 141.903 295.549 142.016C294.951 142.129 294.332 142.061 293.772 141.822C293.211 141.583 292.735 141.182 292.401 140.672C291.985 139.979 291.846 139.155 292.012 138.364C292.178 137.572 292.637 136.873 293.296 136.407" stroke="#D1B3F4" stroke-miterlimit="10"/>
<path d="M270.153 155.547C270.663 155.214 271.261 155.039 271.87 155.046C272.479 155.052 273.073 155.24 273.575 155.584C274.078 155.928 274.468 156.413 274.695 156.979C274.922 157.545 274.976 158.165 274.851 158.762C274.726 159.358 274.427 159.904 273.991 160.331C273.556 160.757 273.004 161.045 272.405 161.157C271.807 161.27 271.188 161.202 270.628 160.963C270.067 160.723 269.591 160.323 269.258 159.813C268.841 159.12 268.702 158.295 268.868 157.504C269.034 156.713 269.493 156.014 270.153 155.547" stroke="#D1B3F4" stroke-miterlimit="10"/>
<path d="M321.278 131.973C321.788 131.64 322.386 131.465 322.995 131.472C323.604 131.478 324.198 131.665 324.701 132.009C325.203 132.354 325.593 132.839 325.82 133.405C326.047 133.97 326.102 134.591 325.976 135.187C325.851 135.784 325.552 136.33 325.117 136.756C324.681 137.183 324.129 137.47 323.531 137.583C322.932 137.695 322.313 137.628 321.753 137.388C321.193 137.149 320.716 136.749 320.383 136.238C319.967 135.546 319.827 134.721 319.994 133.93C320.16 133.138 320.619 132.439 321.278 131.973Z" stroke="#D1B3F4" stroke-miterlimit="10"/>
<path d="M304.892 147.335C306.498 145.289 308.104 143.245 309.71 141.201" stroke="#D1B3F4" stroke-miterlimit="10"/>
<path d="M314.735 147.773L314.297 147.554" stroke="#D1B3F4" stroke-miterlimit="10"/>
<path d="M303.569 135.722V135.942" stroke="#D1B3F4" stroke-miterlimit="10"/>
<path d="M324.243 144.808L326.843 147.555" stroke="#D1B3F4" stroke-miterlimit="10"/>
<path d="M331.32 141.629V141.774" stroke="#D1B3F4" stroke-miterlimit="10"/>
<path d="M312.978 127.028C313.802 128.76 314.627 130.492 315.452 132.224" stroke="#D1B3F4" stroke-miterlimit="10"/>
<path d="M296.102 130.676L300.03 127.384" stroke="#D1B3F4" stroke-miterlimit="10"/>
<path d="M281.498 139.595L286.264 145.088" stroke="#D1B3F4" stroke-miterlimit="10"/>
<path d="M279.32 148.275V148.419" stroke="#D1B3F4" stroke-miterlimit="10"/>
<path d="M319.621 126.307H320.054" stroke="#D1B3F4" stroke-miterlimit="10"/>
<path d="M332.582 129.329L330.987 133.952" stroke="#D1B3F4" stroke-miterlimit="10"/>
<path d="M331.898 154.204C333.377 153.045 334.732 151.737 335.943 150.301" stroke="#D1B3F4" stroke-miterlimit="10"/>
<path d="M315.605 152.513C316.337 152.435 317.073 152.633 317.666 153.07C318.26 153.506 318.669 154.149 318.814 154.872C318.958 155.595 318.828 156.346 318.448 156.977C318.067 157.609 317.465 158.075 316.759 158.285C316.053 158.495 315.294 158.434 314.63 158.112C313.967 157.791 313.448 157.234 313.175 156.549C312.901 155.864 312.893 155.102 313.153 154.412C313.412 153.722 313.919 153.154 314.576 152.819" stroke="#D1B3F4" stroke-miterlimit="10"/>
<path d="M299.804 152.925C301.103 154.516 302.402 156.106 303.703 157.695" stroke="#D1B3F4" stroke-miterlimit="10"/>
<path d="M292.613 160.829C292.684 160.842 292.679 160.692 292.613 160.71" stroke="#D1B3F4" stroke-miterlimit="10"/>
<path d="M290.005 165.294C289.148 165.362 288.352 165.766 287.79 166.418C287.229 167.07 286.946 167.917 287.005 168.776C287.064 169.634 287.459 170.435 288.104 171.004C288.749 171.574 289.592 171.865 290.451 171.816C291.309 171.767 292.114 171.381 292.69 170.742C293.266 170.103 293.567 169.262 293.528 168.403C293.488 167.543 293.112 166.733 292.48 166.15C291.847 165.566 291.011 165.256 290.151 165.285" stroke="#D1B3F4" stroke-miterlimit="10"/>
<path d="M277.152 175.019C278.103 176.881 279.267 178.627 280.62 180.222" stroke="#D1B3F4" stroke-miterlimit="10"/>
<path d="M280.618 187.585C282.88 187.045 285.038 186.137 287.005 184.896" stroke="#D1B3F4" stroke-miterlimit="10"/>
<path d="M271.664 187.016L272.098 187.45" stroke="#D1B3F4" stroke-miterlimit="10"/>
<path d="M287.245 193.587C286.642 193.441 286.007 193.506 285.445 193.772C284.884 194.038 284.431 194.489 284.162 195.049C283.919 195.622 283.858 196.255 283.988 196.864C284.117 197.472 284.431 198.026 284.886 198.45C285.399 198.902 286.036 199.19 286.714 199.277C287.392 199.364 288.081 199.246 288.692 198.937C289.302 198.629 289.807 198.144 290.139 197.546C290.472 196.948 290.619 196.265 290.559 195.583C290.448 194.845 290.061 194.177 289.476 193.715C288.891 193.252 288.152 193.03 287.409 193.093" stroke="#D1B3F4" stroke-miterlimit="10"/>
<path d="M277.177 197.999C277.298 199.781 277.419 201.562 277.541 203.343" stroke="#D1B3F4" stroke-miterlimit="10"/>
<path d="M271.053 207.143L275.67 211.634" stroke="#D1B3F4" stroke-miterlimit="10"/>
<path d="M273.666 221.831L273.377 222.12" stroke="#D1B3F4" stroke-miterlimit="10"/>
<path d="M267.742 166.711L274.97 167.148" stroke="#D1B3F4" stroke-miterlimit="10"/>
<path d="M258.211 166.698C257.95 169.516 258.002 172.353 258.364 175.159" stroke="#D1B3F4" stroke-miterlimit="10"/>
<path d="M262.516 159.929V160.391" stroke="#D1B3F4" stroke-miterlimit="10"/>
<path d="M250.362 184.561L256.376 187.448" stroke="#D1B3F4" stroke-miterlimit="10"/>
<path d="M239.852 195.16C240.444 194.809 241.148 194.699 241.819 194.852C242.49 195.004 243.077 195.408 243.46 195.98C243.843 196.552 243.993 197.249 243.878 197.927C243.764 198.606 243.395 199.216 242.846 199.631C242.297 200.046 241.611 200.235 240.927 200.16C240.243 200.085 239.614 199.75 239.169 199.226C238.723 198.701 238.495 198.025 238.532 197.338C238.568 196.651 238.866 196.003 239.364 195.528" stroke="#D1B3F4" stroke-miterlimit="10"/>
<path d="M243.144 187.776V187.931" stroke="#D1B3F4" stroke-miterlimit="10"/>
<path d="M233.034 192.252C232.326 194.255 231.618 196.258 230.91 198.262" stroke="#D1B3F4" stroke-miterlimit="10"/>
<path d="M217.623 188.311C217.52 188.877 217.597 189.462 217.843 189.982C218.089 190.502 218.492 190.932 218.996 191.211C219.512 191.464 220.099 191.535 220.661 191.411C221.222 191.287 221.725 190.975 222.086 190.527C222.42 190.059 222.57 189.485 222.51 188.913C222.449 188.341 222.182 187.811 221.757 187.422C221.306 187.067 220.735 186.903 220.164 186.964C219.593 187.025 219.069 187.307 218.704 187.749" stroke="#D1B3F4" stroke-miterlimit="10"/>
<path d="M207.179 183.773L208.697 189.163" stroke="#D1B3F4" stroke-miterlimit="10"/>
<path d="M197.735 179.782C197.735 179.782 188.677 175.005 187.499 175.187C186.321 175.368 175.84 180.686 177.128 181.048C178.415 181.411 184.705 178.675 184.705 178.675C184.705 178.675 177.059 183.18 178.902 183.331C180.745 183.483 184.97 180.813 184.97 180.813C184.97 180.813 182.697 184.434 183.489 184.794C184.281 185.153 185.785 186.963 185.724 185.903C185.642 185.177 185.383 184.483 184.97 183.881L186.204 182.428L193.301 186.232L197.735 179.782Z" fill="#FCD2B4"/>
<path d="M183.424 184.274C183.768 183.016 184.368 181.843 185.186 180.828C185.367 180.567 185.617 180.362 185.908 180.237C186.164 180.193 186.426 180.203 186.678 180.267C186.93 180.33 187.165 180.446 187.37 180.606" stroke="#EABB9B" stroke-width="0.05" stroke-miterlimit="10"/>
<path d="M178.728 182.792L183.882 178.975C184.24 178.678 184.644 178.441 185.078 178.273C185.841 178.093 186.64 178.145 187.374 178.422C188.104 178.7 188.878 178.843 189.659 178.846" stroke="#EABB9B" stroke-width="0.02" stroke-miterlimit="10"/>
<path d="M272.519 27.4918C272.469 28.0642 271.932 48.8142 271.932 48.8142L298.921 43.9199L299.234 48.4904L302.279 43.4332L307.668 42.8828L309.406 23.2472L272.519 27.4918Z" fill="#EE6FC8"/>
<path d="M286.605 40.7824C286.007 40.8841 285.432 40.8486 284.879 40.6759C284.327 40.5031 283.851 40.2045 283.45 39.7802L283.981 38.9203C284.705 39.6795 285.53 39.9803 286.457 39.8225C287.752 39.602 288.269 38.724 288.008 37.1883L286.93 30.8462L283.104 31.4975L282.941 30.5402L287.859 29.7031L289.092 36.9577C289.278 38.0546 289.16 38.9264 288.737 39.573C288.322 40.2079 287.611 40.6111 286.605 40.7824Z" fill="white"/>
<path d="M295.857 39.2076C295.079 39.3399 294.311 39.3425 293.551 39.2153C292.801 39.0864 292.197 38.8506 291.739 38.5079L292.028 37.5815C292.471 37.896 293.026 38.1195 293.695 38.252C294.362 38.3745 295.029 38.3789 295.697 38.2653C296.633 38.1058 297.307 37.8167 297.718 37.398C298.127 36.9692 298.285 36.4806 298.191 35.9322C298.12 35.5134 297.934 35.2014 297.632 34.9962C297.341 34.7893 297 34.6524 296.609 34.5855C296.217 34.5087 295.678 34.4464 294.993 34.3988C294.172 34.3334 293.512 34.2508 293.013 34.151C292.513 34.0412 292.061 33.8257 291.658 33.5045C291.264 33.1815 291.013 32.6959 290.902 32.0478C290.813 31.5193 290.871 31.0169 291.077 30.5406C291.281 30.0543 291.65 29.6324 292.184 29.2747C292.718 28.9171 293.414 28.6653 294.271 28.5195C294.869 28.4177 295.466 28.4032 296.063 28.4761C296.668 28.5373 297.204 28.6768 297.672 28.8948L297.448 29.8409C296.961 29.6263 296.456 29.4917 295.934 29.4369C295.41 29.3721 294.909 29.3804 294.431 29.4618C293.514 29.6179 292.852 29.9152 292.445 30.3539C292.046 30.781 291.894 31.2737 291.988 31.8321C292.06 32.2509 292.242 32.5688 292.535 32.7857C292.837 32.9909 293.188 33.131 293.591 33.2062C294.002 33.2697 294.544 33.3261 295.219 33.3754C296.019 33.4342 296.669 33.5185 297.169 33.6283C297.678 33.7264 298.129 33.9369 298.522 34.2599C298.914 34.5728 299.164 35.0484 299.272 35.6866C299.362 36.2151 299.3 36.7234 299.086 37.2113C298.879 37.6876 298.504 38.1054 297.961 38.4648C297.415 38.8141 296.714 39.0617 295.857 39.2076Z" fill="white"/>
<path d="M14.0037 49.6706C14.0037 50.2461 15.2979 70.9616 15.2979 70.9616L41.7503 63.7038L42.4694 68.2283L45.0568 62.9225L50.3799 61.899V42.1893L14.0037 49.6706Z" fill="#50C8F9"/>
<path d="M27.2694 61.6674C26.5332 61.8363 25.8304 61.826 25.1611 61.6365C24.4988 61.4454 23.9321 61.1019 23.4608 60.6061C22.995 60.1015 22.6802 59.4914 22.5163 58.7759C22.3524 58.0604 22.3711 57.3776 22.5723 56.7275C22.7791 56.0686 23.1425 55.508 23.6625 55.0458C24.1825 54.5835 24.8106 54.2679 25.5469 54.099C26.0991 53.9723 26.6299 53.9475 27.1393 54.0245C27.6487 54.1015 28.1069 54.2798 28.5136 54.5593L28.129 55.1732C27.4138 54.7184 26.6137 54.5925 25.7288 54.7955C25.1412 54.9303 24.6375 55.1875 24.2178 55.5671C23.7981 55.9467 23.5037 56.402 23.3347 56.9329C23.1728 57.4621 23.1584 58.0172 23.2915 58.5981C23.4245 59.179 23.6791 59.6724 24.0553 60.0782C24.4385 60.4825 24.9016 60.764 25.4447 60.9227C25.9877 61.0815 26.553 61.0935 27.1406 60.9587C28.0326 60.7541 28.6972 60.2885 29.1343 59.5619L29.7478 59.9468C29.5033 60.3757 29.1658 60.7402 28.7353 61.0403C28.3102 61.3317 27.8216 61.5407 27.2694 61.6674Z" fill="white"/>
<path d="M33.6817 60.1965C33.1295 60.3231 32.5782 60.3564 32.028 60.2962C31.4848 60.2344 31.0418 60.0899 30.6992 59.8628L30.8684 59.1865C31.1991 59.394 31.6069 59.5316 32.0919 59.5993C32.5752 59.6599 33.054 59.6358 33.5283 59.527C34.1938 59.3744 34.6653 59.1394 34.9428 58.8223C35.2188 58.498 35.3121 58.141 35.2228 57.7514C35.1547 57.4539 35.0083 57.2377 34.7837 57.1028C34.5661 56.9663 34.3158 56.882 34.0328 56.85C33.7481 56.8109 33.3592 56.7883 32.866 56.7821C32.2743 56.7687 31.7974 56.7364 31.4355 56.6852C31.0719 56.627 30.739 56.4908 30.4366 56.2768C30.1413 56.0612 29.9409 55.7232 29.8354 55.2627C29.7494 54.8873 29.7706 54.5245 29.8991 54.1744C30.0259 53.8172 30.2735 53.4994 30.6419 53.2211C31.0103 52.9427 31.499 52.7337 32.1078 52.594C32.5325 52.4966 32.9605 52.4618 33.3916 52.4897C33.8282 52.5088 34.2186 52.587 34.563 52.7242L34.4412 53.4121C34.0826 53.2781 33.715 53.2021 33.3383 53.1841C32.96 53.1591 32.6009 53.1855 32.2611 53.2635C31.6098 53.4129 31.147 53.6532 30.8727 53.9846C30.6039 54.3072 30.5149 54.6669 30.6058 55.0636C30.6739 55.3612 30.8176 55.5817 31.0368 55.7253C31.2614 55.8602 31.5196 55.9464 31.8113 55.9839C32.1085 56.0126 32.5002 56.0309 32.9863 56.0387C33.5622 56.0482 34.032 56.0822 34.3956 56.1404C34.7646 56.19 35.0967 56.3226 35.392 56.5382C35.6857 56.7467 35.8844 57.0777 35.9883 57.5311C36.0743 57.9065 36.0504 58.2737 35.9165 58.6325C35.788 58.9826 35.5361 59.2976 35.1606 59.5776C34.7835 59.8505 34.2905 60.0568 33.6817 60.1965Z" fill="white"/>
<path d="M40.2149 58.6978C39.6627 58.8245 39.1114 58.8577 38.5612 58.7975C38.018 58.7357 37.575 58.5913 37.2324 58.3642L37.4016 57.6878C37.7323 57.8953 38.1401 58.0329 38.625 58.1006C39.1084 58.1613 39.5872 58.1372 40.0615 58.0284C40.727 57.8757 41.1985 57.6408 41.476 57.3236C41.752 56.9993 41.8453 56.6424 41.756 56.2528C41.6879 55.9552 41.5415 55.739 41.3169 55.6041C41.0993 55.4676 40.849 55.3834 40.566 55.3514C40.2813 55.3123 39.8924 55.2896 39.3992 55.2835C38.8075 55.2701 38.3306 55.2378 37.9687 55.1866C37.6051 55.1283 37.2722 54.9922 36.9698 54.7782C36.6745 54.5626 36.4741 54.2245 36.3686 53.7641C36.2826 53.3886 36.3038 53.0258 36.4323 52.6757C36.5591 52.3186 36.8067 52.0008 37.1751 51.7224C37.5435 51.444 38.0322 51.235 38.641 51.0954C39.0657 50.9979 39.4937 50.9631 39.9248 50.991C40.3614 51.0102 40.7518 51.0884 41.0962 51.2256L40.9744 51.9135C40.6158 51.7795 40.2482 51.7035 39.8715 51.6855C39.4932 51.6604 39.1341 51.6869 38.7943 51.7648C38.143 51.9142 37.6802 52.1546 37.4059 52.486C37.1371 52.8086 37.0481 53.1683 37.139 53.565C37.2071 53.8625 37.3508 54.0831 37.57 54.2267C37.7946 54.3616 38.0528 54.4477 38.3445 54.4852C38.6417 54.514 39.0334 54.5323 39.5195 54.54C40.0954 54.5496 40.5652 54.5835 40.9288 54.6418C41.2978 54.6914 41.6299 54.8239 41.9252 55.0396C42.2189 55.2481 42.4176 55.579 42.5215 56.0324C42.6075 56.4079 42.5836 56.775 42.4497 57.1338C42.3212 57.4839 42.0693 57.799 41.6938 58.079C41.3167 58.3519 40.8237 58.5582 40.2149 58.6978Z" fill="white"/>
<path opacity="0.33" d="M118.515 159.699C118.515 159.699 135.11 164.627 151.197 161.285C167.284 157.943 179.378 155.072 179.378 155.072L149.745 150.486L118.515 159.699Z" fill="#383838"/>
<path d="M223.572 128.214L93.0873 155.474L72.6302 58.8262L208.548 36.519L223.572 128.214Z" fill="#D8D8D8"/>
<path d="M220.896 120.377L93.4494 146.464L74.9253 60.9454L207.593 39.1791L220.896 120.377Z" fill="#8FAAE5"/>
<path d="M104.6 76.2536L90.573 78.7928L90.9258 80.7445L104.953 78.2053L104.6 76.2536Z" fill="white"/>
<path d="M181.392 68.2156L167.364 70.7548L167.717 72.7064L181.744 70.1673L181.392 68.2156Z" fill="white"/>
<path opacity="0.64" d="M156.187 67.0862L112.2 75.0704L112.582 77.1751L156.569 69.1909L156.187 67.0862Z" fill="white"/>
<path d="M164.023 71.4438L131.421 77.3452L131.802 79.45L164.403 73.5486L164.023 71.4438Z" fill="white"/>
<path opacity="0.64" d="M202.544 70.4439L142.254 81.3872L142.655 83.5998L202.945 72.6565L202.544 70.4439Z" fill="white"/>
<path d="M111.57 101.359L97.544 103.905L97.8978 105.857L111.924 103.311L111.57 101.359Z" fill="white"/>
<path d="M198.174 115.627L184.148 118.173L184.501 120.124L198.528 117.578L198.174 115.627Z" fill="white"/>
<path d="M188.363 93.3282L174.336 95.8674L174.688 97.819L188.716 95.2799L188.363 93.3282Z" fill="white"/>
<path opacity="0.64" d="M163.161 92.2201L119.171 100.183L119.552 102.288L163.542 94.3249L163.161 92.2201Z" fill="white"/>
<path d="M170.992 96.5407L138.393 102.458L138.774 104.563L171.373 98.6453L170.992 96.5407Z" fill="white"/>
<path opacity="0.64" d="M209.518 95.5857L149.225 106.5L149.625 108.713L209.918 97.7984L209.518 95.5857Z" fill="white"/>
<path d="M147.223 60.9259L86.9334 71.8692L87.3345 74.0818L147.624 63.1385L147.223 60.9259Z" fill="white"/>
<path opacity="0.64" d="M162.09 114.671L101.8 125.614L102.201 127.827L162.491 116.884L162.09 114.671Z" fill="white"/>
<path d="M151.777 124.171L103.15 132.997L103.551 135.21L152.178 126.384L151.777 124.171Z" fill="white"/>
<path opacity="0.64" d="M181.526 118.74L154.891 123.574L155.292 125.787L181.928 120.952L181.526 118.74Z" fill="white"/>
<path d="M74.9264 60.9454L93.4505 146.465L220.896 120.377L207.593 39.1802L74.9264 60.9454Z" stroke="#1D2542" stroke-width="0.05" stroke-miterlimit="10"/>
<path d="M147.326 144.253C147.326 144.253 150.695 160.767 151.197 161.285C151.699 161.803 181.472 154.567 181.472 154.567L177.793 137.761L147.326 144.253Z" fill="#CECCD6"/>
<path d="M181.472 138.286C182.079 141.861 186.467 143.64 190.03 142.971C193.593 142.301 196.574 139.983 199.687 138.128C208.501 132.927 218.935 131.197 228.954 133.276" stroke="#1D2542" stroke-miterlimit="10"/>
<path d="M256.753 18.7344L182.907 32.102L191.506 79.6706L265.352 66.3031L256.753 18.7344Z" fill="white"/>
<path d="M206.873 45.9371L192.846 48.4831L193.2 50.4347L207.226 47.8887L206.873 45.9371Z" fill="#F8BD45"/>
<path d="M210.92 62.0393L196.894 64.5853L197.248 66.5368L211.274 63.9909L210.92 62.0393Z" fill="#F8BD45"/>
<path d="M252.024 54.3805L213.756 61.3266L214.129 63.385L252.397 56.4389L252.024 54.3805Z" fill="#F8BD45"/>
<path d="M234.9 32.551L190.91 40.514L191.291 42.6188L235.28 34.6558L234.9 32.551Z" fill="#F8BD45"/>
<path d="M239.032 48.4157L195.044 56.4L195.426 58.5046L239.413 50.5204L239.032 48.4157Z" fill="#F8BD45"/>
<path opacity="0.23" d="M184.189 39.1791L191.529 79.6681L214.925 75.4391L216.139 81.4969L188.924 87.0701L178.164 41.5114L184.189 39.1791Z" fill="#1D2542"/>
<path d="M151.197 161.284L134.922 156.943L149.123 152.808L151.197 161.284Z" fill="#B7B6C1"/>
<path d="M161.893 137.217V137.133" stroke="#1D2542" stroke-width="0.15" stroke-miterlimit="10"/>
<path d="M54.4431 77.8947C54.4431 78.4702 55.7373 99.1857 55.7373 99.1857L82.1897 91.9279L82.9088 96.4524L85.4993 91.1435L90.8224 90.1199V70.4133L54.4431 77.8947Z" fill="#9071AF"/>
<path d="M62.7359 82.4682C63.6912 82.2819 64.4842 82.3643 65.1149 82.7152C65.7455 83.0662 66.1387 83.6411 66.2942 84.4401C66.4498 85.2391 66.3011 85.9197 65.8482 86.4819C65.3939 87.037 64.6891 87.4076 63.7338 87.5938L61.7234 87.9857L62.1838 90.3506L61.3925 90.5049L59.9342 83.0143L62.7359 82.4682ZM63.577 86.9024C64.3184 86.7579 64.8539 86.4869 65.1835 86.0894C65.5117 85.6849 65.6182 85.1865 65.5029 84.5944C65.3849 83.988 65.0985 83.5625 64.6439 83.318C64.188 83.0662 63.5893 83.0126 62.8479 83.1572L60.8589 83.5449L61.588 87.2902L63.577 86.9024Z" fill="white"/>
<path d="M73.7609 80.3188L75.2192 87.8094L74.4386 87.9616L73.7657 84.5052L69.082 85.4183L69.7549 88.8746L68.9635 89.0289L67.5053 81.5384L68.2966 81.3841L68.9466 84.7228L73.6303 83.8097L72.9803 80.471L73.7609 80.3188Z" fill="white"/>
<path d="M79.0058 79.2964C79.9611 79.1101 80.7541 79.1925 81.3848 79.5434C82.0154 79.8944 82.4086 80.4693 82.5641 81.2683C82.7197 82.0673 82.571 82.7479 82.1181 83.3101C81.6638 83.8652 80.959 84.2358 80.0037 84.422L77.9933 84.814L78.4537 87.1788L77.6624 87.3331L76.2041 79.8426L79.0058 79.2964ZM79.8469 83.7307C80.5883 83.5861 81.1238 83.3151 81.4534 82.9177C81.7816 82.5131 81.8881 82.0147 81.7728 81.4226C81.6547 80.8162 81.3684 80.3907 80.9138 80.1462C80.4579 79.8944 79.8592 79.8408 79.1178 79.9854L77.1288 80.3731L77.8579 84.1184L79.8469 83.7307Z" fill="white"/>
</g>
<defs>
<clipPath id="clip0">
<rect width="358" height="376" fill="white"/>
</clipPath>
</defs>
</svg>
