<svg xmlns="http://www.w3.org/2000/svg" width="256" height="256" viewBox="0 0 100 100"><rect width="100" height="100" rx="20" fill="#00ff85"></rect><path d="M46.27 28.85L31.41 28.85L31.41 77.18Q30.96 77.36 30.02 77.58Q29.07 77.81 28.08 77.81L28.08 77.81Q24.13 77.81 24.13 74.48L24.13 74.48L24.13 28.85L7.29 28.85Q7.02 28.40 6.75 27.63Q6.48 26.87 6.48 25.88L6.48 25.88Q6.48 24.35 7.20 23.50Q7.92 22.64 9.27 22.64L9.27 22.64L48.24 22.64Q48.52 23.09 48.78 23.86Q49.05 24.62 49.05 25.52L49.05 25.52Q49.05 27.05 48.34 27.95Q47.61 28.85 46.27 28.85L46.27 28.85ZM63.27 77.36L63.27 77.36Q61.56 77.36 60.44 76.28Q59.31 75.20 59.31 73.40L59.31 73.40L59.31 22.82Q59.77 22.64 60.71 22.41Q61.66 22.19 62.73 22.19L62.73 22.19Q66.69 22.19 66.69 25.52L66.69 25.52L66.69 71.06L92.53 71.06Q93.52 72.05 93.52 74.03L93.52 74.03Q93.52 75.56 92.70 76.46Q91.89 77.36 90.55 77.36L90.55 77.36L63.27 77.36Z" fill="#ffffff"></path></svg>