<?xml version="1.0" encoding="UTF-8" standalone="no"?>
<!-- Created with Inkscape (http://www.inkscape.org/) -->

<svg
   xmlns:dc="http://purl.org/dc/elements/1.1/"
   xmlns:cc="http://creativecommons.org/ns#"
   xmlns:rdf="http://www.w3.org/1999/02/22-rdf-syntax-ns#"
   xmlns:svg="http://www.w3.org/2000/svg"
   xmlns="http://www.w3.org/2000/svg"
   xmlns:sodipodi="http://sodipodi.sourceforge.net/DTD/sodipodi-0.dtd"
   xmlns:inkscape="http://www.inkscape.org/namespaces/inkscape"
   width="100mm"
   height="100mm"
   viewBox="0 0 354.33071 354.33071"
   id="svg2"
   version="1.1"
   inkscape:version="0.91 r13725"
   sodipodi:docname="learnermobile.svg">
  <defs
     id="defs4" />
  <sodipodi:namedview
     id="base"
     pagecolor="#ffffff"
     bordercolor="#666666"
     borderopacity="1.0"
     inkscape:pageopacity="0.0"
     inkscape:pageshadow="2"
     inkscape:zoom="1.1363214"
     inkscape:cx="279.03456"
     inkscape:cy="231.23037"
     inkscape:document-units="px"
     inkscape:current-layer="layer1"
     showgrid="false"
     showguides="true"
     inkscape:guide-bbox="true">
    <inkscape:grid
       type="xygrid"
       id="grid3592" />
    <sodipodi:guide
       position="451.83112,304.70595"
       orientation="0,1"
       id="guide3594" />
    <sodipodi:guide
       position="345.03467,320.38934"
       orientation="0,1"
       id="guide3596" />
  </sodipodi:namedview>
  <metadata
     id="metadata7">
    <rdf:RDF>
      <cc:Work
         rdf:about="">
        <dc:format>image/svg+xml</dc:format>
        <dc:type
           rdf:resource="http://purl.org/dc/dcmitype/StillImage" />
        <dc:title></dc:title>
      </cc:Work>
    </rdf:RDF>
  </metadata>
  <g
     inkscape:label="Layer 1"
     inkscape:groupmode="layer"
     id="layer1"
     transform="translate(0,-698.0315)">
    <g
       id="g4226"
       transform="translate(-187.15596,225.68807)">
      <g
         transform="matrix(1.1033266,0,0,0.90623546,-10.260775,-545.81903)"
         id="g4938">
        <path
           style="fill:#2f2f2f;stroke:#2f2f2f;stroke-width:0.09650663"
           inkscape:connector-curvature="0"
           d="m 321.2576,1166.2001 c 3.0671,-0.8215 6.22414,-0.9078 9.3452,-1.2598 1.79589,-0.1346 3.59477,-0.059 5.39066,-0.083 2.81226,-0.097 5.56755,0.6869 8.32284,1.2461 2.99214,0.7317 6.06824,1.1183 8.93446,2.4161 2.42849,0.8283 4.81801,1.8362 6.99766,3.3411 1.62499,1.1805 3.57079,2.0364 4.61714,4.0108 1.33717,1.674 2.81225,3.203 4.12544,4.9116 3.21101,5.0186 5.89135,10.4687 8.19992,16.1017 1.41812,3.2479 2.46147,6.6926 3.45985,10.1373 0.37477,1.3634 0.98039,2.6715 1.04036,4.1247 0.042,1.5256 0.6386,2.9235 0.87845,4.4111 1.02237,4.1799 1.40913,8.522 1.616,12.8434 0.0899,2.5507 -0.25484,5.0876 -0.26684,7.6384 -0.52167,5.1946 -0.82448,10.5549 -2.71331,15.3837 -0.51269,0.8318 -1.16628,1.5394 -1.72993,2.3229 0.009,-2.3781 0.14391,-4.8218 -0.55166,-7.1068 -0.44672,-2.1331 -0.95041,-4.6873 -2.9052,-5.633 -1.20225,-0.2278 -2.4105,0.4729 -3.14205,1.5532 -1.82287,2.7785 -4.12544,5.1532 -6.72483,6.9343 -0.21587,-1.1494 -0.19788,-2.3264 -0.12592,-3.4896 0.1529,-3.0478 -0.14391,-6.0852 -0.45872,-9.1053 -2.11968,-0.041 -4.27235,0 -6.33207,-0.6662 -5.50159,-1.4082 -11.20705,-2.5748 -16.07603,-6.0437 -2.15866,-1.6602 -4.54818,-2.9477 -6.42802,-5.0462 0.78552,2.2504 1.78989,4.4974 3.42088,6.0955 2.72831,2.9028 5.66049,5.6054 8.90748,7.7074 0.49169,0.214 0.40775,0.8767 0.52167,1.3599 -2.80326,0.1277 -5.60052,0.7697 -8.41278,0.4349 -1.62199,-0.2036 -3.226,-0.6351 -4.86598,-0.5591 -5.10284,0.072 -10.17569,-1.0183 -15.02671,-2.782 -4.87198,-2.3782 -9.29424,-5.8988 -13.14985,-10.0545 -2.13768,-2.0088 -3.8676,-4.5043 -5.75044,-6.8066 -1.2772,-1.3288 -2.12568,-3.0788 -3.26197,-4.5526 -0.56665,2.8337 -0.3328,5.7538 -0.37477,8.6324 0.087,4.0902 0.45272,8.1803 1.21725,12.1773 0.48869,3.5206 1.29819,6.9825 2.52443,10.2615 -2.76728,0.1243 -5.68747,-0.3658 -7.97206,-2.2918 -1.26221,-1.1183 -2.84523,-1.6878 -3.96054,-3.0271 -0.76453,-0.8767 -1.622,-1.9536 -2.82125,-1.7603 -1.19326,-0.1622 -1.97578,1.0838 -2.54842,2.0951 -1.35216,2.8234 -2.08971,6.0334 -2.0987,9.2607 -1.23523,-1.1287 -2.07471,-2.6785 -2.95317,-4.1558 -0.82449,-1.4772 -1.09432,-3.241 -1.32818,-4.9461 -0.78551,-6.8756 -0.43473,-13.8823 0.56066,-20.7061 0.69557,-3.6518 1.46609,-7.3001 2.60838,-10.8035 1.22324,-4.097 2.9022,-7.9835 4.23038,-12.0322 2.92318,-7.6281 6.70684,-14.9351 11.85165,-20.858 1.08532,-1.3013 2.4165,-2.2781 3.56479,-3.4999 1.81087,-2.0123 4.15542,-3.2031 6.46099,-4.2697 2.87822,-1.0354 5.66349,-2.5403 8.7036,-2.8579 1.49311,-0.321 2.98019,-0.6972 4.47926,-1.0044 z"
           id="path3841" />
        <path
           style="fill:#bcd35f;stroke:#f2c5b2;stroke-width:0.09650663"
           inkscape:connector-curvature="0"
           d="m 299.11333,1215.9859 c 1.13629,1.4738 1.98477,3.2238 3.26197,4.5526 1.88284,2.3023 3.61276,4.7978 5.75044,6.8066 3.85561,4.1557 8.27787,7.6763 13.14985,10.0545 4.85102,1.7637 9.92384,2.8544 15.02671,2.782 1.63998,-0.076 3.24396,0.3555 4.86598,0.5591 2.81226,0.3348 5.60952,-0.3072 8.41278,-0.4349 -0.11392,-0.4832 -0.03,-1.1459 -0.52167,-1.3599 -3.24699,-2.102 -6.17917,-4.8046 -8.90748,-7.7074 -1.63099,-1.5981 -2.63536,-3.8451 -3.42088,-6.0955 1.87984,2.0985 4.26936,3.386 6.42802,5.0462 4.86898,3.4689 10.57444,4.6355 16.07603,6.0437 2.05972,0.6697 4.21239,0.6248 6.33207,0.6662 0.31481,3.0201 0.61162,6.0575 0.45872,9.1053 -0.072,1.1632 -0.0899,2.3402 0.12592,3.4896 2.59939,-1.7811 4.90196,-4.1558 6.72483,-6.9343 0.73155,-1.0803 1.9398,-1.781 3.14205,-1.5532 1.95479,0.9457 2.45848,3.4999 2.9052,5.633 0.69557,2.285 0.56065,4.7287 0.55166,7.1068 -0.087,0.9734 -0.50669,1.8501 -0.75553,2.7717 -0.36578,1.0907 -0.51868,2.2884 -1.05535,3.2928 -0.70756,1.0251 -1.67296,1.7568 -2.55741,2.5611 -1.60401,1.3047 -3.11807,2.8786 -5.03388,3.5482 -1.37015,0.5385 -2.99215,0.604 -4.01751,1.9363 -2.75529,3.3067 -5.87336,6.1784 -9.08137,8.8741 -4.63812,3.1478 -9.0304,6.8549 -14.09426,9.0777 0.31181,2.6232 1.00138,5.1532 1.92481,7.5762 -1.95479,2.071 -4.2004,3.7209 -6.27211,5.6227 -1.93381,1.7776 -4.05649,3.2825 -5.87036,5.2292 -0.27883,0.01 -0.55166,0.021 -0.82449,0.021 -4.05649,-1.4773 -7.45638,-4.5838 -10.72435,-7.6177 -0.99239,-0.856 -1.97278,-1.7569 -2.69233,-2.9304 0.92642,-2.499 1.35516,-5.2257 1.39713,-7.9352 -3.34892,-2.2056 -6.76681,-4.2731 -10.21167,-6.2819 -1.41812,-0.8491 -2.83324,-1.7189 -4.11045,-2.8303 -2.9052,-2.4783 -6.13719,-4.6286 -8.31085,-8.0492 -0.83048,-1.3081 -0.54566,-3.4723 -1.97577,-4.2489 -2.44049,-1.3979 -5.20477,-2.0399 -7.44738,-3.8899 -1.48109,-1.2598 -3.03112,-2.5749 -3.90658,-4.494 -0.70756,-1.3979 -0.77652,-3.0685 -0.77652,-4.6458 0.009,-3.2273 0.74654,-6.4373 2.0987,-9.2607 0.57264,-1.0113 1.35516,-2.2573 2.54842,-2.0951 1.19925,-0.1933 2.05672,0.8836 2.82125,1.7603 1.11531,1.3393 2.69833,1.9088 3.96054,3.0271 2.28459,1.926 5.20478,2.4161 7.97206,2.2918 -1.22624,-3.279 -2.03574,-6.7409 -2.52443,-10.2615 -0.76453,-3.997 -1.1303,-8.0871 -1.21725,-12.1773 0.0419,-2.8786 -0.19191,-5.7987 0.37474,-8.6324 z"
           id="path3851" />
        <g
           id="g4115"
           transform="translate(-1,-9)"
           style="fill:#bcd35f;fill-opacity:1">
          <g
             transform="translate(-72,30)"
             id="g4108"
             style="fill:#bcd35f;fill-opacity:1">
            <path
               style="fill:#bcd35f;fill-opacity:1;stroke:#eb6972;stroke-width:0.09650663"
               inkscape:connector-curvature="0"
               d="m 489.11752,1217.4252 c -0.9804,-1.0355 0.55765,-3.0443 1.63101,-2.2021 0.79151,0.4901 0.89645,1.5774 1.01338,2.4955 -0.85753,0.2589 -2.04177,0.7973 -2.64439,-0.2934 z"
               id="path3847" />
            <path
               style="fill:#bcd35f;fill-opacity:1;stroke:#eb6972;stroke-width:0.09650663"
               inkscape:connector-curvature="0"
               d="m 483.38507,1224.5838 c 1.23523,-1.8017 2.77928,-3.883 4.93197,-3.9693 0.71056,0.059 1.39411,0.7593 1.47806,1.5946 0.19188,1.5912 -0.27583,3.1479 -0.77952,4.6044 -0.61765,1.7673 -1.16328,3.5655 -1.59801,5.4018 0.36277,0.145 0.71353,0.39 1.11831,0.4004 0.72851,-0.5903 1.36112,-1.3323 2.12268,-1.8742 -1.30419,2.1503 -3.26498,4.1281 -5.6485,4.204 -0.81849,0.1312 -1.52009,-0.7317 -1.42112,-1.6464 0.34776,-2.6785 1.29517,-5.1947 2.35954,-7.5901 0.41075,-1.1804 1.27721,-2.2987 0.94142,-3.6518 -1.4631,0.2313 -2.32053,1.7017 -3.50483,2.5266 z"
               id="path3853" />
          </g>
        </g>
        <path
           style="fill:none;fill-opacity:1;stroke:#bcd35f;stroke-width:0.80000001;stroke-miterlimit:4;stroke-dasharray:none;stroke-opacity:1"
           inkscape:connector-curvature="0"
           d="m 268.20951,1275.2097 c 2.86792,-0.3942 5.8922,0.1483 8.33426,1.7691 1.9929,1.0042 3.18731,3.1102 3.79616,5.1994 0.38927,2.7935 1.14451,5.8296 -0.20295,8.4848 -1.0081,1.9242 -2.21581,4.0302 -4.25862,4.9568 -1.36076,0.3034 -2.5585,1.0548 -3.8627,1.5096 -1.84319,-0.4009 -3.83942,0.01 -5.56948,-0.8794 -1.6968,-0.8391 -3.37031,-1.8972 -4.47488,-3.4876 -2.3123,-3.4776 -3.47677,-8.1378 -1.65022,-12.0836 1.67018,-2.8643 4.75435,-4.7041 7.88843,-5.4691 m -6.35798,4.7379 c 1.01807,0.081 2.03948,0.084 3.06087,0.063 0.59222,-1.7218 1.94633,-2.9417 3.32373,-4.0334 -2.39547,0.7851 -4.6246,2.1398 -6.3846,3.9695 m 3.82277,0.051 c 1.43729,0.037 2.8779,0.02 4.32183,0.03 -0.01,-1.3209 -0.007,-2.6418 -0.02,-3.9628 -1.54709,1.1761 -3.64646,1.904 -4.30188,3.9324 m 5.20683,0.027 c 1.28757,0 2.57513,0 3.8627,-0.01 -0.72862,-1.8231 -2.14261,-3.1743 -3.74293,-4.2256 -0.14306,1.4052 -0.0998,2.8204 -0.11977,4.2323 m 1.86648,-3.9527 c 0.75856,0.6909 1.66019,1.2907 2.09271,2.2712 0.35266,0.5358 0.50239,1.267 1.04137,1.6445 0.8617,0.091 1.73006,0.037 2.5951,0.033 -0.32606,-0.5324 -0.53234,-1.1894 -1.07797,-1.5432 -1.43729,-1.0076 -3.001,-1.823 -4.65121,-2.406 m -11.58812,4.8186 c -0.60552,1.4827 -0.87168,3.0732 -0.86171,4.6738 1.42399,0.014 2.85129,0.01 4.27859,0 0.03,-1.5467 -0.0466,-3.0933 -0.15637,-4.6333 -1.08794,0.03 -2.17589,0.02 -3.26051,-0.044 m 4.39836,0.061 c -0.25951,1.5232 -0.30276,3.0732 -0.31607,4.6199 1.58368,0.01 3.17068,0.014 4.75435,-0.027 -0.0166,-1.5367 -0.0133,-3.0698 -0.007,-4.6064 -1.47721,0.023 -2.95442,0.02 -4.43163,0.014 m 5.32994,-0.014 c 0.0166,1.5299 0.02,3.0597 -0.003,4.5895 1.54375,0.067 3.08749,0.054 4.63458,0.033 0.17966,-1.5568 0,-3.1271 -0.44916,-4.6198 -1.39403,0.02 -2.78806,0.02 -4.18209,0 m 5.20683,0 c 0.2961,1.5265 0.2462,3.0832 0.24953,4.6299 1.1944,0 2.38548,0.01 3.5799,0 -0.10975,-1.513 -0.0266,-3.1305 -0.74527,-4.5087 -1.01474,-0.2122 -2.05944,-0.091 -3.08416,-0.1246 m -15.54065,5.56 c 0.21959,1.5567 0.40589,3.2348 1.46723,4.4782 0.80181,0.2629 1.67351,0.1382 2.50526,0.2124 0.0266,-1.5636 0.10642,-3.1271 0.0366,-4.6873 -1.33747,-0.01 -2.67162,-0.01 -4.00909,0 m 4.74104,0 c 0.0633,1.5534 0.0699,3.127 0.42255,4.6535 1.42397,-0.037 2.84794,-0.03 4.27525,-0.014 -0.01,-1.5332 -0.0133,-3.0698 0.003,-4.603 -1.56703,-0.058 -3.13407,-0.044 -4.70111,-0.037 m 5.58611,0.047 c 0.0266,1.5298 0.0266,3.0596 0.003,4.5895 1.26428,-0.01 2.53188,-0.01 3.79949,0 0.3926,-1.5198 0.68537,-3.063 0.83509,-4.6265 -1.54708,-0.017 -3.09415,-0.033 -4.63791,0.04 m 5.46967,-0.037 c -0.0931,1.5534 -0.2329,3.1102 -0.53899,4.6367 1.01143,-0.034 2.04614,0.081 3.04425,-0.1314 1.02141,-1.2434 1.2776,-2.9249 1.20107,-4.4951 -1.23766,-0.03 -2.472,-0.03 -3.70633,-0.01 m -13.81058,5.6172 c 1.3541,1.7185 3.23389,2.9384 5.27005,3.6561 -0.74527,-1.3984 -1.88644,-2.5036 -2.84463,-3.7471 -0.80847,0.021 -1.62027,0.037 -2.42542,0.091 m 3.75624,-0.051 c 1.1312,1.4219 2.12931,3.0259 3.66307,4.0469 0.0433,-1.358 0.0266,-2.716 0.03,-4.074 -1.23101,0.014 -2.46203,0 -3.69303,0.027 m 4.59133,-0.027 c 0.0166,1.3277 0.01,2.6587 0.007,3.9897 0.45248,-0.07 0.90828,-0.1145 1.35079,-0.2358 1.058,-1.0177 1.72673,-2.3588 2.22247,-3.7302 -1.19442,-0.014 -2.38883,-0.01 -3.57991,-0.024 m 4.69446,0.024 c -0.37596,1.1355 -0.86171,2.2273 -1.41067,3.2821 1.68682,-0.7043 3.24388,-1.7321 4.22536,-3.326 -0.93824,0.021 -1.87646,0.03 -2.81469,0.044 z"
           id="path3859" />
        <path
           style="fill:none;fill-opacity:1;stroke:#bcd35f;stroke-width:0.80000001;stroke-miterlimit:4;stroke-dasharray:none;stroke-opacity:1"
           inkscape:connector-curvature="0"
           d="m 261.85153,1279.9476 c 1.76,-1.8298 3.98913,-3.1844 6.3846,-3.9695 -1.3774,1.0917 -2.73151,2.3116 -3.32373,4.0334 -1.02139,0.02 -2.0428,0.017 -3.06087,-0.063 z"
           id="path3861" />
        <path
           style="fill:none;fill-opacity:1;stroke:#bcd35f;stroke-width:0.80000001;stroke-miterlimit:4;stroke-dasharray:none;stroke-opacity:1"
           inkscape:connector-curvature="0"
           d="m 265.6743,1279.998 c 0.65543,-2.0285 2.7548,-2.7564 4.30188,-3.9324 0.0133,1.321 0.01,2.6419 0.02,3.9628 -1.44393,-0.01 -2.88454,0.01 -4.32183,-0.03 z"
           id="path3863" />
        <path
           style="fill:none;fill-opacity:1;stroke:#bcd35f;stroke-width:0.80000001;stroke-miterlimit:4;stroke-dasharray:none;stroke-opacity:1"
           inkscape:connector-curvature="0"
           d="m 270.88113,1280.0251 c 0.02,-1.412 -0.0233,-2.8272 0.11977,-4.2323 1.60032,1.0512 3.01431,2.4025 3.74293,4.2255 -1.28756,0.01 -2.57513,0 -3.8627,0.01 z"
           id="path3865" />
        <path
           style="fill:none;fill-opacity:1;stroke:#bcd35f;stroke-width:0.80000001;stroke-miterlimit:4;stroke-dasharray:none;stroke-opacity:1"
           inkscape:connector-curvature="0"
           d="m 272.74761,1276.0724 c 1.65021,0.583 3.21392,1.3984 4.65121,2.406 0.54563,0.3538 0.75192,1.0108 1.07797,1.5433 -0.86504,0 -1.7334,0.058 -2.5951,-0.033 -0.53898,-0.3775 -0.6887,-1.1087 -1.04137,-1.6445 -0.43252,-0.9805 -1.33415,-1.5803 -2.09271,-2.2711 z"
           id="path3867" />
        <path
           style="fill:none;fill-opacity:1;stroke:#bcd35f;stroke-width:0.80000001;stroke-miterlimit:4;stroke-dasharray:none;stroke-opacity:1"
           inkscape:connector-curvature="0"
           d="m 261.15949,1280.891 c 1.08463,0.064 2.17257,0.074 3.26051,0.044 0.10975,1.5399 0.18632,3.0865 0.15637,4.6332 -1.4273,0.01 -2.8546,0.01 -4.27858,0 -0.01,-1.6006 0.25618,-3.1911 0.8617,-4.6738 z"
           id="path3877" />
        <path
           style="fill:none;fill-opacity:1;stroke:#bcd35f;stroke-width:0.80000001;stroke-miterlimit:4;stroke-dasharray:none;stroke-opacity:1"
           inkscape:connector-curvature="0"
           d="m 265.55785,1280.9516 c 1.47721,0.01 2.95442,0.01 4.43163,-0.014 -0.007,1.5366 -0.01,3.0697 0.007,4.6064 -1.58367,0.04 -3.17067,0.034 -4.75435,0.027 0.0133,-1.5467 0.0566,-3.0967 0.31607,-4.6199 z"
           id="path3879" />
        <path
           style="fill:none;fill-opacity:1;stroke:#bcd35f;stroke-width:0.80000001;stroke-miterlimit:4;stroke-dasharray:none;stroke-opacity:1"
           inkscape:connector-curvature="0"
           d="m 270.88779,1280.9382 c 1.39403,0.023 2.78806,0.023 4.1821,0 0.44915,1.4927 0.62881,3.063 0.44915,4.6198 -1.54708,0.021 -3.09083,0.034 -4.63458,-0.033 0.0233,-1.5298 0.02,-3.0596 0.003,-4.5896 z"
           id="path3881" />
        <path
           style="fill:none;fill-opacity:1;stroke:#bcd35f;stroke-width:0.80000001;stroke-miterlimit:4;stroke-dasharray:none;stroke-opacity:1"
           inkscape:connector-curvature="0"
           d="m 276.09462,1280.9382 c 1.02472,0.034 2.06942,-0.088 3.08417,0.1246 0.71864,1.3782 0.63547,2.9957 0.74526,4.5087 -1.19441,0 -2.38549,0 -3.5799,0 -0.003,-1.5467 0.0466,-3.1034 -0.24953,-4.6299 z"
           id="path3883" />
        <path
           style="fill:none;fill-opacity:1;stroke:#bcd35f;stroke-width:0.80000001;stroke-miterlimit:4;stroke-dasharray:none;stroke-opacity:1"
           inkscape:connector-curvature="0"
           d="m 260.55397,1286.4982 c 1.33747,0 2.67162,-0.01 4.0091,0 0.0699,1.5602 -0.01,3.1237 -0.0366,4.6872 -0.83176,-0.074 -1.70346,0.051 -2.50527,-0.2123 -1.06133,-1.2434 -1.24764,-2.9215 -1.46723,-4.4782 z"
           id="path3895" />
        <path
           style="fill:none;fill-opacity:1;stroke:#bcd35f;stroke-width:0.80000001;stroke-miterlimit:4;stroke-dasharray:none;stroke-opacity:1"
           inkscape:connector-curvature="0"
           d="m 265.29502,1286.4982 c 1.56704,-0.01 3.13408,-0.021 4.70111,0.037 -0.0166,1.5332 -0.0133,3.0698 -0.003,4.603 -1.42731,-0.017 -2.85128,-0.023 -4.27525,0.014 -0.35268,-1.5265 -0.35933,-3.1001 -0.42255,-4.6535 z"
           id="path3897" />
        <path
           style="fill:none;fill-opacity:1;stroke:#bcd35f;stroke-width:0.80000001;stroke-miterlimit:4;stroke-dasharray:none;stroke-opacity:1"
           inkscape:connector-curvature="0"
           d="m 270.88113,1286.5454 c 1.54376,-0.074 3.09083,-0.058 4.63791,-0.04 -0.14972,1.5635 -0.44249,3.1068 -0.83509,4.6265 -1.26761,-0.01 -2.53521,-0.01 -3.79949,0 0.0233,-1.5299 0.0233,-3.0597 -0.003,-4.5895 z"
           id="path3899" />
        <path
           style="fill:none;fill-opacity:1;stroke:#bcd35f;stroke-width:0.80000001;stroke-miterlimit:4;stroke-dasharray:none;stroke-opacity:1"
           inkscape:connector-curvature="0"
           d="m 276.3508,1286.5083 c 1.23433,-0.02 2.46867,-0.02 3.70633,0.01 0.0766,1.5702 -0.17966,3.2518 -1.20107,4.4951 -0.99811,0.2124 -2.03282,0.098 -3.04425,0.1314 0.30609,-1.5265 0.44584,-3.0832 0.53899,-4.6366 z"
           id="path3901" />
        <path
           style="fill:none;fill-opacity:1;stroke:#bcd35f;stroke-width:0.80000001;stroke-miterlimit:4;stroke-dasharray:none;stroke-opacity:1"
           inkscape:connector-curvature="0"
           d="m 262.54022,1292.1255 c 0.80515,-0.054 1.61695,-0.07 2.42542,-0.091 0.95819,1.2435 2.09936,2.3487 2.84463,3.7471 -2.03616,-0.7178 -3.91595,-1.9376 -5.27005,-3.6561 z"
           id="path3903" />
        <path
           style="fill:none;fill-opacity:1;stroke:#bcd35f;stroke-width:0.80000001;stroke-miterlimit:4;stroke-dasharray:none;stroke-opacity:1"
           inkscape:connector-curvature="0"
           d="m 266.29646,1292.075 c 1.231,-0.023 2.46202,-0.014 3.69302,-0.027 -0.003,1.358 0.0133,2.7159 -0.03,4.0739 -1.53376,-1.0209 -2.53188,-2.6249 -3.66307,-4.0469 z"
           id="path3905" />
        <path
           style="fill:none;fill-opacity:1;stroke:#bcd35f;stroke-width:0.80000001;stroke-miterlimit:4;stroke-dasharray:none;stroke-opacity:1"
           inkscape:connector-curvature="0"
           d="m 270.88779,1292.048 c 1.19108,0.014 2.38549,0.01 3.57991,0.023 -0.49574,1.3715 -1.16447,2.7126 -2.22248,3.7302 -0.4425,0.1214 -0.8983,0.1651 -1.35078,0.2359 0.003,-1.3311 0.01,-2.662 -0.007,-3.9897 z"
           id="path3907" />
        <path
           style="fill:none;fill-opacity:1;stroke:#bcd35f;stroke-width:0.80000001;stroke-miterlimit:4;stroke-dasharray:none;stroke-opacity:1"
           inkscape:connector-curvature="0"
           d="m 275.58225,1292.0716 c 0.93823,-0.014 1.87645,-0.023 2.81469,-0.044 -0.98148,1.5938 -2.53854,2.6216 -4.22536,3.3259 0.54896,-1.0548 1.03471,-2.1465 1.41067,-3.2821 z"
           id="path3909" />
        <g
           id="g4112"
           transform="translate(-11,-12)"
           style="fill:#bcd35f;fill-opacity:1">
          <path
             id="path3925"
             d="m 392.31953,1293.2257 c 2.12269,-1.6326 4.77904,-1.6395 7.23452,-1.7017 2.29058,-0.1001 4.77004,0.4177 6.57492,2.1331 1.37015,1.9087 2.68634,4.2972 2.43449,6.8825 -0.38676,2.7923 -2.54242,4.5078 -4.41026,6.0161 -1.31619,1.0804 -2.96816,1.2771 -4.53322,1.3461 -0.98639,1.5015 -2.17662,2.8821 -3.75667,3.5138 0.48869,-1.1391 1.04035,-2.2815 1.14829,-3.569 -2.04773,-0.8353 -4.27835,-1.3634 -6.01727,-2.9511 -1.4511,-1.6533 -1.90082,-4.1212 -1.98477,-6.3889 0.054,-2.3643 1.60403,-4.2075 3.30997,-5.2809 z"
             inkscape:connector-curvature="0"
             style="fill:#bcd35f;fill-opacity:1;stroke:#aa89be;stroke-width:0.09650663" />
        </g>
        <path
           style="fill:#ffffff;stroke:#ffffff;stroke-width:0.09650663"
           inkscape:connector-curvature="0"
           d="m 344.805,1293.3844 c 0.48869,-0.6765 1.30419,-0.3796 1.74491,0.2002 2.53343,2.889 5.06087,5.7918 7.61828,8.6532 -0.66559,2.889 -2.16466,5.3707 -3.65174,7.773 -1.57702,2.3643 -3.12706,4.7873 -5.12981,6.7099 -3.03112,-1.4428 -5.59154,-3.8658 -8.065,-6.2888 -1.83187,-1.7742 -3.03112,-4.2041 -4.65911,-6.1956 1.81387,-1.9467 3.93655,-3.4516 5.87036,-5.2292 2.07171,-1.9018 4.31732,-3.5517 6.27211,-5.6227 z"
           id="path3929" />
        <path
           style="fill:#ffffff;stroke:#ffffff;stroke-width:0.09650663"
           inkscape:connector-curvature="0"
           d="m 317.01223,1294.2404 c 0.38076,-0.4211 0.90844,-0.4763 1.40913,-0.5315 0.71955,1.1735 1.69994,2.0744 2.69233,2.9304 3.26797,3.0339 6.66786,6.1404 10.72435,7.6177 -0.87546,2.2366 -2.34755,4.0383 -3.72369,5.8746 -2.22463,2.9787 -5.24076,5.3292 -8.60467,6.1507 -2.40751,-2.9615 -4.87797,-5.9126 -6.71284,-9.3952 -0.92342,-1.7017 -1.93979,-3.3722 -2.46747,-5.3017 0.58464,-1.1942 1.57403,-2.0088 2.4225,-2.9338 1.43911,-1.4428 2.78827,-3.0098 4.26036,-4.4112 z"
           id="path3931" />
        <path
           style="fill:#abc837;fill-opacity:1;stroke:#f29c9f;stroke-width:0.09650663"
           inkscape:connector-curvature="0"
           d="m 305.37345,1302.8729 c 1.55003,-0.8422 3.25598,-1.1736 4.95592,-1.2875 0.52765,1.9295 1.54405,3.6 2.46747,5.3017 1.83487,3.4826 4.30533,6.4337 6.71284,9.3952 3.09108,3.7692 7.30047,5.7987 11.07813,8.4633 0.88445,0.5764 1.72393,1.3185 2.72531,1.6085 0.82449,-0.028 1.50807,-0.6696 2.19164,-1.1322 3.42088,-2.6232 7.01865,-5.0565 9.88188,-8.5012 2.00275,-1.9226 3.55279,-4.3456 5.12981,-6.7099 1.48708,-2.4023 2.98615,-4.884 3.65174,-7.773 1.66097,0.1691 3.25298,0.7973 4.91096,1.0216 -0.85447,3.7105 -2.20064,7.314 -4.24537,10.3686 -2.32656,3.4861 -4.90196,6.7755 -7.81915,9.6231 -2.18265,2.1365 -4.78803,3.562 -7.33046,5.0324 -1.22924,0.6903 -2.48246,1.3254 -3.76866,1.8673 -1.40913,0.6179 -2.94118,0.4901 -4.41926,0.5143 -0.87846,-0.017 -1.7689,0.038 -2.62937,-0.1829 -0.75253,-0.3003 -1.31619,-0.9872 -1.9398,-1.5256 -1.34916,-1.2909 -3.01613,-2.0123 -4.44025,-3.172 -2.15866,-1.7431 -4.43125,-3.3723 -6.20315,-5.6503 -1.56203,-1.995 -3.09708,-4.0142 -4.6681,-5.9954 -2.65036,-3.2998 -4.24837,-7.452 -6.24213,-11.266 z"
           id="path3937" />
        <path
           style="fill:#008000;stroke:#d96c72;stroke-width:0.09650663"
           inkscape:connector-curvature="0"
           d="m 298.55567,1305.4167 c 2.18865,-1.1011 4.42526,-2.2159 6.81778,-2.5438 1.99376,3.814 3.59177,7.9662 6.24213,11.266 1.57102,1.9812 3.10607,4.0004 4.6681,5.9954 1.7719,2.278 4.04449,3.9072 6.20315,5.6503 1.42412,1.1597 3.09109,1.8811 4.44025,3.172 0.62361,0.5384 1.18727,1.2253 1.9398,1.5256 0.86047,0.2209 1.75091,0.1656 2.62937,0.1829 1.47808,-0.024 3.01013,0.1036 4.41926,-0.5143 1.2862,-0.5419 2.53942,-1.177 3.76866,-1.8673 2.54243,-1.4704 5.14781,-2.8959 7.33046,-5.0324 2.91719,-2.8476 5.49259,-6.137 7.81915,-9.6231 2.0447,-3.0546 3.3909,-6.6581 4.24537,-10.3686 1.2892,0.1036 2.51843,0.5696 3.77166,0.9078 2.00276,0.5005 3.99052,1.1736 5.84337,2.1952 2.50345,1.6016 4.89297,3.5379 6.74882,6.0783 2.61438,3.6207 4.56617,7.7902 6.36805,11.9977 3.43587,6.7755 5.23475,14.3966 7.46237,21.752 0.86647,3.6311 1.51406,7.3312 2.50045,10.9277 0.69857,3.6691 1.39414,7.3519 1.76891,11.0865 0.3238,3.8106 1.29519,7.5418 1.22024,11.3972 -0.042,2.1434 0.11393,4.3421 -0.41075,6.4269 -0.62661,2.4195 -0.51268,5.0359 -1.39113,7.376 -0.87246,2.7302 -2.20663,5.2085 -3.56179,7.6453 -0.63561,1.0458 -0.40775,2.499 -1.17827,3.455 -1.40613,1.9433 -2.73431,4.028 -4.58416,5.4466 -1.38811,1.1425 -2.91719,2.0675 -4.5242,2.7164 -1.31618,0.5385 -2.72531,0.4177 -4.09246,0.4177 0.033,3.2169 -0.009,6.4372 0.18589,9.6506 0.006,5.9782 0.62961,11.9253 1.36415,17.8344 1.55004,4.7184 4.38328,8.8741 5.12982,13.9341 0.018,1.3047 -0.79151,2.3575 -1.40013,3.3791 -1.07034,1.5532 -2.00876,3.21 -3.00714,4.8219 -1.41212,1.9398 -0.74953,4.6286 -0.77951,6.9343 0.012,0.2002 0.03,0.604 0.042,0.8042 -0.95641,0.1622 -1.90682,0.4245 -2.7433,0.9906 -5.78341,3.8278 -12.29837,5.8815 -18.80434,7.3415 -9.64802,1.7811 -19.43995,2.9097 -29.21988,2.2539 -4.27835,-0.4176 -8.52372,-1.2184 -12.79007,-1.781 -2.80326,-0.5212 -5.66649,-0.7835 -8.3888,-1.7603 -2.11669,-0.9078 -4.39228,-1.1839 -6.48798,-2.1745 -3.30994,-1.498 -6.88073,-2.4576 -9.78893,-4.9185 -0.039,-1.9709 -1.27721,-3.5345 -1.2862,-5.4915 -1.57103,-1.6602 -2.82725,-3.6553 -3.98753,-5.7021 -0.75553,-1.1873 -0.35977,-2.7164 -0.18288,-4.0383 0.66858,-3.5931 1.55903,-7.1276 2.47946,-10.6447 0.40775,-1.6844 1.86784,-2.7475 2.05672,-4.5286 0.46172,-2.7474 0.98639,-5.5018 1.07334,-8.3079 0.0929,-4.9393 -0.045,-9.8716 -0.11693,-14.8074 -0.03,-1.9743 -0.68957,-3.8968 -0.44372,-5.8815 -1.38215,-0.8456 -2.80926,-1.6636 -3.93357,-2.9511 -2.71631,-2.8683 -5.29771,-5.9781 -7.20453,-9.6299 -2.16466,-5.9609 -3.78965,-12.3084 -3.78665,-18.8216 0.036,-6.0541 -0.28782,-12.191 0.76752,-18.1588 0.62661,-2.2815 0.36278,-4.7045 0.68058,-7.0447 0.74354,-7.0413 1.14529,-14.1723 2.76729,-21.0444 0.53067,-3.4481 1.97277,-6.5615 3.28896,-9.6748 1.47208,-3.0271 3.27996,-5.8401 5.3097,-8.4012 1.38215,-1.5152 2.66835,-3.1893 4.31133,-4.3421 2.72831,-1.9881 5.44462,-4.0521 8.43077,-5.5087 m 18.74438,25.7489 -0.31181,-0.014 c -0.24285,3.2341 -0.015,6.4855 -0.11093,9.73 -2.28758,-0.6006 -4.65011,-0.5281 -6.97967,-0.6075 -2.2546,0.1209 -4.89596,0.8802 -6.05624,3.3446 -0.95941,1.7776 -2.24261,3.3308 -2.92019,5.2948 -0.77352,2.2194 -1.75392,4.3455 -2.29358,6.665 -0.62062,2.6992 -1.89483,5.1187 -2.50045,7.8283 -1.20825,3.8071 -2.05972,7.7591 -3.51082,11.4593 -0.67459,1.8776 -1.619,3.6897 -1.79589,5.7469 -1.38214,1.6084 -2.03574,3.7898 -2.92019,5.7641 -0.53067,1.3289 -1.20525,2.5922 -1.59801,3.9901 -0.31181,1.6602 0.21287,3.4378 1.17827,4.6941 0.98339,1.2806 1.81687,2.7371 3.00714,3.7933 1.50806,1.36 3.26197,2.2988 4.9859,3.2307 1.78989,0.9906 3.82263,0.8112 5.75044,0.7801 1.38214,-0.021 2.51544,-1.0389 3.7057,-1.7189 0.44972,-0.3728 1.15429,-0.5834 1.23224,-1.3151 0.52167,-2.9718 0.74953,-6.0023 1.19626,-8.9914 0.075,-0.5523 0,-1.108 -0.072,-1.6499 1.03436,-1.2632 0.98639,-3.1375 1.22624,-4.7425 2.77028,-1.0285 5.72345,-0.925 8.58068,-1.3944 0.0809,1.0389 -0.33879,2.4713 0.6026,3.1341 1.68498,1.2667 3.81063,0.6937 5.69946,0.7075 7.99904,-0.031 16.00108,-0.014 24.00012,-0.01 0.62961,-0.01 1.25619,-0.1208 1.87983,-0.2485 1.43012,1.4531 3.44787,1.4048 5.22876,1.1528 0.84248,2.4472 1.25622,5.0566 2.02974,7.5349 0.57565,1.9536 1.23224,4.1281 2.98016,5.0738 1.07333,0.014 2.0957,-0.497 3.12406,-0.8146 1.35516,-0.5039 2.82125,-0.4901 4.14643,-1.1148 1.56503,-0.7663 2.95617,-1.9053 4.45524,-2.8131 1.96977,-1.177 3.89758,-2.5956 5.3157,-4.5906 0.42873,-0.5419 0.10493,-1.3047 -0.018,-1.9053 -0.72255,-2.4782 -1.37015,-4.9841 -2.2636,-7.3864 -0.44672,-1.208 -0.77951,-2.5507 -1.72093,-3.3895 1.68196,-1.7327 0.87246,-4.5008 0.57864,-6.696 -1.46609,-8.2735 -2.62937,-16.6989 -5.33069,-24.5892 -0.71956,-1.5291 -1.39114,-3.1755 -2.53943,-4.3421 -1.51106,-0.6938 -2.55142,0.9802 -3.48983,2.0364 -0.68058,-1.7327 -1.15129,-3.5586 -1.70295,-5.3431 -0.38076,-1.0872 -0.82449,-2.247 -1.66996,-2.9545 -1.11531,-0.4418 -2.2696,0.038 -3.24699,0.6661 -0.4767,-1.1908 -0.8125,-2.6853 -1.9308,-3.2928 -1.34317,-0.4176 -2.48546,0.7076 -3.46285,1.5946 -0.15288,-1.4393 0.4707,-3.4826 -0.76453,-4.4456 -1.51706,-0.3728 -3.0701,-0.1933 -4.60515,-0.2209 -7.8971,-0.01 -15.7912,0 -23.68531,0 -1.13626,0.045 -2.34152,-0.2277 -3.40286,0.3694 z"
           id="path3939" />
        <path
           style="fill:#dadada;stroke:#dadada;stroke-width:0.09650663"
           inkscape:connector-curvature="0"
           d="m 331.83804,1304.257 c 0.27283,0 0.54566,-0.01 0.82449,-0.021 1.62799,1.9915 2.82724,4.4214 4.65911,6.1956 2.47346,2.423 5.03388,4.846 8.065,6.2888 -2.86323,3.4447 -6.461,5.878 -9.88188,8.5012 -0.68357,0.4626 -1.36715,1.1046 -2.19164,1.1322 -1.00138,-0.29 -1.84086,-1.0321 -2.72531,-1.6085 -3.77766,-2.6646 -7.98705,-4.6941 -11.07813,-8.4633 3.36391,-0.8215 6.38004,-3.172 8.60467,-6.1507 1.37614,-1.8363 2.84823,-3.638 3.72369,-5.8746 z"
           id="path3941" />
        <path
           style="fill:#182727;stroke:#182727;stroke-width:0.09650663"
           inkscape:connector-curvature="0"
           d="m 317.30005,1331.1656 c 1.06134,-0.5971 2.2666,-0.3245 3.40289,-0.3693 7.89411,0 15.78821,-0.01 23.68531,0 1.53505,0.028 3.08809,-0.1519 4.60515,0.2209 -2.52144,0.397 -5.06686,0.1864 -7.60329,0.2244 -8.02902,0.01 -16.06404,0.09 -24.09006,-0.079 z"
           id="path3943" />
        <path
           style="fill:#303030;stroke:#303030;stroke-width:0.09650663"
           inkscape:connector-curvature="0"
           d="m 348.9934,1331.0206 c 1.23523,0.963 0.61162,3.0064 0.76453,4.4457 -0.012,0.9354 -0.0389,1.8742 -0.0899,2.813 -0.10793,-0.2036 -0.3208,-0.6109 -0.42873,-0.8111 -0.11993,9.7853 0.033,19.574 -0.057,29.3593 -0.009,1.1977 0.13792,2.385 0.29382,3.5655 0.021,4.2213 0.003,8.4391 0.009,12.6604 0.012,1.1977 -0.069,2.3954 -0.20987,3.5862 -0.62361,0.1277 -1.25022,0.2382 -1.87983,0.2485 -7.99907,-0.01 -16.00111,-0.024 -24.00012,0.01 -1.88883,-0.014 -4.01451,0.5592 -5.69946,-0.7075 -0.94142,-0.6628 -0.52168,-2.0952 -0.6026,-3.1341 1.96978,-0.1588 3.95455,-0.2796 5.88235,-0.818 2.55142,-0.7111 5.36967,-0.3003 7.72621,-1.8294 0.6506,-0.4142 1.34017,-0.7732 1.91881,-1.3254 0.19488,-1.101 0.015,-2.5921 -0.98939,-3.0892 -0.9624,-0.3002 -1.98776,-0.1277 -2.95017,-0.4349 -1.37614,-0.4176 -2.71631,-0.9837 -4.08946,-1.422 -1.46909,-0.5247 -3.04911,-0.9043 -4.27835,-2.0365 -0.81849,-0.749 -1.616,-1.5256 -2.4225,-2.2884 0.41375,-0.7041 0.67159,-1.781 1.50207,-1.9467 2.65036,0.5212 5.37267,0.5419 8.03202,0.062 1.80189,0.083 3.57978,-0.9458 4.90196,-2.2884 0.35978,-1.4566 -0.70156,-2.4714 -1.53504,-3.3205 0.4767,-0.3417 0.98938,-0.6316 1.40912,-1.0665 0.14991,-1.139 0.20088,-2.6543 -0.89944,-3.1824 -2.29957,-1.8431 -5.21377,-1.0182 -7.72921,-2.1055 -1.83786,-0.7938 -3.87659,-1.0285 -5.54356,-2.2884 -0.66559,-0.428 -0.89944,-1.7361 -0.19188,-2.2366 1.30719,-0.963 2.94717,-0.9457 4.42525,-0.6351 2.55742,0.5316 5.11183,1.2046 7.72322,1.2736 1.41512,0.2037 3.04611,-0.038 4.08047,-1.2632 0.44972,-1.001 0.46171,-2.3126 0.17689,-3.3653 -2.22163,-3.0513 -5.66349,-4.6355 -9.0424,-5.0808 -2.80326,-0.252 -5.57054,-0.8663 -8.32284,-1.4842 0.0959,-3.2445 -0.13192,-6.4959 0.11093,-9.73 l 0.31181,0.014 c 8.02602,0.1691 16.06101,0.086 24.09006,0.079 2.5364,-0.038 5.08182,0.1726 7.60326,-0.2244 z"
           id="path3945" />
        <path
           style="fill:#bcd35f;stroke:#f2c5b2;stroke-width:0.09650663"
           inkscape:connector-curvature="0"
           d="m 349.75793,1335.4663 c 0.97739,-0.8871 2.11968,-2.0123 3.46285,-1.5947 1.1183,0.6075 1.4541,2.1021 1.9308,3.2929 0.97736,-0.6282 2.13168,-1.108 3.24699,-0.6662 0.84547,0.7076 1.2892,1.8673 1.66996,2.9546 0.55166,1.7844 1.02237,3.6103 1.70295,5.343 0.93841,-1.0562 1.97877,-2.7302 3.48983,-2.0364 1.14829,1.1666 1.81987,2.813 2.53943,4.3421 2.70129,7.8903 3.8646,16.3157 5.33069,24.5892 0.29382,2.1952 1.10332,4.9633 -0.57864,6.6961 -1.15128,1.1804 -2.52144,2.0226 -3.77166,3.0512 -1.70594,1.3841 -3.58278,2.4713 -5.54956,3.2687 -1.83486,0.742 -3.79565,0.9906 -5.58853,1.8742 -1.01937,0.4901 -2.05673,0.9561 -3.13906,1.2115 -1.78089,0.2519 -3.79864,0.3003 -5.22876,-1.1529 0.14092,-1.1908 0.22187,-2.3885 0.20987,-3.5862 -0.006,-4.2213 0.012,-8.4391 -0.009,-12.6604 0.12895,-4.9841 0.012,-9.9751 0.063,-14.9592 0.20088,-5.7159 -0.021,-11.4386 0.12892,-17.1544 0.051,-0.9389 0.0779,-1.8777 0.0899,-2.8131 z"
           id="path3947" />
        <path
           style="fill:#131a1d;stroke:#131a1d;stroke-width:0.09650663"
           inkscape:connector-curvature="0"
           d="m 349.23925,1337.4682 c 0.10793,0.2002 0.3208,0.6075 0.42873,0.8111 -0.14991,5.7159 0.072,11.4386 -0.12892,17.1544 -0.051,4.9841 0.066,9.9752 -0.063,14.9593 -0.1559,-1.1805 -0.30278,-2.3678 -0.29382,-3.5655 0.0899,-9.7853 -0.063,-19.574 0.057,-29.3593 z"
           id="path3949" />
        <path
           style="fill:#bcd35f;stroke:#f2c5b2;stroke-width:0.09650663"
           inkscape:connector-curvature="0"
           d="m 303.8414,1343.6189 c 1.16028,-2.4644 3.80164,-3.2237 6.05624,-3.3446 2.32956,0.079 4.69209,0.01 6.97967,0.6075 2.7523,0.6179 5.51958,1.2322 8.32284,1.4842 3.37891,0.4453 6.82077,2.0295 9.0424,5.0808 0.28482,1.0527 0.27283,2.3643 -0.17689,3.3653 -1.03436,1.2253 -2.66535,1.4669 -4.08047,1.2632 -2.61139,-0.069 -5.1658,-0.742 -7.72322,-1.2736 -1.47808,-0.3106 -3.11806,-0.3279 -4.42525,0.6351 -0.70756,0.5005 -0.47371,1.8087 0.19188,2.2366 1.66697,1.2599 3.7057,1.4946 5.54356,2.2884 2.51544,1.0873 5.42964,0.2624 7.72921,2.1055 1.10032,0.5281 1.04935,2.0434 0.89944,3.1824 -0.41974,0.4348 -0.93242,0.7248 -1.40912,1.0665 0.83348,0.8491 1.89479,1.8639 1.53504,3.3205 -1.32218,1.3426 -3.10007,2.3712 -4.90196,2.2884 -1.64298,-0.2037 -3.29196,-0.1139 -4.93794,-0.1485 -1.03136,-0.01 -2.08071,-0.2174 -3.09408,0.086 -0.83048,0.1657 -1.08832,1.2426 -1.50207,1.9467 0.8065,0.7628 1.60401,1.5394 2.4225,2.2884 1.22924,1.1322 2.80926,1.5118 4.27835,2.0365 1.37315,0.4383 2.71332,1.0044 4.08946,1.422 0.96241,0.3072 1.98777,0.1347 2.95017,0.4349 1.00438,0.4971 1.18427,1.9882 0.98939,3.0892 -0.57864,0.5523 -1.26821,0.9112 -1.91881,1.3254 -2.35654,1.5291 -5.17476,1.1183 -7.72621,1.8294 -1.9278,0.5384 -3.91257,0.6592 -5.88235,0.818 -2.85723,0.4694 -5.8104,0.3659 -8.58068,1.3944 -0.23985,1.605 -0.19188,3.4793 -1.22624,4.7425 -2.30557,1.7155 -5.20177,1.7465 -7.78617,1.0045 -1.70295,-0.5834 -3.16004,-1.8121 -4.59915,-2.9684 -1.95479,-1.5947 -3.44786,-3.9452 -4.08047,-6.6133 0.17689,-2.0571 1.1213,-3.8692 1.79589,-5.7469 1.4511,-3.7001 2.30257,-7.6522 3.51082,-11.4593 0.60562,-2.7095 1.87983,-5.129 2.50045,-7.8282 0.53966,-2.3195 1.52006,-4.4456 2.29358,-6.665 0.67758,-1.964 1.96078,-3.5172 2.92019,-5.2948 z"
           id="path3951" />
        <path
           style="fill:#151b1d;stroke:#151b1d;stroke-width:0.09650663"
           inkscape:connector-curvature="0"
           d="m 319.39275,1367.8629 c 1.01337,-0.3037 2.06272,-0.093 3.09408,-0.086 1.64598,0.035 3.29496,-0.055 4.93794,0.1485 -2.65935,0.4797 -5.38166,0.459 -8.03202,-0.062 z"
           id="path3953" />
        <path
           style="fill:#ffffff;stroke:#ffffff;stroke-width:0.09650663"
           inkscape:connector-curvature="0"
           d="m 368.78113,1381.4381 c 1.25022,-1.0286 2.62038,-1.8708 3.77166,-3.0513 0.94142,0.8388 1.27421,2.1815 1.72093,3.3895 0.89345,2.4023 1.54105,4.9082 2.2636,7.3864 0.12292,0.6006 0.44672,1.3634 0.018,1.9053 -1.41812,1.995 -3.34593,3.4136 -5.3157,4.5906 -1.49908,0.9078 -2.89021,2.0468 -4.45524,2.8131 -1.32518,0.6247 -2.79127,0.6109 -4.14643,1.1148 -1.02836,0.3176 -2.05073,0.8284 -3.12406,0.8146 -1.74792,-0.9457 -2.40451,-3.1202 -2.98016,-5.0738 -0.77352,-2.4783 -1.18726,-5.0877 -2.02974,-7.5349 1.08233,-0.2554 2.11969,-0.7213 3.13906,-1.2115 1.79288,-0.8836 3.75367,-1.1321 5.58853,-1.8742 1.96678,-0.7973 3.84362,-1.8846 5.54956,-3.2686 z"
           id="path3955" />
        <path
           style="fill:#ffffff;stroke:#ffffff;stroke-width:0.09650663"
           inkscape:connector-curvature="0"
           d="m 290.82047,1380.6131 c 0.63261,2.6681 2.12568,5.0186 4.08047,6.6133 1.43911,1.1563 2.8962,2.385 4.59915,2.9684 2.5844,0.742 5.4806,0.711 7.78617,-1.0045 0.072,0.5419 0.14691,1.0976 0.072,1.6499 -0.44673,2.9891 -0.67459,6.0196 -1.19626,8.9914 -0.078,0.7317 -0.78252,0.9423 -1.23224,1.3151 -1.19026,0.6799 -2.32356,1.6981 -3.7057,1.7189 -1.92784,0.031 -3.96055,0.2105 -5.75044,-0.7801 -1.72393,-0.9319 -3.47784,-1.8707 -4.9859,-3.2307 -1.19027,-1.0562 -2.02375,-2.5127 -3.00714,-3.7933 -0.9654,-1.2563 -1.49008,-3.0339 -1.17827,-4.6941 0.39276,-1.3979 1.06734,-2.6612 1.59801,-3.9901 0.88445,-1.9743 1.53805,-4.1557 2.92019,-5.7642 z"
           id="path3957" />
        <path
           style="fill:#abc837;fill-opacity:1;stroke:#f29c9f;stroke-width:0.09650663"
           inkscape:connector-curvature="0"
           d="m 376.51334,1469.6401 c 0.20087,1.7327 0.23685,3.493 0.57564,5.2085 0.048,0.8145 0.49769,1.9225 -0.25484,2.4816 -1.70592,1.5395 -3.34893,3.2756 -5.41465,4.1592 -2.35354,1.0044 -4.66211,2.1918 -7.11159,2.8752 -4.26035,1.2391 -8.66762,1.5049 -12.99694,2.3022 -3.66373,0.3521 -7.32449,0.7697 -10.98519,1.1494 -8.11297,1.0458 -16.33087,0.3728 -24.3479,-1.2909 -5.13282,-0.8181 -10.19668,-2.0641 -15.28152,-3.1893 -1.52606,-0.3279 -3.01913,-0.8077 -4.5272,-1.2046 -2.79127,-0.7421 -5.29172,-2.4023 -7.84613,-3.8278 -0.50669,-0.3107 -1.04635,-0.6075 -1.42412,-1.1184 -0.20387,-1.8397 0.015,-3.7277 0.41674,-5.5121 0.0959,-0.6282 0.63561,-0.9044 1.01637,-1.2771 2.9082,2.4609 6.47899,3.4205 9.78893,4.9185 2.0957,0.9906 4.37129,1.2667 6.48798,2.1745 2.72231,0.9768 5.58554,1.2391 8.3888,1.7603 4.26635,0.5626 8.51172,1.3634 12.79007,1.781 9.77993,0.6558 19.57186,-0.4728 29.21988,-2.2539 6.50597,-1.46 13.02093,-3.5137 18.80434,-7.3415 0.83648,-0.5661 1.78689,-0.8284 2.7433,-0.9906 -0.012,-0.2002 -0.03,-0.604 -0.042,-0.8042 z"
           id="path3959" />
      </g>
      <path
         inkscape:connector-curvature="0"
         d="m 342.94562,582.03277 c -0.064,1.065 -0.0365,2.1316 -0.0282,3.1973 0.0108,0.8221 0.0118,1.6443 0.0192,2.4666 -0.002,0.1355 -0.004,0.271 -0.006,0.4065 0,0 -7.08843,2.7619 -7.08843,2.7619 l 0,0 c -0.002,-0.134 -0.004,-0.2678 -0.006,-0.4017 0.007,-0.8272 0.008,-1.6544 0.0192,-2.4815 0.008,-1.0584 0.0366,-2.1177 -0.0282,-3.1754 0,0 7.11888,-2.7737 7.11888,-2.7737 z"
         id="path4198"
         style="fill:#000000;fill-opacity:1;stroke:#bcd35f;stroke-width:0.70871437;stroke-miterlimit:4;stroke-dasharray:none;stroke-opacity:1" />
      <path
         style="fill:#000000;fill-opacity:1;stroke:#bcd35f;stroke-width:0.69719577;stroke-miterlimit:4;stroke-dasharray:none;stroke-opacity:1"
         id="path4200"
         d="m 364.0723,582.55937 c 0.0619,1.0663 0.0353,2.1341 0.0273,3.2012 -0.0104,0.823 -0.0113,1.6462 -0.0186,2.4695 0.002,0.1357 0.004,0.2713 0.006,0.407 0,0 6.85165,2.7652 6.85165,2.7652 l 0,0 c 0.002,-0.1341 0.004,-0.2682 0.006,-0.4022 -0.007,-0.8282 -0.008,-1.6564 -0.0185,-2.4845 -0.008,-1.0597 -0.0354,-2.1202 0.0273,-3.1792 0,0 -6.88108,-2.777 -6.88108,-2.777 z"
         inkscape:connector-curvature="0" />
      <path
         inkscape:connector-curvature="0"
         id="path4202"
         d="m 338.20051,607.35657 c 10.62194,0.7013 22.77731,4.8402 32.12851,-2.4063"
         style="fill:none;fill-rule:evenodd;stroke:#000000;stroke-width:1px;stroke-linecap:butt;stroke-linejoin:miter;stroke-opacity:1" />
      <text
         transform="scale(1.0700116,0.9345693)"
         sodipodi:linespacing="125%"
         id="text4222"
         y="641.09875"
         x="252.57014"
         style="font-style:normal;font-variant:normal;font-weight:normal;font-stretch:normal;font-size:37.66785049px;line-height:125%;font-family:Helvetica;-inkscape-font-specification:'Helvetica, Normal';text-align:center;letter-spacing:0px;word-spacing:0px;writing-mode:lr-tb;text-anchor:middle;fill:#bcd35f;fill-opacity:1;stroke:none;stroke-width:1px;stroke-linecap:butt;stroke-linejoin:miter;stroke-opacity:1"
         xml:space="preserve"><tspan
           y="641.09875"
           x="252.57014"
           id="tspan4224"
           sodipodi:role="line">?</tspan></text>
    </g>
  </g>
</svg>
