<svg width="400" height="400" viewBox="0 0 400 400" fill="none" xmlns="http://www.w3.org/2000/svg">
<g clip-path="url(#clip0)">
<path d="M327.162 322.116C323.653 319.899 319.637 318.508 315.522 318.077C313.617 317.88 311.542 317.934 310.019 319.101C309.698 319.343 309.378 319.711 309.449 320.115C309.502 320.411 309.752 320.626 309.983 320.806C314.721 324.45 321.881 324.908 327.162 322.116Z" fill="#FFAF00"/>
<path d="M326.859 321.784C324.223 319.711 321.569 317.628 319.343 315.115C317.107 312.611 315.3 309.631 314.632 306.328C314.427 305.323 314.365 304.183 315.006 303.384C320.99 308.114 325.701 314.209 326.859 321.784Z" fill="#FFAF00"/>
<path d="M327.1 322.071C326.645 318.768 326.485 315.367 327.242 312.126C327.999 308.877 329.744 305.771 332.496 303.913C333.529 306.355 333.084 309.164 332.354 311.713C331.223 315.654 329.46 319.406 327.144 322.781" fill="#FFAF00"/>
<path d="M332.968 332.681C329.406 333.121 326.298 335.015 323.635 337.447C320.973 339.88 319.076 343.156 318.292 346.683C321.792 346.468 324.757 343.982 326.913 341.19C329.068 338.399 330.555 335.347 332.924 332.735" fill="#FFAF00"/>
<path d="M334.25 334.386C331.374 327.251 332.416 318.661 336.913 312.431C338.935 319.711 338.196 327.942 334.25 334.386Z" fill="#FFAF00"/>
<path d="M342.007 343.703C338.775 343.497 335.48 344.278 332.665 345.911C329.851 347.545 327.536 350.022 326.084 352.94C325.888 353.334 325.71 353.846 325.977 354.196C326.209 354.501 326.654 354.537 327.037 354.51C330.172 354.304 332.959 352.401 335.248 350.238C337.546 348.075 339.541 345.57 342.079 343.694" fill="#FFAF00"/>
<path d="M341.767 343.192C340.102 337.806 339.995 331.936 341.473 326.497C342.061 324.351 343.04 322.089 345.008 321.075C345.178 320.985 345.374 320.914 345.552 320.976C345.721 321.039 345.819 321.21 345.89 321.371C346.594 322.852 346.798 324.522 346.727 326.164C346.656 327.798 346.318 329.414 345.979 331.011C345.356 333.973 345.026 337.16 343.414 339.718C343.031 340.328 342.693 340.984 342.39 341.63C342.087 342.276 342.079 342.509 341.802 343.021" fill="#FFAF00"/>
<path d="M362.312 346.279C360.789 340.445 362.41 333.363 366.052 328.579C366.319 328.229 366.676 327.852 367.112 327.888C367.78 327.951 367.958 328.857 367.931 329.53C367.673 335.499 365.696 341.379 362.312 346.279Z" fill="#FFAF00"/>
<path d="M364.164 347.554C371.2 349.403 379.268 347.608 385.119 343.255C381.655 341.486 377.567 340.975 373.773 341.854C369.988 342.725 366.524 344.439 364.164 347.554Z" fill="#FFAF00"/>
<path d="M365.723 343.667C369.659 337.196 377.22 332.968 384.745 332.582C383.881 335.67 381.361 338.067 378.52 339.512C375.679 340.957 372.509 341.594 369.392 342.204C368.181 342.447 366.515 342.707 365.723 343.667Z" fill="#FFAF00"/>
<path d="M362.704 324.809C363.773 321.129 364.841 317.404 365.135 313.58C365.429 309.757 364.886 305.762 362.918 302.477C359.24 309.658 358.866 318.041 362.597 325.195" fill="#FFAF00"/>
<path d="M375.091 318.499C379.393 310.618 388.173 304.317 397.061 303.438C393.641 312.036 384.291 318.679 375.091 318.499Z" fill="#FFAF00"/>
<path d="M372.384 320.043C378.805 321.03 384.273 325.159 390.275 327.663C391.558 328.202 392.938 328.624 394.318 328.444C395.699 328.265 397.052 327.331 397.364 325.967C397.622 324.836 397.106 323.633 396.304 322.799C395.494 321.964 394.434 321.452 393.365 321.003C386.829 318.266 379.82 318.194 372.945 319.855" fill="#FFAF00"/>
<path d="M368.671 324.576C370.122 324.998 370.621 325.752 371.77 326.739C375.67 330.087 380.355 332.519 385.333 333.758C385.849 333.884 386.535 333.937 386.784 333.471C387.007 333.058 386.722 332.555 386.437 332.196C384.353 329.566 381.379 327.771 378.244 326.595C375.109 325.419 372.402 324.001 368.662 324.306" fill="#FFAF00"/>
<path d="M364.485 297.172C369.703 302.082 377.059 304.604 384.166 303.922C384.487 303.895 384.843 303.841 385.066 303.599C385.564 303.052 384.968 302.217 384.389 301.768C378.591 297.217 371.583 295.332 364.485 297.172Z" fill="#FFAF00"/>
<path d="M369.454 295.342C376.356 290.127 385.814 288.556 394.016 291.257C390.925 294.327 386.633 295.979 382.314 296.437C377.986 296.885 373.666 296.401 369.454 295.342Z" fill="#FFAF00"/>
<path d="M367.477 282.748C366.907 276.923 367.281 272.336 366.88 266.484C366.845 266.017 366.747 265.452 366.319 265.29C365.714 265.057 365.215 265.802 365.01 266.421C363.292 271.816 364.227 277.991 367.477 282.623" fill="#FFAF00"/>
<path d="M367.059 283.386C370.977 280.944 373.907 277.758 376.623 274.015C378.511 271.412 380.105 268.288 379.678 265.093C377.024 265.039 374.504 266.511 372.776 268.548C371.048 270.577 370.024 273.117 369.258 275.684C368.492 278.242 367.958 280.872 367.059 283.386Z" fill="#FFAF00"/>
<path d="M376.463 280.756C385.057 277.551 393.071 272.794 400.009 266.762C397.195 265.622 393.98 266.305 391.166 267.445C384.745 270.057 379.491 274.473 376.347 280.684" fill="#FFAF00"/>
<path d="M369.703 286.572C374.049 287.048 378.466 287.362 382.777 286.635C387.016 285.917 391.023 284.229 394.977 282.551C395.307 282.416 395.663 282.246 395.805 281.914C395.966 281.555 395.797 281.124 395.512 280.863C395.227 280.603 394.844 280.477 394.47 280.37C390.168 279.158 385.52 279.724 381.281 281.16C377.05 282.605 373.568 284.319 369.703 286.572Z" fill="#FFAF00"/>
<path d="M344.884 297.37C341.918 291.338 342.114 284.301 344.67 278.081C346.469 280.854 346.692 284.373 346.362 287.676C346.033 290.97 345.035 294.363 344.973 297.675" fill="#FFAF00"/>
<path d="M333.04 291.347C325.639 291.204 318.23 294.381 313.207 299.865C316.903 300.449 320.705 299.488 324.072 297.837C327.429 296.185 330.421 293.86 333.378 291.554" fill="#FFAF00"/>
<path d="M325.078 288.663C321.453 288.367 317.971 287.918 314.489 288.987C311.007 290.064 307.837 292.505 306.421 295.88C309.805 296.266 313.243 295.404 316.351 293.986C319.45 292.586 322.273 290.62 325.078 288.663Z" fill="#FFAF00"/>
<path d="M336.869 288.789C333.609 286.635 330.261 284.445 326.467 283.556C322.673 282.668 318.274 283.323 315.629 286.204C318.702 288.017 322.424 288.233 325.986 288.233C329.548 288.233 333.912 288.188 337.27 289.391" fill="#FFAF00"/>
<path d="M336.887 288.96C331.321 283.448 329.201 273.539 331.445 266.008C335.827 272.713 337.786 280.989 336.887 288.96Z" fill="#FFAF00"/>
<path d="M352.204 273.342C353.255 270.882 353.994 268.297 354.938 265.793C355.882 263.289 357.049 260.82 358.83 258.828C360.611 256.835 363.078 255.354 365.732 255.228C364.066 262.813 359.07 269.59 352.347 273.386" fill="#FFAF00"/>
<path d="M349.434 276.6C347.698 274.185 345.685 270.918 343.334 269.114C340.974 267.31 337.911 266.224 335.025 266.915C337.946 272.184 343.477 275.9 349.434 276.6Z" fill="#FFAF00"/>
<path d="M349.987 273.539C348.847 270.622 347.698 267.669 347.235 264.572C346.772 261.466 347.057 258.154 348.624 255.453C351.679 261.278 352.667 267.534 350.138 273.611" fill="#FFAF00"/>
<path d="M352.231 255.453C353.959 249.681 359.213 245.427 364.877 243.47C365.589 243.228 366.346 243.021 367.094 243.138C367.842 243.254 368.573 243.766 368.724 244.511C368.929 245.489 368.127 246.378 367.37 247.024C362.962 250.83 357.77 253.711 352.231 255.453Z" fill="#FFAF00"/>
<path d="M352.293 250.731C352.516 247.006 352.747 243.228 353.95 239.7C355.152 236.173 357.467 232.86 360.834 231.317C361.403 235.078 359.756 238.82 357.779 242.052C355.793 245.292 353.397 248.344 352.204 251.952" fill="#FFAF00"/>
<path d="M352.204 253.29C350.77 249.08 350.628 243.739 348.125 240.068C346.38 237.501 343.575 235.76 342.07 233.04C341.072 235.571 341.375 238.497 342.426 241.011C343.468 243.524 345.204 245.696 347.048 247.689C348.9 249.69 350.485 251.189 352.204 253.29Z" fill="#FFAF00"/>
<path d="M352.231 377.237C352.124 377.237 352.026 349.161 352.017 314.532C352.008 279.894 352.097 251.826 352.204 251.826C352.311 251.826 352.409 279.894 352.418 314.532C352.427 349.161 352.347 377.237 352.231 377.237Z" fill="#FFAF00"/>
<path d="M376.579 293.133C376.587 293.16 376.213 293.304 375.528 293.528C374.78 293.789 373.809 294.112 372.642 294.507C370.211 295.341 366.872 296.553 363.247 298.043C359.658 299.596 356.274 300.853 354.35 302.54C353.389 303.375 352.836 304.272 352.56 304.928C352.284 305.583 352.231 305.987 352.195 305.987C352.177 305.987 352.186 305.888 352.204 305.691C352.24 305.502 352.284 305.215 352.409 304.874C352.641 304.183 353.184 303.222 354.154 302.334C355.125 301.445 356.47 300.646 358.019 299.919C359.56 299.192 361.279 298.438 363.096 297.684C366.729 296.185 370.095 295.009 372.553 294.246C373.782 293.86 374.78 293.573 375.474 293.385C376.178 293.196 376.57 293.106 376.579 293.133Z" fill="#FFAF00"/>
<path d="M384.558 273.378C384.567 273.387 384.469 273.494 384.264 273.692C384.024 273.916 383.73 274.194 383.373 274.535C382.545 275.298 381.414 276.331 380.034 277.587C377.148 280.172 373.248 283.682 368.929 287.55C364.592 291.437 360.842 295.153 358.251 297.953C356.951 299.354 355.927 300.512 355.232 301.319C354.903 301.696 354.635 302.002 354.422 302.253C354.235 302.459 354.128 302.567 354.119 302.558C354.11 302.549 354.19 302.423 354.359 302.199C354.528 301.975 354.769 301.634 355.107 301.221C355.766 300.377 356.764 299.192 358.037 297.765C360.584 294.911 364.316 291.15 368.662 287.254C373.016 283.377 376.97 279.885 379.847 277.372C381.263 276.151 382.421 275.146 383.267 274.41C383.649 274.087 383.961 273.826 384.211 273.62C384.424 273.458 384.54 273.369 384.558 273.378Z" fill="#FFAF00"/>
<path d="M364.244 291.518C364.129 291.464 365.037 289.355 365.936 286.698C366.845 284.032 367.272 281.779 367.388 281.806C367.495 281.815 367.237 284.131 366.31 286.832C365.856 288.179 365.358 289.364 364.966 290.207C364.574 291.042 364.289 291.545 364.244 291.518Z" fill="#FFAF00"/>
<path d="M352.258 308.518C352.231 308.536 351.999 308.258 351.59 307.737C351.135 307.154 350.566 306.409 349.88 305.529C348.446 303.653 346.451 301.068 344.225 298.241C341.998 295.413 339.95 292.873 338.463 291.033C337.759 290.162 337.181 289.426 336.717 288.852C336.308 288.331 336.094 288.035 336.112 288.017C336.13 287.999 336.388 288.26 336.833 288.744C337.278 289.229 337.911 289.947 338.677 290.845C340.217 292.631 342.301 295.144 344.536 297.98C346.763 300.817 348.722 303.429 350.102 305.35C350.797 306.31 351.34 307.091 351.714 307.638C352.088 308.186 352.275 308.5 352.258 308.518Z" fill="#FFAF00"/>
<path d="M346.923 301.607C346.861 301.678 345.436 299.973 344.688 297.388C344.136 295.566 344.109 293.896 344.18 293.133L344.358 293.151C344.278 293.475 344.225 293.645 344.189 293.645C344.154 293.636 344.154 293.457 344.18 293.125L344.358 293.142C344.421 293.896 344.537 295.512 345.071 297.28C345.792 299.785 347.03 301.535 346.923 301.607Z" fill="#FFAF00"/>
<path d="M340.03 292.873C339.977 292.927 339.523 292.344 338.472 291.958C337.43 291.554 335.863 291.464 334.135 291.608C332.407 291.733 330.875 292.047 329.771 292.317C328.667 292.595 327.999 292.81 327.972 292.747C327.954 292.703 328.596 292.388 329.691 292.038C330.786 291.688 332.345 291.329 334.099 291.204C335.845 291.051 337.492 291.186 338.57 291.688C339.665 292.182 340.066 292.864 340.03 292.873Z" fill="#FFAF00"/>
<path d="M338.392 290.755C338.365 290.818 337.483 290.387 335.996 289.875C334.518 289.364 332.407 288.825 330.029 288.637C327.652 288.457 325.488 288.663 323.947 288.951C322.406 289.229 321.471 289.516 321.453 289.453C321.444 289.426 321.667 289.328 322.086 289.184C322.504 289.031 323.119 288.852 323.894 288.672C325.434 288.313 327.643 288.053 330.065 288.242C332.487 288.43 334.625 289.022 336.103 289.615C336.842 289.911 337.421 290.18 337.813 290.396C338.196 290.602 338.409 290.728 338.392 290.755Z" fill="#FFAF00"/>
<path d="M352.204 281.797C352.097 281.824 351.314 279.086 350.459 275.693C349.604 272.292 348.998 269.518 349.105 269.482C349.212 269.455 349.996 272.193 350.85 275.586C351.705 278.997 352.311 281.77 352.204 281.797Z" fill="#FFAF00"/>
<path d="M352.311 281.797C352.195 281.833 351.688 280.011 350.378 278.144C349.105 276.232 347.475 275.28 347.529 275.182C347.546 275.137 348.001 275.307 348.624 275.756C349.256 276.196 350.031 276.941 350.699 277.91C352.07 279.858 352.409 281.797 352.311 281.797Z" fill="#FFAF00"/>
<path d="M352.231 362.265C352.186 362.274 352.106 361.592 351.794 360.398C351.483 359.205 350.904 357.517 349.933 355.534C348.01 351.566 344.51 346.54 340.057 341.513C337.848 338.973 335.711 336.577 333.894 334.288C332.078 331.999 330.582 329.818 329.486 327.888C328.391 325.958 327.678 324.307 327.26 323.14C327.055 322.556 326.904 322.099 326.823 321.784C326.734 321.47 326.699 321.3 326.708 321.3C326.743 321.291 326.948 321.946 327.402 323.086C327.856 324.226 328.605 325.85 329.727 327.753C330.84 329.647 332.345 331.801 334.17 334.063C335.996 336.334 338.133 338.713 340.342 341.262C344.804 346.306 348.295 351.396 350.174 355.426C351.118 357.436 351.661 359.16 351.928 360.372C352.062 360.982 352.142 361.458 352.177 361.781C352.231 362.095 352.249 362.265 352.231 362.265Z" fill="#FFAF00"/>
<path d="M374.227 337.223C374.236 337.25 373.818 337.465 373.079 337.878C372.339 338.3 371.289 338.946 370.086 339.871C368.884 340.795 367.539 342.016 366.159 343.479C364.779 344.951 363.363 346.647 361.911 348.478C359.017 352.141 356.301 355.381 354.68 357.975C353.861 359.259 353.255 360.345 352.863 361.099C352.471 361.853 352.258 362.283 352.231 362.265C352.222 362.256 352.258 362.149 352.338 361.933C352.427 361.727 352.543 361.413 352.721 361.027C353.068 360.246 353.638 359.133 354.439 357.822C356.016 355.174 358.705 351.889 361.599 348.227C363.051 346.396 364.485 344.691 365.892 343.228C367.299 341.765 368.679 340.553 369.917 339.646C371.155 338.74 372.242 338.12 373.007 337.743C373.39 337.546 373.702 337.429 373.907 337.339C374.112 337.25 374.227 337.214 374.227 337.223Z" fill="#FFAF00"/>
<path d="M374.655 345.355C374.664 345.418 373.729 345.525 372.215 345.714C370.71 345.911 368.626 346.163 366.435 346.863C364.253 347.581 362.445 348.667 361.261 349.6C360.068 350.525 359.507 351.297 359.453 351.252C359.435 351.234 359.551 351.028 359.818 350.687C360.077 350.346 360.504 349.879 361.092 349.376C362.25 348.371 364.084 347.213 366.319 346.477C368.564 345.759 370.683 345.552 372.197 345.427C373.711 345.31 374.655 345.301 374.655 345.355Z" fill="#FFAF00"/>
<path d="M360.166 350.354C360.041 350.283 361.136 348.595 361.991 346.315C362.793 344.017 362.98 342.007 363.122 342.034C363.176 342.043 363.176 342.545 363.078 343.353C362.98 344.161 362.793 345.274 362.365 346.459C361.938 347.635 361.377 348.622 360.949 349.304C360.522 349.986 360.219 350.381 360.166 350.354Z" fill="#FFAF00"/>
<path d="M381.352 315.42C381.361 315.429 381.218 315.501 380.96 315.627C380.657 315.761 380.283 315.941 379.811 316.147C379.312 316.363 378.698 316.641 378.012 317C377.327 317.359 376.516 317.727 375.688 318.23C375.26 318.472 374.815 318.724 374.361 318.993C373.898 319.262 373.444 319.576 372.963 319.881C371.983 320.483 371.004 321.219 369.953 321.973C367.905 323.544 365.749 325.402 363.674 327.538C361.617 329.701 359.854 331.936 358.367 334.054C357.654 335.131 356.96 336.146 356.399 337.16C356.114 337.663 355.811 338.129 355.561 338.605C355.312 339.081 355.081 339.539 354.849 339.969C354.377 340.831 354.039 341.648 353.709 342.357C353.371 343.057 353.121 343.685 352.925 344.197C352.73 344.673 352.569 345.059 352.445 345.364C352.329 345.633 352.266 345.768 352.249 345.768C352.24 345.759 352.275 345.615 352.364 345.337C352.471 345.023 352.605 344.619 352.774 344.134C352.952 343.614 353.184 342.976 353.504 342.258C353.816 341.54 354.137 340.705 354.6 339.835C354.822 339.395 355.054 338.928 355.294 338.452C355.535 337.968 355.829 337.492 356.114 336.989C356.666 335.966 357.36 334.943 358.064 333.848C359.542 331.703 361.314 329.441 363.389 327.26C365.482 325.096 367.664 323.238 369.739 321.677C370.799 320.923 371.796 320.196 372.794 319.603C373.283 319.298 373.747 318.993 374.218 318.724C374.69 318.463 375.136 318.221 375.572 317.979C376.418 317.485 377.237 317.135 377.941 316.794C378.636 316.444 379.259 316.192 379.776 315.995C380.256 315.806 380.639 315.663 380.951 315.537C381.2 315.447 381.352 315.402 381.352 315.42Z" fill="#FFAF00"/>
<path d="M363.942 327.17C363.906 327.161 364.102 326.479 364.895 325.734C365.678 324.989 367.094 324.289 368.751 324.244C370.398 324.199 371.832 324.666 372.812 325.043C373.791 325.429 374.361 325.743 374.343 325.797C374.317 325.85 373.711 325.635 372.714 325.312C371.725 325.007 370.327 324.603 368.76 324.648C367.201 324.693 365.856 325.303 365.073 325.949C364.289 326.604 364.004 327.215 363.942 327.17Z" fill="#FFAF00"/>
<path d="M361.341 329.88C361.234 329.818 362.214 328.364 362.437 326.29C362.695 324.217 362.071 322.574 362.187 322.538C362.232 322.52 362.454 322.897 362.641 323.588C362.828 324.271 362.962 325.258 362.837 326.335C362.713 327.412 362.365 328.346 362.018 328.965C361.68 329.584 361.377 329.907 361.341 329.88Z" fill="#FFAF00"/>
<path d="M332.995 366.296C333.592 377.022 336.806 387.936 341.74 398.968H363.193C367.896 388.044 370.888 377.147 371.413 366.296H332.995Z" fill="#FFAF00"/>
<path d="M367.94 383.655C367.94 383.763 360.878 383.861 352.159 383.861C343.441 383.861 336.379 383.772 336.379 383.655C336.379 383.547 343.441 383.448 352.159 383.448C360.869 383.448 367.94 383.538 367.94 383.655Z" fill="#FAFAFA"/>
<path d="M367.459 387.541C367.459 387.649 360.834 387.748 352.667 387.748C344.492 387.748 337.875 387.658 337.875 387.541C337.875 387.434 344.501 387.335 352.667 387.335C360.834 387.335 367.459 387.434 367.459 387.541Z" fill="#FAFAFA"/>
<path d="M342.079 373.342C342.185 373.342 342.283 375.577 342.283 378.323C342.283 381.079 342.194 383.305 342.079 383.305C341.972 383.305 341.874 381.079 341.874 378.323C341.883 375.568 341.972 373.342 342.079 373.342Z" fill="#FAFAFA"/>
<path d="M353.575 373.342C353.682 373.342 353.78 375.648 353.78 378.503C353.78 381.348 353.691 383.664 353.575 383.664C353.469 383.664 353.371 381.357 353.371 378.503C353.38 375.648 353.469 373.342 353.575 373.342Z" fill="#FAFAFA"/>
<path d="M364.369 373.252C364.476 373.252 364.574 375.604 364.574 378.512C364.574 381.42 364.485 383.772 364.369 383.772C364.262 383.772 364.164 381.42 364.164 378.512C364.173 375.604 364.262 373.252 364.369 373.252Z" fill="#FAFAFA"/>
<path d="M370.736 373.342C370.736 373.449 362.454 373.548 352.231 373.548C342.007 373.548 333.725 373.458 333.725 373.342C333.725 373.234 342.007 373.135 352.231 373.135C362.445 373.135 370.736 373.225 370.736 373.342Z" fill="#FAFAFA"/>
<path d="M373.025 0.673096H16.1011V207.19H373.025V0.673096Z" fill="#263238"/>
<path d="M373.702 207.872H15.4243V0H373.702V207.872ZM16.778 206.516H372.348V1.35535H16.778V206.516Z" fill="#263238"/>
<path d="M367.183 6.44458H24.0361V200.108H367.183V6.44458Z" fill="#455A64"/>
<path d="M367.86 200.781H23.3682V5.76245H367.86V200.781ZM24.7129 199.425H366.515V7.1178H24.7129V199.425Z" fill="#263238"/>
<path d="M379.624 197.908H9.31519V207.189H379.624V197.908Z" fill="#263238"/>
<path d="M380.301 207.872H8.63843V197.235H380.292V207.872H380.301ZM9.98316 206.516H378.947V198.591H9.98316V206.516Z" fill="#263238"/>
<path d="M108.95 42.9135C108.95 43.111 97.0345 43.2636 82.3315 43.2636C67.6285 43.2636 55.7129 43.102 55.7129 42.9135C55.7129 42.7161 67.6285 42.5635 82.3315 42.5635C97.0256 42.5635 108.95 42.725 108.95 42.9135Z" fill="white"/>
<path d="M108.95 48.5234C108.95 48.7209 97.0345 48.8735 82.3315 48.8735C67.6285 48.8735 55.7129 48.7119 55.7129 48.5234C55.7129 48.3259 67.6285 48.1733 82.3315 48.1733C97.0256 48.1733 108.95 48.3259 108.95 48.5234Z" fill="white"/>
<path d="M73.4349 32.9503C73.4349 33.1477 69.463 33.3003 64.5739 33.3003C59.6758 33.3003 55.7129 33.1388 55.7129 32.9503C55.7129 32.7528 59.6848 32.6002 64.5739 32.6002C69.4719 32.5912 73.4349 32.7528 73.4349 32.9503Z" fill="white"/>
<path d="M175.768 131.541C175.768 131.667 147.653 131.775 112.975 131.775C78.2884 131.775 50.1826 131.667 50.1826 131.541C50.1826 131.416 78.2884 131.308 112.975 131.308C147.653 131.308 175.768 131.407 175.768 131.541Z" fill="white"/>
<path d="M100.846 185.971C100.721 185.971 100.615 159.016 100.615 125.779C100.615 92.5322 100.721 65.5867 100.846 65.5867C100.971 65.5867 101.078 92.5322 101.078 125.779C101.078 159.025 100.98 185.971 100.846 185.971Z" fill="white"/>
<path d="M144.145 74.0239C144.189 74.0329 144.011 74.6163 143.584 75.6934C143.138 76.7525 142.444 78.3054 141.5 80.2801C139.621 84.2294 136.78 89.8752 133.182 96.8136C129.575 103.743 125.238 111.965 120.242 121.012C118.996 123.274 117.695 125.581 116.351 127.933C115.656 129.1 114.988 130.285 114.258 131.469C113.893 132.062 113.519 132.654 113.145 133.247L112.495 134.144L112.165 134.593L111.791 134.988C109.787 137.097 107.231 138.785 104.293 139.592C102.832 139.996 101.274 140.167 99.7151 139.969C98.1656 139.79 96.6427 139.251 95.298 138.462C92.5907 136.855 90.587 134.53 88.7792 132.25C86.9535 129.961 85.2971 127.601 83.801 125.195C80.7998 120.393 78.3686 115.492 76.2936 110.744C74.2097 105.996 72.4464 101.409 70.8078 97.1098C69.1781 92.8103 67.7176 88.7802 66.4263 85.0911C63.8348 77.713 61.9647 71.6632 60.7624 67.4536C60.1658 65.3442 59.7294 63.7017 59.4622 62.5886C59.195 61.4667 59.0793 60.8743 59.1238 60.8563C59.1683 60.8473 59.3821 61.4128 59.7383 62.5079C60.0945 63.6209 60.6199 65.2275 61.2878 67.292C62.6415 71.4388 64.663 77.4347 67.3614 84.759C68.7061 88.4212 70.2201 92.4244 71.8943 96.6969C73.5685 100.969 75.3675 105.529 77.4692 110.224C79.5619 114.918 81.9842 119.747 84.9498 124.459C86.4281 126.82 88.0667 129.136 89.8567 131.38C91.6289 133.624 93.5703 135.814 95.9926 137.25C98.3971 138.713 101.291 139.009 103.919 138.255C106.563 137.537 108.941 135.984 110.794 134.045L111.141 133.677L111.426 133.282L111.996 132.493C112.361 131.909 112.726 131.326 113.091 130.751C113.813 129.593 114.489 128.409 115.184 127.251C116.529 124.917 117.847 122.628 119.102 120.375C124.152 111.381 128.578 103.213 132.291 96.3468C135.996 89.4803 138.962 83.8973 140.992 80.0377C141.99 78.1169 142.764 76.6179 143.308 75.5767C143.824 74.5535 144.091 74.0059 144.145 74.0239Z" fill="white"/>
<path d="M100.499 119.873C100.499 119.998 99.3856 120.106 98.0053 120.106C96.6249 120.106 95.5117 119.998 95.5117 119.873C95.5117 119.747 96.6249 119.639 98.0053 119.639C99.3856 119.639 100.499 119.747 100.499 119.873Z" fill="white"/>
<path d="M100.499 106.92C100.499 107.046 99.3856 107.154 98.0053 107.154C96.6249 107.154 95.5117 107.046 95.5117 106.92C95.5117 106.795 96.6249 106.687 98.0053 106.687C99.3856 106.687 100.499 106.795 100.499 106.92Z" fill="white"/>
<path d="M100.499 93.9682C100.499 94.0939 99.3856 94.2016 98.0053 94.2016C96.6249 94.2016 95.5117 94.0939 95.5117 93.9682C95.5117 93.8426 96.6249 93.7349 98.0053 93.7349C99.3856 93.7349 100.499 93.8426 100.499 93.9682Z" fill="white"/>
<path d="M100.499 81.0161C100.499 81.1417 99.3856 81.2495 98.0053 81.2495C96.6249 81.2495 95.5117 81.1417 95.5117 81.0161C95.5117 80.8904 96.6249 80.7827 98.0053 80.7827C99.3856 80.7827 100.499 80.8904 100.499 81.0161Z" fill="white"/>
<path d="M100.499 165.829C100.499 165.955 99.3856 166.062 98.0053 166.062C96.6249 166.062 95.5117 165.955 95.5117 165.829C95.5117 165.703 96.6249 165.595 98.0053 165.595C99.3856 165.587 100.499 165.694 100.499 165.829Z" fill="white"/>
<path d="M100.499 152.877C100.499 153.002 99.3856 153.11 98.0053 153.11C96.6249 153.11 95.5117 153.002 95.5117 152.877C95.5117 152.751 96.6249 152.643 98.0053 152.643C99.3856 152.643 100.499 152.742 100.499 152.877Z" fill="white"/>
<path d="M100.499 139.925C100.499 140.05 99.3856 140.158 98.0053 140.158C96.6249 140.158 95.5117 140.05 95.5117 139.925C95.5117 139.799 96.6249 139.691 98.0053 139.691C99.3856 139.691 100.499 139.79 100.499 139.925Z" fill="white"/>
<path d="M91.8605 132.681C91.9851 132.681 92.092 133.803 92.092 135.194C92.092 136.586 91.9851 137.708 91.8605 137.708C91.7358 137.708 91.6289 136.586 91.6289 135.194C91.6289 133.812 91.7269 132.681 91.8605 132.681Z" fill="white"/>
<path d="M79.0099 132.681C79.1345 132.681 79.2414 133.803 79.2414 135.194C79.2414 136.586 79.1345 137.708 79.0099 137.708C78.8852 137.708 78.7783 136.586 78.7783 135.194C78.7783 133.812 78.8763 132.681 79.0099 132.681Z" fill="white"/>
<path d="M66.159 132.681C66.2837 132.681 66.3906 133.803 66.3906 135.194C66.3906 136.586 66.2837 137.708 66.159 137.708C66.0344 137.708 65.9275 136.586 65.9275 135.194C65.9275 133.812 66.0255 132.681 66.159 132.681Z" fill="white"/>
<path d="M53.3084 132.681C53.4331 132.681 53.54 133.803 53.54 135.194C53.54 136.586 53.4331 137.708 53.3084 137.708C53.1838 137.708 53.0769 136.586 53.0769 135.194C53.0769 133.812 53.1749 132.681 53.3084 132.681Z" fill="white"/>
<path d="M150.298 132.681C150.423 132.681 150.53 133.803 150.53 135.194C150.53 136.586 150.423 137.708 150.298 137.708C150.174 137.708 150.067 136.586 150.067 135.194C150.067 133.812 150.165 132.681 150.298 132.681Z" fill="white"/>
<path d="M163.559 132.681C163.683 132.681 163.79 133.803 163.79 135.194C163.79 136.586 163.683 137.708 163.559 137.708C163.434 137.708 163.327 136.586 163.327 135.194C163.327 133.812 163.425 132.681 163.559 132.681Z" fill="white"/>
<path d="M137.448 132.681C137.573 132.681 137.679 133.803 137.679 135.194C137.679 136.586 137.573 137.708 137.448 137.708C137.323 137.708 137.216 136.586 137.216 135.194C137.216 133.812 137.314 132.681 137.448 132.681Z" fill="white"/>
<path d="M124.597 132.681C124.722 132.681 124.829 133.803 124.829 135.194C124.829 136.586 124.722 137.708 124.597 137.708C124.472 137.708 124.365 136.586 124.365 135.194C124.365 133.812 124.463 132.681 124.597 132.681Z" fill="white"/>
<path d="M111.746 132.681C111.871 132.681 111.978 133.803 111.978 135.194C111.978 136.586 111.871 137.708 111.746 137.708C111.622 137.708 111.515 136.586 111.515 135.194C111.515 133.812 111.613 132.681 111.746 132.681Z" fill="white"/>
<path d="M104.693 70.6849C104.64 70.7208 104.159 70.0745 103.429 68.9974C102.698 67.9203 101.71 66.4213 100.641 64.7518L100.614 64.7159L101.015 64.698C100.08 66.4393 99.2074 67.9921 98.5662 69.1141C97.9161 70.2271 97.4886 70.9093 97.4352 70.8734C97.3818 70.8464 97.7024 70.1104 98.2812 68.9525C98.8601 67.7947 99.6794 66.2149 100.614 64.4736L100.801 64.1235L101.015 64.4556L101.042 64.4915C102.111 66.161 103.046 67.6959 103.714 68.8089C104.364 69.9399 104.747 70.649 104.693 70.6849Z" fill="white"/>
<path d="M171.583 135.203C171.547 135.149 172.188 134.665 173.257 133.929C174.326 133.193 175.813 132.196 177.469 131.119L177.505 131.092L177.523 131.496C175.795 130.554 174.254 129.674 173.141 129.028C172.037 128.373 171.36 127.942 171.396 127.888C171.422 127.834 172.153 128.157 173.301 128.741C174.45 129.324 176.018 130.15 177.745 131.092L178.093 131.281L177.763 131.496L177.727 131.523C176.071 132.6 174.548 133.543 173.444 134.216C172.322 134.871 171.618 135.257 171.583 135.203Z" fill="white"/>
<path d="M325.701 105.762C325.701 105.762 325.692 105.691 325.692 105.547C325.692 105.394 325.684 105.197 325.684 104.937C325.675 104.38 325.675 103.59 325.666 102.567C325.657 100.485 325.639 97.4598 325.621 93.6181C325.603 85.9258 325.568 74.9573 325.532 61.8167L325.71 61.9962C313.029 62.0052 298.068 62.0141 282.109 62.0231L282.314 61.8167C282.305 77.9104 282.296 92.9898 282.287 105.771L282.109 105.592C295.155 105.628 306.029 105.664 313.67 105.682C317.482 105.7 320.483 105.718 322.549 105.727C323.564 105.736 324.348 105.744 324.9 105.744C325.158 105.744 325.354 105.753 325.505 105.753C325.63 105.762 325.701 105.762 325.701 105.762C325.701 105.762 325.639 105.771 325.505 105.771C325.363 105.771 325.167 105.78 324.918 105.78C324.374 105.789 323.6 105.789 322.602 105.798C320.545 105.807 317.562 105.825 313.759 105.843C306.1 105.861 295.182 105.897 282.091 105.933H281.913V105.753C281.904 92.9719 281.895 77.8924 281.886 61.7987V61.5923H282.091C298.059 61.6013 313.02 61.6102 325.692 61.6192H325.871V61.7987C325.835 74.9932 325.799 85.9976 325.782 93.7169C325.764 97.5406 325.746 100.556 325.737 102.63C325.728 103.644 325.719 104.425 325.719 104.964C325.719 105.215 325.71 105.412 325.71 105.556C325.71 105.709 325.701 105.771 325.701 105.762Z" fill="white"/>
<path d="M325.701 105.762C325.701 105.762 325.808 105.673 326.031 105.529C326.271 105.377 326.601 105.161 327.028 104.883C327.928 104.308 329.228 103.483 330.893 102.432C334.269 100.314 339.122 97.2624 345.089 93.5194L345.017 93.6541C345 82.1829 344.982 66.9868 344.964 50.3545L345.169 50.561C345.133 50.561 345.089 50.561 345.044 50.561C328.542 50.543 313.456 50.5251 302.057 50.5071L302.137 50.4892C295.984 53.9808 290.988 56.8261 287.497 58.8008C285.778 59.7702 284.424 60.5242 283.489 61.0448C283.044 61.2871 282.697 61.4846 282.438 61.6192C282.198 61.7449 282.073 61.7987 282.073 61.7987C282.073 61.7987 282.189 61.718 282.412 61.5743C282.661 61.4218 282.999 61.2243 283.436 60.964C284.362 60.4254 285.698 59.6445 287.399 58.6392C290.863 56.6286 295.841 53.7474 301.968 50.2019L302.004 50.184H302.048C313.447 50.175 328.533 50.1571 345.035 50.1301C345.08 50.1301 345.115 50.1301 345.16 50.1301H345.365V50.3366C345.347 66.9688 345.329 82.156 345.311 93.6361V93.7259L345.24 93.7707C339.238 97.4688 334.366 100.476 330.965 102.567C329.281 103.59 327.972 104.389 327.055 104.946C326.619 105.206 326.28 105.412 326.031 105.556C325.826 105.709 325.701 105.762 325.701 105.762Z" fill="white"/>
<path d="M345.178 50.3544C345.231 50.4531 340.921 53.101 335.542 56.2605C330.163 59.429 325.755 61.9063 325.701 61.8076C325.648 61.7089 329.958 59.061 335.337 55.9015C340.716 52.742 345.115 50.2557 345.178 50.3544Z" fill="white"/>
<path d="M284.157 103.958C284.21 104.057 283.801 104.407 283.222 104.739C282.652 105.071 282.144 105.26 282.082 105.161C282.029 105.062 282.438 104.712 283.017 104.38C283.596 104.048 284.104 103.86 284.157 103.958Z" fill="white"/>
<path d="M288.298 101.571C288.352 101.669 287.942 102.019 287.363 102.352C286.793 102.684 286.286 102.872 286.223 102.773C286.17 102.675 286.579 102.325 287.158 101.993C287.728 101.651 288.245 101.472 288.298 101.571Z" fill="white"/>
<path d="M292.439 99.1742C292.493 99.2729 292.083 99.623 291.504 99.9551C290.934 100.287 290.427 100.476 290.364 100.377C290.311 100.278 290.721 99.9282 291.299 99.596C291.869 99.2639 292.377 99.0755 292.439 99.1742Z" fill="white"/>
<path d="M296.571 96.7777C296.625 96.8764 296.215 97.2265 295.636 97.5586C295.066 97.8907 294.559 98.0792 294.496 97.9805C294.443 97.8817 294.853 97.5317 295.431 97.1996C296.01 96.8675 296.518 96.679 296.571 96.7777Z" fill="white"/>
<path d="M300.712 94.3812C300.766 94.48 300.356 94.83 299.777 95.1621C299.199 95.4942 298.7 95.6827 298.637 95.584C298.584 95.4852 298.994 95.1352 299.573 94.8031C300.143 94.471 300.65 94.2825 300.712 94.3812Z" fill="white"/>
<path d="M301.763 90.1714C301.879 90.1714 301.968 90.7099 301.959 91.3742C301.95 92.0384 301.861 92.5769 301.745 92.5769C301.63 92.5769 301.541 92.0384 301.549 91.3742C301.549 90.7099 301.647 90.1714 301.763 90.1714Z" fill="white"/>
<path d="M301.799 85.3604C301.915 85.3604 302.004 85.8989 301.995 86.5631C301.986 87.2273 301.897 87.7659 301.781 87.7659C301.665 87.7659 301.576 87.2273 301.585 86.5631C301.585 85.8989 301.683 85.3604 301.799 85.3604Z" fill="white"/>
<path d="M301.834 80.5583C301.95 80.5583 302.039 81.0969 302.03 81.7611C302.021 82.4253 301.932 82.9639 301.817 82.9639C301.701 82.9639 301.612 82.4253 301.621 81.7611C301.621 81.0879 301.719 80.5583 301.834 80.5583Z" fill="white"/>
<path d="M301.87 75.7473C301.986 75.7473 302.075 76.2859 302.066 76.9501C302.057 77.6143 301.968 78.1528 301.852 78.1528C301.737 78.1528 301.647 77.6143 301.656 76.9501C301.656 76.2859 301.754 75.7473 301.87 75.7473Z" fill="white"/>
<path d="M301.906 70.9363C302.022 70.9363 302.111 71.4748 302.102 72.139C302.093 72.8033 302.004 73.3418 301.888 73.3418C301.772 73.3418 301.683 72.8033 301.692 72.139C301.701 71.4748 301.799 70.9363 301.906 70.9363Z" fill="white"/>
<path d="M301.95 66.1252C302.066 66.1252 302.155 66.6638 302.146 67.328C302.137 67.9922 302.048 68.5308 301.932 68.5308C301.817 68.5308 301.728 67.9922 301.736 67.328C301.736 66.6638 301.834 66.1252 301.95 66.1252Z" fill="white"/>
<path d="M301.986 61.323C302.102 61.323 302.191 61.8616 302.182 62.5258C302.173 63.19 302.084 63.7285 301.968 63.7285C301.852 63.7285 301.763 63.19 301.772 62.5258C301.772 61.8526 301.87 61.323 301.986 61.323Z" fill="white"/>
<path d="M302.022 56.512C302.137 56.512 302.226 57.0505 302.217 57.7147C302.208 58.3789 302.119 58.9175 302.004 58.9175C301.888 58.9175 301.799 58.3789 301.808 57.7147C301.808 57.0505 301.906 56.512 302.022 56.512Z" fill="white"/>
<path d="M302.057 51.7009C302.173 51.7009 302.262 52.2395 302.253 52.9037C302.244 53.5679 302.155 54.1065 302.039 54.1065C301.924 54.1065 301.834 53.5679 301.843 52.9037C301.852 52.2395 301.941 51.7009 302.057 51.7009Z" fill="white"/>
<path d="M342.791 93.654C342.791 93.5373 343.326 93.4475 343.985 93.4475C344.644 93.4475 345.178 93.5373 345.178 93.654C345.178 93.7706 344.644 93.8604 343.985 93.8604C343.326 93.8604 342.791 93.7706 342.791 93.654Z" fill="white"/>
<path d="M338.018 93.654C338.018 93.5373 338.552 93.4475 339.211 93.4475C339.87 93.4475 340.404 93.5373 340.404 93.654C340.404 93.7706 339.87 93.8604 339.211 93.8604C338.552 93.8604 338.018 93.7706 338.018 93.654Z" fill="white"/>
<path d="M333.253 93.654C333.253 93.5373 333.788 93.4475 334.447 93.4475C335.106 93.4475 335.64 93.5373 335.64 93.654C335.64 93.7706 335.106 93.8604 334.447 93.8604C333.779 93.8604 333.253 93.7706 333.253 93.654Z" fill="white"/>
<path d="M328.48 93.654C328.48 93.5373 329.014 93.4475 329.673 93.4475C330.332 93.4475 330.867 93.5373 330.867 93.654C330.867 93.7706 330.332 93.8604 329.673 93.8604C329.014 93.8604 328.48 93.7706 328.48 93.654Z" fill="white"/>
<path d="M323.707 93.654C323.707 93.5373 324.241 93.4475 324.9 93.4475C325.559 93.4475 326.093 93.5373 326.093 93.654C326.093 93.7706 325.559 93.8604 324.9 93.8604C324.241 93.8604 323.707 93.7706 323.707 93.654Z" fill="white"/>
<path d="M318.933 93.654C318.933 93.5373 319.468 93.4475 320.127 93.4475C320.786 93.4475 321.32 93.5373 321.32 93.654C321.32 93.7706 320.786 93.8604 320.127 93.8604C319.468 93.8604 318.933 93.7706 318.933 93.654Z" fill="white"/>
<path d="M314.169 93.654C314.169 93.5373 314.703 93.4475 315.362 93.4475C316.021 93.4475 316.555 93.5373 316.555 93.654C316.555 93.7706 316.021 93.8604 315.362 93.8604C314.694 93.8604 314.169 93.7706 314.169 93.654Z" fill="white"/>
<path d="M309.396 93.654C309.396 93.5373 309.93 93.4475 310.589 93.4475C311.248 93.4475 311.782 93.5373 311.782 93.654C311.782 93.7706 311.248 93.8604 310.589 93.8604C309.93 93.8604 309.396 93.7706 309.396 93.654Z" fill="white"/>
<path d="M304.622 93.654C304.622 93.5373 305.156 93.4475 305.815 93.4475C306.474 93.4475 307.009 93.5373 307.009 93.654C307.009 93.7706 306.474 93.8604 305.815 93.8604C305.156 93.8604 304.622 93.7706 304.622 93.654Z" fill="white"/>
<path d="M301.728 93.654C301.728 93.5373 301.844 93.4475 301.977 93.4475C302.12 93.4475 302.227 93.5373 302.227 93.654C302.227 93.7706 302.111 93.8604 301.977 93.8604C301.844 93.8604 301.728 93.7706 301.728 93.654Z" fill="white"/>
<path d="M350.459 79.0144C350.468 78.9695 350.859 79.1042 351.545 78.9605C352.213 78.8259 353.21 78.3412 353.807 77.2462C354.395 76.169 354.439 74.5085 353.682 73.0634C353.487 72.7223 353.202 72.4351 352.836 72.3723C352.471 72.3005 352.044 72.4261 351.723 72.6774C351.055 73.1891 350.681 74.1226 350.343 75.0112C349.987 75.9985 349.782 77.0218 349.72 77.9911L349.319 77.9822C349.274 74.7957 349.248 72.0222 349.248 70.0385C349.256 69.105 349.265 68.3331 349.265 67.7048C349.274 67.1573 349.292 66.8611 349.319 66.8611C349.346 66.8611 349.372 67.1573 349.408 67.7048C349.435 68.3242 349.47 69.105 349.506 70.0296C349.577 72.0132 349.648 74.7868 349.72 77.9732L349.319 77.9642C349.372 76.95 349.577 75.8908 349.951 74.8586C350.12 74.3829 350.316 73.9341 350.548 73.5032C350.779 73.0724 351.073 72.6505 351.483 72.3453C351.892 72.0491 352.409 71.8876 352.917 71.9773C353.442 72.0671 353.816 72.48 354.021 72.8659C354.831 74.4636 354.733 76.2139 354.065 77.3808C353.38 78.5656 352.284 79.0234 351.572 79.1131C351.207 79.167 350.922 79.1311 350.735 79.0952C350.548 79.0593 350.45 79.0234 350.459 79.0144Z" fill="white"/>
<path d="M329.317 45.337C329.326 45.3459 329.299 45.3998 329.219 45.4896C329.139 45.5793 329.005 45.705 328.792 45.8127C328.587 45.9204 328.293 46.0012 327.955 45.9922C327.616 45.9832 327.206 45.8576 326.886 45.5434C326.565 45.2293 326.343 44.7894 326.165 44.3227C325.986 43.8559 325.817 43.3353 325.657 42.7788C325.354 41.6658 325.114 40.3823 325.051 38.991L325.443 38.9641C325.577 40.481 325.764 42.2134 325.301 43.9816C325.025 44.951 324.606 45.9294 323.76 46.5397C323.333 46.827 322.807 46.9706 322.308 46.8629C321.792 46.7551 321.409 46.3782 321.169 45.9832C320.305 44.3317 320.643 42.5724 321.258 41.4145C321.908 40.2297 322.861 39.6014 323.52 39.2962C323.858 39.1436 324.134 39.0628 324.321 39.0269C324.508 38.991 324.615 38.9821 324.615 38.991C324.624 39.0269 324.223 39.1077 323.591 39.4488C322.967 39.7809 322.095 40.4182 321.516 41.5581C321.231 42.1236 321.035 42.7968 320.999 43.5418C320.973 44.2688 321.08 45.1036 321.489 45.7947C321.694 46.1268 322.006 46.4051 322.38 46.4859C322.754 46.5577 323.181 46.45 323.529 46.2166C324.223 45.7229 324.642 44.7984 324.9 43.8919C325.336 42.2313 325.167 40.5439 325.051 39.018L325.443 38.991C325.497 40.3554 325.701 41.612 325.978 42.707C326.12 43.2546 326.271 43.7662 326.432 44.2329C326.592 44.6997 326.779 45.1036 327.046 45.3908C327.598 45.9563 328.355 45.8755 328.729 45.7139C329.139 45.5344 329.29 45.319 329.317 45.337Z" fill="white"/>
<path d="M229.486 360.434L233.476 381.932C233.476 381.932 213.136 393.232 213.483 397.28L255.116 390.988L250.272 357.239L229.486 360.434Z" fill="#FFAF00"/>
<g opacity="0.3">
<g opacity="0.3">
<g opacity="0.3">
<g opacity="0.3">
<g opacity="0.3">
<g opacity="0.3">
<g opacity="0.3">
<g opacity="0.3">
<g opacity="0.3">
<path opacity="0.3" d="M229.486 360.434L233.476 381.932C233.476 381.932 213.136 393.232 213.483 397.28L255.116 390.988L250.272 357.239L229.486 360.434Z" fill="black"/>
</g>
</g>
</g>
</g>
</g>
</g>
</g>
</g>
</g>
<path d="M246.077 378.162C246.914 378.26 247.609 379.095 247.547 379.939C247.484 380.792 246.647 381.501 245.81 381.42C244.973 381.33 244.109 380.361 244.269 379.526C244.43 378.691 245.445 377.901 246.246 378.189" fill="#E0E0E0"/>
<path d="M255.116 390.988L254.493 387.604L214.81 394.902C214.81 394.902 213.073 395.997 213.483 397.28L255.116 390.988Z" fill="#263238"/>
<path d="M232.772 381.815C232.808 382.021 233.841 381.959 234.936 382.47C236.05 382.946 236.7 383.763 236.869 383.646C237.047 383.574 236.566 382.398 235.221 381.806C233.886 381.205 232.692 381.635 232.772 381.815Z" fill="#263238"/>
<path d="M228.676 384.301C228.658 384.508 229.593 384.723 230.412 385.486C231.258 386.222 231.57 387.138 231.766 387.093C231.962 387.093 231.926 385.872 230.884 384.948C229.86 384.005 228.649 384.104 228.676 384.301Z" fill="#263238"/>
<path d="M226.975 389.938C227.162 389.956 227.295 388.888 226.61 387.847C225.924 386.796 224.9 386.5 224.846 386.68C224.757 386.868 225.461 387.371 226.013 388.242C226.583 389.094 226.77 389.947 226.975 389.938Z" fill="#263238"/>
<path d="M232.398 376.815C232.514 376.986 233.405 376.564 234.562 376.474C235.72 376.358 236.673 376.609 236.753 376.42C236.851 376.259 235.863 375.631 234.5 375.756C233.129 375.873 232.274 376.672 232.398 376.815Z" fill="#263238"/>
<path d="M243.085 365.578L243.468 387.443C243.468 387.443 221.543 395.18 221.222 399.228L263.31 400L264.102 365.91L243.085 365.578Z" fill="#FFAF00"/>
<path d="M256.514 385.845C257.325 386.087 257.868 387.021 257.663 387.847C257.458 388.672 256.523 389.238 255.704 389.013C254.894 388.789 254.199 387.685 254.493 386.886C254.787 386.087 255.927 385.486 256.657 385.899" fill="#E0E0E0"/>
<path d="M263.318 400L263.265 396.562L222.932 397.11C222.932 397.11 221.044 397.9 221.231 399.228L263.318 400Z" fill="#263238"/>
<path d="M242.791 387.209C242.791 387.416 243.824 387.533 244.822 388.215C245.837 388.87 246.344 389.776 246.531 389.705C246.718 389.669 246.434 388.421 245.213 387.613C243.993 386.796 242.747 387.021 242.791 387.209Z" fill="#263238"/>
<path d="M238.338 388.969C238.285 389.166 239.175 389.534 239.852 390.423C240.565 391.293 240.716 392.245 240.921 392.236C241.117 392.272 241.277 391.06 240.404 389.974C239.558 388.879 238.347 388.771 238.338 388.969Z" fill="#263238"/>
<path d="M235.738 394.246C235.925 394.291 236.228 393.268 235.72 392.119C235.221 390.97 234.26 390.503 234.17 390.674C234.055 390.845 234.66 391.464 235.07 392.406C235.488 393.349 235.533 394.228 235.738 394.246Z" fill="#263238"/>
<path d="M243.245 382.219C243.325 382.407 244.278 382.138 245.436 382.246C246.603 382.327 247.493 382.73 247.609 382.56C247.734 382.416 246.861 381.626 245.489 381.528C244.127 381.411 243.147 382.057 243.245 382.219Z" fill="#263238"/>
<path d="M272.776 195.799L272.215 217.431L265.874 284.588C265.874 284.588 267.896 317.305 269.178 335.769C270.291 351.809 267.076 379.607 267.076 379.607L240.288 378.907L233.102 285.728L228.649 227.619L219.85 198.043L272.776 195.799Z" fill="#263238"/>
<path d="M206.483 199.578L204.88 288.547C204.791 293.026 205.522 297.478 207.018 301.696L230.029 366.314L231.169 370.577L247.271 367.095L236.13 197.37L206.421 198.591L206.483 199.578Z" fill="#263238"/>
<path d="M229.023 216.237C229.014 216.237 229.005 216.381 229.005 216.659C229.005 216.964 228.996 217.377 228.996 217.898C228.996 219.02 229.005 220.609 229.005 222.655C229.005 226.784 229.121 232.762 229.317 240.149C229.744 254.914 230.724 275.298 232.496 297.756C234.233 320.223 236.263 340.508 237.759 355.184C238.516 362.499 239.14 368.423 239.567 372.561C239.79 374.589 239.959 376.169 240.084 377.282C240.146 377.803 240.191 378.207 240.226 378.512C240.262 378.79 240.288 378.925 240.297 378.925C240.306 378.925 240.297 378.781 240.28 378.503C240.253 378.198 240.226 377.794 240.182 377.273C240.084 376.16 239.941 374.571 239.763 372.543C239.371 368.405 238.81 362.472 238.116 355.148C236.717 340.463 234.74 320.178 233.004 297.72C231.232 275.272 230.199 254.905 229.673 240.149C229.433 232.771 229.263 226.793 229.201 222.664C229.157 220.627 229.121 219.029 229.094 217.907C229.076 217.386 229.068 216.973 229.059 216.668C229.041 216.381 229.032 216.237 229.023 216.237Z" fill="#455A64"/>
<path d="M227.616 204.784C227.598 205.547 228.195 206.193 228.961 206.211C229.718 206.229 230.359 205.628 230.377 204.856C230.395 204.093 229.798 203.447 229.032 203.429C228.275 203.411 227.634 204.021 227.616 204.784Z" fill="#455A64"/>
<path d="M205.887 215.169C205.922 215.214 206.724 214.613 207.819 213.437C208.914 212.261 210.259 210.448 211.328 208.213C212.388 205.978 212.949 203.788 213.171 202.19C213.403 200.583 213.358 199.587 213.305 199.587C213.225 199.578 213.136 200.574 212.824 202.136C212.512 203.698 211.916 205.816 210.874 208.006C209.832 210.187 208.567 211.992 207.552 213.212C206.546 214.424 205.824 215.106 205.887 215.169Z" fill="#455A64"/>
<path d="M252.4 201.346C252.373 201.355 252.382 201.705 252.489 202.343C252.587 202.98 252.801 203.887 253.184 204.973C253.932 207.136 255.544 210.017 258.233 212.315C260.923 214.613 264.004 215.735 266.248 216.13C267.37 216.336 268.297 216.39 268.938 216.39C269.579 216.39 269.926 216.345 269.926 216.309C269.926 216.21 268.51 216.264 266.32 215.78C264.138 215.313 261.172 214.164 258.554 211.929C255.945 209.703 254.333 206.938 253.513 204.847C252.676 202.738 252.489 201.328 252.4 201.346Z" fill="#455A64"/>
<path d="M206.43 198.6C206.555 198.6 206.528 207.145 206.359 217.683C206.189 228.22 205.949 236.765 205.824 236.756C205.7 236.756 205.726 228.211 205.895 217.674C206.056 207.136 206.296 198.591 206.43 198.6Z" fill="#455A64"/>
<path d="M272.09 215.358C272.028 215.349 272.072 214.218 272.152 212.387C272.233 210.556 272.339 208.033 272.402 205.242C272.464 202.45 272.464 199.919 272.464 198.088C272.464 196.257 272.464 195.126 272.535 195.117C272.598 195.117 272.714 196.248 272.794 198.079C272.883 199.91 272.927 202.45 272.865 205.251C272.803 208.051 272.642 210.583 272.473 212.414C272.313 214.245 272.152 215.367 272.09 215.358Z" fill="#455A64"/>
<path d="M146.38 79.1849L144.626 76.8243C144.626 76.8243 143.708 74.8945 144.136 74.0328C144.563 73.1621 145.961 73.6738 145.961 73.6738L152.926 81.5815L150.485 83.6011L146.718 79.4722" fill="white"/>
<path d="M185.297 109.631L171.235 98.0971C171.235 98.0971 170.425 95.9339 169.08 95.3864C167.744 94.8389 166.551 92.8373 166.453 91.5358L164.298 84.0319C164.235 83.2331 162.33 78.9695 161.644 78.5567L159.729 78.1976C159.729 78.1976 159.097 74.9753 157.636 74.5714C156.176 74.1585 151.652 74.3829 151.652 74.3829L147.279 76.555C147.279 76.555 148.33 78.431 150.272 78.4131C152.213 78.3951 154.163 77.9104 154.163 77.9104L155.294 81.411C155.294 81.411 155.624 84.014 155.187 85.0911C154.751 86.1682 154.137 86.608 154.137 86.608C154.137 86.608 151.972 83.7716 151.073 82.138C150.174 80.5044 147.68 78.4759 146.718 79.4632C145.756 80.4506 147.716 82.3894 147.983 84.2025L148.286 86.5362C148.286 86.5362 149.933 89.4175 150.102 89.9291C150.272 90.4407 151.411 93.4925 152.658 94.5696C153.905 95.6467 158.215 99.3717 158.215 99.3717L163.452 105.682C165.019 107.522 179.669 124.001 179.669 124.001L186.98 113.5L185.297 109.631Z" fill="#FFBE9D"/>
<path d="M171.743 97.4059C171.903 97.9714 176.071 101.651 176.071 101.651C176.071 101.651 186.597 109.775 188.931 112.611C191.255 115.447 200.748 120.564 200.748 120.564L209.823 102.181L223.876 93.1603C227.002 89.9918 235.916 95.88 235.916 95.88L209.867 157.374L190.623 150.121L165.456 113.841L161.377 103.94L171.743 97.4059Z" fill="#FFAF00"/>
<path d="M251.296 76.5012L255.001 81.797C255.001 81.797 278.511 93.7438 279.509 95.3595C280.506 96.9662 273.328 153.532 273.328 153.532L276.205 187.901L272.776 197.146L206.127 200.916C205.085 200.503 202.52 198.268 202.342 194.327C202.2 191.32 204.578 188.224 204.56 186.24C204.4 172.309 205.887 140.311 208.14 128.516C211.132 112.844 217.909 97.3611 217.909 97.3611L223.894 93.1424L225.078 86.4285L251.296 76.5012Z" fill="#FFAF00"/>
<g opacity="0.3">
<path opacity="0.3" d="M274.664 179.75C273.773 179.05 272.598 178.889 271.485 178.7C259.097 176.528 248.829 167.624 236.673 164.366C234.153 163.693 231.481 163.271 228.952 163.908C224.864 164.949 221.863 168.665 220.501 172.686C219.174 176.582 218.817 181.519 218.826 185.648C222.246 185.351 225.773 182.452 227.331 179.365C227.963 178.108 228.409 176.636 229.566 175.846C230.733 175.056 232.256 175.191 233.654 175.361C236.789 175.747 239.932 176.133 243.067 176.519C245.409 176.806 247.769 177.103 250.013 177.839C252.445 178.637 254.68 179.948 257.022 180.962C262.125 183.188 267.816 184.041 273.346 183.431C274.023 183.359 274.753 183.233 275.216 182.73C275.973 181.896 275.554 180.451 274.664 179.75Z" fill="black"/>
</g>
<g opacity="0.3">
<path opacity="0.3" d="M229.005 101.84C227.83 105.448 227.563 109.281 227.304 113.078C226.441 125.752 226.049 137.357 225.185 150.031C225.345 149.672 225.025 150.39 225.185 150.031L229.371 149.484C229.246 130.482 231.356 111.462 235.649 92.9539C232.372 94.8119 230.181 98.2317 229.005 101.84Z" fill="black"/>
</g>
<path d="M225.701 100.323C225.701 100.323 219.263 114.299 217.366 120.214C215.469 126.129 214.187 148.972 214.187 148.972L213.002 178.261L218.826 185.639L224.473 180.756L231.312 101.014L225.701 100.323Z" fill="white"/>
<path d="M224.473 180.756C224.348 180.747 225.39 162.903 226.806 140.912C228.222 118.903 229.477 101.086 229.602 101.086C229.727 101.095 228.685 118.93 227.269 140.939C225.853 162.939 224.597 180.765 224.473 180.756Z" fill="#263238"/>
<path d="M279.509 95.3594C279.509 95.3594 285.876 98.8959 288.165 107.764C290.453 116.632 298.023 151.225 298.727 156.548C299.43 161.87 298.201 169.141 295.913 171.098C293.624 173.045 279.722 181.976 273.56 181.976C267.397 181.976 254.992 177.928 254.992 177.928L257.717 164.007L268.101 161.52L276.196 153.541L267.041 133.318C267.05 133.309 270.674 97.1456 279.509 95.3594Z" fill="#FFAF00"/>
<path d="M291.29 157.158C291.228 157.212 290.676 156.422 289.527 155.417C288.396 154.421 286.588 153.254 284.344 152.697C282.109 152.114 279.972 152.446 278.538 152.886C277.086 153.326 276.24 153.774 276.204 153.703C276.187 153.676 276.383 153.532 276.766 153.326C277.14 153.11 277.71 152.841 278.44 152.572C279.882 152.042 282.118 151.638 284.46 152.248C286.793 152.823 288.645 154.089 289.75 155.184C290.311 155.731 290.712 156.225 290.961 156.575C291.201 156.925 291.317 157.14 291.29 157.158Z" fill="#263238"/>
<path d="M267.157 180.235C267.094 180.181 267.824 179.364 268.626 177.821C269.436 176.295 270.247 173.961 270.273 171.304C270.291 168.647 269.516 166.305 268.724 164.761C267.94 163.199 267.219 162.373 267.29 162.319C267.308 162.301 267.513 162.49 267.833 162.867C268.154 163.244 268.581 163.827 269.018 164.608C269.899 166.143 270.763 168.549 270.737 171.304C270.719 174.06 269.819 176.447 268.92 177.973C268.475 178.745 268.038 179.32 267.709 179.697C267.379 180.074 267.174 180.253 267.157 180.235Z" fill="#263238"/>
<path d="M229.193 89.5879L223.992 96.4096L225.586 100.601L231.152 101.274L236.076 93.3668L231.312 89.175L229.193 89.5879Z" fill="white"/>
<path d="M288.361 146.791C288.352 146.872 287.524 146.764 286.215 146.872C285.556 146.926 284.79 147.069 283.953 147.312C283.124 147.572 282.243 147.94 281.37 148.434C279.633 149.448 278.324 150.768 277.505 151.8C276.677 152.841 276.276 153.568 276.205 153.532C276.16 153.514 276.463 152.724 277.247 151.602C278.021 150.489 279.331 149.08 281.147 148.03C282.056 147.509 282.982 147.141 283.846 146.899C284.718 146.675 285.529 146.558 286.206 146.549C286.882 146.531 287.435 146.576 287.809 146.648C288.165 146.71 288.37 146.764 288.361 146.791Z" fill="#263238"/>
<path d="M277.104 96.5622C277.131 96.6429 276.258 96.9391 274.993 97.6931C273.729 98.4381 272.117 99.7037 270.754 101.49C269.401 103.276 268.599 105.179 268.216 106.606C267.825 108.033 267.762 108.958 267.682 108.949C267.646 108.949 267.646 108.715 267.655 108.294C267.664 107.872 267.736 107.261 267.896 106.525C268.207 105.053 268.982 103.052 270.38 101.212C271.787 99.3716 273.497 98.097 274.833 97.4149C275.501 97.0648 276.062 96.8314 276.463 96.7237C276.873 96.5891 277.095 96.5352 277.104 96.5622Z" fill="#263238"/>
<path d="M254.039 82.8202C254.065 82.8381 253.789 83.26 253.282 84.005C252.712 84.8128 251.964 85.863 251.073 87.1286C249.185 89.7585 246.558 93.3668 243.637 97.3341C243.308 97.7739 242.987 98.2138 242.684 98.6266L242.542 98.8241L242.355 98.6626C238.864 95.7454 235.765 93.1245 233.556 91.2216C232.505 90.306 231.633 89.5431 230.956 88.9597C230.35 88.4211 230.03 88.1159 230.047 88.089C230.065 88.0621 230.43 88.3314 231.063 88.825C231.757 89.3815 232.657 90.0996 233.752 90.9792C236.014 92.8193 239.149 95.3953 242.649 98.3035L242.31 98.3394C242.613 97.9265 242.934 97.4867 243.263 97.0469C246.193 93.0796 248.856 89.4982 250.815 86.9221C251.759 85.6925 252.543 84.6692 253.148 83.8883C253.691 83.1882 254.012 82.8022 254.039 82.8202Z" fill="#263238"/>
<path d="M262.357 122.817C262.374 122.808 262.455 122.951 262.588 123.211C262.748 123.526 262.935 123.921 263.167 124.387C263.684 125.482 264.378 126.963 265.215 128.759C266.925 132.457 269.267 137.582 271.823 143.255C273.489 146.971 275.047 150.462 276.383 153.442L276.436 153.568L276.347 153.667C274.023 156.171 271.877 158.038 270.461 159.42C269.784 160.075 269.241 160.614 268.813 161.027C268.439 161.404 268.234 161.601 268.216 161.583C268.199 161.565 268.377 161.341 268.724 160.937C269.071 160.533 269.606 159.959 270.3 159.241C271.672 157.804 273.782 155.893 276.053 153.379L276.018 153.595C274.664 150.624 273.088 147.141 271.405 143.434C268.849 137.761 266.56 132.618 264.921 128.884C264.129 127.062 263.488 125.563 263.007 124.45C262.811 123.965 262.642 123.562 262.508 123.238C262.392 122.978 262.339 122.826 262.357 122.817Z" fill="#263238"/>
<path d="M296.5 170.434C296.509 170.443 296.385 170.604 296.135 170.909C296.019 171.071 295.85 171.241 295.628 171.43C295.414 171.618 295.182 171.861 294.888 172.076C293.74 173.019 291.95 174.194 289.661 175.514C287.372 176.833 284.594 178.305 281.459 179.822C278.351 181.402 274.495 182.533 270.425 182.192C268.813 182.057 267.255 181.743 265.812 181.106L265.856 181.124C261.831 180.011 258.091 178.979 254.831 178.081L254.653 178.036L254.689 177.857C255.455 174.042 256.096 170.855 256.559 168.567C256.791 167.489 256.969 166.628 257.111 165.982C257.245 165.389 257.325 165.075 257.343 165.075C257.361 165.075 257.325 165.398 257.227 165.999C257.111 166.655 256.969 167.525 256.782 168.602C256.363 170.9 255.775 174.096 255.072 177.928L254.929 177.704C258.198 178.584 261.947 179.589 265.972 180.675H265.99L266.017 180.684C267.361 181.267 268.911 181.591 270.469 181.716C274.441 182.048 278.199 180.962 281.29 179.427C284.424 177.928 287.212 176.501 289.509 175.218C291.807 173.943 293.615 172.803 294.782 171.924C295.966 171.053 296.465 170.407 296.5 170.434Z" fill="#263238"/>
<path d="M212.174 108.114C212.192 108.114 212.174 108.258 212.121 108.527C212.058 108.85 211.978 109.236 211.889 109.703C211.658 110.789 211.355 112.243 210.99 114.002C210.242 117.638 209.253 122.673 208.407 128.265C207.561 133.866 207.044 138.964 206.768 142.671C206.626 144.52 206.528 146.019 206.466 147.06C206.43 147.536 206.403 147.922 206.377 148.254C206.35 148.524 206.332 148.667 206.314 148.667C206.296 148.667 206.287 148.524 206.279 148.245C206.279 147.913 206.279 147.518 206.279 147.052C206.287 146.01 206.332 144.511 206.43 142.653C206.626 138.937 207.098 133.812 207.944 128.202C208.79 122.592 209.823 117.557 210.66 113.94C211.079 112.126 211.435 110.672 211.711 109.667C211.836 109.209 211.942 108.832 212.032 108.509C212.112 108.249 212.156 108.114 212.174 108.114Z" fill="#263238"/>
<path d="M230.03 88.0981C230.083 88.134 229.575 88.9508 228.712 90.2433C227.848 91.5269 226.637 93.2951 225.274 95.2159C224.526 96.2571 223.814 97.2445 223.172 98.151L222.611 98.9319L222.789 97.9895C223.066 96.5533 223.315 95.3326 223.502 94.4799C223.689 93.6272 223.822 93.1425 223.867 93.1425C223.912 93.1425 223.867 93.6541 223.751 94.5248C223.635 95.3865 223.44 96.6162 223.199 98.0613L222.825 97.8997C223.466 96.9842 224.161 95.9879 224.891 94.9377C226.254 93.0079 227.509 91.2755 228.444 90.0369C229.379 88.8072 229.985 88.0532 230.03 88.0981Z" fill="#263238"/>
<path d="M233.289 90.9972C233.351 91.096 231.339 92.6488 229.193 94.9556C227.046 97.2624 225.167 99.0306 225.06 98.914C225.016 98.8691 225.434 98.3844 226.129 97.6125C226.824 96.8405 227.768 95.7724 228.863 94.6325C229.958 93.4925 231.027 92.5142 231.855 91.8859C232.692 91.2575 233.253 90.9524 233.289 90.9972Z" fill="#263238"/>
<path d="M198.415 136.2C198.353 136.2 198.272 135.302 198.272 133.857C198.272 132.403 198.379 130.401 198.682 128.202C198.994 126.003 199.448 124.046 199.849 122.655C200.249 121.264 200.579 120.429 200.641 120.447C200.704 120.465 200.49 121.336 200.169 122.736C199.849 124.145 199.448 126.093 199.145 128.265C198.842 130.437 198.682 132.421 198.602 133.866C198.522 135.311 198.486 136.2 198.415 136.2Z" fill="#263238"/>
<path d="M200.739 132.825C200.615 132.834 200.374 130.078 200.446 126.685C200.508 123.283 200.864 120.546 200.989 120.564C201.122 120.573 200.971 123.319 200.909 126.694C200.837 130.078 200.873 132.825 200.739 132.825Z" fill="#263238"/>
<path d="M177.843 102.953C177.888 103.007 177.211 103.635 176.115 104.649C174.895 105.762 173.426 107.091 171.796 108.563C170.095 110.08 168.537 111.435 167.388 112.378C166.23 113.329 165.482 113.868 165.447 113.823C165.402 113.769 166.079 113.141 167.174 112.126C168.394 111.013 169.864 109.685 171.494 108.213C173.194 106.696 174.753 105.341 175.902 104.398C177.059 103.456 177.808 102.908 177.843 102.953Z" fill="#263238"/>
<path d="M200.543 148.972C200.018 149.286 196.17 151.468 195.983 153.424L235.061 160.327L271.876 147.716L264.467 141.388C264.467 141.388 233.066 144.036 233.6 152.868C233.6 152.868 232.354 150.031 226.618 148.874C220.883 147.707 200.543 148.972 200.543 148.972Z" fill="white"/>
<path d="M195.227 153.388L195.316 153.936L201.033 167.893H248.838L268.109 161.521L273.168 146.818L238.97 153.541C238.97 153.541 238.08 157.831 234.206 158.065C230.849 158.262 229.967 154.071 229.967 154.071L195.227 153.388Z" fill="#FFAF00"/>
<path d="M195.227 153.388C195.227 153.388 195.422 153.379 195.823 153.379C196.251 153.379 196.847 153.388 197.622 153.397C199.234 153.415 201.567 153.451 204.56 153.487C210.624 153.577 219.316 153.712 229.949 153.882H230.092L230.127 154.026C230.368 154.986 230.813 155.965 231.499 156.736C232.184 157.508 233.209 157.966 234.277 157.858C235.346 157.769 236.397 157.311 237.172 156.494C237.946 155.695 238.49 154.618 238.766 153.505L238.801 153.37L238.926 153.344C249.185 151.315 260.789 149.026 273.123 146.594L273.515 146.513L273.381 146.899C272.544 149.34 271.645 151.943 270.745 154.573C269.935 156.943 269.125 159.286 268.332 161.601L268.296 161.709L268.189 161.745C261.492 163.953 255.036 166.089 248.909 168.109L248.873 168.118H248.838C228.952 168.082 212.147 168.046 201.033 168.028H200.944L200.908 167.947C197.578 159.725 195.592 154.762 195.298 153.945C195.227 153.433 195.227 153.388 195.227 153.388C195.227 153.388 195.244 153.451 195.333 153.927C195.699 154.717 197.765 159.645 201.158 167.84L201.042 167.759C212.147 167.741 228.952 167.705 248.847 167.669L248.775 167.678C254.894 165.649 261.359 163.513 268.047 161.296L267.904 161.44C268.697 159.124 269.507 156.781 270.318 154.412C271.226 151.782 272.117 149.179 272.954 146.737L273.212 147.043C260.878 149.457 249.274 151.728 239.006 153.739L239.166 153.577C238.864 154.789 238.294 155.884 237.457 156.763C236.628 157.643 235.462 158.155 234.313 158.235C233.734 158.262 233.128 158.226 232.603 157.975C232.069 157.751 231.606 157.392 231.232 156.979C230.492 156.126 230.047 155.121 229.789 154.089L229.967 154.232C219.387 153.981 210.74 153.783 204.702 153.64C201.692 153.559 199.341 153.505 197.72 153.46C196.928 153.433 196.313 153.415 195.886 153.406C195.449 153.397 195.227 153.388 195.227 153.388Z" fill="#263238"/>
<path d="M230.911 164.339C230.786 164.366 230.261 162.005 229.896 159.043C229.531 156.081 229.477 153.667 229.602 153.658C229.735 153.649 229.994 156.045 230.359 158.98C230.715 161.933 231.045 164.321 230.911 164.339Z" fill="#263238"/>
<path d="M239.291 164.465C239.158 164.456 239.158 162.041 239.024 159.07C238.899 156.09 238.694 153.685 238.828 153.667C238.953 153.649 239.362 156.054 239.496 159.052C239.621 162.041 239.407 164.474 239.291 164.465Z" fill="#263238"/>
<g opacity="0.3">
<path opacity="0.3" d="M225.309 166.448C224.517 166.035 223.074 164.878 222.656 164.097C222.228 163.307 222.468 162.104 223.315 161.853C223.787 161.709 224.294 161.898 224.748 162.086C225.986 162.598 227.206 163.145 228.408 163.738C227.776 162.84 227.144 161.61 227.812 160.74C228.471 159.887 229.798 160.174 230.795 160.569C233.066 161.467 235.301 162.499 237.635 163.208C239.977 163.917 242.461 164.303 244.866 163.863C245.783 163.693 246.709 163.396 247.404 162.777C248.027 162.23 248.419 161.476 248.927 160.82C249.889 159.573 251.278 158.666 252.81 158.298C253.201 158.199 253.656 158.155 253.985 158.379C254.564 158.774 254.404 159.654 254.279 160.345C253.887 162.562 254.635 164.949 256.211 166.529L250.467 168.019L225.309 166.448Z" fill="black"/>
</g>
<path d="M257.512 165.784C257.512 165.784 257.262 164.106 256.3 163.136C255.339 162.167 254.76 161.916 254.635 161.162C254.51 160.408 255.428 159.69 255.428 158.891C255.428 158.092 254.047 157.248 252.382 158.092C250.717 158.936 250.084 160.982 249.96 161.763C249.835 162.544 250.547 163.935 249.96 164.689C249.372 165.443 246.3 165.021 246.3 165.021L236.361 164.33C236.361 164.33 230.181 158.585 226.333 160.65L228.836 163.72C228.836 163.72 224.374 161.072 222.451 162.418L222.157 163.046L233.422 170.748L240.279 173.243L256.211 175.155C256.211 175.155 259.008 173.566 259.008 170.829C259.008 168.091 257.699 166.009 257.699 166.009" fill="#FFBE9D"/>
<path d="M241.936 169.913C241.927 169.976 240.867 169.931 239.166 169.734C238.32 169.626 237.305 169.482 236.192 169.204C235.64 169.06 235.052 168.89 234.473 168.612C233.903 168.324 233.369 167.956 232.834 167.57C230.724 165.964 229.112 164.204 227.99 162.903C226.877 161.592 226.28 160.695 226.333 160.659C226.387 160.614 227.064 161.431 228.239 162.679C229.415 163.917 231.062 165.632 233.119 167.193C233.636 167.57 234.161 167.929 234.687 168.208C235.212 168.468 235.773 168.647 236.308 168.791C237.385 169.087 238.383 169.258 239.22 169.41C240.894 169.689 241.945 169.841 241.936 169.913Z" fill="#263238"/>
<path d="M231.65 100.996C231.641 101.122 230.323 101.113 228.711 100.969C227.099 100.826 225.799 100.601 225.808 100.476C225.817 100.35 227.135 100.359 228.747 100.503C230.359 100.646 231.659 100.871 231.65 100.996Z" fill="#263238"/>
<path d="M255.045 58.6124C255.045 57.4186 255.41 56.2607 255.695 55.1028C255.989 53.945 256.203 52.7242 255.9 51.5664C255.597 50.4174 254.635 49.3583 253.451 49.3044L246.861 73.3418C249.835 72.7224 256.372 67.3998 256.176 64.348C256.051 62.4002 255.054 60.5691 255.045 58.6124Z" fill="#E0E0E0"/>
<path d="M250.842 76.6986L250.637 47.2398C251.144 36.4419 245.338 27.1429 234.616 26.9275L233.627 26.9634C223.644 27.3494 215.629 35.3917 215.202 45.4536C214.81 54.8155 214.498 65.1646 214.748 70.1731C215.273 80.5313 225.612 81.743 225.612 81.743L225.639 86.2938L230.021 87.9005L250.842 76.6986Z" fill="#FFBE9D"/>
<path d="M225.603 81.7341C225.603 81.7341 232.122 82.0123 238.864 77.3718C238.864 77.3718 235.978 84.9564 225.683 84.4179L225.603 81.7341Z" fill="#EB996E"/>
<path d="M217.802 53.3882C217.802 54.1691 218.461 54.8154 219.272 54.8244C220.082 54.8333 220.741 54.214 220.732 53.4331C220.732 52.6522 220.073 52.0059 219.263 51.997C218.452 51.979 217.802 52.6073 217.802 53.3882Z" fill="#263238"/>
<path d="M217.259 49.0619C217.446 49.2504 218.532 48.3708 220.109 48.3169C221.685 48.2361 222.878 49.008 223.039 48.8106C223.119 48.7208 222.923 48.3797 222.397 48.0297C221.89 47.6796 221.026 47.3565 220.037 47.3924C219.058 47.4373 218.239 47.8322 217.775 48.2271C217.321 48.6221 217.17 48.9721 217.259 49.0619Z" fill="#263238"/>
<path d="M232.238 53.8013C232.238 54.5822 232.897 55.2285 233.707 55.2374C234.518 55.2464 235.177 54.6271 235.168 53.8462C235.168 53.0653 234.509 52.419 233.698 52.41C232.888 52.3921 232.229 53.0114 232.238 53.8013Z" fill="#263238"/>
<path d="M233.164 48.8465C233.333 49.053 234.5 48.299 236.076 48.4157C237.653 48.5054 238.757 49.412 238.935 49.2235C239.024 49.1427 238.864 48.7837 238.383 48.3798C237.911 47.9759 237.091 47.554 236.112 47.4912C235.132 47.4283 234.277 47.7335 233.779 48.0746C233.262 48.4157 233.075 48.7568 233.164 48.8465Z" fill="#263238"/>
<path d="M227.865 62.1756C227.865 62.0859 226.877 61.9513 225.283 61.8076C224.873 61.7807 224.49 61.7179 224.41 61.4396C224.303 61.1524 224.455 60.7036 224.633 60.2279C224.971 59.2316 225.336 58.1814 225.71 57.0863C227.198 52.6164 228.257 48.9452 228.079 48.8824C227.901 48.8196 226.547 52.4009 225.06 56.8709C224.704 57.9749 224.357 59.0251 224.036 60.0304C223.903 60.4972 223.662 61.0357 223.885 61.6371C224.009 61.9333 224.312 62.1487 224.57 62.2026C224.829 62.2744 225.06 62.2654 225.256 62.2744C226.868 62.2923 227.865 62.2654 227.865 62.1756Z" fill="#263238"/>
<path d="M232.612 42.9763C232.781 43.4071 234.358 43.1379 236.219 43.2905C238.08 43.4071 239.603 43.8918 239.834 43.4969C239.941 43.3084 239.656 42.9135 239.042 42.5096C238.427 42.1146 237.457 41.7556 236.335 41.6748C235.221 41.594 234.206 41.8094 233.538 42.1146C232.87 42.4198 232.541 42.7788 232.612 42.9763Z" fill="#E0E0E0"/>
<path d="M217.481 45.6601C217.775 46.0101 218.844 45.5972 220.153 45.5254C221.462 45.4087 222.575 45.678 222.825 45.2831C222.932 45.0946 222.745 44.7355 222.246 44.4124C221.756 44.0893 220.946 43.838 220.046 43.9008C219.147 43.9636 218.381 44.3227 217.936 44.7086C217.49 45.1125 217.357 45.4895 217.481 45.6601Z" fill="#E0E0E0"/>
<path d="M232.558 63.0912C232.3 63.0822 232.363 64.8146 230.938 66.0981C229.522 67.3817 227.687 67.265 227.678 67.5073C227.66 67.615 228.097 67.8305 228.872 67.8215C229.629 67.8215 230.724 67.5343 231.597 66.7444C232.461 65.9545 232.808 64.9402 232.843 64.2311C232.879 63.5041 232.674 63.0822 232.558 63.0912Z" fill="#263238"/>
<path d="M256.612 48.344C256.425 48.0478 256.176 47.7426 256.212 47.3926C256.238 47.1143 256.443 46.8899 256.577 46.6476C257.031 45.8218 256.595 44.628 255.713 44.3049C256.782 42.6084 256.506 40.176 255.081 38.7668C254.831 38.5244 254.537 38.2731 254.484 37.932C254.44 37.6358 254.591 37.3576 254.698 37.0793C255.419 35.1315 254.003 33.103 252.667 31.5233C251.073 29.6383 249.346 27.6636 247.012 26.9097C246.442 26.7212 245.837 26.6135 245.311 26.3262C244.83 26.057 244.439 25.653 244.029 25.285C241.224 22.7987 237.003 22.0717 233.547 23.4809C233.146 23.6425 232.755 23.8309 232.327 23.9297C231.9 24.0194 231.463 24.0105 231.036 24.0194C228.364 24.0733 225.71 24.8811 223.448 26.3262C222.718 26.793 222.015 27.3315 221.213 27.6547C220.679 27.8701 219.672 27.8162 219.218 28.1663C217.9 29.1626 218.515 30.6077 218.515 30.6077C215.344 32.0708 215.113 34.216 215.371 36.8998C215.478 37.9859 216.092 39.1976 217.17 39.3233C217.802 39.3951 218.408 39.0809 218.933 38.7219C219.726 38.1923 220.447 37.564 221.088 36.8459C221.462 36.4241 221.819 35.9663 222.317 35.697C222.745 35.4637 223.244 35.3829 223.724 35.2752C225.888 34.7905 227.874 33.5518 229.273 31.8195C229.549 31.4784 229.887 31.0745 230.323 31.1193C230.502 31.1373 230.671 31.227 230.831 31.3168C233.04 32.4926 235.934 32.1785 237.84 30.5539C238.819 34.0365 242.114 36.7292 245.694 36.9806C246.113 37.0075 246.612 37.0524 246.825 37.4204C246.968 37.6717 246.914 37.9859 246.87 38.2731C245.97 43.2278 246.433 49.0441 247.003 54.0526C247.511 58.4957 249.444 61.4487 251.242 61.7539L254.671 55.6862L256.354 52.7152C257.343 51.5125 257.458 49.6455 256.612 48.344Z" fill="#E0E0E0"/>
<path d="M229.629 24.0015C229.62 23.9566 229.201 23.8938 228.596 24.2797C228.302 24.4862 227.981 24.8901 228.043 25.4645C228.07 26.048 228.889 26.6494 229.566 26.0749L229.174 25.653C228.907 25.8774 228.667 26.1647 228.471 26.4878C228.115 27.0892 227.981 27.7624 228.026 28.3638C228.07 28.9651 228.284 29.4768 228.533 29.8448C229.041 30.5898 229.584 30.7872 229.611 30.7244C229.664 30.6526 229.246 30.3384 228.889 29.6383C228.524 28.9562 228.364 27.8072 228.978 26.793C229.139 26.5237 229.335 26.2903 229.548 26.0929L229.157 25.671C229.094 25.7518 228.934 25.7697 228.783 25.7069C228.64 25.6441 228.56 25.5364 228.524 25.3838C228.462 25.0786 228.622 24.7465 228.827 24.567C229.255 24.19 229.664 24.0823 229.629 24.0015Z" fill="white"/>
<path d="M218.016 30.8321C217.998 30.7783 217.713 30.9129 217.722 31.3527C217.731 31.5592 217.802 31.8105 218.025 32.0349C218.221 32.2593 218.782 32.4119 219.084 31.9272L218.604 31.8285C218.621 32.4657 219.067 33.2377 219.868 33.489C220.198 33.5967 220.554 33.6057 220.874 33.5339L220.527 33.2646C220.545 33.7044 220.616 34.1532 220.794 34.5212C220.963 34.8982 221.266 35.1675 221.542 35.2931C222.13 35.5534 222.495 35.2752 222.451 35.2303C222.433 35.1585 222.103 35.2483 221.72 34.97C221.32 34.7187 221.088 34.0814 221.097 33.2466L221.106 32.9056L220.759 32.9774C220.536 33.0222 220.296 33.0133 220.055 32.9325C219.512 32.7619 219.173 32.2413 219.12 31.7836L218.942 30.2756L218.639 31.6848C218.621 31.7567 218.434 31.8195 218.301 31.7028C218.158 31.6041 218.069 31.4425 218.025 31.3079C217.936 31.0296 218.051 30.868 218.016 30.8321Z" fill="white"/>
<path d="M250.085 54.9413C250.254 54.8605 257.067 52.5627 257.111 59.6536C257.156 66.7445 250.085 65.3263 250.067 65.1289C250.058 64.9224 250.085 54.9413 250.085 54.9413Z" fill="#FFBE9D"/>
<path d="M252.204 62.4271C252.231 62.4002 252.329 62.5168 252.534 62.6066C252.739 62.6964 253.086 62.7592 253.451 62.6156C254.19 62.3373 254.814 61.1435 254.84 59.86C254.858 59.2137 254.716 58.6034 254.484 58.0917C254.261 57.5711 253.932 57.2121 253.558 57.1493C253.184 57.0685 252.926 57.2929 252.836 57.4904C252.747 57.6878 252.792 57.8314 252.747 57.8404C252.73 57.8584 252.596 57.7237 252.649 57.4275C252.676 57.2839 252.756 57.1224 252.926 56.9787C253.095 56.8351 253.344 56.7633 253.602 56.7902C254.146 56.8261 254.635 57.3288 254.894 57.8853C255.179 58.4418 255.348 59.1329 255.33 59.86C255.294 61.2872 254.573 62.6335 253.558 62.9387C253.059 63.0734 252.649 62.9208 252.436 62.7592C252.222 62.5976 252.186 62.4361 252.204 62.4271Z" fill="#EB996E"/>
<path d="M235.72 64.0517C235.587 64.0697 235.426 63.3695 234.874 62.7233C234.34 62.0681 233.681 61.7898 233.725 61.6552C233.734 61.5295 234.589 61.6462 235.23 62.4181C235.872 63.199 235.845 64.0697 235.72 64.0517Z" fill="#EB996E"/>
<path d="M242.595 51.1534C242.693 51.2252 242.168 51.9163 241.197 52.1856C240.226 52.4639 239.425 52.1587 239.469 52.042C239.496 51.9074 240.235 51.9881 241.072 51.7368C241.909 51.5124 242.497 51.0547 242.595 51.1534Z" fill="#EB996E"/>
<path d="M243.032 53.4064C242.96 53.5141 242.381 53.2359 241.633 53.0653C240.894 52.8768 240.253 52.8499 240.235 52.7242C240.217 52.5986 240.903 52.4101 241.74 52.6165C242.586 52.814 243.103 53.3166 243.032 53.4064Z" fill="#EB996E"/>
<path d="M216.787 53.3167C216.814 53.3257 216.849 53.3526 216.831 53.4244C216.805 53.5052 216.707 53.5591 216.618 53.577C216.44 53.6219 216.235 53.586 216.03 53.5232C215.62 53.3885 215.353 53.1641 215.398 53.0474C215.442 52.9218 215.79 52.9577 216.172 53.0744C216.359 53.1372 216.52 53.2 216.618 53.2449C216.662 53.2628 216.68 53.2808 216.698 53.2988C216.716 53.3257 216.751 53.3077 216.787 53.3167Z" fill="#EB996E"/>
<path d="M252.445 31.4604C252.48 31.4963 251.83 32.1157 250.548 32.7529C249.283 33.3902 247.324 33.9737 245.133 33.857C242.934 33.7403 241.055 32.9414 239.87 32.1605C238.668 31.3886 238.089 30.6975 238.125 30.6616C238.178 30.5987 238.828 31.1911 240.039 31.8733C241.242 32.5555 243.058 33.2646 245.16 33.3812C247.262 33.4979 249.15 32.9863 250.414 32.4478C251.688 31.9092 252.4 31.3976 252.445 31.4604Z" fill="#263238"/>
<path d="M254.84 35.4099C254.876 35.4548 254.128 36.0831 252.756 36.8371C252.071 37.2051 251.207 37.6269 250.165 37.8244C249.132 38.0219 247.956 38.0219 246.772 37.7885C244.376 37.3307 242.488 36.1369 241.224 35.2394C239.959 34.3238 239.247 33.6686 239.282 33.6237C239.327 33.5699 240.11 34.1264 241.411 34.9611C242.711 35.7779 244.572 36.8819 246.861 37.3218C248.001 37.5372 249.114 37.5551 250.094 37.3936C251.082 37.232 251.919 36.873 252.614 36.5409C253.994 35.8677 254.805 35.3471 254.84 35.4099Z" fill="#263238"/>
<g opacity="0.3">
<path opacity="0.3" d="M205.78 148.99L210.518 114.299C205.032 124.854 203.331 137.349 205.78 148.99Z" fill="black"/>
</g>
<g opacity="0.3">
<path opacity="0.3" d="M290.4 151.073C288.512 150.085 286.294 149.915 284.175 150.148C281.147 150.48 277.736 151.396 276.293 153.694C278.44 152.392 281.77 151.485 284.371 152.266C286.971 153.047 289.144 154.86 291.112 156.754C291.745 157.365 292.715 158.011 293.401 157.472C293.784 157.167 293.864 156.62 293.846 156.135C293.775 153.981 292.288 152.06 290.4 151.073Z" fill="black"/>
</g>
<path d="M320.705 196.06H365.936V117.7L320.705 196.06ZM338.917 184.041L358.055 151.468V184.041H338.917Z" fill="#FFAF00"/>
<path d="M325.051 188.538C325.131 188.412 326.369 189.041 327.821 189.947C329.272 190.854 330.386 191.689 330.305 191.823C330.225 191.949 328.987 191.32 327.536 190.414C326.084 189.507 324.971 188.664 325.051 188.538Z" fill="#263238"/>
<path d="M331.686 176.914C331.766 176.788 332.968 177.408 334.375 178.305C335.782 179.203 336.86 180.029 336.78 180.163C336.7 180.289 335.497 179.67 334.09 178.772C332.683 177.875 331.606 177.04 331.686 176.914Z" fill="#263238"/>
<path d="M338.321 165.29C338.41 165.174 339.55 165.919 340.85 166.96C342.159 168.001 343.138 168.944 343.049 169.06C342.96 169.177 341.82 168.432 340.52 167.391C339.211 166.35 338.232 165.407 338.321 165.29Z" fill="#263238"/>
<path d="M345.222 153.873C345.311 153.756 346.451 154.501 347.751 155.543C349.061 156.584 350.04 157.526 349.951 157.643C349.862 157.76 348.722 157.015 347.422 155.973C346.113 154.932 345.124 153.99 345.222 153.873Z" fill="#263238"/>
<path d="M351.999 141.935C352.079 141.81 353.291 142.501 354.707 143.47C356.114 144.439 357.191 145.328 357.102 145.454C357.022 145.579 355.811 144.888 354.395 143.919C352.988 142.949 351.91 142.061 351.999 141.935Z" fill="#263238"/>
<path d="M359.133 129.54C359.213 129.414 360.37 130.033 361.706 130.913C363.051 131.802 364.066 132.618 363.986 132.744C363.906 132.87 362.748 132.25 361.412 131.371C360.077 130.491 359.052 129.665 359.133 129.54Z" fill="#263238"/>
<path d="M327.144 184.912C327.224 184.786 327.874 185.046 328.596 185.495C329.317 185.944 329.842 186.42 329.762 186.545C329.682 186.671 329.032 186.411 328.311 185.962C327.589 185.513 327.064 185.046 327.144 184.912Z" fill="#263238"/>
<path d="M329.255 181.106C329.335 180.98 329.985 181.24 330.706 181.689C331.428 182.138 331.953 182.614 331.873 182.739C331.793 182.865 331.143 182.605 330.421 182.156C329.7 181.698 329.175 181.231 329.255 181.106Z" fill="#263238"/>
<path d="M334.197 172.624C334.277 172.498 334.927 172.758 335.649 173.207C336.37 173.656 336.895 174.132 336.815 174.257C336.735 174.383 336.085 174.123 335.364 173.674C334.642 173.225 334.117 172.758 334.197 172.624Z" fill="#263238"/>
<path d="M336.308 168.818C336.388 168.692 337.038 168.953 337.759 169.401C338.481 169.85 339.006 170.326 338.926 170.452C338.846 170.577 338.196 170.317 337.475 169.868C336.753 169.41 336.228 168.944 336.308 168.818Z" fill="#263238"/>
<path d="M341.019 161.152C341.099 161.027 341.749 161.287 342.47 161.736C343.192 162.185 343.708 162.66 343.637 162.786C343.557 162.912 342.907 162.651 342.185 162.203C341.455 161.754 340.939 161.287 341.019 161.152Z" fill="#263238"/>
<path d="M343.129 157.517C343.209 157.392 343.86 157.652 344.581 158.101C345.302 158.55 345.828 159.025 345.748 159.151C345.667 159.277 345.017 159.016 344.296 158.568C343.566 158.119 343.049 157.652 343.129 157.517Z" fill="#263238"/>
<path d="M347.618 149.672C347.698 149.547 348.348 149.807 349.069 150.256C349.791 150.705 350.316 151.18 350.236 151.306C350.156 151.432 349.506 151.171 348.784 150.723C348.063 150.274 347.538 149.807 347.618 149.672Z" fill="#263238"/>
<path d="M350.085 145.463C350.165 145.337 350.815 145.597 351.536 146.046C352.258 146.495 352.783 146.971 352.703 147.096C352.623 147.222 351.973 146.962 351.251 146.513C350.53 146.055 350.005 145.588 350.085 145.463Z" fill="#263238"/>
<path d="M354.484 137.887C354.564 137.761 355.214 138.022 355.935 138.471C356.657 138.919 357.182 139.395 357.102 139.521C357.022 139.646 356.372 139.386 355.651 138.937C354.929 138.479 354.404 138.013 354.484 137.887Z" fill="#263238"/>
<path d="M356.977 133.507C357.058 133.381 357.708 133.642 358.429 134.09C359.15 134.539 359.676 135.015 359.596 135.141C359.516 135.266 358.865 135.006 358.144 134.557C357.414 134.108 356.897 133.633 356.977 133.507Z" fill="#263238"/>
<path d="M388.939 399.264C388.939 399.39 301.861 399.497 194.479 399.497C87.0514 399.497 0 399.399 0 399.264C0 399.138 87.0514 399.031 194.479 399.031C301.861 399.031 388.939 399.138 388.939 399.264Z" fill="#263238"/>
<path d="M202.957 65.9006L197.124 55.5425C199.706 51.3238 201.193 46.3512 201.193 41.0285C201.193 25.7247 188.886 13.3201 173.702 13.3201C158.518 13.3201 146.211 25.7247 146.211 41.0285C146.211 56.3324 158.518 68.737 173.702 68.737C180.043 68.737 185.876 66.5648 190.525 62.9386L190.516 62.9476L202.957 65.9006Z" fill="#FFAF00"/>
<path d="M202.957 65.9007C202.369 65.766 198.433 64.8595 190.498 63.0284L190.373 63.0015L190.453 62.8938L190.462 62.8848L190.578 63.0015C189.011 64.2222 187.132 65.4339 184.923 66.4392C182.714 67.4266 180.176 68.2344 177.38 68.6114C175.982 68.7909 174.521 68.9076 173.025 68.8358C172.277 68.7909 171.511 68.773 170.745 68.7101C169.98 68.5934 169.205 68.4768 168.421 68.3601C165.304 67.7407 162.125 66.5469 159.151 64.6889C156.185 62.8399 153.433 60.3267 151.234 57.239C149.034 54.1603 147.369 50.4981 146.585 46.5308C145.81 42.5635 145.872 38.3179 146.905 34.198C147.947 30.096 149.889 26.0928 152.801 22.7986L153.923 21.551C154.288 21.1291 154.733 20.788 155.134 20.4021C155.553 20.043 155.927 19.6302 156.381 19.307L157.699 18.3107C158.126 17.9606 158.598 17.6824 159.061 17.4041C159.525 17.1169 159.997 16.8387 160.46 16.5514C160.949 16.3091 161.43 16.0757 161.92 15.8334C162.41 15.609 162.882 15.3397 163.398 15.1692C167.397 13.5714 171.654 12.9611 175.724 13.2573C179.793 13.5535 183.694 14.7293 187.034 16.6232C190.391 18.5082 193.214 21.0214 195.396 23.8219C197.587 26.6313 199.127 29.728 200.08 32.8067C201.033 35.9034 201.282 38.9731 201.274 41.8185C201.193 44.6728 200.677 47.2937 199.929 49.6005C199.181 51.9073 198.192 53.891 197.168 55.5605V55.4797C200.873 62.1398 202.672 65.3891 202.957 65.9007C202.672 65.398 200.828 62.1757 197.052 55.5874L197.026 55.5425L197.052 55.4977C198.059 53.8282 199.02 51.8535 199.76 49.5557C200.49 47.2668 200.989 44.6548 201.06 41.8274C201.06 39.009 200.793 35.9662 199.849 32.8965C198.896 29.8447 197.355 26.7839 195.182 24.0104C193.018 21.2368 190.213 18.7595 186.891 16.9015C183.578 15.0345 179.731 13.8766 175.706 13.5804C171.681 13.2932 167.477 13.8946 163.532 15.4743C163.024 15.6359 162.561 15.9052 162.072 16.1296C161.591 16.3629 161.11 16.5963 160.629 16.8387C160.175 17.1169 159.712 17.4041 159.248 17.6824C158.785 17.9606 158.322 18.2389 157.895 18.58L156.595 19.5583C156.149 19.8725 155.775 20.2854 155.366 20.6444C154.974 21.0214 154.537 21.3625 154.172 21.7754L153.059 23.0051C150.183 26.2633 148.268 30.2127 147.235 34.2608C146.211 38.3269 146.148 42.5276 146.905 46.441C147.671 50.3635 149.319 53.9808 151.483 57.0325C153.656 60.0843 156.372 62.5796 159.302 64.4197C162.232 66.2597 165.384 67.4535 168.466 68.0728C169.24 68.1895 170.006 68.3152 170.763 68.4319C171.529 68.4947 172.277 68.5216 173.025 68.5665C174.513 68.6473 175.955 68.5306 177.344 68.3601C180.114 68.001 182.634 67.2112 184.834 66.2418C187.034 65.2544 188.904 64.0696 190.471 62.8579L190.988 62.4629L190.596 62.9746L190.587 62.9835L190.542 62.8489C198.442 64.7966 202.369 65.7571 202.957 65.9007Z" fill="#263238"/>
<path d="M165.963 41.0196C165.963 42.5724 164.716 43.838 163.167 43.838C161.626 43.838 160.371 42.5814 160.371 41.0196C160.371 39.4668 161.617 38.2012 163.167 38.2012C164.708 38.2101 165.963 39.4668 165.963 41.0196Z" fill="#263238"/>
<path d="M177.14 41.0196C177.14 42.5724 175.893 43.838 174.343 43.838C172.803 43.838 171.547 42.5814 171.547 41.0196C171.547 39.4668 172.794 38.2012 174.343 38.2012C175.884 38.2101 177.14 39.4668 177.14 41.0196Z" fill="#263238"/>
<path d="M188.281 39.6194C189.055 40.9658 188.592 42.6892 187.256 43.4611C185.921 44.242 184.211 43.7753 183.445 42.4289C182.67 41.0825 183.133 39.3591 184.469 38.5872C185.805 37.8063 187.515 38.2731 188.281 39.6194Z" fill="#263238"/>
</g>
<defs>
<clipPath id="clip0">
<rect width="400" height="400" fill="white"/>
</clipPath>
</defs>
</svg>
