<?xml version="1.0" encoding="UTF-8"?>
<svg width="289px" height="290px" viewBox="0 0 289 290" version="1.1" xmlns="http://www.w3.org/2000/svg" xmlns:xlink="http://www.w3.org/1999/xlink">
    <!-- Generator: Sketch 54.1 (76490) - https://sketchapp.com -->
    <title>School</title>
    <desc>Created with Sketch.</desc>
    <defs>
        <linearGradient x1="3.74558558%" y1="45.8453926%" x2="87.1755525%" y2="74.2460699%" id="linearGradient-1">
            <stop stop-color="#F3FBFF" offset="0%"></stop>
            <stop stop-color="#C6E8F9" offset="51.1745144%"></stop>
            <stop stop-color="#6CB5F7" offset="100%"></stop>
        </linearGradient>
        <path d="M284.039742,288.852204 C251.832839,279.832709 219.043276,252.905008 131.87589,263.61322 C-1.02804957,279.938254 -26.405896,171.835099 24.2603332,108.326933 C24.2603332,108.326933 63.8216041,55.5820461 111.994322,28.8149569 C194.672469,-17.1291709 267.982169,-9.42669206 325.147127,61.2699952 C360.905047,105.493283 385.654355,156.260351 384.986818,213.135253 C384.220643,278.166936 327.624581,301.058694 284.039742,288.852204 Z" id="path-2"></path>
        <linearGradient x1="57.2893058%" y1="85.5756341%" x2="57.2893058%" y2="26.410203%" id="linearGradient-4">
            <stop stop-color="#D3EFFF" offset="0%"></stop>
            <stop stop-color="#60ABE8" offset="100%"></stop>
        </linearGradient>
        <linearGradient x1="1.79409451%" y1="38.4136099%" x2="98.3773897%" y2="57.8309907%" id="linearGradient-5">
            <stop stop-color="#D3EFFF" offset="0%"></stop>
            <stop stop-color="#60ABE8" offset="100%"></stop>
        </linearGradient>
        <linearGradient x1="50%" y1="0%" x2="50%" y2="99.8020481%" id="linearGradient-6">
            <stop stop-color="#FFD13F" offset="0%"></stop>
            <stop stop-color="#C48612" offset="100%"></stop>
        </linearGradient>
        <linearGradient x1="13.062382%" y1="48.2523695%" x2="75.5344803%" y2="49.6301565%" id="linearGradient-7">
            <stop stop-color="#366AFF" offset="0%"></stop>
            <stop stop-color="#0032AD" offset="100%"></stop>
        </linearGradient>
        <polygon id="path-8" points="0 132.144516 253.788073 132.144516 253.788073 0 0 0"></polygon>
        <polygon id="path-10" points="0 0 108.194271 0 108.194271 22.3017918 0 22.3017918"></polygon>
        <polygon id="path-12" points="0 0 88.4766232 0 88.4766232 25.8498041 0 25.8498041"></polygon>
        <polygon id="path-14" points="0 0 63.197588 0 63.197588 18.2469206 0 18.2469206"></polygon>
    </defs>
    <g id="Screens" stroke="none" stroke-width="1" fill="none" fill-rule="evenodd">
        <g id="RaiseMe-B2B_Homepage-Mobile" transform="translate(-31.000000, -420.000000)">
            <g id="Hero" transform="translate(28.000000, 92.000000)">
                <g id="School" transform="translate(3.000000, 328.000000)">
                    <mask id="mask-3" fill="white">
                        <use xlink:href="#path-2"></use>
                    </mask>
                    <use id="Mask" fill="url(#linearGradient-1)" xlink:href="#path-2"></use>
                    <g id="Background" mask="url(#mask-3)">
                        <g transform="translate(-34.000000, 77.000000)">
                            <path d="M-0.00015,56.1290677 L-0.00015,136.555971 L419.99985,136.555971 L419.99985,56.3051094 C419.99985,42.4253406 413.434105,29.5317395 402.640105,22.2139076 L387.562868,11.9926375 C375.902905,4.08827772 361.182286,3.94560878 349.395559,11.6230332 L329.098105,24.8453569 C315.085377,33.9728317 297.241486,31.9062179 285.292105,19.7718492 C274.908177,9.22769681 259.896614,6.15572585 246.723886,11.8783355 L224.64105,21.4713616 C216.66105,24.9379665 207.820432,25.2391565 199.658686,22.3232036 L167.763886,10.9272093 C160.311559,8.26489005 152.274286,8.27823919 144.828832,10.965588 L122.238177,19.1210786 C111.590032,22.9647967 99.9186136,21.2819707 90.5465045,14.5523352 L79.5409773,6.64797541 C67.3961045,-2.07318495 51.6865773,-2.14910819 39.47145,6.45524719 L16.8235227,22.4083044 C6.33650455,29.7962194 -0.00015,42.4962579 -0.00015,56.1290677" id="Hills" fill-opacity="0.2" fill="url(#linearGradient-4)" style="mix-blend-mode: multiply;" transform="translate(209.999850, 68.305061) scale(-1, 1) translate(-209.999850, -68.305061) "></path>
                            <path d="M175,85.6872727 L175,131.52 L94.5,131.52 L94.5,85.6872727 L89.5,85.6872727 L89.5,81.7018182 L183.5,81.7018182 L183.5,85.6872727 L175,85.6872727 Z" id="Combined-Shape" fill="url(#linearGradient-5)" style="mix-blend-mode: multiply;"></path>
                            <path d="M322.5,85.6872727 L322.5,131.52 L242,131.52 L242,85.6872727 L237,85.6872727 L237,81.7018182 L331,81.7018182 L331,85.6872727 L322.5,85.6872727 Z" id="Combined-Shape" fill="url(#linearGradient-5)" style="mix-blend-mode: multiply;"></path>
                        </g>
                    </g>
                    <g id="School-Copy" mask="url(#mask-3)">
                        <g transform="translate(-5.000000, 23.000000)">
                            <g id="School-+-Ground" transform="translate(0.321074, 54.553816)">
                                <path d="M296.213229,121.079591 C292.42641,121.079591 289.356832,118.01367 289.356832,114.231784 L289.356832,112.130025 C289.356832,108.348138 286.287065,105.282218 282.500434,105.282218 L281.380265,105.282218 C277.593445,105.282218 274.523678,102.216297 274.523678,98.4344108 C274.523678,94.6519598 271.4541,91.586039 267.667281,91.586039 L264.88524,91.586039 L261.899188,91.586039 L95.607037,91.586039 C91.820218,91.586039 88.7506395,94.6519598 88.7506395,98.4338459 C88.7506395,102.216297 85.6808725,105.282218 81.894242,105.282218 L80.7738835,105.282218 C76.987253,105.282218 73.917486,108.348138 73.917486,112.130025 L73.917486,114.231784 C73.917486,118.01367 70.8479075,121.079591 67.0610885,121.079591 L64.5750693,121.079591 C60.7882502,121.079591 57.7186718,124.145511 57.7186718,127.927398 L57.7186718,137.67202 L97.4766894,137.67202 L261.899188,137.67202 L264.88524,137.67202 L265.797629,137.67202 L305.555646,137.67202 L305.555646,127.927398 C305.555646,124.145511 302.486068,121.079591 298.699249,121.079591 L296.213229,121.079591 Z" id="Fill-1" fill="url(#linearGradient-6)"></path>
                                <rect id="Rectangle" fill="url(#linearGradient-7)" x="0" y="131.966969" width="426.719307" height="81.1514019"></rect>
                                <rect id="Rectangle" fill="#FFD13F" x="155.647616" y="131.793847" width="51.9658172" height="64.6205607"></rect>
                                <g id="Group-40" transform="translate(54.642771, 0.048053)">
                                    <polygon id="Fill-4" fill="#366AFF" points="44.7051148 132.144378 44.7051148 51.3919765 119.740787 51.3919765 209.083789 51.3919765 209.083789 132.144378"></polygon>
                                    <polygon id="Fill-6" fill="#6CB5F7" points="100.988889 132.144378 100.988889 36.1678676 126.735305 36.1678676 152.799876 36.1678676 152.799876 132.144378"></polygon>
                                    <polygon id="Fill-8" fill="#0032AD" points="209.083512 51.3919765 209.083512 55.3512433 152.799669 55.3512433 152.799669 51.3919765 178.492136 51.3919765"></polygon>
                                    <polygon id="Fill-10" fill="#0032AD" points="152.798977 132.144378 152.798977 46.9639769 162.419733 46.9639769 184.690642 132.144378"></polygon>
                                    <mask id="mask-9" fill="white">
                                        <use xlink:href="#path-8"></use>
                                    </mask>
                                    <g id="Clip-13"></g>
                                    <polygon id="Fill-12" fill="#FFFFFF" mask="url(#mask-9)" points="152.799876 51.3921151 215.616289 51.3921151 215.616289 46.9641155 152.799876 46.9641155"></polygon>
                                    <polygon id="Fill-14" fill="#CFD1D2" mask="url(#mask-9)" points="162.420494 46.9638382 163.579688 51.3918378 152.799738 51.3918378 152.799738 46.9638382"></polygon>
                                    <polygon id="Fill-15" fill="#366AFF" mask="url(#mask-9)" points="100.988889 40.5303416 152.799876 40.5303416 152.799876 36.1682143 126.735305 36.1682143 100.988889 36.1682143"></polygon>
                                    <polygon id="Fill-16" fill="#FFFFFF" mask="url(#mask-9)" points="92.9685952 36.1686996 160.82017 36.1686996 160.82017 30.8420643 92.9685952 30.8420643"></polygon>
                                    <path d="M111.588804,132.144378 L142.199546,132.144378 L142.199546,103.16407 C142.199546,94.7247995 135.312164,87.8200046 126.894175,87.8200046 C118.476186,87.8200046 111.588804,94.7247995 111.588804,103.16407 L111.588804,132.144378 Z" id="Fill-17" fill="#002672" mask="url(#mask-9)"></path>
                                    <path d="M126.894106,76.0930862 C134.531921,76.0930862 140.745643,69.8636549 140.745643,62.20653 C140.745643,54.5494051 134.531921,48.3192803 126.894106,48.3192803 C119.256291,48.3192803 113.042569,54.5494051 113.042569,62.20653 C113.042569,69.8636549 119.256291,76.0930862 126.894106,76.0930862" id="Fill-18" fill="#FFFFFF" mask="url(#mask-9)"></path>
                                    <path d="M122.585861,63.5612094 L128.245577,63.5612094 L128.245577,55.3514513 C128.245577,54.6032816 127.64108,53.9965638 126.894106,53.9965638 C126.147823,53.9965638 125.542635,54.6032816 125.542635,55.3514513 L125.542635,60.8514345 L122.585861,60.8514345 C121.838886,60.8514345 121.23439,61.4574589 121.23439,62.206322 C121.23439,62.9544916 121.838886,63.5612094 122.585861,63.5612094" id="Fill-20" fill="#0032AD" mask="url(#mask-9)"></path>
                                    <polygon id="Fill-21" fill="#0032AD" mask="url(#mask-9)" points="44.7050456 55.3513819 100.988889 55.3513819 100.988889 51.3921151 44.7050456 51.3921151"></polygon>
                                    <polygon id="Fill-22" fill="#FFFFFF" mask="url(#mask-9)" points="38.1724762 51.3921151 100.988889 51.3921151 100.988889 46.9641155 38.1724762 46.9641155"></polygon>
                                    <path d="M77.270371,76.5552318 L92.1420816,76.5552318 L92.1420816,69.900058 C92.1420816,65.7833912 88.8132032,62.4454034 84.7062263,62.4454034 C80.5992494,62.4454034 77.270371,65.7833912 77.270371,69.900058 L77.270371,76.5552318 Z" id="Fill-23" fill="#0032AD" mask="url(#mask-9)"></path>
                                    <path d="M77.270371,100.045194 L92.1420816,100.045194 L92.1420816,93.3900204 C92.1420816,89.2733537 88.8132032,85.9353659 84.7062263,85.9353659 C80.5992494,85.9353659 77.270371,89.2733537 77.270371,93.3900204 L77.270371,100.045194 Z" id="Fill-24" fill="#0032AD" mask="url(#mask-9)"></path>
                                    <path d="M77.270371,123.534879 L92.1420816,123.534879 L92.1420816,116.880399 C92.1420816,112.763039 88.8132032,109.425051 84.7062263,109.425051 C80.5992494,109.425051 77.270371,112.763039 77.270371,116.880399 L77.270371,123.534879 Z" id="Fill-25" fill="#0032AD" mask="url(#mask-9)"></path>
                                    <path d="M53.5515763,76.5552318 L68.423287,76.5552318 L68.423287,69.900058 C68.423287,65.7833912 65.0944086,62.4454034 60.9874316,62.4454034 C56.8804547,62.4454034 53.5515763,65.7833912 53.5515763,69.900058 L53.5515763,76.5552318 Z" id="Fill-26" fill="#0032AD" mask="url(#mask-9)"></path>
                                    <path d="M53.5515763,100.045194 L68.423287,100.045194 L68.423287,93.3900204 C68.423287,89.2733537 65.0944086,85.9353659 60.9874316,85.9353659 C56.8804547,85.9353659 53.5515763,89.2733537 53.5515763,93.3900204 L53.5515763,100.045194 Z" id="Fill-27" fill="#0032AD" mask="url(#mask-9)"></path>
                                    <path d="M53.5515763,123.534879 L68.423287,123.534879 L68.423287,116.880399 C68.423287,112.763039 65.0944086,109.425051 60.9874316,109.425051 C56.8804547,109.425051 53.5515763,112.763039 53.5515763,116.880399 L53.5515763,123.534879 Z" id="Fill-28" fill="#0032AD" mask="url(#mask-9)"></path>
                                    <path d="M176.518187,76.5552318 L161.645784,76.5552318 L161.645784,69.900058 C161.645784,65.7833912 164.975354,62.4454034 169.082331,62.4454034 C173.189308,62.4454034 176.518187,65.7833912 176.518187,69.900058 L176.518187,76.5552318 Z" id="Fill-29" fill="#0032AD" mask="url(#mask-9)"></path>
                                    <path d="M166.594007,62.9047061 L170.168419,76.5555092 L161.645992,76.5555092 L161.645992,69.9003353 C161.645992,66.6621959 163.717463,63.9343928 166.594007,62.9047061" id="Fill-30" fill="#002672" mask="url(#mask-9)"></path>
                                    <path d="M176.518187,100.045194 L161.645784,100.045194 L161.645784,93.3900204 C161.645784,89.2733537 164.975354,85.9353659 169.082331,85.9353659 C173.189308,85.9353659 176.518187,89.2733537 176.518187,93.3900204 L176.518187,100.045194 Z" id="Fill-31" fill="#0032AD" mask="url(#mask-9)"></path>
                                    <path d="M169.082331,85.9352965 C170.488442,85.9352965 171.790114,86.3499448 172.911268,87.0301621 L176.319685,100.045125 L161.645784,100.045125 L161.645784,93.3899511 C161.645784,89.2732843 164.975354,85.9352965 169.082331,85.9352965" id="Fill-32" fill="#002672" mask="url(#mask-9)"></path>
                                    <path d="M176.518187,123.534879 L161.645784,123.534879 L161.645784,116.880399 C161.645784,112.763039 164.975354,109.425051 169.082331,109.425051 C173.189308,109.425051 176.518187,112.763039 176.518187,116.880399 L176.518187,123.534879 Z" id="Fill-33" fill="#002672" mask="url(#mask-9)"></path>
                                    <path d="M200.236635,76.5552318 L185.364925,76.5552318 L185.364925,69.900058 C185.364925,65.7833912 188.694495,62.4454034 192.80078,62.4454034 C196.907757,62.4454034 200.236635,65.7833912 200.236635,69.900058 L200.236635,76.5552318 Z" id="Fill-34" fill="#0032AD" mask="url(#mask-9)"></path>
                                    <path d="M200.236635,100.045194 L185.364925,100.045194 L185.364925,93.3900204 C185.364925,89.2733537 188.694495,85.9353659 192.80078,85.9353659 C196.907757,85.9353659 200.236635,89.2733537 200.236635,93.3900204 L200.236635,100.045194 Z" id="Fill-35" fill="#0032AD" mask="url(#mask-9)"></path>
                                    <path d="M200.236635,123.534879 L185.364925,123.534879 L185.364925,116.880399 C185.364925,112.763039 188.694495,109.425051 192.80078,109.425051 C196.907757,109.425051 200.236635,112.763039 200.236635,116.880399 L200.236635,123.534879 Z" id="Fill-36" fill="#0032AD" mask="url(#mask-9)"></path>
                                    <polygon id="Fill-37" fill="#366AFF" mask="url(#mask-9)" points="126.893691 15.4855176 143.952377 15.4855176 143.952377 3.20208303 126.893691 3.20208303"></polygon>
                                    <polygon id="Fill-38" fill="#0032AD" mask="url(#mask-9)" points="133.467759 15.4855869 126.894383 15.4855869 126.894383 3.20215237 130.518593 3.20215237"></polygon>
                                    <path d="M126.894106,34.8599921 C127.64108,34.8599921 128.245577,34.2532743 128.245577,33.5051046 L128.245577,1.35461009 C128.245577,0.606440411 127.64108,-0.000277356694 126.894106,-0.000277356694 C126.147823,-0.000277356694 125.542635,0.606440411 125.542635,1.35461009 L125.542635,33.5051046 C125.542635,34.2532743 126.147823,34.8599921 126.894106,34.8599921" id="Fill-39" fill="#FFFFFF" mask="url(#mask-9)"></path>
                                </g>
                            </g>
                            <g id="Cloud" transform="translate(221.202064, 25.339654)">
                                <mask id="mask-11" fill="white">
                                    <use xlink:href="#path-10"></use>
                                </mask>
                                <g id="Clip-2"></g>
                                <path d="M91.211256,13.5719138 C85.4691425,13.5719138 80.2740452,15.8780352 76.5202326,19.602237 C75.1704284,8.55845494 65.6467055,0 54.0969279,0 C42.5475652,0 33.0238424,8.55845494 31.6738306,19.602237 C27.9202255,15.8780352 22.7249207,13.5719138 16.9830147,13.5719138 C9.95726992,13.5719138 3.7492489,17.0233133 0,22.3017918 L31.5087094,22.3017918 L33.9660294,22.3017918 L74.2280339,22.3017918 L76.6853539,22.3017918 L108.194271,22.3017918 C104.445022,17.0233133 98.2367934,13.5719138 91.211256,13.5719138" id="Fill-1" fill="#FFFFFF" mask="url(#mask-11)"></path>
                            </g>
                            <g id="Cloud" transform="translate(43.373572, 26.800987)">
                                <mask id="mask-13" fill="white">
                                    <use xlink:href="#path-12"></use>
                                </mask>
                                <g id="Clip-2"></g>
                                <path d="M68.8824037,15.7311343 C62.257459,15.7311343 56.2633764,18.404397 51.9324486,22.7208146 C50.3752309,9.92032241 39.3869226,0 26.0614487,0 C11.667973,0 0,11.5735127 0,25.8498041 L49.2878866,25.8498041 L52.1231951,25.8498041 L88.4766232,25.8498041 C84.1510518,19.7317308 76.9880889,15.7311343 68.8824037,15.7311343" id="Fill-1" fill="#FFFFFF" mask="url(#mask-13)"></path>
                            </g>
                            <g id="Cloud" transform="translate(196.280194, 9.885081) scale(-1, 1) translate(-196.280194, -9.885081) translate(164.280194, 0.385081)">
                                <mask id="mask-15" fill="white">
                                    <use xlink:href="#path-14"></use>
                                </mask>
                                <g id="Clip-2"></g>
                                <path d="M49.2017169,11.1043301 C44.4696136,11.1043301 40.188126,12.9913391 37.0946061,16.0382221 C35.9823078,7.00258053 28.1335161,0 18.6153205,0 C8.33426641,0 0,8.16953838 0,18.2469206 L35.2056333,18.2469206 L37.2308536,18.2469206 L63.197588,18.2469206 C60.1078942,13.9282806 54.9914921,11.1043301 49.2017169,11.1043301" id="Fill-1" fill="#FFFFFF" mask="url(#mask-15)"></path>
                            </g>
                        </g>
                    </g>
                    <g id="Foreground" mask="url(#mask-3)">
                        <g transform="translate(-26.000000, 168.000000)">
                            <g id="Plant---Right" stroke-width="1" fill="none" transform="translate(319.900240, 72.360045) scale(-1, 1) rotate(12.000000) translate(-319.900240, -72.360045) translate(256.900240, 13.360045)">
                                <path d="M26.0398023,96.6050682 C44.426395,97.3152874 63.0778301,90.6036288 77.1518994,76.4745872 C91.2264687,62.3455443 97.9128658,43.6218051 97.205568,25.1638657 C78.818974,24.4541484 60.1670402,31.1653064 46.0924709,45.2943492 C32.0184016,59.4233908 25.3325045,78.1471289 26.0398023,96.6050682 Z" id="Fill-1" fill="#002672" transform="translate(61.622683, 60.884500) rotate(-26.000000) translate(-61.622683, -60.884500) "></path>
                                <path d="M54.6442411,108.224561 C67.8244838,108.741396 81.1916995,103.932372 91.2748745,93.7988238 C101.358408,83.6652748 106.144137,70.2316727 105.629985,56.9859224 C92.4497412,56.4694476 79.0821678,61.2781121 68.9986344,71.4116611 C58.9154594,81.5452093 54.1300886,94.9788107 54.6442411,108.224561 Z" id="Fill-1" fill="#002672" transform="translate(80.137112, 82.605265) rotate(-19.000000) translate(-80.137112, -82.605265) "></path>
                                <path d="M70.8145026,113.382026 C83.9900714,113.938918 97.3365286,109.16795 107.384504,99.0599751 C117.432838,88.952 122.175959,75.5263814 121.622265,62.2726979 C108.446697,61.7161662 95.0998812,66.4867732 85.0515473,76.5947483 C75.0035716,86.7027237 70.2608092,100.128343 70.8145026,113.382026 Z" id="Fill-1" fill="#002672" transform="translate(96.218383, 87.827387) rotate(10.000000) translate(-96.218383, -87.827387) "></path>
                                <path d="M4.65876847,55.7078607 C17.8336376,56.2349501 31.1913749,51.4339897 41.2624857,41.3036738 C51.3339547,31.1733575 56.1074435,17.7375115 55.5835101,4.48556733 C42.4086405,3.95883822 29.0505454,8.75943877 18.9790764,18.8897551 C8.9079656,29.0200709 4.13483505,42.4559165 4.65876847,55.7078607 Z" id="Fill-1" fill="#002672" transform="translate(30.121138, 30.096738) scale(1, -1) rotate(-11.000000) translate(-30.121138, -30.096738) "></path>
                                <path d="M28.2610566,53.0004948 C37.7040296,53.3615397 47.2843414,49.9150082 54.5151003,42.6640773 C61.746116,35.4131457 65.1834857,25.8063987 64.8235089,16.3373408 C55.3805352,15.9765534 45.7999673,19.4228281 38.5689516,26.6737598 C31.3381927,33.9246906 27.9010798,43.531437 28.2610566,53.0004948 Z" id="Fill-1" fill="#002672" transform="translate(46.542282, 34.668934) rotate(-212.000000) translate(-46.542282, -34.668934) "></path>
                            </g>
                            <g id="Plant---Left" stroke-width="1" fill="none" transform="translate(0.075133, 0.260396)">
                                <path d="M10.0446369,93.7281429 C27.2206289,94.4377766 44.6260931,88.1987756 57.738102,75.0035926 C70.8505779,61.8084097 77.0509323,44.2931681 76.3457342,27.0088508 C59.1697423,26.2996871 41.763811,32.5382181 28.6513351,45.733401 C15.5393262,58.928584 9.33943883,76.4438256 10.0446369,93.7281429 Z" id="Fill-1" fill="#002672" transform="translate(43.195184, 60.368529) rotate(1.000000) translate(-43.195184, -60.368529) "></path>
                                <path d="M4.81098941,78.4845899 C22.0919086,79.1712599 39.611209,72.9515352 52.818139,59.8228193 C66.0255389,46.694103 72.2829443,29.279239 71.5920545,12.1013753 C54.3111349,11.4151725 36.7913651,17.6344305 23.5839652,30.7631469 C10.3770351,43.8918628 4.12009966,61.3067263 4.81098941,78.4845899 Z" id="Fill-1" fill="#002672" transform="translate(38.201520, 45.293014) rotate(-81.000000) translate(-38.201520, -45.293014) "></path>
                                <path d="M64.488173,127.202175 C82.8779403,127.909883 101.53355,121.196997 115.611932,107.068638 C129.690814,92.9402787 136.380802,74.2189969 135.675748,55.7644268 C117.285979,55.0572206 98.6298709,61.7696064 84.5509885,75.8979661 C70.4726061,90.0263245 63.7831184,108.747605 64.488173,127.202175 Z" id="Fill-1" fill="#002672" transform="translate(100.081959, 91.483334) rotate(-28.000000) translate(-100.081959, -91.483334) "></path>
                                <path d="M95.0472106,126.994541 C108.220832,127.525802 121.575649,122.728498 131.642538,112.600241 C141.709786,102.471984 146.478595,89.0361876 145.950607,75.7826588 C132.776985,75.2517588 119.42181,80.0487025 109.354563,90.1769598 C99.2876734,100.305217 94.5192223,113.741012 95.0472106,126.994541 Z" id="Fill-1" fill="#002672" transform="translate(120.498907, 101.388624) rotate(-8.000000) translate(-120.498907, -101.388624) "></path>
                                <path d="M54.0991751,104.38127 C67.2727965,104.91253 80.6276136,100.115227 90.6945029,89.9869695 C100.76175,79.8587122 105.53056,66.4229162 105.002571,53.1693874 C91.8289497,52.6384875 78.4737747,57.4354312 68.4065272,67.5636885 C58.3396379,77.6919455 53.5711868,91.1277411 54.0991751,104.38127 Z" id="Fill-1" fill="#002672" transform="translate(79.550872, 78.775353) scale(1, -1) rotate(-8.000000) translate(-79.550872, -78.775353) "></path>
                                <path d="M31.0682959,43.7095518 C40.5103632,44.0711059 50.0895674,40.624718 57.3192603,33.3734407 C64.5492098,26.1221627 67.9857679,16.5146484 67.6253577,7.04464631 C58.1832897,6.68334973 48.6038294,10.1294808 41.3738798,17.3807588 C34.144187,24.6320361 30.7078857,34.2395497 31.0682959,43.7095518 Z" id="Fill-1" fill="#002672" transform="translate(49.346826, 25.377116) rotate(-31.000000) translate(-49.346826, -25.377116) "></path>
                                <path d="M49.5140964,77.1632805 C58.9460536,77.5664494 68.4984536,74.157486 75.6877373,66.928607 C82.8772773,59.6997283 86.2678932,50.0951144 85.8668341,40.6116336 C76.4348773,40.2087226 66.8822204,43.6174277 59.6926803,50.8463064 C52.5033967,58.0751854 49.1130373,67.6797998 49.5140964,77.1632805 Z" id="Fill-1" fill="#002672" transform="translate(67.690464, 58.887475) rotate(-165.000000) translate(-67.690464, -58.887475) "></path>
                            </g>
                            <polyline id="Path-3" fill="#002672" points="355.273253 35.4401754 341.258337 35.4401754 299.920141 128.746404 355.273253 128.746404"></polyline>
                        </g>
                    </g>
                    <g id="Group-4" mask="url(#mask-3)" fill="#DAF1FC">
                        <g transform="translate(19.000000, -9.000000)" id="Path">
                            <path d="M22.345641,2.04643698 L8.33576289,16.3100515 C8.44732757,12.6707356 9.84996031,9.08992498 12.5517003,6.33925305 C15.2534404,3.58858113 18.7707463,2.16034679 22.345641,2.04643698 L22.345641,2.04643698 Z" transform="translate(15.340702, 9.178244) rotate(15.000000) translate(-15.340702, -9.178244) "></path>
                            <path d="M0,2.8215332 C3.5705886,2.95422122 7.090373,4.40276806 9.80245356,7.1713503 C12.5145341,9.93993254 13.9335188,13.5330458 14.0634989,17.1780216 L0,2.8215332 L0,2.8215332 Z"></path>
                        </g>
                    </g>
                </g>
            </g>
        </g>
    </g>
</svg>