<svg width="400" height="400" viewBox="0 0 400 400" fill="none" xmlns="http://www.w3.org/2000/svg">
<path d="M177.243 32.6343C141.155 26.4541 137.798 59.0205 138.044 68.3742C138.289 77.718 141.488 86.0041 144.786 94.7505C148.084 103.497 145.993 115.436 143.216 124.369C139.967 134.82 129.623 144.408 133.323 154.712C136.228 162.802 146.936 166.769 148.251 175.261C149.291 181.989 143.864 187.837 141.861 194.34C138.083 206.603 146.739 218.895 154.876 228.826C158.232 232.93 162.305 237.387 167.605 237.455C174.937 237.553 179.295 229.629 182.602 223.097C191.759 205.036 205.421 189.267 222.018 177.621" fill="black"/>
<path d="M155.052 81.4009C155.072 81.4499 154.257 81.8612 152.824 82.204C151.401 82.5468 149.34 82.7329 147.112 82.3901C144.884 82.0375 142.98 81.2148 141.733 80.4508C140.477 79.6869 139.829 79.0404 139.869 79.0013C139.918 78.9327 140.644 79.4714 141.91 80.1374C143.176 80.8034 145.031 81.538 147.19 81.8808C149.35 82.2138 151.342 82.0963 152.755 81.8514C154.169 81.6164 155.022 81.3225 155.052 81.4009Z" fill="#455A64"/>
<path d="M144.225 164.281C144.225 164.281 143.381 163.41 142.204 161.568C141.055 159.727 139.632 156.838 138.857 152.988C138.081 149.178 138.003 144.34 139.711 139.413C140.545 136.955 141.85 134.546 143.362 132.185C144.873 129.815 146.571 127.474 148.151 124.976C151.312 119.991 153.206 114.585 153.854 109.511C154.217 106.984 154.325 104.545 154.217 102.283C154.168 100.01 153.834 97.9144 153.5 96.0045C152.735 92.2141 151.616 89.2562 150.693 87.2973C150.281 86.2885 149.839 85.5735 149.594 85.0544C149.339 84.5451 149.211 84.2708 149.221 84.261C149.231 84.2512 149.398 84.5059 149.682 85.0054C149.957 85.5049 150.428 86.2199 150.87 87.2189C151.851 89.1582 153.029 92.1161 153.844 95.936C154.197 97.8557 154.55 99.9713 154.629 102.263C154.757 104.555 154.658 107.023 154.305 109.58C153.667 114.702 151.763 120.207 148.564 125.251C146.974 127.768 145.266 130.109 143.764 132.459C142.263 134.8 140.967 137.17 140.143 139.57C138.445 144.389 138.484 149.149 139.2 152.92C139.917 156.72 141.271 159.6 142.361 161.461C143.489 163.322 144.275 164.232 144.225 164.281Z" fill="#455A64"/>
<path d="M263.505 128.718C263.505 128.718 281.603 128.718 293.921 155.055C303.058 174.595 329.116 241.118 325.004 259.806C324.081 263.998 321.451 273.313 314.737 273.44C303.303 273.655 295.304 273.029 295.304 273.029L280.681 239.287L266.577 191.137C266.577 191.147 243.866 133.272 263.505 128.718Z" fill="#FFAF00"/>
<path d="M286.137 271.971L281.602 241.461L263.504 128.718L241.009 127.033L198.727 135.417C198.727 135.417 173.778 139.452 160.98 148.571C160.98 148.571 164.778 210.295 164.994 216.72C165.465 230.775 174.24 243.371 183.053 254.537L185.379 257.475L184.182 275.164L286.137 271.971Z" fill="#FFAF00"/>
<path d="M180.374 139.825C180.374 139.825 162.59 143.684 151.146 158.434C141.91 170.334 98.8631 223.342 98.8631 223.342C98.8631 223.342 76.731 235.702 72.6187 248.464C68.5063 261.227 72.6776 272.539 82.2763 272.539C91.8751 272.539 116.667 265.987 116.667 265.987L164.857 210.913L165.946 220.394L176.978 172.264L180.374 139.825Z" fill="#FFAF00"/>
<path d="M261.846 177.376C261.865 177.376 261.934 177.572 262.052 177.964C262.179 178.405 262.346 178.973 262.552 179.678C263.004 181.235 263.612 183.38 264.368 185.995C265.919 191.323 268.127 198.679 270.61 206.779C273.103 214.85 275.361 222.156 277.019 227.514C277.824 230.119 278.472 232.254 278.943 233.802C279.149 234.507 279.316 235.075 279.443 235.516C279.551 235.908 279.6 236.123 279.591 236.123C279.571 236.133 279.493 235.927 279.345 235.545C279.188 235.105 278.992 234.546 278.747 233.861C278.236 232.323 277.53 230.207 276.666 227.622C274.939 222.342 272.593 215.036 270.11 206.926C267.627 198.826 265.467 191.461 264.005 186.093C263.279 183.41 262.7 181.235 262.346 179.727C262.179 179.012 262.042 178.434 261.934 177.983C261.875 177.602 261.836 177.386 261.846 177.376Z" fill="black"/>
<path d="M245.2 238.719C245.21 238.758 244.768 238.856 243.954 239.013C243.551 239.091 243.051 239.179 242.472 239.238C241.892 239.297 241.225 239.395 240.489 239.414C239.017 239.512 237.26 239.493 235.317 239.326C233.373 239.13 231.253 238.768 229.084 238.17C226.915 237.553 224.913 236.76 223.156 235.927C221.409 235.065 219.888 234.174 218.681 233.322C218.062 232.92 217.542 232.499 217.081 232.147C216.61 231.794 216.237 231.471 215.933 231.187C215.324 230.638 215 230.325 215.02 230.296C215.089 230.217 216.433 231.442 218.887 233.028C220.104 233.831 221.625 234.674 223.362 235.506C225.109 236.309 227.092 237.073 229.232 237.681C231.371 238.268 233.462 238.631 235.376 238.856C237.289 239.042 239.027 239.111 240.489 239.052C243.394 238.964 245.18 238.621 245.2 238.719Z" fill="black"/>
<path d="M168.41 179.433C168.43 179.443 168.391 179.629 168.312 179.991C168.214 180.403 168.086 180.932 167.929 181.568C167.753 182.244 167.547 183.086 167.34 184.056C167.134 185.036 166.859 186.132 166.644 187.376C166.153 189.845 165.711 192.802 165.358 196.103C165.044 199.404 164.828 203.047 164.847 206.877C164.897 210.707 165.162 214.35 165.535 217.651C165.947 220.942 166.437 223.9 166.967 226.348C167.203 227.582 167.488 228.679 167.713 229.659C167.929 230.629 168.155 231.461 168.342 232.137C168.508 232.774 168.646 233.293 168.754 233.704C168.842 234.066 168.881 234.252 168.862 234.262C168.842 234.272 168.773 234.086 168.656 233.733C168.528 233.332 168.361 232.813 168.155 232.186C167.939 231.52 167.684 230.687 167.439 229.718C167.183 228.748 166.869 227.651 166.614 226.417C166.035 223.959 165.505 221.001 165.063 217.7C164.661 214.389 164.376 210.726 164.337 206.877C164.317 203.028 164.543 199.365 164.887 196.044C165.27 192.734 165.75 189.766 166.29 187.298C166.526 186.054 166.82 184.957 167.056 183.988C167.282 183.008 167.527 182.185 167.733 181.51C167.929 180.883 168.086 180.364 168.204 179.962C168.322 179.609 168.391 179.433 168.41 179.433Z" fill="black"/>
<path d="M267.41 132.88C267.459 132.968 265.899 133.635 263.769 135.29C261.649 136.925 259.029 139.687 257.35 143.429C255.672 147.17 255.358 150.971 255.544 153.635C255.721 156.318 256.261 157.925 256.163 157.944C256.133 157.954 255.976 157.562 255.76 156.828C255.544 156.093 255.319 155.016 255.171 153.654C254.877 150.951 255.142 147.053 256.869 143.213C258.587 139.374 261.325 136.573 263.543 134.996C264.652 134.193 265.614 133.644 266.301 133.311C266.998 132.988 267.391 132.851 267.41 132.88Z" fill="black"/>
<path d="M265.084 190.266C265.084 190.266 264.956 190.628 264.574 191.255C264.201 191.872 263.523 192.753 262.414 193.596C261.315 194.448 259.774 195.261 257.851 195.731C255.927 196.221 253.62 196.289 251.167 195.868C248.703 195.457 246.122 194.575 243.413 193.517C240.704 192.469 237.848 191.245 234.698 190.491C233.127 190.119 231.479 189.874 229.79 189.893C228.112 189.923 226.395 190.197 224.716 190.726C221.35 191.764 218.199 193.713 215.118 195.839C212.036 197.984 209.111 200.256 205.98 201.99C202.879 203.733 199.561 205.026 196.244 205.232C194.595 205.339 192.956 205.173 191.445 204.781C189.923 204.379 188.52 203.782 187.224 203.126C184.623 201.784 182.415 200.207 180.344 198.865C176.261 196.113 172.492 194.595 169.744 194.35C166.996 194.056 165.514 194.673 165.504 194.575C165.504 194.565 165.593 194.536 165.769 194.487C165.946 194.438 166.211 194.35 166.574 194.291C167.291 194.154 168.37 194.037 169.764 194.154C172.561 194.34 176.418 195.839 180.54 198.571C182.621 199.894 184.839 201.451 187.421 202.754C188.706 203.4 190.09 203.968 191.562 204.35C193.044 204.722 194.615 204.879 196.224 204.771C199.444 204.566 202.682 203.302 205.745 201.568C208.836 199.845 211.731 197.592 214.833 195.437C217.925 193.292 221.114 191.323 224.569 190.266C226.287 189.727 228.053 189.453 229.781 189.423C231.518 189.414 233.206 189.668 234.806 190.05C238.005 190.834 240.871 192.078 243.57 193.135C246.259 194.203 248.811 195.094 251.226 195.525C253.64 195.966 255.888 195.927 257.772 195.467C259.666 195.036 261.188 194.262 262.287 193.449C263.396 192.646 264.073 191.803 264.476 191.206C264.898 190.599 265.064 190.256 265.084 190.266Z" fill="#FAFAFA"/>
<path d="M302.645 175.946C302.664 175.956 302.596 176.083 302.448 176.328C302.321 176.583 302.076 176.916 301.742 177.347C301.065 178.179 299.857 179.247 298.11 180.089C296.363 180.932 294.096 181.519 291.535 181.627C288.973 181.745 286.186 181.343 283.31 180.873C280.434 180.403 277.696 179.942 275.193 179.942C272.69 179.933 270.443 180.344 268.686 181.02C266.919 181.686 265.643 182.587 264.878 183.302C264.103 184.017 263.759 184.507 263.72 184.477C263.71 184.467 263.788 184.34 263.946 184.115C264.103 183.88 264.368 183.557 264.741 183.165C265.486 182.391 266.762 181.421 268.558 180.687C270.355 179.952 272.651 179.492 275.203 179.482C277.765 179.462 280.532 179.913 283.408 180.383C286.284 180.853 289.032 181.265 291.525 181.176C294.018 181.088 296.246 180.559 297.963 179.786C299.681 179.002 300.888 178.023 301.595 177.239C302.301 176.436 302.596 175.917 302.645 175.946Z" fill="#FAFAFA"/>
<path d="M310.723 200.099C310.743 200.109 310.684 200.246 310.556 200.511C310.429 200.765 310.262 201.167 309.968 201.627C309.418 202.577 308.495 203.899 307.043 205.251C306.326 205.937 305.472 206.603 304.501 207.249C303.519 207.876 302.42 208.464 301.193 208.944C298.759 209.894 295.815 210.374 292.802 210.021C289.789 209.707 287.041 208.904 284.518 208.366C282.006 207.798 279.689 207.523 277.756 207.602C275.813 207.66 274.281 208.062 273.271 208.454C272.26 208.846 271.749 209.179 271.72 209.139C271.71 209.12 271.828 209.032 272.073 208.875C272.309 208.708 272.691 208.503 273.192 208.277C274.193 207.817 275.754 207.347 277.736 207.249C279.709 207.132 282.074 207.367 284.616 207.915C287.158 208.434 289.906 209.208 292.861 209.521C295.805 209.864 298.641 209.414 301.026 208.513C302.214 208.052 303.303 207.494 304.275 206.896C305.227 206.279 306.081 205.643 306.797 204.987C308.25 203.694 309.202 202.43 309.801 201.519C310.399 200.618 310.674 200.08 310.723 200.099Z" fill="#FAFAFA"/>
<path d="M168.361 230.139C168.312 230.06 170.03 229.972 172.199 228.092C173.288 227.191 174.437 225.888 175.821 224.419C177.214 222.95 179.01 221.451 181.209 220.139C183.427 218.865 186.067 217.768 189.08 217.377C190.582 217.171 192.152 217.142 193.762 217.357C195.371 217.563 196.971 218.052 198.532 218.689C201.682 219.962 204.685 221.862 208.003 223.332C209.662 224.056 211.418 224.664 213.263 224.899C214.186 225.026 215.118 225.036 216.051 224.977C216.983 224.889 217.916 224.703 218.838 224.438C222.529 223.361 225.718 221.236 228.987 219.58C232.255 217.896 235.582 216.622 238.841 215.721C245.357 213.9 251.492 213.469 256.585 213.733C261.689 214.007 265.743 214.918 268.471 215.702C269.845 216.074 270.885 216.456 271.592 216.72C271.916 216.838 272.181 216.936 272.387 217.014C272.564 217.083 272.652 217.122 272.652 217.132C272.652 217.142 272.554 217.112 272.367 217.063C272.161 216.995 271.887 216.916 271.553 216.818C270.836 216.593 269.796 216.24 268.412 215.898C265.674 215.173 261.63 214.331 256.566 214.095C251.511 213.88 245.416 214.34 238.968 216.172C235.749 217.083 232.451 218.346 229.222 220.021C225.983 221.667 222.784 223.812 218.985 224.928C218.043 225.193 217.072 225.388 216.1 225.477C215.128 225.545 214.147 225.535 213.195 225.398C211.281 225.153 209.485 224.527 207.797 223.792C204.43 222.293 201.437 220.393 198.345 219.13C196.804 218.493 195.244 218.013 193.693 217.798C192.133 217.582 190.601 217.602 189.129 217.788C186.185 218.16 183.584 219.208 181.385 220.442C179.207 221.706 177.42 223.165 176.017 224.605C174.613 226.045 173.436 227.347 172.317 228.239C171.208 229.14 170.197 229.649 169.47 229.884C168.764 230.119 168.361 230.139 168.361 230.139Z" fill="#FAFAFA"/>
<path d="M156.484 219.58C156.445 219.649 156.053 218.973 154.875 218.738C154.296 218.63 153.56 218.64 152.716 218.777C151.872 218.895 150.92 219.13 149.83 219.287C148.741 219.424 147.484 219.365 146.238 218.963C144.991 218.562 143.774 217.847 142.656 216.916C141.537 215.986 140.536 214.811 139.652 213.498C138.789 212.176 138.092 210.687 137.464 209.159C136.207 206.084 135.265 203.077 133.871 200.599C132.546 198.091 130.642 196.28 128.807 195.192C127.894 194.644 126.982 194.291 126.167 194.076C125.342 193.89 124.606 193.821 124.008 193.85C122.81 193.909 122.172 194.174 122.163 194.115C122.153 194.095 122.31 194.037 122.614 193.929C122.918 193.811 123.38 193.713 123.998 193.655C124.606 193.596 125.372 193.635 126.236 193.802C127.09 193.997 128.032 194.34 128.994 194.879C130.907 195.956 132.9 197.807 134.284 200.374C135.726 202.891 136.698 205.927 137.935 208.963C138.563 210.481 139.24 211.941 140.074 213.224C140.928 214.497 141.89 215.643 142.96 216.554C144.03 217.465 145.188 218.16 146.375 218.562C147.553 218.963 148.731 219.042 149.791 218.934C151.901 218.65 153.687 218.209 154.924 218.552C155.532 218.699 155.945 218.983 156.18 219.198C156.396 219.434 156.494 219.571 156.484 219.58Z" fill="#FAFAFA"/>
<path d="M165.809 190.706C165.819 190.726 165.701 190.775 165.485 190.853C165.269 190.951 164.935 191.04 164.494 191.128C163.62 191.304 162.275 191.304 160.735 190.834C159.194 190.364 157.496 189.414 155.916 188.003C154.335 186.593 152.942 184.732 151.489 182.822C150.037 180.912 148.613 179.12 147.014 177.827C145.414 176.544 143.696 175.741 142.195 175.408C140.683 175.065 139.397 175.173 138.563 175.408C137.719 175.633 137.297 175.878 137.268 175.829C137.258 175.809 137.366 175.75 137.562 175.633C137.758 175.506 138.082 175.368 138.504 175.222C139.348 174.928 140.683 174.751 142.263 175.065C143.844 175.368 145.64 176.162 147.308 177.474C148.977 178.796 150.439 180.618 151.892 182.528C153.344 184.448 154.708 186.279 156.23 187.67C157.741 189.051 159.37 190.011 160.843 190.501C162.315 191 163.6 191.049 164.454 190.942C165.328 190.834 165.789 190.658 165.809 190.706Z" fill="#FAFAFA"/>
<path d="M211.957 48.3053C200.552 22.6341 167.045 37.8841 167.045 37.8841C151.243 43.6726 149.006 61.4103 152.657 73.5064C156.71 86.9443 162.187 103.203 167.388 112.42C177.851 130.96 193.917 127.865 193.917 127.865L199.286 141.068C203.987 152.626 217.247 158.13 228.769 153.301C239.938 148.63 245.376 135.956 241.067 124.663L211.957 48.3053Z" fill="#FFBE9D"/>
<path d="M161.951 86.6404C162.403 87.992 163.914 88.7266 165.337 88.2858C166.76 87.8451 167.545 86.3955 167.104 85.0439C166.652 83.6923 165.141 82.9577 163.718 83.3984C162.295 83.8392 161.509 85.2887 161.951 86.6404Z" fill="black"/>
<path d="M159.606 83.2517C160.038 83.4672 161.431 81.3418 164.16 80.333C166.869 79.2948 169.391 79.951 169.558 79.5102C169.646 79.3045 169.106 78.8344 167.997 78.521C166.908 78.2076 165.22 78.139 163.522 78.7756C161.824 79.4123 160.636 80.568 160.047 81.5083C159.459 82.4584 159.39 83.1635 159.606 83.2517Z" fill="black"/>
<path d="M187.47 78.4817C187.921 79.8333 189.433 80.5679 190.856 80.1271C192.279 79.6864 193.064 78.2368 192.622 76.8852C192.171 75.5336 190.66 74.799 189.236 75.2397C187.803 75.6707 187.018 77.1301 187.47 78.4817Z" fill="black"/>
<path d="M186.4 73.3298C186.842 73.5453 188.235 71.4101 190.954 70.4111C193.663 69.3729 196.185 70.0291 196.352 69.5884C196.44 69.3827 195.901 68.9125 194.792 68.5991C193.702 68.2857 192.014 68.2171 190.316 68.8538C188.618 69.4904 187.43 70.6462 186.842 71.5864C186.253 72.5365 186.194 73.2417 186.4 73.3298Z" fill="black"/>
<path d="M184.683 97.2284C184.634 97.0717 182.837 97.4047 179.962 98.0707C179.235 98.2568 178.529 98.3645 178.234 97.9336C177.881 97.4928 177.901 96.6407 177.93 95.7005C177.96 93.7807 177.989 91.7631 178.018 89.6475C178.077 81.0578 177.842 74.1038 177.498 74.1038C177.155 74.1038 176.821 81.0676 176.762 89.6475C176.762 91.7631 176.762 93.7709 176.772 95.7005C176.801 96.5917 176.684 97.6495 177.42 98.5604C177.803 99.011 178.45 99.1971 178.941 99.1481C179.442 99.1187 179.834 98.9816 180.188 98.8738C183.004 98.0119 184.722 97.3851 184.683 97.2284Z" fill="black"/>
<path d="M193.928 127.875C193.928 127.875 207.531 123.81 217.758 111.048C217.758 111.048 216.187 127.023 195.734 132.498L193.928 127.875Z" fill="#EB996E"/>
<path d="M177.15 106.334C177.278 105.321 178.077 104.431 179.069 104.187C180.062 103.943 181.186 104.359 181.768 105.188C182.297 104.341 183.493 104.036 184.433 104.388C185.373 104.74 186.047 105.63 186.311 106.597C186.829 108.47 185.836 110.614 184.119 111.524C182.402 112.435 180.13 112.092 178.692 110.783C177.255 109.474 176.699 107.318 177.223 105.443" fill="#EB996E"/>
<path d="M187.869 104.75C187.524 104.428 185.502 106.849 182.002 106.852C178.493 106.86 176.132 104.444 175.835 104.773C175.68 104.896 176.019 105.718 177.091 106.65C178.136 107.575 179.987 108.522 182.129 108.521C184.278 108.515 185.988 107.552 186.896 106.633C187.816 105.696 188.043 104.875 187.869 104.75Z" fill="black"/>
<path d="M182.248 69.4515C182.788 70.0881 185.379 68.7365 188.726 67.9334C192.053 67.0715 194.978 67.0421 195.155 66.2291C195.223 65.8374 194.517 65.3085 193.211 64.9852C191.916 64.6522 190.012 64.5837 188.009 65.0832C186.017 65.5827 184.368 66.5426 183.377 67.4436C182.376 68.3447 182.003 69.1381 182.248 69.4515Z" fill="black"/>
<path d="M155.857 74.6523C156.563 75.093 158.202 73.761 160.45 72.8893C162.668 71.949 164.768 71.7629 164.975 70.95C165.053 70.568 164.523 70.0587 163.463 69.7844C162.423 69.5102 160.872 69.5396 159.331 70.1566C157.8 70.7835 156.662 71.8413 156.112 72.7619C155.562 73.6924 155.533 74.427 155.857 74.6523Z" fill="black"/>
<path d="M198.01 80.2551C198 80.5979 197.726 80.8721 197.392 80.8623C197.058 80.8525 196.793 80.5685 196.803 80.2257C196.813 79.8829 197.088 79.6086 197.431 79.6184C197.755 79.6282 198.02 79.9123 198.01 80.2551Z" fill="black"/>
<path d="M263.504 128.718C263.504 128.669 261.521 107.807 245.386 93.4283C229.241 79.0305 251.118 73.4673 237.083 54.4759C232.45 48.2075 227.298 42.5071 220.663 38.4131C219.485 37.6883 218.386 36.8264 217.355 35.9253C214.617 33.5158 212.232 30.6951 209.258 28.5795C207.02 26.9928 204.312 25.837 201.622 25.7978C199.993 25.1318 198.285 24.6225 196.489 24.3581C188.618 23.1729 180.815 26.3365 173.474 29.4218C166.378 32.4091 147.298 31.6941 153.334 51.1556C154.591 47.9136 159.468 45.2398 163.296 48.423C165.966 50.6463 167.32 52.6052 167.958 56.0136C168.812 60.5484 170.147 65.573 175.653 66.7385C176.988 67.0226 178.391 66.9834 179.736 66.6797C184.329 65.6513 188.019 58.7169 196.794 60.3623C196.794 60.3623 205.332 63.0068 205.833 68.3644C206.333 73.7219 203.36 83.6731 208.62 88.4136C213.881 93.1541 214.764 93.0169 214.617 97.111C214.588 98.0513 214.578 98.6977 214.529 99.1678C213.861 105.642 212.742 133.791 241.519 129.011L251.196 128.424L263.504 128.718Z" fill="black"/>
<path d="M203.104 28.6482C204.37 22.7422 207.177 17.0712 211.662 13.0261C216.147 8.98104 222.409 6.73812 228.376 7.72735C234.344 8.71659 239.761 13.2122 241.165 19.0889C242.568 24.9557 239.388 31.7727 233.735 33.9078C229.456 35.5239 224.696 34.4661 220.122 34.3584C215.549 34.2506 210.19 35.7198 208.58 39.9902" fill="black"/>
<path d="M221.399 32.8795C221.282 31.6845 220.261 30.7639 219.152 30.2937C218.053 29.8236 216.836 29.6865 215.687 29.3339C214.009 28.8246 212.478 27.8549 211.31 26.5621C210.328 25.4847 209.602 24.1918 208.64 23.0948C207.678 21.9979 206.373 21.0674 204.911 21.0674C203.753 21.0674 202.614 21.704 202.006 22.6835C201.397 23.6629 201.348 24.9656 201.868 26.0038C205.558 29.0107 209.298 32.2428 213.499 34.4955C214.971 35.2791 216.541 36.0822 218.2 35.9843C219.858 35.8863 221.566 34.5347 221.399 32.8795Z" fill="#0C0CBF"/>
<path d="M274.673 131.911C274.653 131.911 274.683 131.626 274.742 131.098C274.82 130.569 274.869 129.785 274.928 128.776C275.016 126.768 274.909 123.811 274.015 120.324C273.132 116.847 271.385 112.811 268.313 109.168C265.27 105.485 260.874 102.498 256.202 99.5595C251.52 96.631 247.035 93.7025 243.776 90.1079C242.137 88.3351 240.812 86.4154 239.9 84.4663C238.977 82.5172 238.516 80.529 238.368 78.7072C238.045 75.0343 239.085 72.0862 240.155 70.3722C240.704 69.5103 241.225 68.903 241.607 68.5308C242 68.1586 242.206 67.9725 242.216 67.9921C242.275 68.0411 241.362 68.7463 240.322 70.4799C239.311 72.1939 238.359 75.0833 238.722 78.6778C238.889 80.4604 239.36 82.3899 240.273 84.29C241.175 86.1902 242.491 88.0609 244.11 89.7945C247.339 93.3107 251.785 96.2098 256.467 99.1384C261.139 102.067 265.585 105.103 268.666 108.874C271.768 112.596 273.505 116.71 274.359 120.245C275.223 123.791 275.272 126.778 275.124 128.796C275.036 129.805 274.948 130.588 274.84 131.117C274.742 131.646 274.693 131.92 274.673 131.911Z" fill="black"/>
<path d="M212.507 33.7906C212.526 33.8004 212.408 34.055 212.173 34.5252C211.947 35.0051 211.584 35.6907 211.074 36.5624C210.053 38.296 208.453 40.7544 206.009 43.4087C203.595 46.0826 200.336 48.9523 196.224 51.4009C194.163 52.6057 191.925 53.7712 189.432 54.5743C186.959 55.3579 184.191 55.8574 181.414 55.3187C180.04 55.0445 178.725 54.496 177.606 53.7026C176.487 52.9191 175.564 51.9103 174.789 50.8525C173.258 48.7173 172.247 46.4156 171.099 44.3588C170.529 43.3303 169.921 42.3509 169.253 41.4596C168.596 40.5585 167.811 39.8239 167.016 39.1579C165.377 37.8749 163.561 37.0717 161.853 36.6212C158.398 35.7201 155.415 36.2 153.55 36.8366C151.656 37.4831 150.753 38.1589 150.713 38.1001C150.704 38.0805 150.929 37.9336 151.381 37.6496C151.597 37.5027 151.891 37.3362 152.245 37.1794C152.588 37.0031 153 36.8073 153.481 36.6505C155.356 35.9453 158.389 35.3969 161.941 36.2686C163.698 36.7093 165.573 37.5125 167.281 38.8249C168.105 39.5105 168.929 40.2745 169.607 41.1854C170.304 42.0865 170.922 43.0855 171.501 44.1237C172.679 46.2001 173.69 48.4822 175.191 50.5488C175.937 51.5772 176.82 52.5371 177.89 53.2815C178.95 54.0356 180.187 54.5547 181.502 54.8192C184.142 55.3383 186.841 54.8682 189.265 54.1042C191.7 53.3207 193.927 52.1845 195.969 50.9994C200.052 48.6095 203.3 45.7887 205.725 43.1736C208.178 40.5683 209.808 38.1491 210.877 36.4645C211.407 35.6123 211.8 34.9463 212.055 34.486C212.35 34.0158 212.497 33.7808 212.507 33.7906Z" fill="#455A64"/>
<path d="M215.353 35.7393C215.392 35.7393 215.461 36.2192 215.559 37.1007C215.598 37.5414 215.598 38.0801 215.618 38.7168C215.588 39.3436 215.578 40.0684 215.461 40.8519C215.127 43.9862 213.723 48.3545 210.593 52.1253C209.042 54.0058 207.256 55.524 205.45 56.6308C203.654 57.7473 201.897 58.4525 200.444 59.0794C198.992 59.6866 197.824 60.1959 197.029 60.5779C196.234 60.9599 195.802 61.1852 195.782 61.146C195.763 61.1166 196.165 60.8326 196.94 60.4016C197.716 59.9707 198.864 59.4026 200.297 58.7464C201.72 58.0803 203.457 57.3457 205.194 56.2292C206.941 55.1322 208.679 53.6337 210.19 51.8021C213.252 48.1292 214.675 43.8784 215.097 40.8128C215.578 37.7079 215.235 35.7491 215.353 35.7393Z" fill="#455A64"/>
<path d="M247.525 126.994C247.505 126.994 247.515 126.71 247.535 126.161C247.564 125.623 247.604 124.82 247.584 123.791C247.555 121.734 247.319 118.737 246.347 115.192C245.827 113.429 245.15 111.529 244.218 109.58C243.266 107.64 242.068 105.652 240.586 103.732C239.104 101.813 237.318 99.9712 235.267 98.316C233.206 96.6607 230.87 95.1719 228.671 93.3796C227.572 92.4785 226.532 91.5088 225.638 90.4412C224.735 89.3737 223.999 88.1983 223.43 86.9642C222.311 84.496 221.84 81.9103 221.546 79.4813C221.261 77.0425 221.133 74.7212 220.908 72.5664C220.702 70.4117 220.299 68.4332 219.759 66.68C218.69 63.154 216.864 60.676 215.264 59.4027C213.645 58.1392 212.487 57.8552 212.516 57.7866C212.526 57.7671 212.791 57.865 213.311 58.0511C213.822 58.2568 214.548 58.629 215.392 59.246C217.06 60.4997 218.984 63.0071 220.113 66.5722C220.682 68.345 221.114 70.3529 221.34 72.5175C221.585 74.682 221.722 77.0033 222.017 79.4225C222.331 81.8319 222.792 84.3589 223.891 86.7487C224.971 89.1484 226.826 91.215 229.005 92.9682C231.174 94.741 233.5 96.2297 235.59 97.9144C237.671 99.599 239.487 101.48 240.979 103.438C242.471 105.397 243.668 107.415 244.62 109.384C245.543 111.372 246.21 113.292 246.72 115.084C247.663 118.688 247.849 121.715 247.81 123.781C247.81 124.82 247.731 125.623 247.672 126.161C247.574 126.71 247.535 126.994 247.525 126.994Z" fill="#455A64"/>
<path d="M240.075 15.6414C240.017 15.7589 238.476 14.4073 235.404 13.6531C232.391 12.8794 227.778 12.9969 223.528 15.2594C219.278 17.5415 216.491 21.0871 214.852 23.7512C214.027 25.093 213.438 26.2292 213.056 27.0323C212.673 27.8257 212.467 28.2762 212.428 28.2566C212.398 28.2468 212.545 27.7767 212.869 26.9442C213.203 26.1214 213.743 24.9461 214.538 23.5651C216.108 20.8325 218.915 17.1693 223.283 14.8187C227.66 12.4778 232.42 12.4288 235.482 13.3103C237.033 13.7413 238.211 14.3192 238.957 14.8089C239.349 15.0342 239.604 15.2692 239.801 15.4063C239.997 15.5435 240.085 15.6316 240.075 15.6414Z" fill="#455A64"/>
<path d="M238.427 27.6394C238.378 27.7177 237.269 26.895 235.238 26.0331C233.235 25.1712 230.232 24.3582 226.885 24.5443C223.539 24.7304 220.643 25.8568 218.749 26.944C216.835 28.0214 215.824 28.9714 215.765 28.8931C215.746 28.8735 215.971 28.609 216.443 28.1977C216.904 27.7765 217.62 27.2182 218.572 26.6306C220.457 25.4454 223.421 24.2211 226.866 24.035C230.311 23.8489 233.383 24.7304 235.395 25.7001C236.406 26.18 237.181 26.6599 237.681 27.0223C238.192 27.3847 238.447 27.6198 238.427 27.6394Z" fill="#455A64"/>
<path fill-rule="evenodd" clip-rule="evenodd" d="M341.741 274.579H23.5815V273.819H341.741V274.579Z" fill="black"/>
<path d="M174.624 303L87.7739 295.683L162.493 273.92L241.089 274.047L174.624 303Z" fill="white"/>
<path d="M174.624 303C174.624 303 175.036 302.794 175.831 302.442C176.645 302.079 177.823 301.56 179.354 300.874C182.465 299.503 187 297.505 192.781 294.959C204.382 289.875 220.968 282.618 241 273.852L241.089 274.263C218.476 274.234 191.505 274.214 162.493 274.175L162.561 274.165C160.461 274.782 158.194 275.438 155.917 276.104C131.302 283.264 108.06 290.032 87.8423 295.909L87.7932 295.468C113.606 297.681 135.306 299.542 150.558 300.855C158.174 301.521 164.181 302.05 168.303 302.412C170.344 302.598 171.925 302.745 172.994 302.843C173.515 302.892 173.917 302.931 174.202 302.961C174.486 302.98 174.624 303 174.624 303C174.624 303 174.486 303 174.221 302.98C173.937 302.961 173.544 302.931 173.024 302.892C171.944 302.814 170.374 302.686 168.332 302.53C164.21 302.197 158.204 301.717 150.587 301.1C135.316 299.836 113.596 298.034 87.7539 295.899L86.5271 295.801L87.7049 295.458C107.923 289.562 131.154 282.784 155.76 275.605C158.037 274.939 160.304 274.283 162.404 273.666L162.444 273.656H162.483C191.495 273.715 218.476 273.773 241.079 273.822H242.109L241.167 274.234C221.086 282.941 204.46 290.15 192.83 295.194C187.029 297.691 182.485 299.65 179.364 300.992C177.823 301.648 176.636 302.158 175.821 302.5C175.036 302.843 174.624 303 174.624 303Z" fill="black"/>
<path d="M87.7732 295.683L4.23071 289.532L83.9062 274.498H159.41L87.7732 295.683Z" fill="#E0E0E0"/>
<path d="M87.7729 295.683C87.7729 295.683 88.2145 295.526 89.0782 295.262C89.9517 294.998 91.2276 294.606 92.8863 294.096C96.2429 293.088 101.14 291.618 107.383 289.748C119.896 286.026 137.788 280.698 159.341 274.282L159.4 274.704C137.553 274.713 111.672 274.723 83.8961 274.743H83.9452C81.6682 275.174 79.2243 275.634 76.7706 276.094C50.4182 281.06 25.6166 285.732 4.26967 289.748L4.24022 289.307C29.1597 291.178 50.0355 292.755 64.6888 293.852C72.0007 294.42 77.7717 294.86 81.7172 295.164C83.6802 295.321 85.1818 295.448 86.2123 295.526C86.7129 295.575 87.0957 295.605 87.3705 295.624C87.6453 295.664 87.7729 295.683 87.7729 295.683C87.7729 295.683 87.6453 295.683 87.3803 295.673C87.1055 295.654 86.7227 295.634 86.232 295.605C85.2014 295.536 83.6998 295.438 81.7369 295.311C77.7914 295.037 72.0302 294.635 64.7084 294.116C50.0355 293.058 29.1499 291.55 4.21078 289.758L2.4834 289.63L4.18134 289.307C25.5184 285.272 50.3201 280.58 76.6725 275.595C79.136 275.134 81.5798 274.674 83.847 274.243H83.8666H83.8863C111.662 274.253 137.543 274.273 159.391 274.282H160.892L159.449 274.704C137.857 281.05 119.945 286.32 107.402 290.002C101.15 291.824 96.2429 293.254 92.8863 294.234C91.2178 294.714 89.9419 295.076 89.0684 295.331C88.2244 295.575 87.7729 295.683 87.7729 295.683Z" fill="black"/>
<path d="M87.7734 295.683C87.7734 295.683 85.8203 277.573 70.7548 279.062C55.6893 280.551 35.7066 290.639 19.2769 290.639L1.63989 289.268L39.2497 281.54C39.2497 281.54 132.597 261.863 132.597 262.48C132.597 263.097 163.994 255.556 162.875 274.126L87.7734 295.683Z" fill="white"/>
<path d="M87.7726 295.683C87.7726 295.683 88.2535 295.527 89.1565 295.262C90.079 294.988 91.4237 294.596 93.1707 294.087C96.6843 293.068 101.827 291.57 108.383 289.66C121.486 285.869 140.222 280.453 162.806 273.92L162.649 274.116C162.737 272.451 162.6 270.717 161.981 269.131C161.383 267.534 160.303 266.114 158.909 265.066C156.083 262.95 152.383 262.167 148.722 261.853C145.031 261.559 141.223 261.775 137.396 262.206C136.434 262.323 135.472 262.451 134.51 262.568C134.029 262.627 133.548 262.705 133.048 262.745C132.92 262.754 132.812 262.774 132.626 262.754L132.537 262.735C132.518 262.735 132.42 262.676 132.39 262.598C132.37 262.49 132.321 262.461 132.41 262.637C132.557 262.745 132.537 262.696 132.527 262.705C132.537 262.705 132.508 262.705 132.498 262.705L132.331 262.715L131.615 262.823C129.681 263.146 127.738 263.528 125.775 263.9C110.091 266.995 93.4553 270.472 76.2207 274.047C62.8237 276.849 49.7996 279.571 37.3154 282.177C24.8213 284.733 12.8867 287.182 1.67831 289.483L1.64886 289.033C7.77322 289.513 13.6522 289.973 19.2858 290.414H19.2662C25.2335 290.335 30.8966 289.219 36.1572 287.858C41.4277 286.496 46.3547 284.949 50.997 283.548C55.6394 282.147 60.0069 280.884 64.1192 280.002C66.1705 279.562 68.1629 279.219 70.0767 279.003C71.9906 278.758 73.8652 278.798 75.573 279.17C79.0473 279.885 81.609 282.02 83.2578 284.126C84.9263 286.271 85.8391 288.406 86.4672 290.149C87.0856 291.903 87.3898 293.293 87.5665 294.234C87.753 295.194 87.7726 295.683 87.7726 295.683C87.7726 295.683 87.7431 295.556 87.7039 295.321C87.6646 295.086 87.6057 294.723 87.4978 294.253C87.3015 293.323 86.9776 291.932 86.3397 290.198C85.6919 288.475 84.7595 286.359 83.1008 284.253C81.4618 282.177 78.9296 280.1 75.5141 279.415C73.826 279.052 71.9906 279.023 70.0964 279.278C68.1923 279.503 66.2196 279.846 64.1781 280.296C60.0854 281.187 55.7375 282.471 51.0952 283.881C46.4528 285.291 41.5259 286.868 36.2456 288.239C30.9751 289.621 25.2924 290.757 19.2564 290.855H19.2466H19.2368C13.6031 290.424 7.72414 289.973 1.59979 289.503L0 289.376L1.58998 289.043C12.7983 286.731 24.733 284.273 37.227 281.707C49.7113 279.091 62.7354 276.369 76.1226 273.558C93.3571 269.983 109.983 266.515 125.687 263.43C127.65 263.048 129.593 262.676 131.546 262.353C133.519 262.304 135.413 261.912 137.356 261.726C141.204 261.295 145.031 261.08 148.771 261.383C152.471 261.706 156.24 262.5 159.184 264.703C160.647 265.791 161.775 267.299 162.394 268.964C163.031 270.639 163.169 272.421 163.081 274.136L163.071 274.282L162.924 274.322C140.252 280.776 121.447 286.134 108.295 289.885C101.749 291.736 96.6156 293.195 93.102 294.185C91.3648 294.674 90.03 295.047 89.1172 295.301C88.2241 295.566 87.7726 295.683 87.7726 295.683Z" fill="black"/>
<path d="M172.779 296.947C171.198 296.947 115.363 292.579 115.363 292.579L172.779 296.947Z" fill="white"/>
<path d="M115.362 292.578C115.362 292.559 115.568 292.559 115.951 292.569C116.393 292.588 116.942 292.618 117.629 292.647C119.151 292.745 121.241 292.872 123.783 293.039C129.044 293.421 136.189 293.94 144.08 294.508C151.981 295.135 159.116 295.713 164.377 296.124C166.919 296.349 169.009 296.535 170.531 296.673C171.208 296.741 171.767 296.8 172.199 296.849C172.582 296.898 172.778 296.927 172.778 296.947C172.778 296.966 172.582 296.966 172.199 296.957C171.757 296.937 171.208 296.908 170.531 296.878C169.009 296.78 166.929 296.653 164.377 296.486C159.116 296.104 151.971 295.585 144.07 295.017C136.169 294.39 129.024 293.813 123.773 293.401C121.231 293.176 119.141 292.99 117.629 292.853C116.952 292.784 116.393 292.725 115.961 292.676C115.559 292.627 115.362 292.598 115.362 292.578Z" fill="black"/>
<path d="M182.003 293.167C180.423 293.167 124.587 288.798 124.587 288.798L182.003 293.167Z" fill="white"/>
<path d="M124.579 288.788C124.579 288.768 124.785 288.768 125.168 288.778C125.609 288.798 126.159 288.827 126.846 288.857C128.367 288.954 130.458 289.082 133 289.248C138.26 289.63 145.406 290.149 153.297 290.717C161.197 291.344 168.333 291.922 173.593 292.334C176.135 292.559 178.226 292.745 179.747 292.882C180.424 292.951 180.984 293.009 181.416 293.058C181.798 293.107 181.995 293.137 181.995 293.156C181.995 293.176 181.798 293.176 181.416 293.166C180.974 293.146 180.424 293.117 179.747 293.088C178.226 292.99 176.145 292.862 173.593 292.696C168.333 292.314 161.188 291.795 153.287 291.227C145.386 290.6 138.241 290.022 132.99 289.611C130.448 289.385 128.358 289.199 126.846 289.062C126.169 288.994 125.609 288.935 125.178 288.886C124.785 288.837 124.579 288.808 124.579 288.788Z" fill="black"/>
<path d="M196.638 288.789C195.057 288.789 136.562 285.302 136.562 285.302L196.638 288.789Z" fill="white"/>
<path d="M136.562 285.311C136.562 285.291 136.778 285.292 137.171 285.292C137.622 285.301 138.211 285.321 138.928 285.34C140.518 285.409 142.696 285.507 145.366 285.634C150.862 285.938 158.341 286.34 166.605 286.79C174.869 287.299 182.348 287.76 187.844 288.093C190.513 288.279 192.692 288.436 194.282 288.543C194.999 288.602 195.578 288.651 196.029 288.69C196.432 288.729 196.638 288.759 196.638 288.778C196.638 288.798 196.432 288.798 196.029 288.798C195.578 288.788 194.999 288.769 194.282 288.749C192.692 288.68 190.513 288.582 187.844 288.455C182.348 288.151 174.869 287.75 166.595 287.299C158.331 286.79 150.852 286.33 145.356 285.997C142.687 285.811 140.508 285.654 138.918 285.546C138.201 285.487 137.622 285.438 137.171 285.399C136.778 285.35 136.562 285.321 136.562 285.311Z" fill="black"/>
<path d="M209.23 284.009C207.65 284.009 148.546 281.825 148.546 281.825L209.23 284.009Z" fill="white"/>
<path d="M148.545 281.824C148.545 281.804 148.761 281.794 149.164 281.794C149.625 281.794 150.214 281.804 150.93 281.814C152.53 281.853 154.738 281.902 157.437 281.971C162.983 282.147 170.54 282.402 178.892 282.666C187.245 282.999 194.792 283.293 200.347 283.518C203.046 283.646 205.245 283.753 206.845 283.832C207.571 283.881 208.15 283.91 208.611 283.939C209.014 283.969 209.23 283.998 209.23 284.018C209.23 284.037 209.014 284.047 208.611 284.047C208.15 284.047 207.571 284.037 206.845 284.028C205.245 283.988 203.036 283.939 200.337 283.871C194.792 283.695 187.235 283.44 178.883 283.175C170.53 282.842 162.983 282.549 157.428 282.323C154.729 282.196 152.53 282.088 150.93 282.01C150.204 281.961 149.625 281.932 149.164 281.902C148.761 281.863 148.545 281.843 148.545 281.824Z" fill="black"/>
<path d="M220.448 278.582C218.867 278.582 160.529 278.337 160.529 278.337L220.448 278.582Z" fill="white"/>
<path d="M160.539 278.338C160.539 278.2 173.956 278.142 190.493 278.2C207.041 278.269 220.458 278.435 220.458 278.573C220.458 278.71 207.041 278.768 190.493 278.71C173.946 278.651 160.529 278.484 160.539 278.338Z" fill="black"/>
<path d="M73.8263 274.537C73.8165 274.507 74.2287 274.361 75.0041 274.184C75.7696 274.008 76.9081 273.832 78.3313 273.802C81.1481 273.714 85.1917 274.38 88.8919 276.721C92.592 279.062 94.9181 282.431 96.0369 285.017C96.6062 286.31 96.9399 287.416 97.1067 288.18C97.2736 288.954 97.3227 289.385 97.2932 289.395C97.1853 289.424 96.9203 287.681 95.7131 285.174C94.5353 282.676 92.219 279.444 88.6269 277.162C85.0347 274.889 81.1088 274.174 78.3509 274.174C75.5439 274.135 73.846 274.635 73.8263 274.537Z" fill="black"/>
<path d="M83.0031 272.108C82.9933 272.079 83.4055 271.932 84.1809 271.755C84.9464 271.579 86.0849 271.403 87.508 271.374C90.3248 271.285 94.3685 271.951 98.0686 274.292C101.769 276.633 104.095 280.002 105.214 282.588C105.783 283.881 106.117 284.988 106.283 285.752C106.45 286.525 106.499 286.956 106.47 286.966C106.362 286.996 106.097 285.252 104.89 282.745C103.712 280.247 101.396 277.015 97.8036 274.733C94.2115 272.461 90.2856 271.746 87.5277 271.746C84.7207 271.716 83.0227 272.216 83.0031 272.108Z" fill="black"/>
<path d="M92.5136 270.423C92.5038 270.394 92.916 270.247 93.6717 270.061C94.4275 269.875 95.5365 269.659 96.9302 269.532C98.3239 269.415 100.002 269.424 101.838 269.757C103.663 270.1 105.626 270.805 107.422 271.981C111.044 274.331 113.321 277.662 114.41 280.208C114.97 281.491 115.293 282.578 115.46 283.332C115.627 284.096 115.666 284.518 115.637 284.527C115.539 284.557 115.274 282.833 114.086 280.355C112.928 277.887 110.661 274.684 107.147 272.402C103.643 270.071 99.6587 269.728 96.9596 269.875C94.2017 270.041 92.5332 270.521 92.5136 270.423Z" fill="black"/>
<path d="M102.652 268.327C102.642 268.298 103.035 268.161 103.761 267.965C104.487 267.769 105.557 267.524 106.902 267.368C108.246 267.211 109.885 267.162 111.662 267.515C113.438 267.848 115.303 268.651 117.001 269.836C120.446 272.196 122.595 275.448 123.646 277.926C124.176 279.17 124.48 280.228 124.647 280.962C124.804 281.697 124.843 282.118 124.814 282.118C124.715 282.147 124.45 280.482 123.322 278.073C122.213 275.683 120.073 272.549 116.716 270.257C115.058 269.101 113.272 268.327 111.564 267.975C109.856 267.612 108.256 267.612 106.941 267.73C104.291 267.975 102.672 268.425 102.652 268.327Z" fill="black"/>
<path d="M113.085 266.702C113.076 266.672 113.458 266.535 114.145 266.329C114.832 266.124 115.833 265.83 117.1 265.565C118.356 265.301 119.936 265.076 121.663 265.389C123.381 265.712 125.128 266.604 126.708 267.779C129.927 270.149 131.92 273.283 132.901 275.663C133.402 276.858 133.677 277.867 133.834 278.572C133.981 279.278 134.02 279.679 133.991 279.679C133.892 279.699 133.637 278.122 132.577 275.801C131.527 273.499 129.545 270.482 126.404 268.181C124.853 267.025 123.195 266.163 121.575 265.84C119.946 265.516 118.425 265.693 117.168 265.908C114.656 266.398 113.105 266.79 113.085 266.702Z" fill="black"/>
<path d="M108.314 239.111C110.964 239.571 113.654 238.885 116.343 238.758C119.022 238.631 122.075 239.307 123.458 241.608C124.499 243.342 124.303 245.595 123.458 247.426C122.614 249.258 121.191 250.766 119.807 252.235" fill="#FFBE9D"/>
<path d="M127.13 259.699L85.4859 206.466C85.1621 206.055 84.5634 205.976 84.1511 206.299L80.7553 208.944C80.3431 209.267 80.2645 209.865 80.5884 210.276L122.232 263.509C122.556 263.92 123.155 263.998 123.567 263.675L126.963 261.031C127.375 260.707 127.453 260.11 127.13 259.699Z" fill="black"/>
<path d="M84.5144 207.671L81.3541 203.625C81.2069 203.439 80.9419 203.41 80.7554 203.557L79.2342 204.742C79.0477 204.889 79.0182 205.153 79.1556 205.34L82.316 209.385C82.4632 209.571 82.7282 209.6 82.9147 209.453L84.4359 208.268C84.6322 208.131 84.6617 207.857 84.5144 207.671Z" fill="black"/>
<path d="M121.3 262.225L128.141 267.475L128.848 266.927L126.845 259.698L121.3 262.225Z" fill="black"/>
<path d="M94.7805 231.128C94.7413 231.128 94.7118 231.109 94.6824 231.079L81.4915 214.223C79.8819 212.166 79.9996 209.385 81.7467 208.023L82.3846 207.533C82.4337 207.494 82.5122 207.504 82.5613 207.553C82.6005 207.602 82.5907 207.68 82.5416 207.729L81.9135 208.219C80.2744 209.502 80.1763 212.127 81.7074 214.076L94.8983 230.932C94.9376 230.981 94.9278 231.06 94.8787 231.109C94.8296 231.118 94.8002 231.128 94.7805 231.128Z" fill="black"/>
<path d="M102.298 233.822C102.298 233.822 98.0189 230.188 94.7996 230.619C91.5804 231.05 80.8824 242.588 80.4506 249.424C80.0188 256.261 77.2412 260.325 82.1682 263.097C87.0951 265.879 94.7997 270.365 99.9425 268.866C99.9425 268.866 109.001 269.895 110.022 267.475C110.022 267.475 117.972 270.012 118.571 264.596C118.571 264.596 124.273 263.695 123.92 260.218C123.576 256.731 102.298 233.822 102.298 233.822Z" fill="#FFBE9D"/>
<path d="M118.572 264.596C118.474 264.693 113.517 260.08 107.501 254.272C101.484 248.474 96.6851 243.684 96.7832 243.586C96.8814 243.489 101.838 248.102 107.864 253.91C113.871 259.708 118.67 264.488 118.572 264.596Z" fill="#EB996E"/>
<path d="M110.022 267.475C110.002 267.504 109.678 267.377 109.09 267.113C108.501 266.858 107.686 266.427 106.695 265.849C104.712 264.703 102.131 262.862 99.4809 260.599C96.831 258.337 94.5638 256.153 92.9247 254.566C92.1788 253.831 91.5409 253.195 91.0109 252.666C90.5594 252.215 90.3238 251.951 90.3533 251.921C90.3729 251.892 90.6576 252.107 91.1483 252.519C91.639 252.93 92.326 253.537 93.1799 254.301C94.8779 255.82 97.1843 257.955 99.8245 260.207C102.465 262.45 104.977 264.321 106.901 265.536C108.805 266.77 110.061 267.397 110.022 267.475Z" fill="#EB996E"/>
<path d="M100.188 268.504C100.158 268.562 99.2161 268.22 97.7636 267.485C96.311 266.75 94.3775 265.614 92.336 264.204C90.2946 262.794 88.5378 261.393 87.3306 260.316C86.1135 259.238 85.4363 258.494 85.4854 258.445C85.5345 258.386 86.3 259.042 87.5661 260.041C88.8322 261.04 90.6087 262.382 92.6305 263.783C94.6523 265.183 96.5465 266.359 97.9402 267.162C99.3339 267.975 100.227 268.425 100.188 268.504Z" fill="#EB996E"/>
<path d="M303.067 237.024C303.067 237.024 294.371 232.274 282.692 234.546C271.012 236.819 246.544 242.637 238.084 243.616C229.624 244.586 193.879 252.558 193.879 252.558L197.638 273.744L314.246 273.489C316.385 260.717 320.321 244.88 303.067 237.024Z" fill="#FFBE9D"/>
<path d="M189.815 273.743H197.638L210.25 248.993C208.63 248.719 174.956 243.753 172.973 244.292L164.906 272.921C164.906 272.921 189.099 273.734 189.815 273.743Z" fill="#FFBE9D"/>
<path d="M166.789 273.371C166.819 273.42 167.015 273.459 167.349 273.499C170.126 273.802 182.974 273.019 182.974 273.019C183.562 271.363 182.453 266.388 180.854 266.104C179.254 265.81 165.582 266.731 165.582 266.731C165.582 266.731 163.433 267.015 162.893 270.619C162.569 272.862 166.789 273.371 166.789 273.371Z" fill="#FFBE9D"/>
<path d="M162.451 266.094C162.481 266.143 162.677 266.182 163.011 266.221C165.788 266.525 177.929 266.388 178.459 264.919C179.048 263.264 178.115 259.121 176.516 258.827C174.916 258.533 161.244 259.454 161.244 259.454C161.244 259.454 159.095 259.738 158.555 263.342C158.231 265.575 162.451 266.094 162.451 266.094Z" fill="#FFBE9D"/>
<path d="M160.301 258.974C160.33 259.023 160.527 259.062 160.86 259.101C163.638 259.404 175.779 259.267 176.309 257.798C176.898 256.143 175.965 252 174.365 251.706C172.766 251.412 159.094 252.333 159.094 252.333C159.094 252.333 156.944 252.617 156.404 256.221C156.071 258.454 160.301 258.974 160.301 258.974Z" fill="#FFBE9D"/>
<path d="M158.28 251.892C158.31 251.941 158.506 251.98 158.84 252.02C161.617 252.323 173.758 252.186 174.288 250.717C174.877 249.062 173.944 244.919 172.345 244.625C170.745 244.331 157.073 245.252 157.073 245.252C157.073 245.252 154.924 245.536 154.384 249.14C154.05 251.373 158.28 251.892 158.28 251.892Z" fill="#FFBE9D"/>
<path d="M177.301 266.035C177.281 266.241 174.631 266.486 171.392 266.584C168.143 266.672 165.523 266.584 165.543 266.378C165.562 266.173 168.202 265.928 171.451 265.83C174.7 265.732 177.32 265.83 177.301 266.035Z" fill="#EB996E"/>
<path d="M177.369 258.895C177.379 259.101 173.61 259.395 168.968 259.542C164.316 259.688 160.547 259.64 160.537 259.424C160.527 259.218 164.296 258.925 168.938 258.778C173.591 258.631 177.359 258.68 177.369 258.895Z" fill="#EB996E"/>
<path d="M176.79 251.638C176.8 251.853 173.031 252.137 168.388 252.284C163.736 252.431 159.967 252.382 159.958 252.166C159.948 251.951 163.717 251.667 168.359 251.52C173.011 251.373 176.79 251.422 176.79 251.638Z" fill="#EB996E"/>
<path d="M196.283 247.142C196.283 247.142 173.366 236.975 171.933 238.444C170.5 239.913 168.292 244.634 168.292 244.634L196.283 247.142Z" fill="#FFBE9D"/>
<path d="M304.392 56.0829C316.625 49.5256 321.216 34.3132 314.645 22.1049C308.074 9.89666 292.83 5.31562 280.597 11.8729C268.363 18.4301 263.773 33.6426 270.343 45.8509C276.914 58.0591 292.158 62.6401 304.392 56.0829Z" fill="#EBEBEB"/>
<path d="M267.407 32.3359C267.407 32.3359 267.412 32.4758 267.412 32.7416C267.412 33.0167 267.407 33.413 267.407 33.9353C267.407 34.1964 267.403 34.4902 267.398 34.8119C267.412 35.1336 267.454 35.488 267.487 35.8704C267.52 36.2527 267.557 36.663 267.599 37.1014C267.608 37.3205 267.65 37.5443 267.697 37.7775C267.744 38.0059 267.786 38.2438 267.833 38.4909C268.146 40.4539 268.898 42.804 270.169 45.322C271.454 47.8306 273.365 50.4884 276.061 52.8198C276.397 53.1089 276.743 53.398 277.089 53.6964C277.453 53.9716 277.836 54.2233 278.215 54.4938C278.603 54.7502 278.967 55.0533 279.388 55.2771C279.804 55.5103 280.219 55.7481 280.645 55.9859C280.855 56.1025 281.065 56.2284 281.285 56.3403C281.509 56.4382 281.733 56.5361 281.962 56.6387C282.416 56.8392 282.873 57.0397 283.336 57.2449C283.803 57.4361 284.299 57.5666 284.784 57.7345C285.275 57.879 285.756 58.0888 286.275 58.1774C287.298 58.3919 288.326 58.6717 289.41 58.751C289.948 58.8069 290.485 58.8909 291.036 58.9188C291.583 58.9282 292.139 58.9328 292.695 58.9422C292.975 58.9422 293.251 58.9608 293.531 58.9422C293.812 58.9188 294.092 58.8955 294.372 58.8675C294.933 58.8116 295.503 58.7836 296.069 58.7043C297.19 58.4759 298.349 58.3313 299.465 57.949C299.746 57.865 300.031 57.7811 300.316 57.7018C300.456 57.6599 300.601 57.6226 300.741 57.5759L301.152 57.4081C301.704 57.1843 302.26 56.9604 302.816 56.7366C303.362 56.4848 303.89 56.1864 304.432 55.9113C304.699 55.7668 304.979 55.6455 305.236 55.473L306.007 54.9741C307.068 54.3446 308.011 53.5332 308.997 52.7592C309.451 52.3256 309.904 51.8873 310.357 51.4489L310.698 51.1179L311.011 50.7589L311.633 50.0314L312.259 49.304L312.815 48.516L313.371 47.7233L313.651 47.327C313.735 47.1871 313.81 47.0472 313.894 46.9073C314.212 46.3431 314.534 45.7743 314.857 45.2054C315.123 44.6085 315.389 44.007 315.656 43.4055C316.632 40.9575 317.249 38.3323 317.459 35.6279C317.599 32.9234 317.338 30.2376 316.688 27.6824C316.501 27.0482 316.319 26.4188 316.132 25.7939C315.889 25.1878 315.642 24.5816 315.399 23.9801L315.216 23.5278L314.992 23.0988L314.544 22.2408L314.095 21.3875L313.572 20.5809L313.048 19.7789L312.787 19.3825L312.492 19.0095C312.1 18.5152 311.707 18.021 311.315 17.5314C310.441 16.6314 309.609 15.7035 308.638 14.9435L307.937 14.3466C307.708 14.1461 307.441 13.9876 307.198 13.8104C306.698 13.4654 306.213 13.1017 305.703 12.7799C305.18 12.4862 304.657 12.1877 304.143 11.8986L303.755 11.6795C303.619 11.6002 303.484 11.5443 303.348 11.4836C303.077 11.3624 302.806 11.2458 302.54 11.1246C301.484 10.6024 300.358 10.3039 299.274 9.93091C298.723 9.77704 298.162 9.67912 297.61 9.54856C297.335 9.48794 297.059 9.42733 296.788 9.36671C296.512 9.31076 296.232 9.29677 295.956 9.25946C295.405 9.19418 294.854 9.1289 294.307 9.06829C293.76 9.02632 293.214 9.04031 292.676 9.02632C291.592 8.96104 290.536 9.10559 289.494 9.18486C288.971 9.20351 288.466 9.34806 287.962 9.42733C287.457 9.52991 286.953 9.59985 286.462 9.72575C285.976 9.86563 285.499 10.0055 285.023 10.1454C284.784 10.2153 284.546 10.2853 284.313 10.3506C284.084 10.4392 283.859 10.5324 283.63 10.621C283.177 10.8029 282.733 10.9801 282.289 11.1572C281.845 11.3251 281.444 11.5769 281.023 11.7821C280.612 12.0012 280.196 12.2017 279.799 12.4255C279.416 12.6727 279.037 12.9151 278.664 13.1576C275.687 15.116 273.44 17.5034 271.842 19.8255C270.253 22.1569 269.197 24.3858 268.632 26.2929C268.552 26.5307 268.477 26.7591 268.403 26.983C268.323 27.2021 268.258 27.4213 268.216 27.6404C268.118 28.0694 268.029 28.4751 267.945 28.8481C267.865 29.2211 267.772 29.5662 267.721 29.8833C267.683 30.205 267.646 30.4941 267.613 30.7552C267.548 31.2728 267.496 31.6645 267.464 31.9396C267.431 32.2007 267.407 32.3359 267.407 32.3359C267.407 32.3359 267.417 32.2007 267.44 31.9302C267.468 31.6551 267.51 31.2588 267.566 30.7412C267.594 30.4801 267.627 30.1863 267.664 29.8646C267.716 29.5429 267.8 29.2025 267.879 28.8248C267.959 28.4471 268.048 28.0461 268.141 27.6124C268.178 27.3933 268.244 27.1741 268.323 26.9503C268.398 26.7265 268.473 26.4934 268.548 26.2556C269.104 24.3391 270.15 22.0916 271.734 19.7416C273.332 17.4008 275.584 14.9901 278.575 13.0084C278.949 12.7659 279.332 12.5188 279.715 12.267C280.112 12.0385 280.528 11.838 280.944 11.6142C281.364 11.409 281.766 11.1526 282.215 10.9801C282.659 10.8029 283.107 10.621 283.56 10.4345C283.789 10.3459 284.014 10.2527 284.247 10.1594C284.485 10.0895 284.724 10.0195 284.962 9.94957C285.439 9.80968 285.925 9.66513 286.411 9.52525C286.901 9.39469 287.41 9.32474 287.92 9.22216C288.429 9.13823 288.938 8.99368 289.466 8.97503C290.518 8.8911 291.583 8.74655 292.676 8.80717C293.223 8.82116 293.77 8.80717 294.321 8.84913C294.872 8.91441 295.424 8.97503 295.984 9.04031C296.265 9.07761 296.545 9.09626 296.821 9.14756C297.097 9.20817 297.377 9.26879 297.653 9.32941C298.209 9.45997 298.774 9.55789 299.33 9.71176C300.423 10.0848 301.559 10.3832 302.629 10.9101C302.9 11.0313 303.171 11.1479 303.446 11.2692C303.582 11.3298 303.722 11.3857 303.853 11.451L304.245 11.6702C304.769 11.9639 305.292 12.2623 305.825 12.5608C306.339 12.8825 306.829 13.2509 307.334 13.5959C307.582 13.7778 307.848 13.9363 308.082 14.1368L308.787 14.7383C309.768 15.5077 310.605 16.4403 311.488 17.3495C311.88 17.8438 312.277 18.3427 312.679 18.8416L312.978 19.2147L313.245 19.6157L313.773 20.4223L314.301 21.2337L314.754 22.0963L315.207 22.9636L315.436 23.3972L315.623 23.8495C315.871 24.4557 316.114 25.0665 316.361 25.682C316.548 26.3162 316.735 26.9503 316.922 27.5891C317.581 30.1677 317.842 32.8815 317.702 35.6139C317.487 38.3417 316.866 40.9948 315.88 43.4661C315.609 44.0723 315.343 44.6785 315.072 45.2847C314.745 45.8582 314.422 46.4317 314.1 47.0006C314.016 47.1405 313.941 47.285 313.857 47.4249L313.576 47.8259L313.016 48.6233L312.455 49.4159L311.824 50.1527L311.198 50.8847L310.885 51.2484L310.539 51.5795C310.077 52.0225 309.619 52.4655 309.166 52.9038C308.17 53.6871 307.217 54.5031 306.147 55.1373L305.367 55.6409C305.11 55.8087 304.825 55.9346 304.554 56.0792C304.007 56.3543 303.474 56.6574 302.923 56.9091C302.358 57.1376 301.802 57.3614 301.241 57.5853L300.825 57.7531C300.685 57.7998 300.54 57.8371 300.395 57.8837C300.11 57.9676 299.825 58.0516 299.54 58.1355C298.414 58.5178 297.246 58.667 296.115 58.8955C295.545 58.9748 294.971 59.0028 294.4 59.0587C294.115 59.082 293.835 59.1054 293.55 59.1287C293.27 59.1473 292.985 59.124 292.704 59.1287C292.144 59.1193 291.583 59.11 291.032 59.1007C290.48 59.0727 289.934 58.9841 289.396 58.9282C288.308 58.8489 287.266 58.5645 286.238 58.3453C285.714 58.2567 285.233 58.0469 284.738 57.8977C284.247 57.7298 283.752 57.5899 283.28 57.3988C282.813 57.1936 282.355 56.9884 281.897 56.7879C281.668 56.6853 281.444 56.5874 281.215 56.4848C280.995 56.3683 280.785 56.2424 280.57 56.1258C280.145 55.8833 279.724 55.6455 279.308 55.4124C278.888 55.1839 278.519 54.8761 278.131 54.6197C277.748 54.3492 277.365 54.0928 276.995 53.813C276.645 53.5146 276.304 53.2208 275.963 52.9271C273.257 50.5723 271.342 47.8912 270.066 45.3593C268.786 42.846 268.038 40.4819 267.739 38.5095C267.693 38.2624 267.65 38.0246 267.608 37.7915C267.562 37.5583 267.524 37.3345 267.515 37.1153C267.478 36.6724 267.445 36.262 267.412 35.8797C267.389 35.4927 267.347 35.1383 267.337 34.8166C267.347 34.4948 267.351 34.2011 267.356 33.9353C267.37 33.413 267.379 33.0167 267.384 32.7416C267.393 32.4711 267.407 32.3359 267.407 32.3359Z" fill="#263238"/>
<path d="M303.908 34.7513C303.908 34.7699 303.595 34.7932 303.02 34.8119C302.39 34.8259 301.572 34.8399 300.577 34.8632C298.502 34.8911 295.614 34.9098 292.353 34.9145H292.189V34.7513C292.189 34.229 292.189 33.6835 292.189 33.1239C292.189 29.4916 292.208 26.1996 292.236 23.8169C292.26 22.6698 292.274 21.7186 292.288 20.9958C292.306 20.3291 292.33 19.9607 292.353 19.9607C292.376 19.9607 292.395 20.3291 292.418 20.9958C292.432 21.7186 292.451 22.6698 292.47 23.8169C292.498 26.1996 292.517 29.4869 292.517 33.1239C292.517 33.6788 292.517 34.229 292.517 34.7513L292.353 34.5881C295.614 34.5927 298.502 34.6114 300.577 34.6394C301.572 34.658 302.39 34.6767 303.02 34.6906C303.59 34.7093 303.908 34.7279 303.908 34.7513Z" fill="#263238"/>
<path d="M292.429 13.0088C292.517 13.0088 292.592 13.9507 292.592 15.1164C292.592 16.2821 292.517 17.224 292.429 17.224C292.34 17.224 292.265 16.2821 292.265 15.1164C292.265 13.9553 292.34 13.0088 292.429 13.0088Z" fill="#263238"/>
<path d="M303.885 16.3941C303.95 16.4594 303.343 17.1681 302.53 17.9794C301.717 18.7908 301.007 19.3969 300.941 19.3317C300.876 19.2664 301.483 18.5576 302.296 17.7463C303.109 16.9396 303.82 16.3335 303.885 16.3941Z" fill="#263238"/>
<path d="M310.581 23.6958C310.623 23.7798 309.824 24.2554 308.847 24.8476C307.871 25.4397 307.076 25.9247 307.025 25.8501C306.974 25.7801 307.689 25.1693 308.679 24.5678C309.67 23.9709 310.543 23.6166 310.581 23.6958Z" fill="#263238"/>
<path d="M314.506 34.5321C314.506 34.6207 313.216 34.6953 311.628 34.6953C310.039 34.6953 308.749 34.6207 308.749 34.5321C308.749 34.4435 310.039 34.3689 311.628 34.3689C313.216 34.3689 314.506 34.4435 314.506 34.5321Z" fill="#263238"/>
<path d="M274.574 34.1498C274.574 34.2384 273.355 34.313 271.855 34.313C270.35 34.313 269.135 34.2384 269.135 34.1498C269.135 34.0612 270.355 33.9866 271.855 33.9866C273.355 33.9866 274.574 34.0612 274.574 34.1498Z" fill="#263238"/>
<path d="M277.397 42.2165C277.458 42.2818 276.538 43.1165 275.341 44.077C274.145 45.0375 273.136 45.7556 273.08 45.6857C273.029 45.6157 273.944 44.7811 275.136 43.8252C276.327 42.8693 277.341 42.1512 277.397 42.2165Z" fill="#263238"/>
<path d="M284.369 48.4553C284.443 48.5113 283.761 49.5557 282.971 50.8753C282.177 52.1903 281.57 53.286 281.486 53.2441C281.406 53.2068 281.887 52.041 282.691 50.7075C283.49 49.3739 284.298 48.404 284.369 48.4553Z" fill="#263238"/>
<path d="M292.429 56.5037C292.34 56.5037 292.265 55.2167 292.265 53.6313C292.265 52.046 292.34 50.759 292.429 50.759C292.517 50.759 292.592 52.046 292.592 53.6313C292.592 55.2167 292.517 56.5037 292.429 56.5037Z" fill="#263238"/>
<path d="M304.843 52.6707C304.797 52.7407 303.67 52.0972 302.47 51.0481C301.264 50.0036 300.47 48.9778 300.535 48.9218C300.605 48.8612 301.498 49.7751 302.685 50.8009C303.867 51.8361 304.895 52.5961 304.843 52.6707Z" fill="#263238"/>
<path d="M310.67 46.4131C310.605 46.4784 309.754 45.7277 308.764 44.7392C307.773 43.7506 307.021 42.8973 307.086 42.8367C307.152 42.7714 308.002 43.5222 308.993 44.5107C309.983 45.4945 310.731 46.3478 310.67 46.4131Z" fill="#263238"/>
<path d="M277.135 26.4236C277.07 26.4888 276.318 25.836 275.453 24.9734C274.589 24.1108 273.935 23.3554 274 23.2948C274.066 23.2295 274.818 23.8823 275.682 24.7449C276.547 25.6076 277.196 26.3583 277.135 26.4236Z" fill="#263238"/>
<path d="M284.321 18.865C284.256 18.9302 283.518 18.2961 282.667 17.4521C281.817 16.6081 281.182 15.8714 281.242 15.8061C281.308 15.7409 282.046 16.375 282.896 17.219C283.751 18.063 284.387 18.7997 284.321 18.865Z" fill="#263238"/>
<path d="M94.254 83.1267L87.6245 83.1621L87.8012 116.071L94.4307 116.035L94.254 83.1267Z" fill="#E0E0E0"/>
<path d="M47.3752 83.2148L30.2178 83.3064L30.3151 101.471L47.4725 101.379L47.3752 83.2148Z" fill="#EBEBEB"/>
<path d="M64.4504 83.1262L47.293 83.2178L47.3904 101.382L64.5478 101.291L64.4504 83.1262Z" fill="#F5F5F5"/>
<path d="M30.2449 88.3219C41.6468 88.4172 53.0828 88.3491 64.4847 88.1652C64.7168 88.1583 64.7168 87.804 64.4847 87.804C53.0828 87.7427 41.6468 87.7972 30.2449 88.0153C30.0401 88.0153 30.0401 88.3219 30.2449 88.3219Z" fill="#E0E0E0"/>
<path d="M50.6957 101.075L19.5146 101.242L19.5941 116.047L50.7751 115.88L50.6957 101.075Z" fill="#EBEBEB"/>
<path d="M81.7269 100.912L50.5459 101.078L50.6254 115.884L81.8064 115.717L81.7269 100.912Z" fill="#F5F5F5"/>
<path d="M19.5401 105.362C40.2546 105.594 61.0374 105.389 81.7451 105.056C81.9772 105.049 81.9772 104.694 81.7451 104.694C61.0306 104.585 40.2478 104.599 19.5401 105.056C19.3353 105.056 19.3353 105.362 19.5401 105.362Z" fill="#E0E0E0"/>
<path d="M128.669 116.046H7.87793V121.346H128.669V116.046Z" fill="#E0E0E0"/>
<path d="M32.5596 118.601H27.6575V136.697H32.5596V118.601Z" fill="#E0E0E0"/>
<path d="M105.757 118.601H100.855V136.697H105.757V118.601Z" fill="#E0E0E0"/>
<path d="M100.721 70.8625L94.0911 70.8979L94.334 116.152L100.963 116.117L100.721 70.8625Z" fill="#EBEBEB"/>
<path d="M111.067 79.2811L100.771 79.3362L100.968 116.013L111.264 115.957L111.067 79.2811Z" fill="#F5F5F5"/>
<path d="M111 86.3461C111 86.4415 108.692 86.5232 105.852 86.5232C103.005 86.5232 100.704 86.4415 100.704 86.3461C100.704 86.2507 103.012 86.1689 105.852 86.1689C108.692 86.1689 111 86.2507 111 86.3461Z" fill="#E0E0E0"/>
<path d="M111 84.8065C111 84.9019 108.692 84.9837 105.852 84.9837C103.005 84.9837 100.704 84.9019 100.704 84.8065C100.704 84.7112 103.012 84.6294 105.852 84.6294C108.692 84.6294 111 84.7112 111 84.8065Z" fill="#E0E0E0"/>
<path d="M111 110.438C111 110.534 108.692 110.616 105.852 110.616C103.005 110.616 100.704 110.534 100.704 110.438C100.704 110.343 103.012 110.261 105.852 110.261C108.692 110.261 111 110.343 111 110.438Z" fill="#E0E0E0"/>
<path d="M111 108.899C111 108.994 108.692 109.076 105.852 109.076C103.005 109.076 100.704 108.994 100.704 108.899C100.704 108.803 103.012 108.721 105.852 108.721C108.692 108.721 111 108.803 111 108.899Z" fill="#E0E0E0"/>
<path d="M106.015 105.54C105.92 105.54 105.838 101.84 105.838 97.2749C105.838 92.7099 105.92 89.0103 106.015 89.0103C106.111 89.0103 106.193 92.7099 106.193 97.2749C106.193 101.84 106.118 105.54 106.015 105.54Z" fill="#E0E0E0"/>
<path d="M122.32 88.2881H111.109V115.971H122.32V88.2881Z" fill="#EBEBEB"/>
<path d="M99.2089 78.5857C99.2089 79.635 98.3555 80.4867 97.304 80.4867C96.2526 80.4867 95.3992 79.635 95.3992 78.5857C95.3992 77.5365 96.2526 76.6848 97.304 76.6848C98.3555 76.6848 99.2089 77.5365 99.2089 78.5857Z" fill="#E0E0E0"/>
<path d="M97.8916 83.8118H96.7173V110.731H97.8916V83.8118Z" fill="#E0E0E0"/>
<path d="M399.809 81.2969H318.057V154.289H399.809V81.2969Z" fill="#FAFAFA"/>
<path d="M399.816 154.289C399.816 154.289 399.802 153.819 399.795 152.933C399.788 152.04 399.782 150.725 399.775 149.022C399.761 145.595 399.747 140.587 399.727 134.203C399.707 121.448 399.672 103.223 399.631 81.2903L399.816 81.4743C376.268 81.4811 348.173 81.4947 318.071 81.5083H318.057L318.275 81.2903C318.269 107.849 318.255 132.834 318.248 154.282L318.057 154.091C342.445 154.132 362.859 154.166 377.19 154.187C384.358 154.207 390.005 154.228 393.869 154.234C395.794 154.241 397.276 154.255 398.286 154.255C398.778 154.262 399.16 154.262 399.427 154.268C399.679 154.282 399.816 154.289 399.816 154.289C399.816 154.289 399.693 154.296 399.447 154.302C399.188 154.302 398.812 154.309 398.327 154.316C397.324 154.323 395.856 154.33 393.951 154.337C390.093 154.35 384.468 154.364 377.319 154.384C362.961 154.405 342.506 154.439 318.064 154.48H317.873V154.289C317.866 132.84 317.859 107.856 317.845 81.2971V81.0791H318.064H318.071C348.173 81.0927 376.275 81.0995 399.816 81.1132H400V81.2971C399.959 103.277 399.925 121.544 399.905 134.326C399.884 140.689 399.87 145.684 399.857 149.104C399.85 150.794 399.843 152.095 399.836 152.981C399.829 153.846 399.816 154.289 399.816 154.289Z" fill="#E0E0E0"/>
<path d="M349.41 94.2627C349.41 94.3853 345.108 94.4807 339.797 94.4807C334.485 94.4807 330.184 94.3853 330.184 94.2627C330.184 94.1401 334.485 94.0447 339.797 94.0447C345.108 94.0447 349.41 94.1469 349.41 94.2627Z" fill="#E0E0E0"/>
<path d="M384.052 99.7476C384.052 99.8702 372.227 99.9656 357.65 99.9656C343.067 99.9656 331.248 99.8702 331.248 99.7476C331.248 99.6249 343.067 99.5295 357.65 99.5295C372.227 99.5295 384.052 99.6249 384.052 99.7476Z" fill="#E0E0E0"/>
<path d="M333.774 109.028H330.326V112.462H333.774V109.028Z" fill="#E0E0E0"/>
<path d="M342.247 109.028H338.806V112.462H342.247V109.028Z" fill="#E0E0E0"/>
<path d="M350.883 108.871H347.442V112.305H350.883V108.871Z" fill="#E0E0E0"/>
<path d="M359.207 109.028H355.766V112.462H359.207V109.028Z" fill="#E0E0E0"/>
<path d="M367.679 109.028H364.238V112.462H367.679V109.028Z" fill="#E0E0E0"/>
<path d="M376.159 109.028H372.718V112.462H376.159V109.028Z" fill="#E0E0E0"/>
<path d="M384.639 109.028H381.198V112.462H384.639V109.028Z" fill="#EBEBEB"/>
<path d="M333.774 116.338H330.326V119.772H333.774V116.338Z" fill="#EBEBEB"/>
<path d="M342.247 116.338H338.806V119.772H342.247V116.338Z" fill="#E0E0E0"/>
<path d="M350.734 116.338H347.286V119.772H350.734V116.338Z" fill="#EBEBEB"/>
<path d="M359.207 116.338H355.766V119.772H359.207V116.338Z" fill="#E0E0E0"/>
<path d="M367.679 116.338H364.238V119.772H367.679V116.338Z" fill="#E0E0E0"/>
<path d="M376.316 116.182H372.875V119.622H376.316V116.182Z" fill="#E0E0E0"/>
<path d="M384.639 116.338H381.198V119.772H384.639V116.338Z" fill="#E0E0E0"/>
<path d="M333.774 123.642H330.326V127.076H333.774V123.642Z" fill="#E0E0E0"/>
<path d="M342.404 123.485H338.963V126.919H342.404V123.485Z" fill="#E0E0E0"/>
<path d="M350.734 123.642H347.286V127.076H350.734V123.642Z" fill="#E0E0E0"/>
<path d="M359.207 123.642H355.766V127.076H359.207V123.642Z" fill="#EBEBEB"/>
<path d="M367.679 123.642H364.238V127.076H367.679V123.642Z" fill="#E0E0E0"/>
<path d="M376.159 123.642H372.718V127.076H376.159V123.642Z" fill="#E0E0E0"/>
<path d="M384.639 123.642H381.198V127.076H384.639V123.642Z" fill="#E0E0E0"/>
<path d="M333.774 130.953H330.326V134.394H333.774V130.953Z" fill="#E0E0E0"/>
<path d="M342.247 130.953H338.806V134.394H342.247V130.953Z" fill="#E0E0E0"/>
<path d="M350.734 130.953H347.286V134.394H350.734V130.953Z" fill="#E0E0E0"/>
<path d="M359.357 130.796H355.916V134.23H359.357V130.796Z" fill="#E0E0E0"/>
<path d="M367.679 130.953H364.238V134.394H367.679V130.953Z" fill="#E0E0E0"/>
<path d="M376.159 130.953H372.718V134.394H376.159V130.953Z" fill="#EBEBEB"/>
<path d="M384.639 130.953H381.198V134.394H384.639V130.953Z" fill="#E0E0E0"/>
<path d="M333.774 138.257H330.326V141.691H333.774V138.257Z" fill="#E0E0E0"/>
<path d="M342.247 138.257H338.806V141.691H342.247V138.257Z" fill="#EBEBEB"/>
<path d="M350.734 138.257H347.286V141.691H350.734V138.257Z" fill="#E0E0E0"/>
<path d="M359.207 138.257H355.766V141.691H359.207V138.257Z" fill="#E0E0E0"/>
<path d="M367.679 138.257H364.238V141.691H367.679V138.257Z" fill="#E0E0E0"/>
<path d="M376.316 138.1H372.875V141.534H376.316V138.1Z" fill="#E0E0E0"/>
<path d="M384.639 138.257H381.198V141.691H384.639V138.257Z" fill="#E0E0E0"/>
</svg>
