<svg width="600" height="600" xmlns="http://www.w3.org/2000/svg"><g fill-rule="nonzero" fill="none"><path d="M429.3783 547.491h-214.029c-.3203 0-.5652-.245-.5652-.5653 0-.3203.2449-.5653.5652-.5653h214.029c.3203 0 .5652.245.5652.5653 0 .3204-.245.5653-.5652.5653z" fill="#FFCF2D"/><path d="M388.5507 524.3885c-.0942 0-.2072-.0188-.3014-.0754l-30.9174-19.07c-10.8522-6.6895-19.8957-16.1302-26.113-27.267-6.2175-11.1367-9.5146-23.7809-9.5146-36.5381v-83.855c0-.3204.245-.5654.5653-.5654.3203 0 .5652.245.5652.5653v83.855c0 12.5689 3.2406 25.0247 9.3637 35.9918 6.1232 10.967 15.016 20.2571 25.7174 26.8524l30.9174 19.07c.2638.1696.3392.5088.1884.7726-.0942.1696-.2826.2638-.471.2638zM239.2768 524.3885a.5921.5921 0 01-.4898-.2638c-.1696-.2638-.0754-.6219.1884-.7726l30.9174-19.07c10.7014-6.5953 19.5942-15.8853 25.7173-26.8524 6.1232-10.9671 9.3638-23.4229 9.3638-35.9917v-83.855c0-.3204.245-.5654.5652-.5654.3203 0 .5652.245.5652.5653v83.855c0 12.7573-3.2782 25.4015-9.5144 36.5383-6.2174 11.1367-15.242 20.5774-26.113 27.267l-30.9175 19.07c-.0753.0565-.1884.0753-.2826.0753z" fill="#377FFF"/><path d="M294.2913 357.564h37.7c3.3348 0 6.029-2.6946 6.029-6.03v-9.516h-49.758v9.516c0 3.3354 2.6942 6.03 6.029 6.03z" fill="#FFF"/><path d="M331.9913 358.1294h-37.7c-3.6362 0-6.5942-2.9585-6.5942-6.5954v-10.0814h50.8884v10.0814c0 3.637-2.958 6.5954-6.5942 6.5954zm-43.1638-15.5462v8.9508c0 3.015 2.4493 5.4648 5.4638 5.4648h37.7c3.0145 0 5.4638-2.4497 5.4638-5.4648v-8.9508h-48.6276z" fill="#377FFF"/><path d="M389.945 546.9257c-7.6493 0-13.8479-6.1996-13.8479-13.8502 0-7.6506 6.1986-13.8502 13.8478-13.8502 7.6493 0 13.8479 6.1996 13.8479 13.8502 0 7.6506-6.1986 13.8502-13.8479 13.8502" fill="#FFF"/><path d="M389.945 547.491c-7.9508 0-14.4131-6.4634-14.4131-14.4155 0-7.952 6.4623-14.4155 14.413-14.4155 7.9508 0 14.413 6.4634 14.413 14.4155s-6.4622 14.4155-14.413 14.4155zm0-27.7004c-7.329 0-13.2827 5.9547-13.2827 13.285 0 7.3302 5.9536 13.2848 13.2826 13.2848 7.329 0 13.2826-5.9546 13.2826-13.2849 0-7.3302-5.9536-13.2849-13.2826-13.2849z" fill="#FFCF2D"/><path d="M238.9754 546.9257c-7.6493 0-13.8479-6.1996-13.8479-13.8502 0-7.6506 6.1986-13.8502 13.8479-13.8502 7.6492 0 13.8478 6.1996 13.8478 13.8502 0 7.6506-6.1986 13.8502-13.8478 13.8502" fill="#FFF"/><path d="M238.9754 547.491c-7.9508 0-14.413-6.4634-14.413-14.4155 0-7.952 6.4622-14.4155 14.413-14.4155 7.9507 0 14.413 6.4634 14.413 14.4155s-6.4623 14.4155-14.413 14.4155zm0-27.7004c-7.329 0-13.2826 5.9547-13.2826 13.285 0 7.3302 5.9536 13.2848 13.2826 13.2848 7.329 0 13.2826-5.9546 13.2826-13.2849 0-7.3302-5.9537-13.2849-13.2826-13.2849z" fill="#FFCF2D"/><g><path d="M238.9754 544.005c-6.029 0-10.9276-4.8995-10.9276-10.9295 0-6.03 4.8986-10.9294 10.9276-10.9294s10.9275 4.8994 10.9275 10.9294c0 6.03-4.8986 10.9294-10.9275 10.9294" fill="#FFF"/><path d="M238.9754 544.5703c-6.3305 0-11.4928-5.1633-11.4928-11.4948s5.1623-11.4947 11.4928-11.4947c6.3304 0 11.4927 5.1632 11.4927 11.4947s-5.1623 11.4948-11.4927 11.4948zm0-21.8589c-5.7087 0-10.3624 4.6544-10.3624 10.3641 0 5.7097 4.6537 10.3641 10.3624 10.3641 5.7087 0 10.3623-4.6544 10.3623-10.364 0-5.7098-4.6536-10.3642-10.3623-10.3642z" fill="#FFCF2D"/></g><g><path d="M389.8884 544.005c-6.029 0-10.9275-4.8995-10.9275-10.9295 0-6.03 4.8985-10.9294 10.9275-10.9294s10.9275 4.8994 10.9275 10.9294c0 6.03-4.8985 10.9294-10.9275 10.9294" fill="#FFF"/><path d="M389.8884 544.5703c-6.3304 0-11.4927-5.1633-11.4927-11.4948s5.1623-11.4947 11.4927-11.4947c6.3304 0 11.4928 5.1632 11.4928 11.4947s-5.1624 11.4948-11.4928 11.4948zm0-21.8589c-5.7087 0-10.3623 4.6544-10.3623 10.3641 0 5.7097 4.6536 10.3641 10.3623 10.3641 5.7087 0 10.3623-4.6544 10.3623-10.364 0-5.7098-4.6536-10.3642-10.3623-10.3642z" fill="#FFCF2D"/></g><path d="M334.3087 482.4987c-.0942 0-.1884-.0189-.2826-.0754-11.6058-6.6896-21.8928-6.3504-28.4681-4.8806-7.1594 1.6018-11.6247 4.824-11.6623 4.843-.245.1883-.603.1318-.7914-.1132s-.1318-.603.113-.7914c.1885-.1319 4.6726-3.373 12.0392-5.0313 6.7826-1.5263 17.3899-1.8844 29.3348 4.9936.2638.1508.358.5088.2073.7726-.113.1885-.3015.2827-.49.2827z" fill="#377FFF"/><g><path d="M321.855 334.4992l-17.3333 177.377h53.413l43.9175-159.6072c8.0826-26.0422-9.3073-52.5366-36.3812-52.5933h-3.7681c-20.0464-.0564-37.0406 14.8114-39.8478 34.8235z" fill="#31A1A9"/><path d="M314.9594 511.8762h28.1478l-4.4275 14.491c-5.558-5.5402-13.3014-9.535-21.7609-10.0439-.7913-.0565-1.5637-.0753-2.3362-.0753l.3768-4.3718z" fill="#E57281"/><path d="M347.2522 546.8127c1.4695-13.643-12.9247-29.4341-30.3522-30.5082-17.4275-1.074-28.1855 10.4395-29.0333 24.1201-.132 2.0728-.3203 4.5979.1319 6.4446l59.2536-.0565z" fill="#FFF"/><path d="M287.5464 547.4345l-.113-.4334c-.4522-1.8467-.3015-4.2399-.1696-6.3315l.0188-.2827c.4333-7.0853 3.4478-13.4733 8.4783-17.977 5.4449-4.8805 12.755-7.1795 21.1391-6.6707 9.0435.5653 18.1058 5.2197 24.2101 12.4558 4.8986 5.8039 7.329 12.6065 6.6696 18.6742l-.0565.5088-60.1768.0565zm27.1116-30.64c-7.1406 0-13.3768 2.2047-18.1058 6.4445-4.8044 4.3153-7.687 10.4207-8.1203 17.2045l-.0189.2826c-.113 1.8467-.2449 3.9384.0377 5.559l58.274-.0566c.4333-5.6343-1.903-11.9281-6.4624-17.3175-5.916-7.0099-14.6768-11.5136-23.4188-12.06a42.2953 42.2953 0 00-2.1855-.0566z" fill="#FF6576"/><path fill="#FF6576" d="M288.3544 542.446l.0133-1.1306 58.871.697-.0134 1.1306z"/></g><g><path d="M337.0406 511.8762l44.558-27.1351-99.629-166.9375c-12.6044-19.9933-44.5957-26.174-64.774-13.888-23.268 14.1706-27.8275 46.0356-9.4768 66.1608l129.3218 141.7998z" fill="#3FB1B5"/><path d="M337.116 511.8385L207.4927 370.4533c-8.8551-9.7235-12.8682-22.7634-11.003-35.7656 1.8653-13.0211 9.3827-24.4028 20.6116-31.2431 9.8348-5.9923 22.816-7.8956 35.6276-5.2386 12.9623 2.6947 23.871 9.7234 29.9188 19.296l100.1189 167.0506-45.6508 27.286zm-95.729-213.689c-8.6856 0-16.9566 2.1293-23.7015 6.2373-10.9464 6.6707-18.2565 17.7697-20.084 30.4516-1.8087 12.682 2.0913 25.3827 10.7202 34.8423l129.0015 140.7068 43.8609-26.2306-99.5348-166.0707c-5.8594-9.3088-16.5044-16.1491-29.184-18.7873-3.6928-.7537-7.4233-1.1494-11.0783-1.1494z" fill="#FFF"/><path d="M380.9014 483.554c-1.9782-3.2789-13.5652.0565-25.887 7.481-12.3216 7.4056-20.668 16.3375-18.6898 19.6164 1.9783 3.2788 13.5276-.3204 25.8493-7.726 12.303-7.4056 20.687-16.0738 18.7275-19.3715z" fill="#328E8E"/><path d="M378.1884 504.772l-20.8 13.0777-5.8783-6.5953-1.7898-2.0163-7.4609-8.3667c3.203-3.2788 7.5928-6.746 12.774-9.8365 4.1825-2.5062 8.3086-4.5036 12.039-5.8604l5.8218 10.2322 1.2812 2.2424 4.013 7.123z" fill="#E57281"/><path d="M411.0087 518.9615l-51.8116 27.9454c-1.3-1.3945-2.4116-3.0339-3.2971-4.8994-.7536-1.564-1.3377-3.2035-1.7899-4.8617-3.0521-11.457 1.2624-24.5912 15.0348-31.1489 12.1522-5.785 27.2812-2.4685 36.0232 5.1444 2.5812 2.2801 4.616 4.937 5.8406 7.8202z" fill="#FFF"/><path d="M359.084 547.6041l-.3014-.3203c-1.3565-1.451-2.487-3.147-3.3913-5.0502-.716-1.5075-1.3377-3.1657-1.8275-4.956-1.6015-5.9923-1.1493-12.305 1.2434-17.7885 2.6377-6.03 7.5174-10.8917 14.0928-14.0198 5.8594-2.7889 12.642-3.6557 19.6319-2.5062 6.4811 1.074 12.529 3.8253 17.013 7.726 2.6942 2.3931 4.7667 5.1632 5.9913 8.0274l.2073.4711-52.6594 28.4165zm23.4754-43.9815c-4.6724 0-9.1565.9799-13.1695 2.8831-6.3305 3.015-11.0218 7.6695-13.5464 13.4545-2.2986 5.2386-2.713 11.2875-1.187 17.0348.471 1.7148 1.055 3.3165 1.7522 4.7675.7913 1.6583 1.771 3.147 2.9014 4.4283l50.9638-27.4931c-1.1681-2.544-3.0522-5.0125-5.4826-7.1418-4.3333-3.7688-10.174-6.4258-16.4478-7.4622-1.9406-.3203-3.8812-.471-5.784-.471z" fill="#FF6576"/><path d="M356.4087 543.2323c-.2073 0-.3957-.113-.4899-.3015-.1507-.2826-.0376-.6218.2261-.7726l51.8305-27.9454c.2826-.1507.6217-.0376.7724.2262.1508.2826.0377.6218-.226.7726l-51.8305 27.9454c-.0942.0565-.1884.0753-.2826.0753z" fill="#FF6576"/><path d="M372.8565 495.3879c-2.9768 2.4873-6.6319 5.0878-10.7203 7.5375-4.371 2.6381-8.6666 4.7863-12.4536 6.3127l-7.8377-8.3667c3.203-3.2788 7.9696-6.746 13.1508-9.8365 4.1826-2.5062 8.3086-4.692 12.039-6.0488l5.8218 10.4018z" fill="#C96374"/><path d="M333.7435 508.1074c-.4145-.6783-.4899-1.5263-.245-2.5439 1.1116-4.5037 8.8928-11.8527 18.9348-17.8828 5.9348-3.5803 12.3595-6.4446 17.616-7.8767 3.1652-.8668 8.6855-1.941 10.1927.5465l-.9608.5841c-.7913-1.319-4.2015-1.319-8.9116-.0377-5.1435 1.4133-11.474 4.24-17.3145 7.7637-8.271 4.9748-17.258 12.4746-18.4261 17.1856-.1696.6972-.1319 1.2625.113 1.677l-.9985.5842z" fill="#FFF"/></g><g><path d="M552.5524 342.3072c4.9218 0 8.9196-3.9966 8.9196-8.917v-34.1219c0-4.9203-3.9978-8.917-8.9196-8.917H56.523c-4.9219 0-8.9197 3.9967-8.9197 8.917v34.122c0 4.9203 3.9978 8.9169 8.9197 8.9169h496.0293z" fill="#000838"/><path d="M552.4015 282.6221H56.6551c-4.9219 0-8.9197 3.9966-8.9197 8.917v34.1218c0 4.9204 3.9978 8.917 8.9197 8.917h495.7464c4.9218 0 8.9196-3.9966 8.9196-8.917v-34.1218c0-4.9204-3.9978-8.917-8.9196-8.917z" fill="#FFF"/><path d="M552.4015 335.1434H56.6551c-5.2236 0-9.4854-4.2605-9.4854-9.4825v-34.1218c0-5.222 4.2618-9.4825 9.4854-9.4825h495.7464c5.2235 0 9.4854 4.2605 9.4854 9.4825v34.1218c0 5.222-4.2619 9.4825-9.4854 9.4825zM56.6551 283.1877c-4.6013 0-8.354 3.7515-8.354 8.3514v34.1218c0 4.6 3.7527 8.3514 8.354 8.3514h495.7464c4.6012 0 8.3539-3.7515 8.3539-8.3514v-34.1218c0-4.6-3.7527-8.3514-8.3539-8.3514H56.6551z" fill="#FFCF2D"/><path d="M526.5855 547.9434c-.3206 0-.5657-.245-.5657-.5655V334.6156c0-.3205.2451-.5656.5657-.5656s.5657.2451.5657.5656v212.7623c0 .3205-.2451.5655-.5657.5655zM93.8233 547.9434c-.3206 0-.5657-.245-.5657-.5655V334.6156c0-.3205.2451-.5656.5657-.5656s.5658.2451.5658.5656v212.7623c0 .3205-.2452.5655-.5658.5655z" fill="#FFCF2D"/></g><g><path d="M77.9831 493.7033l-.7922.5122-28.7833-44.6016-8.6576.664c-1.8485.1517-3.3197-1.5367-2.9424-3.377.396-1.8212 2.4143-2.7697 4.0553-1.8591l7.111 3.927-5.2248-8.1197-8.6577.683c-1.8484.1517-3.3197-1.5557-2.9236-3.377.3961-1.8212 2.4144-2.7697 4.0554-1.8591l7.1109 3.908-5.2248-8.1197-8.6576.683c-1.8484.1518-3.3197-1.5556-2.9236-3.3769.3961-1.8212 2.4144-2.7698 4.0553-1.8592l7.111 3.927-3.15-4.8755-5.8471-5.0274c-1.4147-1.2142-1.2638-3.4528.2829-4.4773 1.5655-1.0244 3.6592-.2466 4.1873 1.5557l2.1691 7.4178 3.2443 5.0274-.679-8.3474c-.151-1.8592 1.5278-3.339 3.3385-2.9596 1.8108.3795 2.7539 2.4284 1.8674 4.06l-4.1874 7.7782 5.3002 8.2146-.679-8.3285c-.151-1.8592 1.5278-3.339 3.3385-2.9595 1.8108.3794 2.7539 2.4283 1.8674 4.0599l-4.1874 7.7782 5.3002 8.2146-.679-8.3284c-.1509-1.8592 1.5278-3.358 3.3386-2.9595 1.8107.3794 2.7538 2.4283 1.8673 4.0598l-4.1874 7.7783 28.7833 44.5637z" fill="#000838"/><path d="M126.345 477.938c-13.8257 28.0208-32.499 47.5043-43.5332 46.1574-.9054-.1139-1.7542-.3605-2.5464-.7589-10.4872-5.236-6.8657-34.0535 8.1106-64.3698 6.413-12.9953 13.8635-24.1315 21.1065-32.2323 9.6762-10.7947 18.9751-16.1636 24.9732-13.166 10.4872 5.236 6.8469 34.0535-8.1106 64.3697z" fill="#000838"/><path d="M109.0298 455.7985c-3.0745 35.5144-14.3728 64.1611-26.1992 68.2969-.9053-.1139-1.7541-.3605-2.5463-.7589-10.4873-5.236-6.8658-34.0535 8.1106-64.3698 6.413-12.9953 13.8635-24.1315 21.1065-32.2323.5281 8.9355.415 18.7817-.4716 29.0641z" fill="#FFCF2D"/><path fill="#FFCF2D" d="M82.2996 523.8432l51.6132-110.5295 1.0243.484L83.3239 524.327zM133.4749 495.5245l-7.2996 2.4663-4.8664 3.4338 8.2615-.9865c1.8485-.2277 3.3763 1.4039 3.0745 3.2441-.3206 1.8402-2.3011 2.8647-3.9798 2.03l-7.8843-3.9271-7.9786 5.6345 8.2615-.9866c1.8485-.2276 3.3763 1.404 3.0745 3.2441-.3206 1.8403-2.3011 2.8647-3.9798 2.03l-7.8843-3.927-7.9598 5.6344 8.2616-.9865c1.8484-.2277 3.3762 1.4039 3.0556 3.244-.3207 1.8403-2.3012 2.8648-3.9799 2.03l-7.8842-3.927-14.5803 10.3014h-1.641l15.712-11.0982-.9808-8.67c-.2075-1.8591 1.4146-3.3958 3.2442-3.0733 1.8296.3225 2.8293 2.3335 1.9994 4.003l-3.6404 7.304 7.8654-5.5587-.9808-8.6699c-.2075-1.8592 1.4147-3.3959 3.2443-3.0733 1.8296.3225 2.8293 2.3334 1.9993 4.003l-3.6215 7.2849 7.8655-5.5586-.9809-8.6699c-.2074-1.8592 1.4147-3.3959 3.2443-3.0734 1.8296.3226 2.8293 2.3335 1.9994 4.003l-3.6404 7.304 4.7343-3.339 4.7721-6.0708c1.1506-1.4608 3.3952-1.404 4.4514.1328 1.1129 1.5367.415 3.6804-1.358 4.2685z"/><path d="M74.305 522.6156c-.943.3225-1.9427.5502-2.9613.683-11.883 1.5556-28.2928-9.5995-38.2142-26.541-10.7702-18.4021-9.7893-36.6526 2.188-40.7883 3.8855-1.347 8.469-1.0245 13.2222.645 9.9213 3.4718 20.6726 12.7677 27.9533 25.194 10.7513 18.4211 9.7705 36.6716-2.188 40.8073z" fill="#FFF"/><path d="M69.0803 524.0195c-5.4322 0-11.6944-2.2766-17.9-6.583-7.1486-4.9326-13.7314-12.1607-18.5412-20.3943-3.4706-5.938-5.866-12.1227-6.9223-17.89-1.0375-5.6344-.7922-10.7757.7167-14.8735 1.6033-4.3824 4.6212-7.4367 8.6953-8.8596 3.8667-1.347 8.5634-1.1193 13.5995.645 10.3552 3.6236 21.182 13.3748 28.2551 25.4406 3.4706 5.938 5.866 12.1417 6.9224 17.909 1.0374 5.6534.7733 10.7946-.7168 14.8735-1.6033 4.3824-4.6212 7.4368-8.6765 8.8406-.962.3225-1.9993.5692-3.0745.702-.7733.1328-1.5466.1897-2.3577.1897zm-28.538-68.3158c-1.8108 0-3.5084.2656-5.055.7968-3.7536 1.29-6.5263 4.1168-8.0164 8.1766-1.4335 3.9081-1.6598 8.8407-.6602 14.2665 1.0374 5.6345 3.3763 11.7053 6.7903 17.5105 9.6762 16.524 25.8597 27.812 37.6484 26.2564.9997-.1328 1.9617-.3605 2.8482-.664 3.7346-1.29 6.5073-4.1168 7.9974-8.1577 1.4335-3.9081 1.6599-8.8407.679-14.2854-1.0374-5.6535-3.3762-11.7054-6.7714-17.5485-6.9412-11.8381-17.5416-21.3997-27.6516-24.9473-2.735-.9107-5.3756-1.404-7.8088-1.404z" fill="#FFCF2D"/><path d="M74.305 522.6156c-.943.3225-1.9427.5502-2.9613.683-10.9776-5.0085-20.5217-26.2184-22.54-51.9815-.396-5.0843-.4715-10.0169-.264-14.7028 9.9213 3.4718 20.6726 12.7677 27.9533 25.194 10.7513 18.4211 9.7705 36.6716-2.188 40.8073z" fill="#FFCF2D"/><path fill="#FFCF2D" d="M30.317 458.9555l.9572-.6074 40.5608 64.6652-.9572.6074z"/><g><g transform="translate(54.8018 382)"><ellipse fill="#FFF" cx="24.3319" cy="71.7307" rx="23.766" ry="71.1236"/><path d="M24.3319 143.4234c-6.6017 0-12.7695-7.5317-17.3341-21.21C2.4898 108.7248 0 90.7969 0 71.7307c0-19.0662 2.4898-36.9752 6.9978-50.4638C11.5624 7.5885 17.7302.0569 24.3318.0569c6.6017 0 12.7696 7.5316 17.3342 21.21 4.508 13.4886 6.9977 31.4165 6.9977 50.4638 0 19.0662-2.4897 36.9751-6.9977 50.4827-4.5646 13.6783-10.7325 21.21-17.3341 21.21zm0-142.2472c-3.018 0-5.9981 1.8023-8.8085 5.369-2.7916 3.5286-5.3002 8.594-7.4694 15.0632-4.4702 13.3748-6.9223 31.1699-6.9223 50.1033s2.471 36.7285 6.9223 50.1033c2.1692 6.4692 4.6778 11.5346 7.4694 15.0632 2.8104 3.5667 5.7717 5.369 8.8085 5.369 3.0367 0 5.998-1.8023 8.8085-5.369 2.7915-3.5286 5.3002-8.594 7.4693-15.0632 4.4703-13.3748 6.9223-31.17 6.9223-50.1033 0-18.9334-2.4709-36.7285-6.9223-50.1033-2.1691-6.4693-4.6778-11.5346-7.4693-15.0633-2.8104-3.5666-5.7906-5.3689-8.8085-5.3689z" fill="#FFCF2D"/></g><path fill="#FFCF2D" d="M78.5678 382.5881h1.1317v142.2661h-1.1317z"/><path d="M79.0394 421.1379l-13.26-26.3892c-.132-.2845-.0377-.626.2453-.7588.2829-.1328.6224-.038.7544.2466l12.43 24.7576 14.5992-19.6733c.1886-.2466.547-.3035.7922-.1138.2452.1897.3018.5502.1131.7968l-15.6742 21.134z" fill="#FFCF2D"/><path d="M78.9073 445.9903L60.3095 409.793c-.1509-.2846-.0377-.626.2452-.7588.283-.1518.6224-.038.7545.2466l17.768 34.5658L98.75 416.6227c.1886-.2466.547-.3035.7922-.1328.2452.1897.3018.5502.132.7968l-20.767 28.7036z" fill="#FFCF2D"/><path d="M78.7187 470.653l-21.9552-42.5526c-.151-.2846-.0378-.626.2452-.7589.2829-.1518.6224-.038.7544.2466l21.1065 40.9212 23.0116-31.9287c.1886-.2467.528-.3036.7922-.1328.2452.1897.3017.5312.132.7968L78.7187 470.653z" fill="#FFCF2D"/><path d="M78.8319 499.6792l-23.917-45.626c-.1508-.2846-.0376-.626.2453-.7779.283-.1517.6224-.0379.7733.2467l23.0493 43.9945 24.3885-34.3002c.1886-.2466.528-.3225.7922-.1328.2452.1897.3206.5312.132.7968l-25.4636 35.799z" fill="#FFCF2D"/></g><g><path d="M114.3677 546.9938H43.8431c-5.4323 0-9.846-4.4393-9.846-9.903v-3.0924c0-5.4637 4.4137-9.903 9.846-9.903h70.5246c5.4323 0 9.846 4.4393 9.846 9.903v3.0923c0 5.4828-4.4137 9.903-9.846 9.903z" fill="#FFF"/><path d="M114.3677 547.563H43.8431c-5.734 0-10.4118-4.705-10.4118-10.4723v-3.0923c0-5.7673 4.6777-10.4722 10.4118-10.4722h70.5246c5.734 0 10.4118 4.705 10.4118 10.4722v3.0923c0 5.7673-4.6777 10.4722-10.4118 10.4722zm-70.5246-22.8985c-5.1116 0-9.2801 4.1927-9.2801 9.334v3.0922c0 5.1413 4.1685 9.334 9.28 9.334h70.5247c5.1116 0 9.2801-4.1927 9.2801-9.334v-3.0923c0-5.1412-4.1685-9.3339-9.28-9.3339H43.843z" fill="#377FFF"/></g></g><g><path d="M528.8074 301.2861c0 2.7917-2.2408 5.0588-4.99 5.0588h-76.6956c-2.768 0-4.99-2.267-4.99-5.0588 0-2.7917 2.2408-5.0588 4.99-5.0588h76.6956c2.7492 0 4.99 2.2671 4.99 5.0588z" fill="#FF6576"/><path d="M496.4382 248.5996h-31.39v21.7341h60.6334c-3.8414-12.8906-15.742-21.7341-29.2434-21.7341z" fill="#FFF"/><path d="M526.4348 270.8958h-61.9515v-22.8583h31.955c6.7412 0 13.1811 2.1172 18.5854 6.1455 5.4043 4.0283 9.2833 9.5555 11.204 16.0008l.2071.712zm-60.8217-1.1242h59.2965c-1.9207-5.902-5.555-10.9607-10.5638-14.6893-5.216-3.8784-11.4111-5.9206-17.9076-5.9206h-30.825v20.61z" fill="#FFCF2D"/><g fill="#FFCF2D"><path d="M470.6973 248.5996v21.7341l-12.9929.0187v-21.7528z"/><path d="M457.1395 270.9145v-22.877h14.1227v22.8583l-14.1227.0187zm1.1298-21.7528v20.6286l11.863-.0187v-20.61h-11.863z"/></g><path d="M524.5518 270.9145l.6779-.8993c.1318-.1686 3.1635-4.2157 10.3566-7.7381 4.67-2.3046 11.7877-4.6841 21.6736-5.0776-9.9424-.8618-24.1968-1.1429-38.4513 1.7613l-.226-1.1055c26.0234-5.3211 52.0091-.0562 52.2727 0l-.1883 1.1055c-16.8719-2.1922-28.0947 1.1054-34.5158 4.2718-4.9523 2.4358-7.9087 5.1525-9.2268 6.539l46.8308-.4122.0188 1.1242-49.2222.431z" fill="#FFCF2D"/><path d="M525.9452 270.8208l-.546-.993c.0564-.0375 5.423-2.9416 13.8778-5.115 7.7958-2.0048 19.9036-3.7847 33.273-.8806l-.2447 1.1054c-13.1435-2.8479-25.0442-1.1054-32.7082.862-8.323 2.1359-13.5954 5.0025-13.6519 5.0212z" fill="#FFCF2D"/><g><path d="M531.0482 288.1145c0 2.0422.3201 3.8971.8285 5.2649h-23.067c-1.1863 0-2.1655-1.0305-2.1655-2.2858v-5.9395c0-1.274.9604-2.2858 2.1655-2.2858h23.067c-.5084 1.349-.8285 3.204-.8285 5.2462z" fill="#FFCF2D"/><path d="M506.663 285.1541v5.9395c0 1.274 1.0357 2.2858 2.2973 2.2858h24.7806v.431c0 1.0492-.8473 1.8923-1.9018 1.8923h-86.6756c-1.0545 0-1.9019-.8431-1.9019-1.8924v-11.3917c0-1.0492.8474-1.8923 1.9019-1.8923h86.6756c1.0545 0 1.9018.8431 1.9018 1.8923v.431h-24.7806c-1.2616.0187-2.2972 1.0305-2.2972 2.3045z" fill="#FFF"/><path d="M531.839 296.2648h-86.6755c-1.3558 0-2.4668-1.1055-2.4668-2.4545v-11.3917c0-1.349 1.111-2.4544 2.4668-2.4544h86.6756c1.3558 0 2.4667 1.1054 2.4667 2.4544v.993h-25.3455c-.9603.0188-1.7323.787-1.7323 1.7425v5.9395c0 .9555.772 1.7237 1.7323 1.7237h25.3455v.993c0 1.349-1.111 2.4545-2.4667 2.4545zm-86.6755-15.1764c-.7344 0-1.337.5995-1.337 1.3302v11.3917c0 .7307.6026 1.3303 1.337 1.3303h86.6756c.6967 0 1.2616-.5246 1.337-1.1991h-24.2158c-1.5817 0-2.8622-1.2741-2.8622-2.848v-5.9394c0-1.555 1.2805-2.8479 2.8622-2.8666h24.2157c-.0753-.6745-.6402-1.1991-1.337-1.1991h-86.6755z" fill="#FFCF2D"/></g><g><path d="M474.3692 310.4107c-.9039.8431-1.4688 2.3795-1.4688 3.6723 0 2.5669 2.2597 5.2087 5.0465 5.2087h69.446c0 1.1992-.9792 2.1922-2.2032 2.1922h-83.8134c-2.2408 0-4.2744-.8432-5.7432-2.1922-1.4688-1.349-2.3914-3.2226-2.3914-5.3024 0-4.1407 3.6342-7.4945 8.1346-7.4945h83.8134c1.2052 0 2.2032.9743 2.2032 2.1922v.3934h-69.446c-1.4122-.0187-2.6739.506-3.5777 1.3303z" fill="#FFCF2D"/><path d="M542.3652 309.0617v10.0427h5.0088v.8431h-69.6719c-.772 0-1.5252-.1499-2.2031-.431-.7344-.2997-1.4123-.7307-1.9583-1.2927-1.0734-1.068-1.7324-2.5294-1.7324-4.1408 0-3.2414 2.6362-5.8644 5.8938-5.8644h69.672v.843h-5.009z" fill="#FF6576"/><path d="M544.3047 309.0617v10.0427H477.947c-2.7868 0-5.0465-2.2484-5.0465-5.0214 0-1.3865.565-2.6418 1.4688-3.5599.9038-.8993 2.1655-1.4614 3.5589-1.4614h66.3766z" fill="#FFF"/><path fill="#FF6576" d="M543.834 309.0616h1v10.0427h-1zM487.1926 316.1815v8.3751h-5.8186v-7.3071c0-1.7425-1.4122-3.1665-3.1823-3.1665h-2.5985v-1.068h8.417c1.7701 0 3.1824 1.424 3.1824 3.1665z"/></g><g><path d="M547.6565 270.8021h-98.9341c-2.561 0-4.6322 2.061-4.6322 4.6091.0188 2.5295 2.0713 4.5904 4.6322 4.5904h98.934c2.561 0 4.6323-2.061 4.6323-4.609-.0188-2.5295-2.0901-4.5905-4.6322-4.5905z" fill="#377FFF"/><g fill="#000838"><path d="M525.2108 280.0204h-.998c.113.2998.3955 1.0492 1.0169 1.0492.3766 0 2.222-.281 2.222-5.6584 0-1.911-.226-3.3725-.678-4.3655-.546-1.1804-1.2616-1.3116-1.5252-1.3116-.6402 0-.9227.7682-1.0357 1.068h.998c.0377-.075.0754-.1124.0942-.1311.339.0936 1.2428 1.0305 1.2428 4.7402 0 3.7098-.9039 4.628-1.2428 4.7403-.0377-.0374-.0753-.075-.0942-.1311zM533.3832 280.0204h-.998c.113.2998.3954 1.0492 1.0168 1.0492.3766 0 2.222-.281 2.222-5.6584 0-1.911-.226-3.3725-.678-4.3655-.546-1.1804-1.2615-1.3116-1.5252-1.3116-.6402 0-.9227.7682-1.0356 1.068h.998c.0376-.075.0753-.1124.0941-.1311.339.0936 1.2428 1.0305 1.2428 4.7402 0 3.7098-.9038 4.628-1.2428 4.7403-.0188-.0374-.0565-.075-.0941-.1311zM541.5743 280.0204h-.998c.113.2998.3955 1.0492 1.0169 1.0492.5272 0 2.222-.4122 2.222-5.6584 0-5.2649-1.6948-5.6583-2.222-5.6583-.6403 0-.9227.7682-1.0357 1.068h.998c.0377-.075.0753-.1125.0941-.1312.3766.0937 1.2428 1.068 1.2428 4.7403 0 2.2483-.32 3.41-.6025 4.0096-.226.4871-.4708.6932-.6403.7307-.0188-.0562-.0376-.0937-.0753-.15zM500.6374 280.0204h-.998c.113.2998.3954 1.0492 1.0168 1.0492.3766 0 2.222-.281 2.222-5.6584 0-5.2649-1.6947-5.6583-2.222-5.6583-.6402 0-.9227.7682-1.0357 1.068h.998c.0377-.075.0754-.1125.0942-.1312.3766.0937 1.2428 1.068 1.2428 4.7403 0 3.7098-.9039 4.6279-1.2428 4.7403 0-.0562-.0377-.0937-.0753-.15zM508.8285 280.0204h-.998c.113.2998.3955 1.0492 1.0169 1.0492.3577 0 1.0168-.1499 1.5252-1.1991.452-.9556.6967-2.4545.6967-4.4593 0-2.0047-.226-3.5036-.6967-4.4592-.5084-1.0492-1.1675-1.1991-1.5252-1.1991-.6403 0-.9227.7682-1.0357 1.068h.998c.0377-.075.0753-.1125.0942-.1312.226.0375.4519.281.6402.6745.2636.562.6025 1.7237.6025 4.0658 0 2.3233-.32 3.485-.6025 4.0658-.1883.3934-.4331.637-.6402.6745-.0189-.0562-.0377-.0937-.0754-.15zM517.0197 280.0204h-.998c.113.2998.3954 1.0492 1.0168 1.0492.5273 0 2.222-.4122 2.222-5.6584 0-5.396-1.8454-5.6583-2.222-5.6583-.6402 0-.9227.7682-1.0356 1.068h.998c.0376-.075.0753-.1125.0941-.1312.339.0937 1.2428 1.0305 1.2428 4.7403 0 3.6723-.8662 4.6466-1.2428 4.7403-.0188-.0562-.0377-.0937-.0753-.15zM476.0827 280.0204h-.998c.113.2998.3955 1.0492 1.0169 1.0492.2824 0 .998-.1311 1.5252-1.3115.452-.9743.678-2.4545.678-4.3656 0-1.7612-.2449-3.2414-.678-4.2531-.3954-.8994-.9603-1.424-1.544-1.424-.6403 0-.9227.7682-1.0357 1.068h.998c.0376-.0562.0565-.1124.0753-.1312.113.0562.3766.2623.6402.8619.2825.6183.6026 1.7987.6026 3.8597 0 3.7098-.9039 4.6278-1.2428 4.7403.0188 0 0-.0375-.0377-.0937zM484.2739 280.0204h-.998c.113.2998.3954 1.0492 1.0168 1.0492.2825 0 .998-.1311 1.5253-1.3115.4519-.9743.6779-2.4545.6779-4.3656 0-5.2649-1.6948-5.6584-2.222-5.6584-.6402 0-.9227.7682-1.0357 1.068h.998c.0377-.075.0754-.1124.0942-.1311.3766.0936 1.2428 1.068 1.2428 4.7402 0 3.7098-.9039 4.628-1.2428 4.7403 0-.0374-.0188-.075-.0565-.1311zM492.465 280.0204h-.998c.113.2998.3955 1.0492 1.0169 1.0492.5272 0 2.222-.4122 2.222-5.6584 0-2.0047-.226-3.5036-.6968-4.4592-.5084-1.0492-1.1674-1.1991-1.5252-1.1991-.6402 0-.9227.7682-1.0357 1.068h.998c.0377-.075.0753-.1125.0942-.1312.226.0375.4519.281.6402.6745.2636.562.6026 1.7237.6026 4.0658 0 3.6723-.8662 4.6466-1.2428 4.7403-.0189-.0562-.0565-.0937-.0754-.15zM451.5281 280.0204h-.998c.113.2998.3954 1.0492 1.0168 1.0492.5838 0 1.1298-.5246 1.5441-1.424.452-1.0117.6779-2.4731.6779-4.253 0-2.0798-.3766-3.3914-.6779-4.122-.4143-.9744-.9792-1.5365-1.544-1.5365-.6403 0-.9227.7682-1.0357 1.068h.998a1.0733 1.0733 0 00.0753-.1311c.1318.0749.4143.3372.6779 1.0492.2636.6558.5649 1.8174.5649 3.6723 0 2.0797-.3201 3.2414-.6026 3.8784-.2636.5996-.5272.8057-.6402.8619 0-.0187-.0377-.0562-.0565-.1124zM459.7004 280.0204h-.998c.113.2998.3955 1.0492 1.0169 1.0492.5837 0 1.1298-.5246 1.544-1.424.452-1.0117.678-2.4731.678-4.253 0-3.6724-1.1487-5.6585-2.222-5.6585-.6403 0-.9227.7682-1.0357 1.068h.998a1.0733 1.0733 0 00.0753-.1311c.1318.0749.3955.3372.678 1.0117.2635.637.5648 1.8174.5648 3.7098 0 2.0797-.3201 3.2414-.6026 3.8784-.2636.5996-.5272.8057-.6402.8619 0-.0187-.0188-.0562-.0565-.1124zM467.8916 280.0204h-.998c.113.2998.3954 1.0492 1.0168 1.0492.2825 0 .9792-.1311 1.544-1.3865.452-1.0117.678-2.4544.678-4.2719 0-1.7612-.2448-3.2413-.678-4.2531-.3953-.8993-.9602-1.424-1.544-1.424-.6402 0-.9227.7682-1.0356 1.068h.998c.0376-.0562.0564-.1124.0753-.1311.113.0562.3766.2623.6402.8618.2825.6183.6026 1.7987.6026 3.8597 0 2.1172-.3201 3.2789-.6026 3.8972-.2636.5808-.5272.7869-.6402.8244 0 0-.0189-.0375-.0565-.0937z"/></g></g></g><g><path d="M511.923 138.962h-66.1653c-3.831 0-6.926-3.1153-6.926-6.9714V65.392c0-3.856 3.095-6.9714 6.926-6.9714h66.1653c3.831 0 6.926 3.1153 6.926 6.9714v66.5987c0 3.8561-3.1139 6.9714-6.926 6.9714z" fill="#FFCF2D"/><path d="M507.0918 134.498h-67.4675c-3.831 0-6.926-3.1152-6.926-6.9714V59.6172c0-3.856 3.095-6.9713 6.926-6.9713h67.4675c3.831 0 6.926 3.1152 6.926 6.9713v67.9094c0 3.8562-3.095 6.9714-6.926 6.9714z" fill="#FFF"/><path d="M507.0918 135.0679h-67.4675c-4.133 0-7.4922-3.3812-7.4922-7.5413V59.6172c0-4.16 3.3592-7.5412 7.4922-7.5412h67.4675c4.133 0 7.4921 3.3812 7.4921 7.5412v67.9094c0 4.16-3.3592 7.5413-7.4921 7.5413zm-67.4675-81.8522c-3.5102 0-6.3599 2.8684-6.3599 6.4015v67.9094c0 3.5332 2.8497 6.4016 6.3599 6.4016h67.4675c3.5102 0 6.3598-2.8684 6.3598-6.4016V59.6172c0-3.5331-2.8496-6.4015-6.3598-6.4015h-67.4675z" fill="#FFCF2D"/><path d="M473.3675 125.4751c-17.4755 0-31.705-14.3227-31.705-31.9127 0-17.59 14.2295-31.9126 31.705-31.9126 17.4755 0 31.705 14.3227 31.705 31.9126 0 17.59-14.2295 31.9127-31.705 31.9127zm0-62.6856c-16.8527 0-30.5727 13.8098-30.5727 30.773 0 16.963 13.72 30.7729 30.5727 30.7729s30.5726-13.8099 30.5726-30.773c0-16.963-13.72-30.7729-30.5726-30.7729z" fill="#FFCF2D"/><path d="M474.462 95.12l-18.9663-14.5506c-.2454-.19-.302-.5508-.1133-.7978.1887-.247.5473-.304.7927-.114l16.06 12.3472-3.7366-11.5303c-.0944-.304.0566-.6269.3585-.7219.302-.095.6228.057.7172.361L474.462 95.12z" fill="#FFCF2D"/></g><g><path fill="#FFCF2D" d="M419.284 333.6142h-53.7257L343 307.0559h52.4333z"/><path d="M448.3798 334.9924v16.3894l-42.57.1677c-5.4543.0185-9.8823-4.3023-9.8823-9.6475v-5.0844c0-3.3897-1.2733-6.649-3.5539-9.1632l-14.0443-15.4582h52.4334l13.4171 12.9812c2.6986 2.5887 4.2 6.1087 4.2 9.815z" fill="#FFF"/><path d="M405.7718 352.1081c-2.7747 0-5.3973-1.0615-7.3548-2.9798-1.9764-1.937-3.0597-4.4885-3.0597-7.2263v-5.0844c0-3.2407-1.2163-6.3696-3.4018-8.7907l-14.8805-16.3894h53.9157l13.5882 13.1487c2.8127 2.7006 4.371 6.3323 4.371 10.2062v16.9481l-43.1401.1676h-.038zm-26.1692-39.3532l13.2081 14.527c2.3756 2.626 3.7059 6.0157 3.7059 9.5357v5.0844c0 2.4398.9692 4.712 2.7176 6.444 1.7484 1.7135 4.086 2.6447 6.5566 2.6447h.038l41.9999-.1676v-15.8307c0-3.5759-1.4254-6.9283-4.029-9.424l-13.246-12.8135h-50.951z" fill="#377FFF"/><g><path d="M467.5363 345.6083c-1.8054 3.5386-5.5303 5.9597-9.8443 5.9597h-52.4524c4.295 0 8.02-2.4211 9.8444-5.9597h52.4523z" fill="#FFF"/><path d="M457.692 352.1268h-52.4524v-1.1175c3.953 0 7.5448-2.1604 9.3312-5.6618l.152-.298h53.7257l-.418.8009c-1.9575 3.8738-5.9295 6.2764-10.3385 6.2764zm-47.4352-1.1175h47.4352c3.6679 0 6.9746-1.8252 8.875-4.8423h-51.141c-1.1972 2.1604-3.0027 3.818-5.1692 4.8423z" fill="#377FFF"/></g></g><g><path d="M434.2558 241.933l-31.8449-55.8838c-7.602-13.357-21.8035-21.5941-37.1776-21.5941h-119.267l4.1792-9.0117c-.3404.7368-2.1368.9257-4.8788.5479-4.1981-.5668-10.5898-2.3994-17.3975-5.4221-3.8955-1.7193-7.4317-3.514-10.3628-5.1766-5.5407-3.155-8.8878-5.9133-8.3394-7.1413l-60.891 99.771c-13.3696 19.478.5862 45.9464 24.224 45.9464 3.177 0 6.316-.5101 9.3038-1.5114 2.9879-1.0013 5.8055-2.475 8.3395-4.383l46.765-35.1211c2.8177-2.116 6.8455-.4723 7.4129 2.985l6.108 38.0305H409.767c21.6144.0189 35.173-23.2944 24.4888-42.0357zM363.38 246.297l5.1058-11.6c.8699-1.9836 3.6686-2.0214 4.5763-.0566l5.5407 11.6755-15.2228-.0189z" fill="#FF6576"/><path d="M354.8138 164.4173h-1.1346c0-2.3615-.5863-10.5609-7.999-17.1165-3.5174-3.0984-8.018-5.3088-13.4264-6.5935-6.3349-1.5114-13.9368-1.7381-22.5788-.6423-11.5542 1.4547-22.6734 4.9687-31.2965 9.8807-8.1692 4.6664-12.859 9.9374-12.859 14.4716h-1.1346c0-4.9498 4.8978-10.5797 13.4263-15.454 8.7366-4.9876 20.007-8.5394 31.7125-10.013 8.7744-1.0958 16.5087-.869 22.9949.6801 5.5785 1.3225 10.2493 3.6274 13.899 6.858 7.791 6.839 8.3962 15.454 8.3962 17.929z" fill="#FF6576"/><path d="M350.0106 164.5873c0 8.7472-40.4112 26.6573-40.4112 26.6573s-40.4113-17.91-40.4113-26.6573c0-8.7472 19.2129-18.8735 41.3568-21.5751 31.8638-3.8919 39.4657 12.809 39.4657 21.5751z" fill="#FF6576"/><path d="M350.0106 164.5873c0 8.7472-40.4112 26.6573-40.4112 26.6573s-40.4113-17.91-40.4113-26.6573v-.1133h80.8225v.1133z" fill="#FFF"/><path d="M309.5994 196.629l-.2459-.1323c-.1134-.0567-11.3083-5.5733-22.3519-12.2045-14.9958-8.9928-22.5978-15.6997-22.5978-19.9127h1.1347c0 2.6072 3.8198 8.0104 22.0304 18.9491 10.098 6.0456 20.3096 11.1844 22.0305 12.0345 1.7208-.8501 11.9323-5.9889 22.0304-12.0345 18.2106-10.9198 22.0305-16.323 22.0305-18.9302h1.1346c0 4.213-7.602 10.9199-22.5978 19.9127-11.0436 6.6312-22.2384 12.1478-22.352 12.2045l-.2457.1133zM344.035 284.0253c-.2648 0-.4728-.2078-.4728-.4723 0-.2645.208-.4723.4727-.4723.7186 0 1.8343-1.3224 2.742-5.0443.851-3.4384 1.3048-8.0292 1.3048-12.9035 0-4.8742-.4727-9.4651-1.3048-12.9035-.9077-3.7218-2.0045-5.0443-2.742-5.0443-.2647 0-.4727-.2078-.4727-.4723 0-.2645.208-.4723.4727-.4723 3.2337 0 4.9923 9.7296 4.9923 18.8924 0 9.1628-1.7586 18.8924-4.9923 18.8924zM213.8041 228.866l35.0015-69.9214.8457.4225-35.0015 69.9215zM247.4035 265.983c-.2269 0-.435-.17-.4727-.3967l-5.7866-38.0493c-.0378-.2645.1324-.4912.3971-.529.2648-.0378.4917.1322.5295.3967l5.7866 38.0494c.0378.2645-.1324.4912-.3971.529h-.0568z" fill="#FFF"/><g fill="#FFF"><path d="M311.4904 200.9553h-3.782c-.2648 0-.4728-.2078-.4728-.4723 0-.2645.208-.4723.4727-.4723h3.782c.2648 0 .4728.2078.4728.4723 0 .2645-.208.4723-.4727.4723zM311.4904 205.4517h-3.782c-.2648 0-.4728-.2078-.4728-.4723 0-.2645.208-.4723.4727-.4723h3.782c.2648 0 .4728.2078.4728.4723 0 .2645-.208.4723-.4727.4723zM311.4904 209.9292h-3.782c-.2648 0-.4728-.2078-.4728-.4723 0-.2645.208-.4723.4727-.4723h3.782c.2648 0 .4728.2078.4728.4723 0 .2645-.208.4723-.4727.4723zM311.4904 214.4067h-3.782c-.2648 0-.4728-.2078-.4728-.4723 0-.2645.208-.4723.4727-.4723h3.782c.2648 0 .4728.2078.4728.4723 0 .2645-.208.4723-.4727.4723zM311.4904 218.8842h-3.782c-.2648 0-.4728-.2078-.4728-.4723 0-.2645.208-.4723.4727-.4723h3.782c.2648 0 .4728.2078.4728.4723 0 .2645-.208.4723-.4727.4723zM311.4904 223.3806h-3.782c-.2648 0-.4728-.2078-.4728-.4723 0-.2645.208-.4723.4727-.4723h3.782c.2648 0 .4728.2078.4728.4723 0 .2645-.208.4723-.4727.4723z"/><path d="M311.4904 223.5884h-3.782c-.2648 0-.4728-.2078-.4728-.4723 0-.2645.208-.4723.4727-.4723h3.782c.2648 0 .4728.2078.4728.4723 0 .2645-.208.4723-.4727.4723zM311.4904 228.066h-3.782c-.2648 0-.4728-.2079-.4728-.4724 0-.2645.208-.4723.4727-.4723h3.782c.2648 0 .4728.2078.4728.4723 0 .2645-.208.4723-.4727.4723zM311.4904 232.5435h-3.782c-.2648 0-.4728-.2079-.4728-.4724 0-.2645.208-.4723.4727-.4723h3.782c.2648 0 .4728.2078.4728.4723 0 .2645-.208.4724-.4727.4724zM311.4904 236.8131h-3.782c-.2648 0-.4728-.2078-.4728-.4723 0-.2645.208-.4723.4727-.4723h3.782c.2648 0 .4728.2078.4728.4723 0 .2645-.208.4723-.4727.4723zM311.4904 241.3095h-3.782c-.2648 0-.4728-.2078-.4728-.4723 0-.2645.208-.4723.4727-.4723h3.782c.2648 0 .4728.2078.4728.4723 0 .2645-.208.4723-.4727.4723zM311.4904 245.787h-3.782c-.2648 0-.4728-.2078-.4728-.4723 0-.2645.208-.4723.4727-.4723h3.782c.2648 0 .4728.2078.4728.4723 0 .2645-.208.4724-.4727.4724zM311.4904 250.2646h-3.782c-.2648 0-.4728-.2079-.4728-.4724 0-.2644.208-.4723.4727-.4723h3.782c.2648 0 .4728.2079.4728.4723 0 .2645-.208.4724-.4727.4724zM311.4904 254.742h-3.782c-.2648 0-.4728-.2077-.4728-.4722s.208-.4724.4727-.4724h3.782c.2648 0 .4728.2079.4728.4724 0 .2645-.208.4723-.4727.4723zM311.4904 259.2385h-3.782c-.2648 0-.4728-.2078-.4728-.4723 0-.2645.208-.4724.4727-.4724h3.782c.2648 0 .4728.2079.4728.4724 0 .2645-.208.4723-.4727.4723zM311.4904 263.716h-3.782c-.2648 0-.4728-.2078-.4728-.4723 0-.2645.208-.4723.4727-.4723h3.782c.2648 0 .4728.2078.4728.4723 0 .2645-.208.4723-.4727.4723zM311.4904 268.1935h-3.782c-.2648 0-.4728-.2078-.4728-.4723 0-.2645.208-.4723.4727-.4723h3.782c.2648 0 .4728.2078.4728.4723 0 .2645-.208.4723-.4727.4723zM311.4904 272.671h-3.782c-.2648 0-.4728-.2078-.4728-.4723 0-.2645.208-.4723.4727-.4723h3.782c.2648 0 .4728.2078.4728.4723 0 .2645-.208.4723-.4727.4723z"/><path d="M311.4904 272.8977h-3.782c-.2648 0-.4728-.2078-.4728-.4723 0-.2645.208-.4723.4727-.4723h3.782c.2648 0 .4728.2078.4728.4723 0 .2645-.208.4723-.4727.4723zM311.4904 277.3752h-3.782c-.2648 0-.4728-.2078-.4728-.4723 0-.2645.208-.4723.4727-.4723h3.782c.2648 0 .4728.2078.4728.4723 0 .2645-.208.4723-.4727.4723zM311.4904 281.8527h-3.782c-.2648 0-.4728-.2078-.4728-.4723 0-.2645.208-.4723.4727-.4723h3.782c.2648 0 .4728.2078.4728.4723 0 .2645-.208.4723-.4727.4723zM306.8384 194.3808h1v71.13h-1z"/></g><path d="M387.3205 247.1473h-45.4792c-.2647 0-.4727-.2078-.4727-.4723 0-.2645.208-.4723.4727-.4723h45.4792c.2648 0 .4728.2078.4728.4723 0 .2645-.208.4723-.4728.4723z" fill="#FFF"/><g><path fill="#FFF" d="M215.294 321.0167h145.2118l-13.6532-36.8969H231.0272z"/><path d="M361.319 321.5835H214.443l16.225-38.0305h116.6006l.1324.3779 13.918 37.6526zM216.1448 320.45h143.5477l-13.2372-35.7634h-115.05L216.145 320.45z" fill="#377FFF"/><path d="M215.294 321.0167c0-5.2143 13.8422-14.6416 36.3265-15.9263 24.0728-1.3602 36.686 13.7537 36.3266 15.9263H215.294z" fill="#377FFF"/><path d="M287.9282 321.0167s-6.3917-29.85-62.4984-23.7666l12.1215-29.4534s45.952-8.3504 50.3958 16.3231l-.0189 36.897z" fill="#FFF"/><path d="M287.9282 321.5835c-.2647 0-.4917-.189-.5484-.4534-.0189-.0756-1.683-7.4058-10.0792-13.886-4.9355-3.8162-11.2137-6.6123-18.6266-8.3126-9.3038-2.116-20.4798-2.4938-33.1686-1.1147-.208.019-.397-.0566-.5105-.2267-.1135-.17-.1513-.3778-.0757-.5479l12.1215-29.4533c.0756-.17.227-.3023.416-.34.0757-.019 7.2805-1.3036 16.1494-1.3603 8.226-.0567 19.591.9635 27.0795 6.159 4.2926 2.966 6.9211 7.009 7.81 11.9966v.0945l-.019 36.897c0 .2833-.227.529-.5106.5667 0-.0189-.0189-.0189-.0378-.0189zM239.726 295.871c7.0535 0 13.5019.6612 19.2506 1.9837 7.583 1.7381 14.0125 4.6098 19.0805 8.5583 5.3137 4.1374 7.999 8.5205 9.3038 11.3732l.019-33.6096c-.851-4.6476-3.3094-8.426-7.3373-11.2032-7.2426-5.0254-18.3807-6.0078-26.4365-5.9511-7.7532.0566-14.2016 1.058-15.6577 1.3035l-11.6487 28.282c4.7086-.4912 9.1904-.7368 13.4263-.7368z" fill="#377FFF"/><path d="M359.6548 318.693c-3.3471-4.6287-16.2439-9.4651-35.4567-10.5609-22.8436-1.3036-35.3622 9.5407-36.2699 12.4879v-36.5002s16.3006-18.5902 58.9244 0l12.8022 34.5732z" fill="#FFF"/><path d="M287.9282 321.1868h-.0756c-.2837-.0378-.4917-.2834-.4917-.5668v-36.5002c0-.1322.0567-.2645.1324-.3778.1702-.189 4.2926-4.8176 13.7666-7.1414 5.5218-1.3602 11.7433-1.6625 18.4564-.888 8.3773.9636 17.5677 3.6274 27.3443 7.8782.1323.0567.2458.17.3025.3212l12.8023 34.5732c.0945.2645-.019.5667-.2648.699-.2458.1322-.5673.0567-.7185-.17-3.0257-4.1753-15.2795-9.2007-35.0218-10.3342-12.1593-.699-20.8959 2.116-26.0773 4.5908-6.4106 3.0606-9.285 6.4235-9.6064 7.5003-.0756.2645-.3026.4157-.5484.4157zm.5673-36.8403v34.3087c3.7442-4.4208 16.225-12.2045 35.7404-11.0899 17.4163 1.0013 29.0083 4.912 33.9817 8.8795l-11.8189-31.8905c-9.5875-4.1563-18.6077-6.7446-26.8147-7.708-6.5808-.7558-12.6699-.4724-18.0593.85-8.1693 2.0216-12.2539 5.8567-13.0292 6.6502z" fill="#377FFF"/><path d="M297.5157 306.7907c-.1891 0-.3971-.0944-.4917-.2833-.1512-.2645-.0567-.6235.208-.7746 3.2715-1.8704 8.8122-4.2886 16.5276-5.1577 2.969-.3211 6.0702-.3967 9.2093-.2078 6.2782.359 12.0837 1.2091 17.2273 2.5127.3025.0756.4916.3779.416.6801-.0757.3023-.3782.4912-.6808.4157-5.068-1.2847-10.7977-2.116-17.0003-2.475-3.0824-.17-6.108-.1133-9.0202.2079-7.5263.8312-12.8968 3.1928-16.0737 5.0065-.1324.0566-.227.0755-.3215.0755zM296.835 300.7452c-.1892 0-.3972-.0945-.4917-.2834-.1513-.2645-.0568-.6235.208-.7746 3.2715-1.8704 8.8122-4.2886 16.5275-5.1577 2.969-.3211 6.0702-.3967 9.2093-.2078 5.8622.34 11.3084 1.0958 16.2061 2.2671.3026.0756.4917.3779.416.6801-.0756.3023-.3781.4913-.6807.4157-4.841-1.1525-10.2305-1.8893-16.017-2.2293-3.0824-.17-6.108-.1134-9.0202.2078-7.5263.8313-12.8968 3.1928-16.0737 5.0065-.0946.0567-.1891.0756-.2837.0756zM296.3244 294.6996c-.1891 0-.3972-.0945-.4917-.2834-.1513-.2645-.0567-.6235.208-.7746 3.2715-1.8704 8.8122-4.2886 16.5276-5.1576 2.9689-.3212 6.0702-.3968 9.2093-.2079 5.4461.3212 10.533 1.0013 15.166 2.0404.3026.0756.4917.3779.435.6802-.0757.3022-.3783.4912-.6808.4345-4.5574-1.0013-9.6065-1.6814-14.977-2.0026-3.0823-.17-6.108-.1134-9.0202.2078-7.5262.8313-12.8968 3.1928-16.0737 5.0065-.1134.0378-.208.0567-.3025.0567zM342.5096 282.6394l1.065-.3908 12.0265 32.7199-1.0651.3907z" fill="#377FFF"/><path d="M360.5247 321.0167h-72.5965v-.3967c.9077-2.9472 13.4263-13.7915 36.2699-12.4879 19.2128 1.0958 32.1096 5.9322 35.4567 10.5609l.8699 2.3237z" fill="#377FFF"/></g><g><path d="M332.7644 164.4551s-13.5397 7.0469-32.3365 4.213c-4.6708-.699-9.682-2.0215-14.8635-4.213v-22.7465l24.3564-15.1517 3.6497 6.0644 19.194 31.8338z" fill="#E57281"/><path d="M311.2635 128.3517c1.456 2.7016 1.7019 5.9133.643 8.8038l-11.4786 31.5126c-4.6708-.699-9.682-2.0215-14.8635-4.213v-22.7465l24.4699-15.624 1.2292 2.267z" fill="#C96374"/><path d="M309.1644 118.1686s2.8555-25.3725-7.2993-27.6963c-7.7532-1.7759-11.611 4.0619-11.611 4.0619s-4.198-6.1212-10.7031-3.2495c-6.1837 2.7205-5.7488 11.2032-2.969 10.523 2.7799-.68-2.6852-6.121-8.5285-2.097-6.4673 4.4397 0 11.77 0 11.77s-4.7843-2.3049-6.9968 2.3993c-2.742 5.8378 12.9157 18.4202 12.9157 18.4202l35.192-14.1316z" fill="#000838"/><g><path d="M293.6958 105.9074l-16.2439 6.518c-3.9144 1.568-5.8243 6.0455-4.2548 9.9373l7.0914 17.6645c2.6096 6.5179 10.098 9.6918 16.6032 7.0846l6.751-2.7016c6.524-2.6071 9.7009-10.0885 7.0913-16.5875l-7.0914-17.6645c-1.5695-3.9107-6.0513-5.8188-9.9468-4.2508z" fill="#E57281"/><path d="M314.0054 126.5002l-3.2714 1.3225-3.5552-8.8417 3.2715-1.3225c1.9478-.7746 4.1414.17 4.9167 2.097l.7375 1.8327c.7942 1.927-.1513 4.1185-2.099 4.912z" fill="#E57281"/><path d="M276.7712 140.7073l3.2714-1.3225-3.3093-8.2182-3.2714 1.3225c-1.9478.7746-2.8744 2.985-2.099 4.912l.4916 1.2091c.7753 1.927 2.9689 2.8717 4.9167 2.0971z" fill="#C96374"/><path d="M310.0154 124.1386c-.1891 0-.3593-.1133-.435-.3022-.6996-1.757.1702-3.7596 1.9289-4.4775.2458-.0945.5106.0188.624.2644.0946.2456-.0189.5101-.2647.6235-1.3048.529-1.91 1.9648-1.3994 3.2684.0946.2456-.0189.51-.2647.6045-.0757 0-.1324.019-.1891.019z" fill="#000838"/><g transform="translate(283.3141 113.4266)" fill="#000838"><path d="M11.1192 4.0808a.4659.4659 0 01-.3593-.17c-.1702-.2079-.1512-.4913.0568-.6613C15.0337-.3212 19.1939.0378 19.364.0567c.2647.0189.4538.2645.416.51-.0189.2646-.2647.4535-.5105.4157-.0568 0-3.9523-.3212-7.8478 2.9661-.0946.0945-.208.1323-.3026.1323zM10.4952 18.0423c-.227 0-.416-.1512-.4539-.3779C8.0936 8.5961 2.95 8.974 2.742 8.9928c-.2648.0189-.4917-.17-.5106-.4156-.0189-.2645.1702-.4912.416-.5101.0568 0 1.6074-.1512 3.4228.9824 2.3638 1.4736 4.009 4.3075 4.8977 8.4449.0568.2645-.1134.51-.3592.5668-.0568-.019-.0757-.019-.1135-.019zM13.1048 25.297c-.1702 0-.3404-.019-.5106-.0378-.851-.1511-1.4939-.6801-1.91-1.5492-.1134-.2267-.0188-.51.227-.6234.227-.1134.5106-.019.624.2267.2837.6045.6808.9257 1.2292 1.039 1.91.3401 5.0869-2.286 6.1648-3.325.189-.189.4916-.17.6618 0 .1891.189.1702.4912 0 .6612-.1702.1323-3.7631 3.6085-6.4862 3.6085z"/><ellipse transform="rotate(-19.506 17.1296 9.9736)" cx="17.1296" cy="9.9736" rx="1" ry="1.9083"/><ellipse transform="rotate(-19.506 1.5282 16.4738)" cx="1.5282" cy="16.4738" rx="1" ry="1.9083"/></g><g fill="#FFCF2D"><path d="M300.9006 129.2963c-3.2714 0-5.9378-2.6639-5.9378-5.9323 0-3.2683 2.6664-5.9322 5.9378-5.9322 3.2715 0 5.9379 2.6639 5.9379 5.9322 0 3.2684-2.6664 5.9323-5.9379 5.9323zm0-10.9199c-2.7609 0-4.9923 2.2294-4.9923 4.9876 0 2.7583 2.2314 4.9877 4.9923 4.9877 2.761 0 4.9923-2.2294 4.9923-4.9877 0-2.7582-2.2314-4.9876-4.9923-4.9876zM284.827 135.5308c-3.2716 0-5.9379-2.6639-5.9379-5.9322 0-3.2684 2.6663-5.9323 5.9378-5.9323s5.9378 2.6639 5.9378 5.9323c0 3.2683-2.6663 5.9322-5.9378 5.9322zm0-10.9199c-2.761 0-4.9924 2.2294-4.9924 4.9877 0 2.7582 2.2314 4.9876 4.9923 4.9876 2.761 0 4.9923-2.2294 4.9923-4.9876 0-2.7583-2.2314-4.9877-4.9923-4.9877z"/><path d="M289.9327 128.106c-.1702 0-.3593-.0944-.435-.2833-.1134-.2456 0-.5101.227-.6235l5.7676-2.645c.2458-.1133.5106 0 .624.2268.1135.2456 0 .51-.2269.6234l-5.7676 2.645c-.0567.0378-.1135.0566-.1891.0566z"/></g></g></g><g><path d="M251.2801 153.3652c-.3214.7368-2.1368.9258-4.8788.548-4.198-.5669-10.5898-2.3994-17.3975-5.4222-3.8955-1.7381-7.4317-3.514-10.3439-5.1765-5.5407-3.155-8.8878-5.9134-8.3394-7.1414.5484-1.2091 4.8032-.6234 10.8167 1.3225 3.2336 1.039 6.959 2.4749 10.8923 4.2319 6.732 2.985 12.5753 5.8944 16.017 8.1426 2.3448 1.5114 3.574 2.7394 3.2336 3.4951z" fill="#FFF"/><path d="M248.8218 154.6688c-.7186 0-1.5506-.0567-2.4962-.189-4.7086-.6422-11.2705-2.6826-17.5487-5.4598-3.8388-1.7192-7.4317-3.514-10.4006-5.1954-6.3917-3.6463-9.285-6.2912-8.5853-7.8593.3971-.869 1.6452-1.1524 3.9523-.8502 1.9288.2456 4.5384.888 7.564 1.8704 3.3283 1.0769 7.1103 2.5316 10.9491 4.2508 7.2615 3.2117 12.8212 6.0456 16.0926 8.1804 2.8555 1.8326 3.9145 3.1362 3.4417 4.1941-.3026.699-1.3048 1.058-2.9689 1.058zm-36.7048-18.5712c-.8132 0-1.2103.1322-1.286.3022-.208.4723 1.494 2.645 8.1126 6.4235 2.931 1.6625 6.4862 3.4573 10.2872 5.1576 6.1836 2.7394 12.632 4.7609 17.2461 5.3843 3.2904.4535 4.217-.0566 4.2737-.2078 0 0 .208-.699-3.0256-2.7772-3.2147-2.097-8.7365-4.912-15.9413-8.1048-3.801-1.7003-7.5452-3.155-10.8356-4.213-4.5952-1.5114-7.375-1.9648-8.8311-1.9648z" fill="#FF6576"/><path d="M283.3708 115.0514l-5.1436 19.856-4.633-11.5245c-1.7775-4.4208.3593-9.484 4.7276-11.3354l5.049 3.0039z" fill="#C96374"/><path d="M283.56 114.6924l-10.2116 17.6833c-1.1724 2.0404-3.366 3.3062-5.7298 3.3062h-10.552c-1.5506 0-2.931.9446-3.5172 2.3616l-5.484 11.8455-1.6074 3.4573c-4.633-.6234-11.0814-2.626-17.2461-5.3654-2.307-1.0202-4.5574-2.097-6.6375-3.174l2.7798-5.8 4.9734-10.3719c2.3827-5.611 6.4862-10.3341 11.7243-13.4703l10.2872-6.1778c1.3615-.8124 2.931-1.2469 4.5196-1.2469h17.473c.9645 0 1.91.2078 2.761.6235l5.257 2.4938c1.456.699 2.0045 2.456 1.2102 3.8351z" fill="#E57281"/><path d="M280.2128 122.4383c-.0756 0-.1513-.0189-.2269-.0567-.227-.1322-.3026-.4156-.1702-.6423.3026-.529.3593-1.1335.1891-1.7192-.189-.5857-.5862-1.0391-1.1346-1.3036l-5.049-2.4182a5.58 5.58 0 00-2.4584-.5668h-12.4807c-.2648 0-.4728-.2078-.4728-.4723 0-.2645.208-.4723.4728-.4723h12.4807c1.0023 0 1.9667.2267 2.8744.6423l5.049 2.4183c.7753.3778 1.3616 1.058 1.6263 1.8892.2647.8313.1513 1.7192-.2647 2.456-.1135.1512-.2648.2456-.435.2456zM277.1115 127.8038c-.0756 0-.1512-.019-.2269-.0567-.227-.1323-.3025-.4156-.1702-.6424.3026-.529.3593-1.1335.1891-1.7192-.189-.5856-.5862-1.039-1.1346-1.3035l-5.049-2.4183a5.58 5.58 0 00-2.4584-.5667h-12.4807c-.2648 0-.4728-.2079-.4728-.4724 0-.2645.208-.4723.4728-.4723h12.4807c1.0023 0 1.9667.2267 2.8744.6424l5.049 2.4182c.7754.3779 1.3616 1.058 1.6263 1.8893.2648.8312.1513 1.7192-.2647 2.456-.1135.1511-.2648.2456-.435.2456zM273.4619 134.8129c-.0757 0-.1513-.019-.227-.0567-.2269-.1323-.3025-.4156-.1702-.6424.3026-.529.3593-1.1335.1891-1.7192-.189-.5856-.5862-1.039-1.1346-1.3035l-5.049-2.4183a5.58 5.58 0 00-2.4583-.5668H252.131c-.2648 0-.4728-.2078-.4728-.4723 0-.2645.208-.4723.4728-.4723h12.4808c1.0022 0 1.9666.2267 2.8743.6424l5.049 2.4182c.7754.3779 1.3616 1.058 1.6263 1.8892.2648.8313.1513 1.7193-.2647 2.456-.1135.1512-.2647.2457-.435.2457z" fill="#000838"/><path d="M246.477 153.3463c-4.633-.6234-11.0815-2.626-17.2462-5.3654-2.307-1.0202-4.5574-2.097-6.6375-3.174l3.139-6.4045c2.0991.7935 4.1603 1.7003 6.4674 2.7394 6.732 2.985 12.6131 6.1023 16.0548 8.3505l-1.7776 3.854z" fill="#C96374"/><path d="M257.2747 135.6441h-8.85c-.2648 0-.4728-.2078-.4728-.4723 0-.2645.208-.4723.4728-.4723h8.85c.2647 0 .4727.2078.4727.4723 0 .2645-.208.4723-.4727.4723z" fill="#000838"/><g transform="translate(297.4968 246.2405)"><ellipse fill="#FFF" cx="44.2689" cy="18.8924" rx="4.5196" ry="18.8358"/><path d="M48.7885 18.8924c0 3.2306-.1891 6.2723-.5484 8.9362-1.1725 2.985-3.574 5.3465-6.5997 6.4612-1.2292.4534-2.5718.7179-3.9712.7179H20.5176c-2.1557 0-3.9144 1.757-3.9144 3.9107v.529c0 3.155-3.366 5.1954-6.1647 3.7218l-8.0558-4.213C.9455 38.2005.0378 36.708.0378 35.0832v-6.2911c0-2.3616 1.1157-4.572 2.9878-5.989l12.2917-9.2383c2.0801-1.5681 4.6141-2.3994 7.2048-2.3994h25.8503c.2837 2.3616.416 4.9687.416 7.727z" fill="#E57281"/><path d="M6.543 41.0344c-.0757 0-.1513-.019-.208-.0567-1.494-.7557-2.4206-2.286-2.4206-3.9674v-5.7811c0-2.286 1.0968-4.4775 2.9311-5.8755l11.2894-8.4828c.208-.151.5106-.1133.6619.0945.1513.2078.1135.5101-.0946.6612L7.4128 26.1094C5.8054 27.3184 4.86 29.2266 4.86 31.2292v5.781c0 1.3037.7375 2.5317 1.891 3.1362.227.1134.3215.3968.208.6424-.0756.1511-.2458.2456-.416.2456z" fill="#000838"/><path d="M12.2917 43.566c-.0757 0-.1513-.019-.208-.0567-1.494-.7557-2.4206-2.286-2.4206-3.9674v-5.7811c0-2.286 1.0968-4.4775 2.9311-5.8756l11.2895-8.4827c.208-.1511.5105-.1133.6618.0945.1513.2078.1135.51-.0945.6612L13.1615 28.641c-1.6073 1.2092-2.5528 3.1173-2.5528 5.1199v5.781c0 1.3037.7375 2.5317 1.891 3.1362.2269.1134.3215.3968.208.6424-.0756.1511-.2458.2456-.416.2456z" fill="#000838"/><path d="M48.7885 18.8924c0 3.2306-.1891 6.2723-.5484 8.9362-1.1725 2.985-3.574 5.3465-6.5997 6.4612-1.1535-3.4196-1.91-9.0306-1.91-15.3974 0-2.7583.1513-5.3654.3972-7.727h8.2637c.2648 2.3616.3972 4.9687.3972 7.727z" fill="#C96374"/></g></g></g><g transform="translate(359 227)"><ellipse fill="#FFCF2D" cx="20.673" cy="63.6189" rx="20.616" ry="1.6968"/><path d="M37.8276 64.9055h-8.5202c-7.9117 0-14.3019-6.2836-14.3019-14.0215V38.9694h37.143v11.896c0 7.7565-6.4092 14.04-14.3209 14.04z" fill="#FFF"/><path d="M37.8276 65.4648h-8.5202c-8.197 0-14.8724-6.5446-14.8724-14.5808V38.41h38.284v12.4553c0 8.055-6.6754 14.5995-14.8914 14.5995zm-22.2515-25.936V50.884c0 7.421 6.162 13.4621 13.7313 13.4621h8.5202c7.5884 0 13.7503-6.0412 13.7503-13.4808V39.5288H15.5761z" fill="#FFCF2D"/><path d="M57.3405 49.728h-5.7816V39.5287h5.7816c2.5485 0 4.6215 2.0323 4.6215 4.5308v1.156c0 2.48-2.073 4.5123-4.6215 4.5123zM52.7 48.6091h4.6405c1.9208 0 3.4804-1.529 3.4804-3.3935v-1.156c0-1.8833-1.5596-3.4122-3.4804-3.4122H52.7v7.9617z" fill="#FFCF2D"/><g transform="translate(14.2638 34.6809)"><ellipse fill="#3FB1B5" cx="19.3037" cy="4.158" rx="18.7331" ry="3.6732"/><path d="M19.3037 8.2973C11.5822 8.2973.095 7.1973.095 4.158.095 1.1187 11.5822.0186 19.3037.0186c7.7215 0 19.2086 1.1001 19.2086 4.1394 0 3.0392-11.4871 4.1393-19.2086 4.1393zm0-7.3464c-4.9828 0-9.6424.373-13.1608 1.0628C2.111 2.7968 1.046 3.7291 1.046 4.158c0 .4288 1.084 1.3425 5.097 2.1442 3.4993.69 8.1779 1.0628 13.1607 1.0628 4.9828 0 9.6423-.3729 13.1607-1.0628 4.032-.783 5.097-1.7154 5.097-2.1442 0-.4289-1.0841-1.3425-5.097-2.1443C28.946 1.3238 24.2865.951 19.3037.951z" fill="#FFF"/></g><g fill="#FFCF2D"><path d="M33.5675 46.0547c-4.9828 0-9.6804-.3915-13.2178-1.0814-3.9558-.7831-5.8957-1.8086-5.8957-3.1511h1.141c0 .3729 1.0461 1.2679 4.983 2.051 3.4613.6899 8.0827 1.0628 12.9895 1.0628 4.9067 0 9.5282-.373 12.9896-1.0628 3.9368-.7831 4.9828-1.6781 4.9828-2.051h1.141c0 1.3238-1.9208 2.368-5.8956 3.151-3.5374.69-8.235 1.0815-13.2178 1.0815z"/><path d="M33.5675 49.9517c-4.9828 0-9.6804-.3916-13.2178-1.0815-3.9558-.783-5.8957-1.8086-5.8957-3.151h1.141c0 .3728 1.0461 1.2678 4.983 2.051 3.4613.6898 8.0827 1.0627 12.9895 1.0627 4.9067 0 9.5282-.3729 12.9896-1.0628 3.9368-.783 4.9828-1.678 4.9828-2.051h1.141c0 1.3239-1.9208 2.368-5.8956 3.1511-3.5374.69-8.235 1.0815-13.2178 1.0815z"/><path d="M33.5675 53.8486c-4.9828 0-9.6804-.3915-13.2178-1.0814-3.9558-.7832-5.8957-1.8087-5.8957-3.1512h1.141c0 .373 1.0461 1.268 4.983 2.051 3.4613.69 8.0827 1.0629 12.9895 1.0629 4.9067 0 9.5282-.373 12.9896-1.0628 3.9368-.7831 4.9828-1.6781 4.9828-2.051h1.141c0 1.3238-1.9208 2.368-5.8956 3.151-3.5374.69-8.235 1.0815-13.2178 1.0815z"/><path d="M33.5675 57.7455c-4.9068 0-9.5473-.3915-13.0276-1.0814-3.8988-.7831-5.8006-1.8086-5.8006-3.1511h1.141c0 .3729 1.027 1.2679 4.8878 2.051 3.4043.6899 7.9497 1.0628 12.7994 1.0628s9.376-.3729 12.7994-1.0628c3.8797-.7831 4.8877-1.6781 4.8877-2.051h1.1411c0 1.3238-1.9018 2.368-5.8006 3.1511-3.4804.6899-8.1209 1.0814-13.0276 1.0814z"/><path d="M33.5675 61.6425c-6.9988 0-17.4019-1.1188-17.4019-4.2326h1.1411c0 .373.932 1.2866 4.4884 2.051 3.138.69 7.322 1.0628 11.7724 1.0628 4.4503 0 8.6343-.3729 11.7724-1.0628 3.5374-.7644 4.4883-1.678 4.4883-2.051h1.1411c0 3.1138-10.403 4.2326-17.4018 4.2326z"/></g><path d="M32.8258 32.779c-.0951 0-.1902-.0186-.2663-.0745-1.4074-.951-4.089-6.2463-4.108-11.001 0-3.3003 1.2552-5.892 3.6325-7.5142.1522-.0932.3043-.1864.4375-.2797-.4945-2.3493-.5706-4.997-.057-7.309.9889-4.5682 3.9177-6.8243 8.2349-6.3955 2.8147.2797 4.0129 2.4053 3.9558 4.3817-.057 1.9951-1.4454 4.0834-3.9939 4.1953-.2662.0186-.4754-.1865-.4944-.4475-.019-.261.1902-.4661.4564-.4848 2.054-.0932 3.024-1.7713 3.081-3.2816.038-1.4357-.7417-3.1884-3.1-3.4308-2.6626-.2797-6.0859.4848-7.208 5.6683-.4754 2.1629-.3994 4.5681.019 6.6937 1.5786-.578 2.6436.0373 3.1761.5221 1.4644 1.3239 1.8638 4.214 1.103 5.4818-.3423.578-.9128.8018-1.5214.5967-1.4834-.4848-2.7196-2.5731-3.4233-5.2208-.038.0187-.076.056-.1141.0746-2.1491 1.4544-3.2331 3.7291-3.2141 6.7497.019 4.7174 2.7576 9.6025 3.6895 10.2365.2092.1491.2663.4288.1142.6526-.0951.1119-.2473.1864-.3994.1864zm.7797-18.366c.6276 2.48 1.7117 4.4191 2.8528 4.792.1331.0373.2662.056.4184-.1864.5135-.8391.2472-3.2444-.932-4.3258-.6465-.578-1.4263-.6713-2.3392-.2797z" fill="#FFF"/></g><g><path d="M172.582 316.1987H80.0305c-2.4856 0-4.7076-1.5255-5.6303-3.852l-25.3269-63.3864c-1.2051-3.032.998-6.35 4.218-6.35h92.5515c2.4856 0 4.7076 1.5255 5.6303 3.852L176.8 309.8485c1.224 3.032-.9792 6.3501-4.218 6.3501z" fill="#FFF"/><path d="M172.582 316.7708H80.0305c-2.7304 0-5.1407-1.659-6.1575-4.2143L48.546 249.17c-.6402-1.6019-.4518-3.4134.5085-4.8627.9604-1.4302 2.5421-2.2883 4.2368-2.2883h92.5515c2.7304 0 5.1407 1.659 6.1576 4.2143l25.3269 63.3864c.6402 1.6018.4707 3.4134-.4896 4.8436-.9604 1.4493-2.5421 2.3074-4.2557 2.3074zM53.2913 243.1823c-1.337 0-2.542.6484-3.2953 1.7734-.7532 1.1442-.9038 2.5172-.3954 3.7948l25.3269 63.3864c.8474 2.1167 2.8434 3.4897 5.103 3.4897h92.5515c1.3558 0 2.561-.6483 3.3141-1.7925.7533-1.125.885-2.5171.3766-3.7757l-25.3269-63.3864c-.8473-2.1167-2.8433-3.4897-5.103-3.4897H53.2913z" fill="#FFCF2D"/><path d="M168.2887 316.6564H79.9929c-2.3538 0-4.4817-1.4493-5.3667-3.6613l-24.1594-60.4688c-1.1487-2.8986.9415-6.045 4.0297-6.045h88.2958c2.3538 0 4.4816 1.4493 5.3666 3.6613l24.1595 60.4688c1.1486 2.8985-.9604 6.045-4.0297 6.045z" fill="#FFCF2D"/><path d="M114.076 289.1584c-2.5987 0-5.0466-1.0297-6.892-2.8985-1.5065-1.5256-2.335-3.547-2.335-5.6827 0-2.1548.8285-4.1762 2.335-5.6826 1.224-1.2395 2.8622-1.926 4.5946-1.926 1.7324 0 3.3706.6865 4.5946 1.926 2.0902 2.1167 2.0902 5.5491 0 7.6658a4.3933 4.3933 0 01-6.2705 0c-.3013-.305-.3013-.7818 0-1.087.3013-.305.772-.305 1.0733 0 1.1487 1.1633 2.994 1.1633 4.1427 0 1.5064-1.5255 1.5064-3.9854 0-5.511-.9415-.9534-2.2031-1.4874-3.5401-1.4874-1.337 0-2.5986.534-3.5401 1.4874-1.224 1.2396-1.883 2.8604-1.883 4.6148 0 1.7353.6778 3.3753 1.883 4.6148 1.5629 1.5828 3.6154 2.4409 5.8186 2.4409 2.2031 0 4.2745-.8581 5.8186-2.4409.3013-.3051.772-.3051 1.0733 0 .3013.3051.3013.7818 0 1.087-1.8265 1.8497-4.2745 2.8794-6.873 2.8794z" fill="#FFF"/><g><path d="M205.7047 322.9111H80.1435c-1.45 0-2.6174-1.1823-2.6174-2.6506v-1.2777c0-1.4683 1.1675-2.6506 2.6174-2.6506h125.5612c1.45 0 2.6174 1.1823 2.6174 2.6506v1.2777c-.0188 1.4683-1.1863 2.6506-2.6174 2.6506z" fill="#FFF"/><path d="M205.7047 323.4832H80.1435c-1.7512 0-3.1823-1.4493-3.1823-3.2227v-1.2777c0-1.7734 1.431-3.2227 3.1823-3.2227h125.5612c1.7512 0 3.1823 1.4493 3.1823 3.2227v1.2777c-.0188 1.7734-1.45 3.2227-3.1823 3.2227zm-125.5612-6.579c-1.1298 0-2.0525.9345-2.0525 2.0786v1.2777c0 1.1441.9227 2.0785 2.0525 2.0785h125.5612c1.111 0 2.0337-.9344 2.0525-2.0785v-1.2777c0-1.1441-.9227-2.0785-2.0525-2.0785H80.1435z" fill="#FFCF2D"/></g></g></g></svg>