<svg width="718" height="441" viewBox="0 0 718 441" fill="none" xmlns="http://www.w3.org/2000/svg">
<path d="M40.1345 440.16L269.06 438.97L330.078 438.952L350.294 438.944L411.432 438.927L690.744 438.851C690.744 438.851 754.632 356.927 686.39 279.12C615.634 198.445 581.23 264.147 559.482 150.588C504.737 -135.251 -36.5238 31.116 105.444 274.353C156.562 361.935 4.82287 315.385 40.1345 440.16Z" fill="#EBF3FA"/>
<path d="M250.738 380.504L249.5 379.825C248.178 379.103 247.692 377.44 248.416 376.117L254.102 365.731C254.826 364.409 256.49 363.923 257.812 364.647L259.585 365.617C259.843 365.759 259.939 366.086 259.798 366.344C259.656 366.602 259.329 366.699 259.071 366.557L257.298 365.584C256.493 365.144 255.482 365.44 255.041 366.245L249.353 376.632C248.912 377.434 249.209 378.447 250.014 378.888L251.252 379.567C252.055 380.008 253.068 379.711 253.509 378.906L257.283 372.012C257.425 371.754 257.751 371.657 258.01 371.799C258.268 371.941 258.364 372.265 258.222 372.526L254.446 379.42C253.722 380.742 252.06 381.228 250.738 380.504" fill="#AFCDFB"/>
<path d="M245.461 391.41L243.242 390.196C241.183 389.067 240.489 386.354 241.697 384.146L250.248 368.532C250.389 368.274 250.716 368.178 250.975 368.319C251.233 368.461 251.329 368.785 251.187 369.046L242.637 384.66C241.71 386.349 242.214 388.413 243.756 389.257L245.975 390.472C247.517 391.318 249.526 390.629 250.453 388.94L260.191 371.153C261.118 369.464 260.614 367.4 259.071 366.557C258.813 366.415 258.717 366.088 258.859 365.83C259 365.572 259.327 365.475 259.585 365.617C261.645 366.747 262.338 369.459 261.13 371.668L251.39 389.454C250.182 391.66 247.523 392.539 245.461 391.41Z" fill="#AFCDFB"/>
<path d="M459.226 322.739H186.844C180.147 322.739 174.719 317.312 174.719 310.616V81.9992C174.719 75.3029 180.147 69.8754 186.844 69.8754H459.226C465.922 69.8754 471.352 75.3029 471.352 81.9992V310.616C471.352 317.312 465.922 322.739 459.226 322.739ZM342.357 200.165C341.22 200.165 340.298 201.086 340.298 202.224C340.298 203.361 341.22 204.283 342.357 204.283H384.359C385.498 204.283 386.42 203.361 386.42 202.224C386.42 201.086 385.498 200.165 384.359 200.165H342.357V200.165ZM304.059 200.165C302.919 200.165 301.997 201.086 301.997 202.224C301.997 203.361 302.919 204.283 304.059 204.283H334.711C335.849 204.283 336.77 203.361 336.77 202.224C336.77 201.086 335.849 200.165 334.711 200.165H304.059ZM198.227 120.196V204.283H282.314V120.196H198.227ZM394.738 187.39C393.6 187.39 392.678 188.312 392.678 189.449C392.678 190.586 393.6 191.511 394.738 191.511H416.184C417.321 191.511 418.243 190.586 418.243 189.449C418.243 188.312 417.321 187.39 416.184 187.39H394.738ZM304.059 187.39C302.919 187.39 301.997 188.312 301.997 189.449C301.997 190.586 302.919 191.511 304.059 191.511H385.298C386.436 191.511 387.357 190.586 387.357 189.449C387.357 188.312 386.436 187.39 385.298 187.39H304.059V187.39ZM357.049 170.629C355.912 170.629 354.99 171.551 354.99 172.688C354.99 173.825 355.912 174.747 357.049 174.747H425.076C426.213 174.747 427.135 173.825 427.135 172.688C427.135 171.551 426.213 170.629 425.076 170.629H357.049ZM304.059 170.629C302.919 170.629 301.997 171.551 301.997 172.688C301.997 173.825 302.919 174.747 304.059 174.747H345.65C346.79 174.747 347.711 173.825 347.711 172.688C347.711 171.551 346.79 170.629 345.65 170.629H304.059ZM394.738 159.584C393.6 159.584 392.678 160.506 392.678 161.643C392.678 162.78 393.6 163.702 394.738 163.702H416.184C417.321 163.702 418.243 162.78 418.243 161.643C418.243 160.506 417.321 159.584 416.184 159.584H394.738ZM342.357 159.584C341.22 159.584 340.298 160.506 340.298 161.643C340.298 162.78 341.22 163.702 342.357 163.702H384.359C385.498 163.702 386.42 162.78 386.42 161.643C386.42 160.506 385.498 159.584 384.359 159.584H342.357V159.584ZM304.059 159.584C302.919 159.584 301.997 160.506 301.997 161.643C301.997 162.78 302.919 163.702 304.059 163.702H334.711C335.849 163.702 336.77 162.78 336.77 161.643C336.77 160.506 335.849 159.584 334.711 159.584H304.059ZM394.738 146.809C393.6 146.809 392.678 147.731 392.678 148.868C392.678 150.006 393.6 150.927 394.738 150.927H416.184C417.321 150.927 418.243 150.006 418.243 148.868C418.243 147.731 417.321 146.809 416.184 146.809H394.738ZM304.059 146.809C302.919 146.809 301.997 147.731 301.997 148.868C301.997 150.006 302.919 150.927 304.059 150.927H385.298C386.436 150.927 387.357 150.006 387.357 148.868C387.357 147.731 386.436 146.809 385.298 146.809H304.059V146.809ZM305.176 120.11C303.421 120.11 301.997 121.534 301.997 123.286C301.997 125.041 303.421 126.465 305.176 126.465H372.06C373.815 126.465 375.236 125.041 375.236 123.286C375.236 121.534 373.815 120.11 372.06 120.11H305.176ZM385.157 115.848C383.401 115.848 381.978 117.271 381.978 119.026C381.978 120.781 383.401 122.202 385.157 122.202H452.039C453.794 122.202 455.217 120.781 455.217 119.026C455.217 117.271 453.794 115.848 452.039 115.848H385.157" fill="#F7FAFD"/>
<path d="M471.352 97.9346H174.719V78.9271C174.719 73.9277 178.771 69.8755 183.771 69.8755H462.301C467.3 69.8755 471.352 73.9277 471.352 78.9271V97.9346" fill="#699DEE"/>
<path d="M186.717 83.7341C186.717 81.8827 188.219 80.3809 190.071 80.3809C191.924 80.3809 193.426 81.8827 193.426 83.7341C193.426 85.588 191.924 87.0898 190.071 87.0898C188.219 87.0898 186.717 85.588 186.717 83.7341Z" fill="#DDE7FE"/>
<path d="M200.795 83.7341C200.795 81.8827 202.297 80.3809 204.15 80.3809C206.002 80.3809 207.504 81.8827 207.504 83.7341C207.504 85.588 206.002 87.0898 204.15 87.0898C202.297 87.0898 200.795 85.588 200.795 83.7341Z" fill="#DDE7FE"/>
<path d="M214.875 83.7341C214.875 81.8827 216.377 80.3809 218.228 80.3809C220.082 80.3809 221.584 81.8827 221.584 83.7341C221.584 85.588 220.082 87.0898 218.228 87.0898C216.377 87.0898 214.875 85.588 214.875 83.7341Z" fill="#DDE7FE"/>
<path d="M198.229 204.283H282.315V120.197H198.229V204.283Z" fill="#E2EDFC"/>
<path d="M372.061 126.465H305.177C303.421 126.465 301.998 125.042 301.998 123.286C301.998 121.534 303.421 120.11 305.177 120.11H372.061C373.816 120.11 375.237 121.534 375.237 123.286C375.237 125.042 373.816 126.465 372.061 126.465Z" fill="#B9CAF7"/>
<path d="M452.041 122.203H385.159C383.404 122.203 381.98 120.782 381.98 119.027C381.98 117.272 383.404 115.848 385.159 115.848H452.041C453.796 115.848 455.219 117.272 455.219 119.027C455.219 120.782 453.796 122.203 452.041 122.203Z" fill="#B9CAF7"/>
<path d="M385.299 150.928H304.06C302.92 150.928 301.998 150.006 301.998 148.869C301.998 147.732 302.92 146.81 304.06 146.81H385.299C386.436 146.81 387.358 147.732 387.358 148.869C387.358 150.006 386.436 150.928 385.299 150.928Z" fill="#E5EEFC"/>
<path d="M416.185 150.928H394.739C393.602 150.928 392.68 150.006 392.68 148.869C392.68 147.732 393.602 146.81 394.739 146.81H416.185C417.322 146.81 418.244 147.732 418.244 148.869C418.244 150.006 417.322 150.928 416.185 150.928Z" fill="#E5EEFC"/>
<path d="M334.712 163.702H304.06C302.92 163.702 301.998 162.78 301.998 161.643C301.998 160.506 302.92 159.584 304.06 159.584H334.712C335.849 159.584 336.771 160.506 336.771 161.643C336.771 162.78 335.849 163.702 334.712 163.702Z" fill="#E5EEFC"/>
<path d="M384.359 163.702H342.358C341.221 163.702 340.299 162.78 340.299 161.643C340.299 160.506 341.221 159.584 342.358 159.584H384.359C385.499 159.584 386.421 160.506 386.421 161.643C386.421 162.78 385.499 163.702 384.359 163.702Z" fill="#E5EEFC"/>
<path d="M416.185 163.702H394.739C393.602 163.702 392.68 162.78 392.68 161.643C392.68 160.506 393.602 159.584 394.739 159.584H416.185C417.322 159.584 418.244 160.506 418.244 161.643C418.244 162.78 417.322 163.702 416.185 163.702Z" fill="#E5EEFC"/>
<path d="M345.651 174.747H304.06C302.92 174.747 301.998 173.825 301.998 172.688C301.998 171.551 302.92 170.629 304.06 170.629H345.651C346.79 170.629 347.712 171.551 347.712 172.688C347.712 173.825 346.79 174.747 345.651 174.747Z" fill="#E5EEFC"/>
<path d="M425.078 174.747H357.051C355.914 174.747 354.992 173.825 354.992 172.688C354.992 171.551 355.914 170.629 357.051 170.629H425.078C426.215 170.629 427.137 171.551 427.137 172.688C427.137 173.825 426.215 174.747 425.078 174.747Z" fill="#E5EEFC"/>
<path d="M385.299 191.511H304.06C302.92 191.511 301.998 190.586 301.998 189.449C301.998 188.312 302.92 187.39 304.06 187.39H385.299C386.436 187.39 387.358 188.312 387.358 189.449C387.358 190.586 386.436 191.511 385.299 191.511Z" fill="#E5EEFC"/>
<path d="M416.185 191.511H394.739C393.602 191.511 392.68 190.586 392.68 189.449C392.68 188.312 393.602 187.39 394.739 187.39H416.185C417.322 187.39 418.244 188.312 418.244 189.449C418.244 190.586 417.322 191.511 416.185 191.511Z" fill="#E5EEFC"/>
<path d="M334.712 204.283H304.06C302.92 204.283 301.998 203.361 301.998 202.224C301.998 201.087 302.92 200.165 304.06 200.165H334.712C335.849 200.165 336.771 201.087 336.771 202.224C336.771 203.361 335.849 204.283 334.712 204.283Z" fill="#E5EEFC"/>
<path d="M384.359 204.283H342.358C341.221 204.283 340.299 203.361 340.299 202.224C340.299 201.087 341.221 200.165 342.358 200.165H384.359C385.499 200.165 386.421 201.087 386.421 202.224C386.421 203.361 385.499 204.283 384.359 204.283Z" fill="#E5EEFC"/>
<path d="M249.334 165.257L240.118 143.93L230.978 165.257H249.334ZM235.929 132.733H244.614L268.073 186.435H258.171L252.764 173.562H227.549L222.066 186.435H212.467L235.929 132.733" fill="#BDD1F9"/>
<path d="M245.2 230.29H198.229V221.221H245.2V230.29Z" fill="#F99746"/>
<path d="M245.2 239.357H198.229V230.291H245.2V239.357Z" fill="#ED7D2B"/>
<path d="M245.2 248.424H198.229V239.357H245.2V248.424Z" fill="#474FEA"/>
<path d="M279.807 226.355H253.964C252.883 226.355 252.004 225.479 252.004 224.397C252.004 223.316 252.883 222.44 253.964 222.44H279.807C280.889 222.44 281.765 223.316 281.765 224.397C281.765 225.479 280.889 226.355 279.807 226.355Z" fill="#BDD1F9"/>
<path d="M271.1 233.256H253.964C252.883 233.256 252.004 232.38 252.004 231.299C252.004 230.217 252.883 229.341 253.964 229.341H271.1C272.181 229.341 273.058 230.217 273.058 231.299C273.058 232.38 272.181 233.256 271.1 233.256Z" fill="#BDD1F9"/>
<path d="M245.2 286.634H198.229V268.105H245.2V286.634" fill="#F99746"/>
<path d="M245.2 295.311H198.229V282.06H245.2V295.311Z" fill="#B5453C"/>
<path d="M198.229 268.105L215.079 282.26L198.229 295.311V268.105Z" fill="#474FEA"/>
<path d="M279.807 273.239H253.964C252.883 273.239 252.004 272.362 252.004 271.281C252.004 270.2 252.883 269.323 253.964 269.323H279.807C280.889 269.323 281.765 270.2 281.765 271.281C281.765 272.362 280.889 273.239 279.807 273.239" fill="#BDD1F9"/>
<path d="M271.1 280.143H253.964C252.883 280.143 252.004 279.267 252.004 278.185C252.004 277.104 252.883 276.225 253.964 276.225H271.1C272.181 276.225 273.058 277.104 273.058 278.185C273.058 279.267 272.181 280.143 271.1 280.143Z" fill="#BDD1F9"/>
<path d="M474.347 92.7757C474.347 92.7757 475.571 107.354 472.25 107.133C468.927 106.913 462.368 100.495 449.135 101.539C435.899 102.582 419.706 105.477 409.917 88.1562C400.128 70.8329 422.436 65.8487 422.436 65.8487L474.347 92.7757" fill="#233862"/>
<path d="M446.212 91.7068L512.904 97.1899L514.29 94.2242L450.353 47.0285L385.768 39.4812L384.527 42.1379L446.212 91.7068Z" fill="#2B478B"/>
<path d="M491.599 141.932C491.204 140.559 489.773 139.764 488.401 140.157C487.028 140.552 486.235 141.983 486.628 143.355C487.02 144.728 488.451 145.521 489.824 145.131C491.197 144.736 491.992 143.305 491.599 141.932Z" fill="#F99746"/>
<path d="M489.376 142.648C492.05 142.44 492.676 166.779 492.676 166.779C492.676 166.779 490.931 167.6 490.075 167.407C489.216 167.215 488.778 163.927 488.778 163.927L488.697 167.374C488.697 167.374 485.762 167.476 484.746 166.761C484.746 166.761 485.144 142.98 489.376 142.648" fill="#F99746"/>
<path d="M490.247 143.198L489.763 90.0225L489.419 89.7641L454.585 63.997L453.334 65.6889L487.821 91.2001L488.601 143.107L490.247 143.198" fill="#F99746"/>
<path d="M535.192 394.069H388.684V338.404H535.681C547.561 338.404 557.193 348.036 557.193 359.916V372.068C557.193 384.219 547.343 394.069 535.192 394.069" fill="#FCECDB"/>
<path d="M682.872 361.307V369.68C682.872 374.155 681.748 378.346 679.783 381.948C675.834 389.196 668.492 394.066 660.086 394.066H384.17C382.344 394.066 380.865 392.484 380.865 390.533V389.28C380.865 387.327 382.344 385.744 384.17 385.744H552.366C553.265 384.572 554.057 383.3 554.726 381.948C556.301 378.772 557.193 375.15 557.193 371.306V360.661C557.193 358.703 556.957 356.801 556.511 354.995C555.757 351.931 554.409 349.125 552.611 346.729H384.17C382.344 346.729 380.865 345.146 380.865 343.191V341.94C380.865 339.987 382.344 338.404 384.17 338.404H661.477C671.248 338.404 679.489 345.414 682.047 354.995C682.586 357.001 682.872 359.119 682.872 361.307" fill="#699DEE"/>
<path d="M682.047 354.995H556.511C555.757 351.931 554.409 349.124 552.611 346.729H384.17C382.344 346.729 380.865 345.146 380.865 343.19V341.939C380.865 339.987 382.344 338.404 384.17 338.404H661.477C671.248 338.404 679.489 345.414 682.047 354.995" fill="#548EE2"/>
<path d="M388.684 366.235L409.112 367.172L388.684 367.734V366.235Z" fill="#F4D2B8"/>
<path d="M388.684 374.97L437.287 375.904L388.684 376.469V374.97Z" fill="#F4D2B8"/>
<path d="M367.274 437.248H511.095V393.952H366.005C355.231 393.952 346.496 402.687 346.496 413.461V416.472C346.496 427.945 355.798 437.248 367.274 437.248Z" fill="#F99746"/>
<path d="M504.167 437.248H668.082V393.952H503.717C492.76 393.952 483.881 402.832 483.881 413.788V416.961C483.881 428.166 492.963 437.248 504.167 437.248" fill="#FCECDB"/>
<path d="M473.051 437.248H673.613C675.277 437.248 676.627 435.9 676.627 434.236V433.785C676.627 432.121 675.277 430.774 673.613 430.774H473.051C471.387 430.774 470.037 432.121 470.037 433.785V434.236C470.037 435.9 471.387 437.248 473.051 437.248Z" fill="#F99746"/>
<path d="M473.051 400.425H673.613C675.277 400.425 676.627 399.078 676.627 397.414V396.963C676.627 395.299 675.277 393.952 673.613 393.952H473.051C471.387 393.952 470.037 395.299 470.037 396.963V397.414C470.037 399.078 471.387 400.425 473.051 400.425Z" fill="#F99746"/>
<path d="M668.081 415.601L645.748 416.328L668.081 416.766V415.601Z" fill="#F4D2B8"/>
<path d="M668.081 405.635L614.951 406.365L668.081 406.803V405.635Z" fill="#F4D2B8"/>
<path d="M615.5 406.218C615.5 406.218 617.777 408.079 618.532 411.136C618.663 411.67 618.749 412.245 618.767 412.848C618.894 416.91 618.767 426.106 618.767 426.106L625.489 421.507L632.193 426.106V413.643C632.193 411.285 631.618 408.993 630.549 407.494C630.032 406.765 629.404 406.218 628.693 406.218H615.5" fill="#699DEE"/>
<path d="M615.5 406.218C615.5 406.218 617.777 408.079 618.532 411.136L632.003 411.318C632.003 411.318 631.473 406.939 628.693 406.218H615.5" fill="#568CDB"/>
<path d="M493.269 338.52H351.715V274.908H493.786C506.345 274.908 516.529 285.089 516.529 297.651V315.26C516.529 328.106 506.115 338.52 493.269 338.52Z" fill="#FCECDB"/>
<path d="M516.61 299.588V313.28C516.574 319.128 513.864 324.2 509.883 326.913C507.923 328.243 505.656 329.005 503.247 329.005H347.376C345.55 329.005 344.068 330.773 344.068 332.956V334.572C344.068 336.752 345.55 338.52 347.376 338.52H616.646C624.373 338.52 631.201 333.933 635.324 326.913C637.926 322.488 639.453 317.101 639.453 311.284V300.482C639.453 296.496 638.688 292.722 637.325 289.359C633.863 280.806 626.529 274.908 618.039 274.908H347.376C345.55 274.908 344.068 276.673 344.068 278.856V280.469C344.068 282.653 345.55 284.42 347.376 284.42H503.723C507.462 284.42 510.843 286.32 513.206 289.359C515.298 292.054 516.589 295.64 516.61 299.588" fill="#AFCDFB"/>
<path d="M344.068 332.956V334.572C344.068 336.752 345.55 338.52 347.376 338.52H616.646C624.373 338.52 631.201 333.933 635.324 326.913H509.883C507.923 328.243 505.656 329.005 503.247 329.005H347.376C345.55 329.005 344.068 330.773 344.068 332.956" fill="#A4C4F4"/>
<path d="M351.715 306.713L371.697 307.782L351.715 308.428V306.713Z" fill="#F4D2B8"/>
<path d="M351.715 292.074L399.252 293.143L351.715 293.786V292.074Z" fill="#F4D2B8"/>
<path d="M398.762 292.93C398.762 292.93 395.624 294.949 394.585 298.264C394.401 298.844 394.284 299.464 394.259 300.118C394.087 304.525 394.259 314.493 394.259 314.493L384.997 309.509L375.758 314.493V300.982C375.758 298.426 376.551 295.939 378.022 294.313C378.736 293.523 379.602 292.93 380.582 292.93H398.762" fill="#F99746"/>
<path d="M398.763 292.93C398.763 292.93 395.625 294.949 394.587 298.264L376.025 298.461C376.025 298.461 376.752 293.713 380.584 292.93H398.763" fill="#ED7D2B"/>
<path d="M162.149 332.893C162.149 332.893 191.165 345.536 196.431 345.305C201.698 345.075 234.154 335.421 234.154 335.421L233.326 341.003C233.326 341.003 208.281 355.408 199.524 356.226C190.903 357.029 161.425 348.489 158.579 346.686C155.733 344.883 153.878 334.719 162.149 332.893" fill="#ED985F"/>
<path d="M157.788 286.389C157.788 286.389 147.084 284.355 141.753 288.248C132.095 295.301 131.577 319.614 127.957 323.236C124.338 326.858 115.613 325.313 114.837 344.054C114.06 362.793 118.31 364.361 113.248 372.726C108.187 381.092 115.39 389.465 115.39 389.465C115.39 389.465 112.439 384.848 113.704 381.515C113.704 381.515 114.932 388.869 119.605 390.594C124.279 392.319 124.97 393.583 125.717 396.113C125.717 396.113 165.587 375.682 165.63 361.19C165.674 346.701 173.476 332.346 169.645 326.068C169.645 326.068 171.351 328.752 171.561 331.741C171.561 331.741 173.859 327.336 169.875 323.236C165.89 319.136 174.549 310.649 173.267 300.822C172.387 294.075 167.652 286.682 157.788 286.389" fill="#233862"/>
<path d="M165.675 346.701C163.127 348.469 159.931 349.925 155.92 350.852C140.883 354.327 135.121 341.618 132.957 332.893C135.008 331.72 136.937 331.462 138.051 331.328C139.138 331.201 140.281 331.115 141.228 331.07C142.916 329.775 145.432 324.482 145.988 316.264L146.696 316.454L158.546 319.698C158.546 319.698 158.003 323.464 157.737 327.025C157.531 329.811 157.499 332.475 158.027 333.126C158.952 333.326 159.507 333.458 159.507 333.458L159.513 333.468C159.672 333.729 163.11 339.384 165.675 346.701" fill="#FFB27D"/>
<path d="M158.546 319.7C158.546 319.7 158.002 323.464 157.738 327.027C151.024 326.356 147.908 319.964 146.695 316.456L158.546 319.7" fill="#ED985F"/>
<path d="M160.551 323.236C160.551 323.236 144.615 322.357 145.315 312.442C146.016 302.526 144.431 295.734 154.635 295.876C164.839 296.018 166.546 299.941 167.118 303.309C167.689 306.675 164.714 323.208 160.551 323.236" fill="#FFB27D"/>
<path d="M167.041 297.763C164.794 294.602 162.888 295.124 161.782 295.947C153.425 290.54 147.312 297.208 147.312 297.208C145.737 304.246 140.314 307.954 140.314 307.954C140.314 307.954 143.087 309.952 149.898 308.714C151.979 308.334 153.907 307.012 155.584 305.363C152.552 309.707 148.633 312.71 148.633 312.71C156.887 309.59 160.892 298.71 161.296 297.558C162.205 298.5 163.985 300.534 164.435 302.433C165.047 305.014 167.689 309.051 169.217 308.982C169.217 308.982 170.41 302.499 167.041 297.763" fill="#233862"/>
<path d="M128.417 379.101C126.978 371.743 122.286 342.352 126.978 332.893C128.663 329.496 135.276 329.19 142.531 329.486C144.788 330.945 153.39 336.451 156.924 335.765C156.962 335.757 157.03 335.742 157.122 335.719C158.786 335.301 159.414 334.134 158.026 333.126C158.023 333.123 161.619 332.779 166.081 333.619C168.602 334.093 175.4 337.611 175.4 337.611C175.4 337.611 171.976 343.796 166.928 345.931C167.787 353.61 166.51 356.996 158.545 374.732C151.813 389.722 159.453 403.219 159.453 403.219C159.453 403.219 119.828 435.08 119.607 418.858C119.442 406.646 130.256 388.502 128.417 379.101" fill="#F9DDBF"/>
<path d="M161.418 437.863C163.573 437.62 165.513 436.44 166.717 434.637C166.909 434.351 167.113 434.042 167.33 433.715C171.84 426.887 173.595 405.975 183.741 383.698C186.212 378.276 195.082 377.3 197.501 371.169C197.501 371.169 203.454 351.298 186.106 350.71C168.758 350.125 139.646 406.003 139.186 411.863C138.741 417.539 127.717 441.665 161.418 437.863Z" fill="#DD6D22"/>
<path d="M230.368 437.405H205.678C205.678 437.405 204.755 433.467 206.376 430.787C207.811 428.416 207.261 427.067 206.198 425.104C207.317 425.562 208.763 425.978 210.356 425.886C211.586 425.815 212.888 425.258 214.028 424.595C215.092 425.808 219.643 430.964 221.064 431.985C222.677 433.145 229.872 432.732 230.368 437.405" fill="#233862"/>
<path d="M198.066 356.457C199.553 367.603 205.359 402.784 215.6 419.947C218.903 425.481 207.281 428.584 207.219 428.566C205.66 428.158 203.064 425.674 201.867 424.595C193.552 417.101 176.672 395.882 176.672 378.87C176.672 370.576 176.527 354.732 182.559 350.707C186.273 348.228 197.476 352.027 198.066 356.457Z" fill="#ED7D2B"/>
<path d="M146.695 437.404C146.695 437.404 147.611 436.131 149.206 433.714C151.105 430.837 153.206 425.177 155.756 417.921C158.434 410.305 161.611 400.934 165.581 391.186C166.807 388.175 168.108 385.128 169.492 382.089C171.963 376.664 178.761 377.414 181.18 371.282C181.18 371.282 190.617 350.028 173.269 349.443C155.921 348.856 122.957 406.299 121.062 411.863C118.989 417.951 108.871 443.24 146.695 437.404Z" fill="#F99746"/>
<path d="M212.245 437.405H187.553C187.553 437.405 186.63 433.467 188.251 430.787C189.686 428.416 189.136 427.067 188.073 425.104C189.192 425.562 190.638 425.978 192.232 425.886C193.462 425.815 194.763 425.258 195.904 424.595C196.966 425.808 201.517 430.964 202.939 431.985C204.552 433.145 211.746 432.732 212.245 437.405" fill="#2B478B"/>
<path d="M155.755 417.921C158.433 410.305 161.611 400.934 165.581 391.186C164.544 383.799 162.307 377.335 158.546 374.732C158.546 374.732 149.421 402.999 155.755 417.921" fill="#ED7D2B"/>
<path d="M183.653 355.666C185.14 366.812 187.234 402.784 197.476 419.947C200.778 425.481 189.156 428.584 189.094 428.566C187.535 428.158 184.938 425.674 183.742 424.595C175.426 417.101 158.547 395.882 158.547 378.87C158.547 370.576 168.282 355.398 174.313 351.371C178.028 348.892 183.062 351.237 183.653 355.666Z" fill="#F99746"/>
<path d="M163.535 317.533C163.535 317.533 162.028 316.937 157.789 317.282C157.789 317.282 158.014 318.936 161.141 319.098C162.912 319.191 163.535 317.533 163.535 317.533Z" fill="white"/>
<path d="M237.25 323.74L232.131 314.503L221.059 345.407L227.59 352.419L237.25 323.74" fill="#163560"/>
<path d="M210.521 329.15L200.227 358.559L227.589 352.419L237.248 323.74L210.521 329.15Z" fill="#1C468A"/>
<path d="M200.772 357.074L200.293 356.236L210.033 328.405L210.522 329.149L200.772 357.074" fill="#EFDECE"/>
<path d="M210.033 328.405L235.975 323.357L237.249 323.74L210.522 329.149L210.033 328.405" fill="#FCECDB"/>
<path d="M237.25 323.74L231.716 314.954L228.186 324.875L235.976 323.357L237.25 323.74" fill="#EFDECE"/>
<path d="M218.421 333.409C217.532 333.237 215.623 332.518 213.69 331.986C214.268 331.538 214.909 330.988 215.088 330.423C215.433 329.334 215.663 328.982 214.513 329.327C213.364 329.674 209.342 331.517 209.342 331.517L209.352 331.523C207.068 332.189 204.962 335.42 204.962 335.42C204.962 335.42 176.672 345.363 173.268 345.536C168.003 345.799 132.957 332.893 132.957 332.893C124.687 334.719 126.542 344.882 129.388 346.685C132.234 348.489 157.452 357.662 172.397 357.834C179.967 357.923 207.502 340.225 207.502 340.225C207.502 340.225 210.72 338.753 213.25 339.214C215.777 339.673 221.64 339.214 222.904 337.145C224.168 335.076 219.916 333.696 218.421 333.409Z" fill="#FFB27D"/>
<path d="M151.014 339.257C151.014 339.257 147.879 349.18 137.115 351.439C137.115 351.439 119.338 345.961 128.189 333.853C128.189 333.853 136.941 327.349 151.014 339.257Z" fill="#F9DDBF"/>
<path d="M236.791 334.156H236.789C236.797 333.883 236.769 333.612 236.695 333.351C236.695 333.351 234.157 329.339 233.327 329.175C230.799 328.676 230.799 332.006 231.336 334.156C231.708 335.65 232.658 337.089 233.428 337.864L233.327 341.002C237.602 338.654 236.791 334.156 236.791 334.156" fill="#FFB27D"/>
<path d="M88.2667 281.779C89.2774 256.769 68.3143 245.658 46.88 245.658C25.4455 245.658 2.11967 251.213 0.0986232 284.469C-1.20138 305.864 10.2039 319.029 43.0459 319.029C54.1221 319.029 62.7303 317.282 69.3238 314.166L85.7406 328.754L77.6731 308.59C84.8197 301.944 87.8308 292.573 88.2667 281.779" fill="#EBF3FA"/>
<path d="M30.5956 273.419V279.259H34.4169V273.419H35.9734V287.044H34.4169V280.675H30.5956V287.044H29.0391V273.419H30.5956Z" fill="#91B5F8"/>
<path d="M42.3614 281.141C42.3816 279.201 41.6537 278.33 40.9056 278.33C39.8746 278.33 39.3693 279.806 39.3085 281.141H42.3614ZM39.2885 282.293C39.2885 285.305 40.4811 285.933 41.5932 285.933C42.2806 285.933 42.8264 285.771 43.2106 285.568L43.4734 286.7C42.9274 286.984 42.0987 287.166 41.3103 287.166C38.9648 287.166 37.752 285.244 37.752 282.253C37.752 279.1 39.1064 277.117 41.0677 277.117C43.0487 277.117 43.8574 279.221 43.8574 281.404C43.8574 281.787 43.8374 282.05 43.8171 282.293H39.2885" fill="#91B5F8"/>
<path d="M45.5371 273.054H47.0937V287.044H45.5371V273.054Z" fill="#91B5F8"/>
<path d="M49.3984 273.054H50.955V287.044H49.3984V273.054Z" fill="#91B5F8"/>
<path d="M54.3925 282.151C54.3925 283.77 54.6756 285.973 56.0909 285.973C57.4253 285.973 57.7082 283.689 57.7082 282.151C57.7082 280.655 57.4253 278.35 56.0504 278.35C54.6554 278.35 54.3925 280.655 54.3925 282.151ZM59.2648 282.151C59.2648 285.933 57.5261 287.207 56.0101 287.207C54.2509 287.207 52.8359 285.608 52.8359 282.172C52.8359 278.613 54.433 277.117 56.1109 277.117C57.8701 277.117 59.2648 278.755 59.2648 282.151Z" fill="#91B5F8"/>
<path d="M517.61 206.719C518.534 183.854 499.37 173.696 479.775 173.696C460.177 173.696 438.855 178.774 437.006 209.178C435.818 228.738 446.245 240.773 476.27 240.773C486.395 240.773 494.264 239.175 500.292 236.326L515.3 249.663L507.925 231.23C514.459 225.154 517.212 216.586 517.61 206.719" fill="#91B5F8"/>
<path d="M458.382 213.066C458.534 213.099 458.757 213.134 459.048 213.134C460.398 213.134 461.289 212.329 461.289 210.842C461.289 209.252 460.193 208.5 458.962 208.482H458.382V213.066ZM458.382 207.471H458.98C460.056 207.471 460.98 206.651 460.98 205.438C460.98 204.376 460.484 203.556 459.081 203.556C458.774 203.556 458.534 203.591 458.382 203.642V207.471ZM457.08 202.753C457.63 202.616 458.26 202.53 458.997 202.53C460.041 202.53 460.93 202.753 461.545 203.333C462.042 203.796 462.297 204.48 462.297 205.301C462.297 206.481 461.646 207.403 460.519 207.849V207.899C461.852 208.259 462.657 209.335 462.657 210.842C462.657 211.8 462.348 212.57 461.836 213.134C461.186 213.869 460.109 214.178 458.792 214.178C457.954 214.178 457.44 214.125 457.08 214.056V202.753" fill="white"/>
<path d="M465.17 209.968C465.17 211.339 465.41 213.203 466.608 213.203C467.735 213.203 467.976 211.27 467.976 209.968C467.976 208.705 467.735 206.755 466.573 206.755C465.393 206.755 465.17 208.705 465.17 209.968V209.968ZM469.293 209.968C469.293 213.167 467.822 214.246 466.54 214.246C465.051 214.246 463.855 212.894 463.855 209.986C463.855 206.977 465.205 205.711 466.624 205.711C468.113 205.711 469.293 207.096 469.293 209.968Z" fill="white"/>
<path d="M470.764 207.968C470.764 206.993 470.711 206.499 470.695 205.83H471.84L471.908 206.841H471.944C472.301 206.172 472.97 205.711 473.841 205.711C474.988 205.711 475.842 206.55 475.842 208.55V214.107H474.525V208.788C474.525 207.798 474.337 206.823 473.38 206.823C472.833 206.823 472.301 207.284 472.149 208.158C472.096 208.363 472.081 208.619 472.081 208.91V214.107H470.764V207.968" fill="white"/>
<path d="M479.23 203.693C479.23 204.207 478.921 204.549 478.442 204.549C477.997 204.549 477.672 204.207 477.672 203.693C477.672 203.181 478.014 202.836 478.46 202.836C478.921 202.836 479.23 203.181 479.23 203.693ZM476.287 216.485C476.664 216.384 477.125 216.247 477.399 215.837C477.69 215.391 477.792 214.775 477.792 213.203V205.83H479.108V213.577C479.108 215.322 478.853 216.125 478.27 216.741C477.776 217.255 476.971 217.511 476.457 217.528L476.287 216.485" fill="white"/>
<path d="M481.862 209.968C481.862 211.339 482.103 213.203 483.3 213.203C484.427 213.203 484.668 211.27 484.668 209.968C484.668 208.705 484.427 206.755 483.265 206.755C482.085 206.755 481.862 208.705 481.862 209.968V209.968ZM485.985 209.968C485.985 213.167 484.514 214.246 483.232 214.246C481.743 214.246 480.545 212.894 480.545 209.986C480.545 206.977 481.897 205.711 483.316 205.711C484.805 205.711 485.985 207.096 485.985 209.968" fill="white"/>
<path d="M492.414 211.85C492.414 212.757 492.465 213.491 492.483 214.107H491.335L491.234 213.236H491.199C490.961 213.646 490.327 214.246 489.438 214.246C488.002 214.246 487.42 213.117 487.42 211.063V205.83H488.737V210.875C488.737 212.174 488.942 213.134 489.849 213.134C490.619 213.134 490.961 212.415 491.029 212.038C491.08 211.817 491.097 211.559 491.097 211.285V205.83H492.414V211.85Z" fill="white"/>
<path d="M494.246 207.968C494.246 207.269 494.193 206.446 494.178 205.83H495.355L495.424 207.147H495.459C495.733 206.362 496.434 205.711 497.204 205.711C497.306 205.711 497.392 205.711 497.478 205.729V207.061C497.392 207.061 497.306 207.061 497.204 207.061C496.366 207.061 495.75 207.831 495.614 208.773C495.578 208.994 495.561 209.252 495.561 209.525V214.107H494.246V207.968" fill="white"/>
<path d="M511.511 327.359C516.161 335.585 522.059 338.791 522.059 338.791L546.694 338.963C546.694 338.963 507.963 321.083 511.511 327.359Z" fill="#233862"/>
<path d="M529.984 390.887C530.62 391.627 530.696 392.45 530.372 393.326L530.367 393.339C529.766 394.957 527.814 396.758 525.544 398.551C525.256 398.782 524.997 398.992 524.775 399.187C524.714 399.238 524.655 399.288 524.6 399.339C524.554 399.379 524.511 399.42 524.466 399.458C522.351 401.383 523.138 401.831 519.334 405.739C514.993 410.189 512.028 410.249 511.187 409.834C510.478 409.482 511.944 407.114 513.57 404.455C513.649 404.326 513.725 404.196 513.806 404.067C514.023 403.713 514.236 403.353 514.452 402.998C516.359 399.797 515.885 398.285 515.472 393.496C515.138 389.606 509.576 371.733 509.576 371.733L517.84 370.368C517.84 370.368 520.226 384.586 522.949 386.795C524.405 387.97 526.046 387.995 527.446 388.869C527.545 388.93 527.641 388.993 527.738 389.056C528.533 389.593 529.346 390.145 529.984 390.887" fill="#FFB27D"/>
<path d="M529.984 390.887C530.62 391.627 530.696 392.45 530.372 393.326L530.367 393.339C529.635 394.955 527.73 396.745 525.537 398.536C525.251 398.769 524.998 398.984 524.775 399.187C524.714 399.238 524.656 399.288 524.6 399.339C524.554 399.379 524.511 399.42 524.466 399.458C522.351 401.383 523.139 401.831 519.335 405.739C514.994 410.189 512.028 410.249 511.187 409.834C510.478 409.482 511.944 407.114 513.57 404.455C514.411 404.153 518.317 402.598 521.287 398.853C523.904 395.56 525.664 391.32 527.447 388.869C527.545 388.93 527.642 388.993 527.738 389.056C528.533 389.593 529.346 390.145 529.984 390.887Z" fill="#233862"/>
<path d="M463.465 385.263C462.938 387.808 459.308 387.357 455.259 386.337C451.209 385.316 452.164 386.501 446.395 385.823C440.625 385.141 438.89 382.976 438.721 382.117C438.569 381.355 441.423 381.104 444.485 380.775C444.872 380.735 445.257 380.689 445.645 380.643C449.104 380.236 451.65 378.022 454.8 376.214C457.786 374.502 462.274 367.466 462.274 367.466L470.189 368.147C470.189 368.147 465.987 374.431 464.361 377.164C463.404 378.772 463.439 380.907 463.546 382.555C463.601 383.452 463.652 384.366 463.465 385.263" fill="#FFB27D"/>
<path d="M455.259 386.337C451.209 385.316 452.164 386.501 446.395 385.823C440.625 385.141 438.89 382.976 438.721 382.117C438.569 381.355 441.423 381.104 444.485 380.775L444.515 380.833C444.515 380.833 447.96 383.313 452.767 383.462C456.682 383.586 460.841 382.492 463.546 382.555C463.601 383.452 463.652 384.366 463.465 385.263C462.938 387.808 459.308 387.357 455.259 386.337" fill="#233862"/>
<path d="M494.172 334.841L501.433 354.813L510.915 380.892C510.915 380.892 513.536 381.163 516.054 380.459C518.371 379.808 521.036 378.078 521.036 378.078C521.036 378.078 518.549 350.13 513.655 334.063C512.402 329.937 510.989 326.599 509.413 324.715C501.717 315.489 494.172 334.841 494.172 334.841" fill="#233862"/>
<path d="M501.923 303.256C506.783 301.726 520.601 303.831 534.478 306.65L537.423 301.873L567.453 299.741C567.453 299.741 577.201 321.772 571.682 335.729C570.869 337.781 568.891 338.634 566.191 338.66L566.189 338.662C566.189 338.662 548.275 338.974 542.473 338.933C527.548 338.827 510.957 328.451 508.804 328.002C505.281 327.273 503.82 334.319 500.239 341.704C496.66 349.089 466.843 374.281 466.843 374.281C466.843 374.281 462.287 374.296 460.411 373.577C458.392 372.802 457.66 371.812 457.66 371.812C457.66 371.812 490.959 306.708 501.923 303.256" fill="#2B478B"/>
<path d="M537.889 260.54C548.536 266.5 570.132 278.851 570.246 278.775C570.246 278.775 578.193 281.835 582.737 278.864C590.307 273.913 594.443 260.472 580.744 248.784C573.911 242.954 569.038 241.512 568.362 232.276C567.994 227.266 561.265 210.69 549.881 212.139C548.931 212.261 547.971 212.347 547.014 212.309C545.687 212.255 543.491 212.433 541.232 213.757C534.769 217.544 521.883 258.149 537.889 260.54" fill="#233862"/>
<path d="M546.883 255.594C546.837 255.624 552.13 257.473 555.689 255.926C559.037 254.475 561.602 249.002 561.554 248.999C560.035 248.918 558.378 247.578 557.158 238.858L556.509 239.086L545.611 242.921C545.611 242.921 546.374 246.416 546.86 249.739C547.268 252.53 547.48 255.204 546.883 255.594" fill="#FFB27D"/>
<path d="M545.611 242.921C545.611 242.921 546.075 245.37 546.721 248.87C552.971 247.789 555.605 242.457 556.509 239.087L545.611 242.921Z" fill="#ED975D"/>
<path d="M543.966 246.373C543.966 246.373 558.853 244.481 557.531 235.229C556.212 225.975 557.242 219.502 547.684 220.317C538.124 221.133 536.784 224.926 536.472 228.123C536.163 231.319 540.059 246.626 543.966 246.373" fill="#FFB27D"/>
<path d="M537.053 223.059C537.053 223.059 546.515 231.331 552.986 232.038C559.457 232.744 561.923 230.683 561.923 230.683C561.923 230.683 558.129 227.486 555.868 222.358C555.202 220.843 553.778 219.8 552.132 219.645C547.51 219.215 538.747 218.969 537.053 223.059" fill="#233862"/>
<path d="M543.01 222.366C543.01 222.366 539.802 225.423 538.783 227.702C537.801 229.898 537.471 235.169 538.229 237.268C538.229 237.268 533.333 227.583 536.177 222.916C539.191 217.964 543.01 222.366 543.01 222.366" fill="#233862"/>
<path d="M534.206 277.413C534.441 307.521 534.16 301.23 537.432 304.109C538.223 304.803 540.449 305.229 543.384 305.441C552.611 306.12 568.85 304.714 569.478 303.012C571.651 297.124 570.159 295.28 572 286.254C572.19 285.294 572.428 284.256 572.705 283.126C574.229 276.929 575.688 274.827 570.501 264.818C565.801 255.751 560.902 248.386 560.454 248.647C547.829 256.022 546.859 249.741 546.859 249.741C546.859 249.741 534.087 262.728 534.206 277.413" fill="#F9DDBF"/>
<path d="M501.434 354.813L510.916 380.892C510.916 380.892 513.537 381.163 516.054 380.459C518.372 379.808 521.036 378.078 521.036 378.078C521.036 378.078 518.549 350.13 513.656 334.063L501.434 354.813" fill="#2B478B"/>
<path d="M546.859 249.739C546.859 249.739 533.907 251.841 532.347 257.4C530.79 262.961 521.619 295.643 521.619 295.643C521.619 295.643 528.186 296.871 531.246 293.855C534.308 290.838 542.017 265.74 542.017 265.74L546.859 249.739Z" fill="#F9DDBF"/>
<path d="M543.385 305.441C552.611 306.12 568.85 304.714 569.479 303.012C571.652 297.124 570.16 295.28 572.001 286.254L567.637 273.685C567.637 273.685 568.273 287.652 564.13 291.296C559.991 294.938 547.222 298.266 545.201 301.321C544.223 302.785 543.577 304.259 543.385 305.441" fill="#F2CCAA"/>
<path d="M554.005 299.644C554.005 299.644 544.91 297.552 543.436 298.35C541.96 299.148 538.348 302.066 537.892 303.089C537.434 304.109 541.169 302.334 542.38 302.017C543.168 301.812 545.224 302.544 546.245 302.891C550.533 304.355 553.172 303.636 553.172 303.636L554.005 299.644" fill="#FFB27D"/>
<path d="M560.462 248.639C560.462 248.639 572.684 249.48 576.876 255.414C582.777 263.767 594.348 299.272 587.541 303.947C579.874 309.215 552.805 305.094 552.805 305.094C552.805 305.094 551.934 300.875 553.203 298.844C554.472 296.815 574.882 293.665 575.83 292.73C576.777 291.798 564.197 274.3 564.217 271.479C564.238 268.655 560.462 248.639 560.462 248.639" fill="#F9DDBF"/>
<path d="M542.977 300.883C542.977 300.883 541.05 303.329 540.424 303.621C539.796 303.909 539.391 303.833 539.391 303.833L540.695 301.529L542.977 300.883Z" fill="#FFB27D"/>
<path d="M543.434 298.35L537.867 301.007C537.867 301.007 538.1 301.394 538.784 301.366C539.465 301.341 541.195 300.723 541.195 300.723L543.434 298.35" fill="#FFB27D"/>
<path d="M541.609 307.592L497.724 307.283L484.754 274.361L528.571 274.67L541.609 307.592" fill="#F99746"/>
<path d="M497.217 306.001L555.171 306.409L555.161 307.688L497.723 307.282L497.217 306.001" fill="#ED7D2B"/>
<path d="M508.917 290.947C508.593 289.79 509.269 288.86 510.421 288.868C511.576 288.875 512.774 289.82 513.096 290.975C513.418 292.132 512.744 293.064 511.592 293.054C510.437 293.047 509.239 292.102 508.917 290.947Z" fill="white"/>
<path d="M408.241 411.214L408.235 437.724L274.895 437.696L274.9 411.189L408.241 411.214Z" fill="#C65447"/>
<path d="M274.891 437.698L255.293 429.315L243.896 424.437L255.562 419.453L274.899 411.189C274.899 411.189 277.479 417.642 277.517 423.713C277.578 433.238 274.891 437.698 274.891 437.698" fill="#FCECDB"/>
<path d="M423.739 420.01V428.391C423.737 433.547 419.558 437.724 414.404 437.724H408.234L408.239 411.214L414.948 411.217C419.806 411.217 423.742 415.155 423.739 420.01" fill="#FCECDB"/>
<path d="M255.562 419.453C256.048 422.13 256.469 426.233 255.293 429.315L243.896 424.438L255.562 419.453Z" fill="#2B478B"/>
<path d="M303.561 273.171C303.561 273.171 305.949 283.534 312.911 283.534C318.88 283.534 327.066 270.043 327.066 270.043L303.561 273.171" fill="#F99746"/>
<path d="M383.493 426.241L379.021 429.318C379.021 429.318 357.509 406.387 352.314 384.407C351.39 380.484 351.015 376.614 351.41 372.941C351.41 372.941 351.096 371.946 350.546 370.186C350.524 370.107 350.498 370.029 350.473 369.95C350.232 369.178 349.946 368.269 349.625 367.24C348.581 363.92 347.148 359.374 345.517 354.2C341.756 342.291 333.157 315.438 329.482 304.266L355.893 294.711C355.893 294.711 358.894 301.551 363.205 320.143C363.868 322.57 364.532 325.254 365.155 328.177C365.859 331.49 366.515 335.111 367.062 339.024C367.989 345.65 368.607 353.106 368.645 361.286C368.66 364.611 368.579 368.063 368.381 371.622C368.237 374.23 368.624 377.71 369.354 381.666C372.679 399.754 383.493 426.241 383.493 426.241Z" fill="#2B478B"/>
<path d="M397.565 437.291H376.213C376.213 437.291 375.415 433.887 376.815 431.569C378.056 429.518 377.583 428.35 376.663 426.653C377.631 427.049 378.882 427.411 380.26 427.33C381.323 427.269 382.448 426.788 383.436 426.213C384.352 427.261 388.288 431.721 389.519 432.605C390.915 433.608 397.135 433.251 397.565 437.291" fill="#233862"/>
<path d="M367.062 339.024L350.473 369.95C350.232 369.178 349.946 368.269 349.625 367.24C348.581 363.92 347.148 359.374 345.517 354.2C341.756 342.291 333.157 315.438 329.482 304.266L355.893 294.711C355.893 294.711 358.894 301.551 363.205 320.143C363.868 322.57 364.532 325.254 365.155 328.177C365.859 331.49 366.515 335.111 367.062 339.024" fill="#233862"/>
<path d="M329.052 430.607C329.052 430.607 327.575 434.234 328.966 437.291H340.58C340.58 437.291 340.821 434.535 336.607 431.336C333.415 428.915 329.052 430.607 329.052 430.607" fill="#233862"/>
<path d="M341.693 194.524C341.701 193.944 341.997 187.712 351.469 187.157C351.469 187.157 346.822 187.826 346.064 189.895C346.064 189.895 349.177 187.286 351.781 188.038C354.387 188.79 356.013 193.281 356.066 194.77C356.116 196.259 354.794 201.097 353.166 201.545C352.548 201.715 351.831 201.689 351.178 201.595C351.631 202.267 352.077 203.006 352.505 203.837C356.476 211.511 353.052 220.55 349.828 219.787C347.761 219.299 346.505 222.882 346.505 222.882L326.629 205.79C326.629 205.79 333.594 190.449 341.693 194.524" fill="#2C3A64"/>
<path d="M329.199 246.459C331.403 247.988 334.166 249.25 337.633 250.05C350.638 253.054 355.62 242.065 357.491 234.52C355.718 233.507 354.049 233.281 353.087 233.167C352.147 233.056 351.157 232.983 350.339 232.942C348.88 231.825 346.702 227.246 346.224 220.139L345.611 220.304L335.364 223.11C335.364 223.11 335.832 226.367 336.063 229.447C336.24 231.855 336.268 234.158 335.812 234.722C335.012 234.895 334.533 235.009 334.533 235.009L334.528 235.019C334.389 235.244 331.418 240.132 329.199 246.459" fill="#FFB27D"/>
<path d="M335.363 223.11C335.363 223.11 335.834 226.365 336.062 229.447C341.867 228.867 344.562 223.338 345.61 220.306L335.363 223.11" fill="#ED985F"/>
<path d="M335.245 228.001C335.245 228.001 348.612 224.564 346.343 216.275C344.076 207.983 344.274 201.956 335.645 203.797C327.014 205.641 326.228 209.255 326.312 212.208C326.396 215.158 331.709 228.68 335.245 228.001" fill="#FFB27D"/>
<path d="M325.441 207.489C326.814 204.432 328.518 204.551 329.595 205.063C335.769 199.066 342.081 203.69 342.081 203.69C344.603 209.394 349.828 211.622 349.828 211.622C349.828 211.622 347.814 213.788 341.827 213.884C339.999 213.914 338.142 213.119 336.44 212.002C339.745 215.176 343.575 217.062 343.575 217.062C336.048 215.809 330.815 207.256 330.278 206.347C329.668 207.299 328.501 209.325 328.44 211.012C328.356 213.304 329.25 217.731 327.943 217.931C327.943 217.931 323.385 212.076 325.441 207.489" fill="#2C3A64"/>
<path d="M331.4 234.317C331.4 234.317 353.849 228.867 363.61 236.918L358.732 304.955L314.826 294.346C314.826 294.346 316.062 290.043 324.481 278.595C332.899 267.145 329.237 250.354 331.4 234.317" fill="#FFB27D"/>
<path d="M344.486 297.38C344.486 297.38 344.461 297.611 344.415 298.051C344.395 298.239 344.37 298.469 344.342 298.735C344.152 300.498 343.795 303.881 343.334 308.281C342.128 319.819 340.239 338.351 338.95 352.979C337.942 364.417 337.301 373.468 337.648 374.922C338.686 379.296 337.648 431.58 337.648 431.58C333.915 433.37 328.257 431.58 328.257 431.58C328.257 431.58 318.319 384.465 319.709 377.916C321.1 371.366 318.78 365.777 318.78 365.777C311.06 329.836 311.906 309.914 313.438 300.379C313.884 297.606 314.388 295.711 314.758 294.556C315.072 293.574 315.287 293.125 315.287 293.125C332.312 288.544 344.486 297.38 344.486 297.38" fill="#2B478B"/>
<path d="M366.637 256.324C365.553 264.509 361.217 274.526 359.669 279.915C359.669 279.915 362.258 298.634 359.786 303.773C359.505 304.358 359.158 304.768 358.732 304.953C349.577 308.942 313.925 305.069 312.42 293.569C311.873 289.39 326 274.69 326.823 272.907C327.165 272.168 327.527 269.777 325.871 264.821C323.523 272.059 310.566 269.977 310.566 269.977C312.086 267.376 315.877 249.371 320.107 241.244C323.288 235.135 331.78 234.252 331.78 234.252C331.78 234.252 335.315 239.856 343.863 239.061C352.413 238.266 353.976 233.033 353.976 233.033C353.976 233.033 361.556 234.041 363.894 235.926C364.299 236.252 368.057 245.6 366.637 256.324Z" fill="#F99746"/>
<path d="M359.668 279.915C359.668 279.915 362.256 298.634 359.785 303.772C353.116 300.424 347.858 291.368 349.071 281.278C349.968 273.821 351.303 272.12 355.292 267.852C358.224 264.717 365.002 264.539 364.47 266.031C362.89 270.473 360.486 277.068 359.668 279.915" fill="#ED7D2B"/>
<path d="M331.826 257.783L347.113 282.306H321.102L306.537 258.312L331.826 257.783Z" fill="#1C468A"/>
<path d="M346.316 281.075L346.579 280.219L332.115 257.01L331.824 257.783L346.316 281.075Z" fill="#EFDECE"/>
<path d="M332.117 257.01L307.613 257.706L306.537 258.312L331.826 257.782L332.117 257.01Z" fill="#FCECDB"/>
<path d="M306.536 258.312L292.789 250.871L308.813 276.035L321.101 282.306L306.536 258.312" fill="#163560"/>
<path d="M379.279 275.498C377.808 276.172 374.029 280.622 372.679 281.075C366.613 283.104 340.801 277.704 340.801 277.704L341.601 273.183C341.601 273.183 366.935 273.854 369.721 273.11C370.245 272.968 372.983 268.688 374.037 268.072L379.279 275.498" fill="#FFB27D"/>
<path d="M341.602 273.181C341.602 273.181 338.547 270.696 336.483 271.258C334.419 271.821 331.38 274.432 330.253 275.05C329.126 275.668 326.061 277.879 327.614 279.216C329.166 280.553 334.001 279.403 335.918 278.38C337.833 277.354 340.804 277.704 340.804 277.704L341.602 273.181" fill="#FFB27D"/>
<path d="M337.068 271.177C337.068 271.177 333.355 270.734 332.339 270.754C331.326 270.775 331.602 270.998 332.162 271.783C332.722 272.57 334.654 272.872 334.743 273.148C334.831 273.421 337.068 271.177 337.068 271.177" fill="#FFB27D"/>
<path d="M353.977 233.033C353.977 233.033 364.989 234.34 368.02 239.061C371.852 245.033 380.899 268.809 380.607 274.801C380.607 274.801 373.992 286.059 351.312 284.256C351.312 284.256 348.952 275.921 353.723 273.17C353.723 273.17 365.374 271.099 366.713 269.916L357.216 252.656L353.977 233.033" fill="#F99746"/>
<path d="M310.06 267.277C309.718 265.889 306.694 266.755 305.674 267.555C305.425 267.748 305.16 268.08 304.899 268.465C304.866 268.234 304.838 268.011 304.823 267.839C304.767 267.186 304.007 266.018 303.82 266.892C303.63 267.768 303.321 271.438 303.321 271.438C303.283 274.396 305.185 275.617 306.406 274.654C307.626 273.692 310.4 268.665 310.06 267.277" fill="#FFB27D"/>
<path d="M714.229 439.654H20.6845C20.1932 439.654 19.791 439.254 19.791 438.762V438.177C19.791 437.683 20.1932 437.283 20.6845 437.283H714.229C714.721 437.283 715.123 437.683 715.123 438.177V438.762C715.123 439.254 714.721 439.654 714.229 439.654Z" fill="#2E3552"/>
</svg>
