<svg width="936" height="336" viewBox="0 0 936 336" version="1.1" xmlns="http://www.w3.org/2000/svg" xmlns:xlink="http://www.w3.org/1999/xlink"><defs><path id="path-1" d="M0 .05h37.963v34.165H0z"/><path id="path-3" d="M.442.37h41.722v35.918H.442z"/><rect id="path-5" x="15.552" y="25.92" width="63.763" height="12.442" rx="6.221"/></defs><g id="7_About-us" stroke="none" stroke-width="1" fill="none" fill-rule="evenodd"><g id="7.1-The-team-interim" transform="translate(-172 -546)"><g id="Group-140" transform="translate(172 546)"><g id="Group-53" transform="translate(193.24)" fill="#F9F9F9"><path d="M3.79 316.202h150.42V3.8H3.79v312.403zM0 320h158V0H0v320z" id="Fill-4"/><path d="M184.79 316.202h169.42V3.8H184.79v312.403zM181 320h177V0H181v320z" id="Fill-5"/><path d="M375.79 316.202h150.42V3.8H375.79v312.403zM372 320h158V0H372v320z" id="Fill-6"/></g><g id="Group-50" transform="translate(17.28 99.752)"><path d="M0 38.88s26.594 3.189 44.238 26.77c17.56 23.58 15.281 34.574 15.281 34.574s-5.656-5.79-16.21-6.21c-7.597-.336-4.727-9.902-7.597-12.504-2.787-2.517-9.118-2.014-11.567-6.126-2.448-4.112.254-3.776-3.461-8.727-3.293-4.364-7.851-.672-10.3-7.469C9.118 55.496 8.02 45.258 0 38.88" id="Fill-31_1_" fill="#66DCD1"/><path d="M101.952 54.432s-17.451 2.08-29.03 17.55c-11.578 15.47-11.578 24.786-11.578 24.786s6.796-5.406 12.25-6.238c4.95-.749 3.104-6.488 4.95-8.151 1.845-1.664 5.957-1.331 7.55-3.993 1.595-2.661-.167-2.495 2.266-5.739 2.181-2.91 5.202-.416 6.796-4.907.839-2.412 1.51-9.15 6.796-13.308" id="Fill-33_1_" fill="#B2EDE8"/><path d="M59.604 96.768S72.854 32.538 26.223 0c0 0 .255 16.058-.255 21.044-.425 4.48 2.039 10.902 4.502 13.522 2.463 2.62 6.285 6.423 6.88 9.381.595 2.958-3.058 9.212-1.614 13.353 1.444 4.141 5.181 5.156 6.625 8.79 1.444 3.634.255 8.958 2.888 11.747 2.633 2.789 7.39 4.395 9.514 7.944 2.038 3.465 4.841 10.987 4.841 10.987" id="Fill-35_1_" fill="#99E7E1"/><path id="Fill-37_1_" fill="#404052" d="M33.696 104.544h50.112V95.04H33.696z"/><path d="M78.624 114.048c0 11.464-9.272 20.736-20.736 20.736s-20.736-9.272-20.736-20.736v-13.824h41.472v13.824z" id="Fill-39_1_" fill="#404052"/><path id="Fill-45_1_" fill="#313140" d="M37.152 104.544h17.28l-17.28 5.184z"/><path id="Fill-46" fill="#66DCD1" d="M54.432 36.288L27.207 27.95l-.423-1.166 27.14 8.249z"/><path id="Fill-47_1_" fill="#66DCD1" d="M57.024 41.472l-21.61-2.365-.854-1.091 22.122 2.365z"/><path id="Fill-48" fill="#66DCD1" d="M61.344 72.576l-18.749-4.164-.259-1.02 18.922 4.164z"/><path id="Fill-49_1_" fill="#66DCD1" d="M61.344 76.032l-17.972-1.05-.172-.678 18.144 1.05z"/></g><path id="Rectangle" fill="#DDE3E9" d="M42.336 231.08h844.128v98.496H42.336z"/><g id="Group-19" transform="translate(778.464 103.208)"><path d="M68.54 100.224c-6.823-26.842-3.034-51.256 1.278-63.714C74.51 22.95 80.767 15.847 81.03 15.552l1.912 1.719-.956-.86.957.859c-.062.07-6.232 7.1-10.747 20.218-4.166 12.101-7.406 37.567 1.07 61.501l-4.727 1.235z" id="Fill-1" fill="#66DCD1"/><path d="M55.34 67.392c-.534-15.973-3.022-35.171-13.867-41.23-7.195-4.017-13.988 2.093-14.063 2.136l-2.354-5.223c.355-.206 8.79-4.981 17.23-.267 9.543 5.331 14.793 20.302 15.602 44.498l-2.548.086z" id="Fill-3" fill="#66DCD1"/><path d="M59.564 37.95a78.893 78.893 0 01-2.187-4.278C48.621 15.207 69.574-3.6 81.662 13.838v.014c.983 7.935 5.771 16.686 10.365 25.386 5.452 10.324 11.632 18.569 20.293 23.597-4.641 1.529-10.03 2.29-15.696 1.833-1.207-4.019 1.25-14.344-2.346-13.916-3.71.44.372 10.996 1.544 13.843a40.608 40.608 0 01-12.551-3.353c-.496-4.755 8.184-16.838 3.572-18.03-5.026-1.299-4.488 16.431-4.447 17.627-3.972-1.89-6.448-3.208-10.168-6.734-.443-10.865 12.877-19.828 7.517-22.494-5.94-2.956-9.911 20.24-9.911 20.24a.121.121 0 00-.002.012c-3.384-3.38-6.586-7.523-9.491-12.54C65.52 29.747 79.38 23.686 74.56 19.82c-4.866-3.903-12.599 12.626-14.996 18.13" id="Fill-5" fill="#66DCD1"/><path d="M90.553 7.61c2.22-3.139 8.99.71 7.724 4.374-1.268 3.663-12.428 2.274-7.724-4.375m1.788 31.784c5.397 10.36 11.514 18.634 20.089 23.679.11-.038.223-.073.334-.112.304-3.73 1.56-8.59 3.037-15.333-4.575-2.056-12.76-4.093-11.292-7.262 1.465-3.163 8.613 2.178 12.189 5.13.568-2.743.977-4.918 1.246-7.89-7.231-5.107-17.43-4.522-15.716-8.22 1.688-3.646 11.775 2.582 15.906 5.991.275-4.262.51-6.667-.534-11.021-8.922-4.036-22.77.154-22.154-5.527.628-5.796 17.005.445 21.371 2.217a33.72 33.72 0 00-2.563-6.52c-9.449-18.138-32.012-20.34-32.167-.61l-.007-.01v.013c.973 7.963 5.713 16.745 10.261 25.475" id="Fill-7" fill="#99E7E1"/><g id="Group-11" transform="translate(0 20.736)"><mask id="mask-2" fill="#fff"><use xlink:href="#path-1"/></mask><path d="M10.575 14.404C5.075 20.693 1.148 26.936 0 34.018l.16.197c2.56-.746 6.116-1.137 10.979-1.858.19-3.617-.562-9.667 1.923-9.483 2.48.182.766 6.376-.275 9.545 1.97-.316 3.522-.595 5.567-1.17 1.535-6.19-1.478-12.931 1.42-12.719 2.86.213 1.314 8.619.111 12.279 2.905-.902 4.565-1.357 7.19-3.172.389-7.06-5.962-15.348-2.026-16.382 4.017-1.053 4.081 11.607 4.027 15.008a23.785 23.785 0 003.676-3.395c9.629-11.01 5.286-26.82-7.874-21.892.002-.003.002-.006.006-.009a.022.022 0 00-.009.005c-5.045 2.688-9.665 8.13-14.3 13.432" id="Fill-9" fill="#99E7E1" mask="url(#mask-2)"/></g><g id="Group-14" transform="translate(45.792 91.584)"><mask id="mask-4" fill="#fff"><use xlink:href="#path-3"/></mask><path d="M42.164 17.867c0 8.09-4.772 15.087-11.7 18.42l-18.319.001C5.215 32.956.442 25.958.442 17.867.442 13.492 4.308.37 4.308.37h33.99s3.866 13.122 3.866 17.497" id="Fill-12" fill="#313140" mask="url(#mask-4)"/></g><path d="M28.648 68.608a58.41 58.41 0 011.073-3.357c4.985-14.137 25.47-13.068 22.732 2.258l-.006.01c-3.576 4.633-5.611 11.665-7.718 18.568-2.5 8.192-3.555 15.678-1.674 22.777-3.181-1.606-6.353-4.001-9.04-7.172 1.445-2.716 8.025-6.813 5.951-8.452-2.14-1.693-5.467 5.91-6.327 7.998a29.8 29.8 0 01-4.75-8.242c2.193-2.73 12.888-4.52 11.122-7.527-1.924-3.278-10.772 6.221-11.364 6.865-1.078-3.04-1.678-5.008-1.78-8.768 5.363-5.88 16.844-3.643 15.452-7.806-1.543-4.614-15.528 5.394-15.528 5.394l-.007.006c-.007-3.51.474-7.323 1.558-11.436 7.598-2.299 17.867 1.726 17.37-2.78-.5-4.55-12.996.043-17.064 1.664" id="Fill-15" fill="#66DCD1"/><path d="M44.954 85.621c-2.485 8.007-3.533 15.325-1.664 22.264.077.038.152.078.229.115 2.06-1.734 5.188-3.554 9.39-6.215-1.323-3.38-4.523-8.597-2.147-9.452 2.371-.853 3.35 5.507 3.697 8.83 1.692-1.098 3.013-1.992 4.666-3.358-1.14-6.285-6.72-11.202-3.95-12.2 2.734-.984 4.783 7.329 5.186 11.167 2.314-2.019 3.66-3.117 5.34-5.855-2.564-6.606-11.87-11.563-8.657-14.126 3.28-2.615 8.58 8.92 9.938 12.048a23.883 23.883 0 001.996-4.612c4.351-14.02-6.21-26.67-16.348-16.754l.001-.01a.036.036 0 00-.005.008c-3.556 4.53-5.578 11.402-7.672 18.15" id="Fill-17" fill="#00C4B3"/></g><g id="Group-2" transform="translate(425.866 88.78)"><path d="M29.357 150.827l48.874.373s6.63-1.034 2.865-24.609a6.356 6.356 0 01-.054-.793H26.456a7.85 7.85 0 01-.108.923c-4.779 23.31 3.01 24.106 3.01 24.106" id="Fill-18" fill="#313140"/><path d="M29.357 150.827l48.874.373s6.63-1.034 2.865-24.609a6.356 6.356 0 01-.054-.793H26.456a7.85 7.85 0 01-.108.923c-4.779 23.31 3.01 24.106 3.01 24.106" id="Fill-18-Copy" fill="#AFB9C5" style="mix-blend-mode:multiply"/><path d="M59.012 45.625c-4.208-1.77-6.232-.347-11.806 0-6.56.407-15.988 3.711-20.622 9.005-1.295 8.931-3.749 72.811-1.44 81.45h57.324c1.337-7.249 3.982-70.532-3.19-81.45-3.085-4.693-16.785-8.125-20.266-9.005z" id="Fill-20" fill="#FFF"/><g id="Group-5" transform="translate(40.677 .466)"><path d="M9.22 54.243c-1.255 2.944-1.519 4.715-.79 5.314 1.092.898 3.226 1.823 3.226 1.823s3.914-1.388 3.914-1.823c0-.29-.346-2.306-1.038-6.048l-5.313.734z" id="Path" fill="#49267F"/><path d="M5.287 59.565s-9.987-15.11-2.509-15.97c2.166-.248 1.391.505 1.997.694.525.165.283 1.252-.727 3.262l7.608 7.02-6.369 4.994z" id="Fill-16" fill="#FFF"/><path d="M15.413 59.704s-9.987-15.11-2.508-15.97c2.166-.248 1.39.505 1.996.695.526.164.284 1.251-.726 3.26l7.608 7.021-6.37 4.994z" id="Fill-16" fill="#FFF" transform="matrix(-1 0 0 1 31.909 0)"/><path id="Fill-38" fill="#CF746D" d="M29.94 29.774l2.564-1.366-3.629-8.31z"/><path d="M28.747 17.231c1.425 7.286 2.763 20.005-1.9 21.623-2.067.718-9.974 0-9.974 0l1.663 8.697-6.88 7.02-7.608-7.02 2.376-12.457S-8.774 12.296 11.967 7.11c6.294-1.574 15.355 2.836 16.78 10.121z" id="Fill-40" fill="#E2857E"/><path d="M27.06 12.94s-6.636 1.352-8.042 4.971c-1.407 3.62-.645 10.908-4.079 4.503-1.678-3.13-4.216-2.307-5.55.229-1.64 3.12 2.065 5.784 1.715 6.834-.352 1.05-3.508 5.622-4.329 5.74-.82.116-9.123-13.1-5.345-21.774C4.977 5.3 24.295 2.546 27.06 12.94" id="Fill-42" fill="#313140"/><path d="M27.19 12.67s6.526-6.14 5.114-8.069c-.867-1.183-4.811 2.462-5.77 1.351-.775-.896 2.582-3.408 1.847-4.336-3.84-4.85-23.174 3.417-23.69 7.874-.516 4.457 22.5 3.18 22.5 3.18" id="Fill-44" fill="#313140"/><path d="M24.037 39.437l-8.467-2.405 1.557 2.104s5.48.392 6.91.301" id="Fill-46" fill="#CF746D"/><path id="Path-2" fill="#49267F" d="M9.98 59.704L8.028 110.17l3.77 8.113 3.77-9.625-2.721-48.953z"/></g><path id="Fill-26" fill="#404052" d="M30.065 233.453l-9.502-2.655.222-12.465 10.06.002z"/><path d="M18.45 143.83c.268 5.094-.695 10.258-.504 15.359-2.212 28.27-.162 55.918.216 59.723l14.284.026c.121-7.404 1.711-34.194 4.843-58.31.64-4.923 1.32-9.914 2.016-14.86.454-17.638-21.168-18.772-20.856-1.938" id="Fill-28" fill="#313140"/><path id="Fill-30" fill="#404052" d="M77.589 233.453l9.502-2.655-.221-12.465-10.06.002z"/><path d="M89.205 143.83c-.269 5.094.694 10.258.503 15.359 2.213 28.27.162 55.918-.216 59.723l-14.284.026c-.121-7.404-1.711-34.194-4.844-58.31-.639-4.923-1.319-9.914-2.015-14.86-.453-17.638 21.168-18.772 20.856-1.938" id="Fill-32" fill="#313140"/><path d="M30.671 225.845c-1.46-.968-3.217-1.516-5.26-1.46-1.82.05-3.488.578-4.823 1.435l-3.654 14.147.078 2.752c-.013-.013-.014.08.056.235 2.061.926 5.23 1.47 8.77 1.374 3.889-.106 7.287-.96 9.24-2.166l-.075-2.689-4.332-13.628z" id="Fill-34" fill="#FFF"/><path d="M86.918 225.845c-1.462-.968-3.217-1.516-5.26-1.46-1.82.05-3.488.578-4.823 1.435l-3.654 14.147.078 2.752c-.013-.013-.015.08.056.235 2.06.926 5.23 1.47 8.77 1.374 3.888-.106 7.287-.96 9.24-2.166l-.076-2.689-4.331-13.628z" id="Fill-36" fill="#FFF"/><path d="M79.264 55.037s20.994 25.478 19.904 51.017c-.257 6.033 1.543 9.584-.024 13.144-4.658 10.585-20.52 12.648-20.52 12.648l.64-76.81z" id="Fill-22" fill="#FFF"/><path d="M26.611 53.99S-.82 84.009.02 96.912c.84 12.904 26.592 13.934 26.592 13.934V53.991z" id="Fill-24" fill="#FFF"/><path d="M73.332 76.715a.904.904 0 01.03 1.28L60.058 91.909a.91.91 0 01-1.284.03.904.904 0 01-.03-1.28l13.303-13.913a.91.91 0 011.285-.03" id="Fill-48" fill="#2A3756"/><path d="M54.26 89.33s4.13-4.615 4.447-4.852c.316-.236 4.019-1.858 4.146-1.906.127-.05 3.312-1.27 3.312-1.27s.559 1.174-.24 2c-.8.823-2.524 1.4-2.524 1.4l-4.86 5.068-4.282-.44z" id="Fill-50" fill="#CF746D"/><path d="M52.154 91.49s5.697-4.707 6.318-5.037c.62-.33 8.563-2.503 8.908-2.614 1.936-.62 2.43 1.387 1.637 1.963-.795.576-2.123.94-2.123.94s1.254 1.67-.517 2.356c1.837 1.63-.075 2.797-.075 2.797s.31 1.253.103 1.72c-.207.469-1.593 1.75-2.1 2.066-.507.316-9.08 3.785-9.08 3.785l-8.136 4.214-2.507-7.622 7.572-4.568z" id="Fill-52" fill="#E2857E"/><path d="M60.513 131.846s-1.778-.24-2.304-.575c-1.31-.832 6.505-4.263 6.505-4.263l-4.201 4.838z" id="Fill-54" fill="#CF746D"/><g id="Group-136" transform="translate(38.102 91.325)"><path d="M31.953 45.416c.132 1.025-.64 1.967-1.72 2.104L7.615 44.857c-1.083.137-2.065-.583-2.195-1.607L.88 4.528c-.132-1.025.64-1.965 1.724-2.104L23.883.017c1.08-.136 2.063.582 2.193 1.608l5.877 43.791z" id="Fill-48" fill="#AFB9C5"/><path d="M29.362 44.593c.127 1.01-.608 1.931-1.639 2.063l-21.187.574c-1.035.13-1.977-.58-2.103-1.586L.015 4.329C-.114 3.322.62 2.4 1.656 2.27L21.498.016c1.03-.131 1.973.579 2.1 1.587l5.764 42.99z" id="Fill-49" fill="#C5CFD6"/></g><path d="M76.384 124.589s-3.87 1.012-5.246 1.51c-1.376.499-4.854.375-6.505 1.313-1.65.937-5.623 5.187-5.35 6.107.275.918 2.103.96 2.103.96s-.04 1.517.528 1.917c.57.4 1.572.4 1.572.4s.294.5.667 1.02c.373.52 1.886.482 1.886.482s.138.458.747.698c.607.241 1.571.062 2.18-.377l6.213-5.207 4.05-1.566-2.845-7.257z" id="Fill-56" fill="#E2857E"/></g><g id="Group-4-Copy-3" transform="translate(577.152 90.248)"><path d="M39.043 49.252c-6.55.408-14.732 5.061-19.359 10.35-1.353 9.331-1.263 68.483-2.128 73.195-4.041 22.018 3.198 21.047 3.198 21.047l50.295.373s6.394 1.025 2.904-21.82c-.695-4.547 2.003-59.65-4.219-71.735-3.234-6.281-15.426-10.53-18.903-11.41-4.201-1.768-6.222-.345-11.788 0" id="Fill-103" fill="#49267F"/><path d="M30.682 150.736c8.705 26.628 2.998 28.363 18.66 64.86l4.624 13.844 8.933 1.594s-6.042-25.436-17.217-84.238c-3.647-14.404-20.348-8.069-15 3.94" id="Fill-104" fill="#784931"/><path d="M61.447 148.594c-2.486 27.903 3.458 28.33-3.58 67.401l-1.386 14.53-8.335 3.533s.163-26.15-2.181-85.985c.312-14.858 17.986-12.378 15.482.52" id="Fill-105" fill="#915B3C"/><path d="M68.342 58.06S87.3 92.92 86.46 105.866c-.84 12.945-18.117 18.724-18.117 18.724V58.06z" id="Fill-106" fill="#49267F"/><path d="M20.037 59.875S.798 93.777.036 106.683c-1.072 18.142 22.342 11.13 22.342 11.13l-2.34-57.938z" id="Fill-107" fill="#49267F"/><path id="Fill-108" fill="#DDE7F0" d="M13.306 131.242H73.18V93.139H13.306z"/><path id="Fill-109" fill="#FFF" d="M39.917 115.517h6.653v-6.653h-6.653z"/><path d="M67.738 21.471c0 11.857-9.613 21.47-21.47 21.47-11.859 0-21.471-9.613-21.471-21.47C24.797 9.613 34.409 0 46.267 0c11.858 0 21.47 9.613 21.47 21.471" id="Fill-110" fill="#151C28"/><path d="M33.676 25.811s-1.469-8.08 1.139-13.076c3.281-6.282 13.084-9.745 20.633-3.06 5.254 4.655 2.492 16.936 2.492 16.936l-16.459-6.938-7.805 6.138z" id="Fill-111" fill="#151C28"/><path d="M51.408 49.76s-6.75 3.708-11.491 0l1.01-12.867h9.47l1.011 12.867z" id="Fill-112" fill="#784931"/><path d="M56.976 23.22c0-5.992-4.93-9.914-11.011-9.914-6.082 0-11.013 3.922-11.013 9.914 0 0-.478 7.644-.478 8.015 0 5.692 7.098 12.915 11.49 12.915 5.07 0 11.492-8.602 11.492-12.915 0-.37-.48-8.015-.48-8.015" id="Fill-113" fill="#915B3C"/><path d="M35.746 24.479s-1.457-.927-2.585.552c-1.126 1.478-.375 7.023 2.441 7.023 2.818 0 .144-7.575.144-7.575" id="Fill-114" fill="#915B3C"/><path d="M56.185 24.479s1.457-.927 2.583.552c1.127 1.478.377 7.023-2.44 7.023-2.819 0-.143-7.575-.143-7.575" id="Fill-115" fill="#915B3C"/><g id="Group-9" transform="translate(35.078 22.982)" fill="#313140"><path d="M4.536.448A4.093 4.093 0 00.448 4.537a4.093 4.093 0 004.088 4.087 4.093 4.093 0 004.088-4.087A4.093 4.093 0 004.536.447m0 8.625A4.541 4.541 0 010 4.537 4.541 4.541 0 014.536 0c2.5 0 4.536 2.035 4.536 4.537 0 2.5-2.035 4.535-4.536 4.535" id="Fill-20"/><path d="M16.632.448a4.093 4.093 0 00-4.088 4.089 4.092 4.092 0 004.088 4.087 4.093 4.093 0 004.089-4.087 4.094 4.094 0 00-4.089-4.09m0 8.625a4.541 4.541 0 01-4.536-4.535A4.541 4.541 0 0116.632 0a4.542 4.542 0 014.536 4.537c0 2.5-2.035 4.535-4.536 4.535" id="Fill-22"/><path id="Fill-24" d="M9.072 4.838h3.024v-.604H9.072z"/></g><path d="M34.876 35.577a2.67 2.67 0 00.202-.07l-.244-.65c-.04.015-.079.029-.119.041-1.115.34-2.27-.411-2.57-1.676-.301-1.262.363-2.567 1.48-2.908l-.161-.679c-1.449.443-2.31 2.133-1.92 3.77.388 1.64 1.885 2.613 3.332 2.172" id="Fill-116" fill="#FFF"/><path d="M55.918 35.577a2.802 2.802 0 01-.276-.088c.069.025.299-.64.299-.64.053.019.109.035.163.05 1.29.339 2.62-.412 2.968-1.677.348-1.262-.419-2.567-1.708-2.908l.187-.679c1.67.443 2.665 2.133 2.216 3.77-.45 1.64-2.177 2.613-3.85 2.172" id="Fill-117" fill="#FFF"/><path d="M61.219 224.152c-1.482-.475-3.112-.527-4.84 0-1.539.47-2.832 1.308-3.761 2.346l.328 12.815.737 2.308c-.015-.01.006.07.104.185 1.983.298 4.816.015 7.81-.897 3.29-1.004 5.98-2.524 7.35-4.001l-.719-2.255-7.01-10.501z" id="Fill-118" fill="#FFF"/><path d="M57.322 228.31c-1.223-.913-2.72-1.47-4.49-1.508-1.579-.034-3.047.36-4.24 1.054l-3.778 12.265-.053 2.422c-.01-.014-.015.069.04.208 1.744.901 4.464 1.515 7.533 1.582 3.373.074 6.353-.531 8.096-1.506l.05-2.364-3.158-12.153z" id="Fill-119" fill="#FFF"/><path d="M35.449 90.448c.385.65.197 4.438.12 5.09-.106.922-1.758 1.59-2.216-.092-.363-1.337-.748-2.684-.748-2.684s.054 3.916.119 4.678c.063.761-.303 1.88-.922 2-.93.18-1.565-.568-1.702-1.471-.138-.904-.932-4.143-.932-4.143l.048 5.302s-.121 1.19-1.091 1.264c-1.28.099-1.27-1.258-1.332-1.99-.062-.732-.692-4.22-.692-4.22l-.426.061s.82 3.18.701 3.955c-.118.776-1.06.879-1.718.169-.44-.475-1.414-3.138-1.414-3.138s-1.007-.659-1.377-1.043c-.37-.384-.629-.924-.697-1.36-.067-.438 1.688-2.903 4.097-3.444 2.408-.54 3.998-.605 5.806-.274 1.806.331 3.84.439 4.376 1.34" id="Fill-120" fill="#915B3C"/></g><g id="Group-6" transform="translate(107.136 89.989)"><g id="Group-71"><path d="M60.3 73.693c21.368-12.654 5.37-64.698 5.37-64.698s-21.84-5.681-24.266.107c-9.08 21.671-26.545 53.87-20.784 65.792 3.463 7.169 33.623 2.386 39.68-1.201" id="Fill-1" fill="#DBD4E5"/><path d="M.76 114.928c-.509 4.152-.76 14.513 6.662 18.06 4.948 2.363 12.004.196 21.168-6.502 4.726-14.308 7.61-29.217 8.428-39.324.853-10.527 10.203-43.424 10.203-43.424-21.702.583-41.056 27.172-46.46 71.19z" id="Fill-3" fill="#313140"/><path d="M71.398 47.284s20.13 7.929 24.533 62.214c.49 6.04.982 11.461 1.462 16.301l-17.92.096c-4.56-13.948-8.846-29.113-9.64-38.9-.854-10.552 1.565-39.71 1.565-39.71" id="Fill-5" fill="#313140"/><path d="M31.714 66.742c-1.352 9.365-2.201 26.746-7.833 57.38-3.003 18.924-3.003 28.381 0 28.37 7.02-.026 37.23 8.654 56.395-2.955 2.525-1.53 2.525-10.002 0-25.416-4.346-28.886-.995-58.66-5.029-71.686-2.122-6.857-12.352-7.534-15.825-8.417-4.197-1.774-6.217-.347-11.778 0-6.545.409-13.917 15.855-15.93 22.724z" id="Fill-7" fill="#313140"/><path d="M41.14 19.88s-1.468-8.128 1.138-13.153C45.556.407 55.35-3.077 62.893 3.65c5.252 4.681 2.491 17.037 2.491 17.037l-16.447-6.98-7.797 6.174z" id="Fill-9" fill="#DBD4E5"/><path d="M59.026 43.9s-6.935 3.625-11.805 0l1.039-12.574h9.728L59.026 43.9z" id="Fill-11" fill="#CF746D"/><path d="M64.448 17.161c0-6.085-4.937-10.068-11.03-10.068-6.091 0-11.031 3.983-11.031 10.068 0 0-.478 7.764-.478 8.14 0 5.782 7.11 13.118 11.51 13.118 5.079 0 11.51-8.738 11.51-13.118 0-.376-.481-8.14-.481-8.14" id="Fill-13" fill="#E2857E"/><path d="M43.15 18.603s-1.422-.906-2.522.54c-1.1 1.443-.367 6.863 2.382 6.863 2.75 0 .14-7.403.14-7.403" id="Fill-15" fill="#E2857E"/><path d="M63.687 18.603s1.423-.906 2.523.54c1.099 1.443.367 6.863-2.383 6.863s-.14-7.403-.14-7.403" id="Fill-17" fill="#E2857E"/><path d="M40.744 112.969c-4.88.5-8.577 3.32-8.26 6.297.091.867.516 1.65 1.19 2.314.673.664 12.997-.803 14.288-.042 1.5-1.142 2.35-2.593 2.191-4.085-.318-2.978-4.53-4.987-9.409-4.484" id="Fill-19" fill="#E2857E"/><path id="Fill-21" fill="#DDE7F0" d="M55.485 122.94h67.29V79.791h-67.29z"/><path id="Fill-23" fill="#DDE7F0" d="M59.616 122.94H31.874v-1.183l27.742-1.182z"/><path id="Fill-24" fill="#FFF" d="M85.588 104.617h7.083v-7.093h-7.083z"/></g><path d="M35.684 151.038c1.07 27.41-4.743 27.543.22 66.096l.647 14.277 7.95 3.856s1.11-25.584 6.295-83.994c.417-14.547-16.927-12.97-15.112-.235" id="Fill-72" fill="#E2857E"/><path d="M67.737 151.038c-1.07 27.41 4.743 27.543-.22 66.096l-.647 14.277-7.95 3.856s-1.11-25.584-6.295-83.994c-.416-14.547 16.927-12.97 15.112-.235" id="Fill-74" fill="#E2857E"/><path d="M44.712 228.647c-1.218-.822-2.68-1.286-4.383-1.239-1.517.043-2.907.491-4.02 1.218l-3.045 12.003.065 2.336c-.01-.012-.012.067.047.198 1.718.786 4.358 1.249 7.308 1.167 3.241-.09 6.073-.815 7.7-1.838l-.062-2.281-3.61-11.564z" id="Fill-83" fill="#FFF"/><path d="M67.09 228.647c-1.219-.822-2.682-1.286-4.384-1.239-1.517.043-2.907.491-4.02 1.218l-3.044 12.003.064 2.336c-.01-.012-.012.067.047.198 1.718.786 4.358 1.249 7.308 1.167 3.241-.09 6.074-.815 7.7-1.838l-.062-2.281-3.61-11.564z" id="Fill-84" fill="#FFF"/></g><g id="Group-3" transform="translate(275.616 94.568)"><path d="M74.28 51.594c-3.084-4.688-16.783-8.115-20.264-8.995-4.207-1.767-6.231-.345-11.806 0-6.558.408-15.986 3.707-20.62 8.995-1.295 8.92.862 61.838.215 70.576h54.457c-.198-8.126 5.19-59.672-1.982-70.576" id="Fill-86" fill="#313140"/><path d="M24.519 147.803l48.873.373s6.63-1.034 2.866-24.609a6.356 6.356 0 01-.055-.793H21.617c-.03.403-.065.717-.107.923-4.78 23.31 3.009 24.106 3.009 24.106" id="Fill-87" fill="#F2F2F2"/><path d="M74.416 51.408s21.438 25.676 19.849 51.359c-.802 12.946-22.899 15.169-22.899 15.169l3.05-66.528z" id="Fill-88" fill="#313140"/><path d="M21.56 52.013S-.804 86.76.023 99.663c.829 12.904 21.75 23.111 21.75 23.111l-.211-70.761z" id="Fill-89" fill="#313140"/><path id="Fill-90" fill="#DDE7F0" d="M15.725 130.032h65.923V87.696H15.725z"/><path id="Fill-91" fill="#FFF" d="M45.36 112.493h7.258v-7.258H45.36z"/><path id="Fill-92" fill="#00C4B3" d="M37.498 229.22l-10.04-1.331-1.452-12.408 10.252-1.382z"/><path d="M14.122 142.096c.95 5.01.685 10.255 1.56 15.283 1.591 28.306 7.336 55.42 8.222 59.14l14.198-1.892c-.872-7.351-2.884-34.106-3.004-58.419a1409.7 1409.7 0 01.01-14.991c-1.915-17.536-23.554-15.757-20.986.879" id="Fill-93" fill="#FFF"/><path id="Fill-94" fill="#00C4B3" d="M60.48 229.22l10.083-1.37 1.408-12.41-10.305-1.34z"/><path d="M83.864 142.058c-.943 5.014-.654 10.258-1.518 15.29-1.5 28.31-7.206 55.448-8.089 59.17l-14.382-1.836c.855-7.354 2.785-34.116 2.81-58.428.005-4.963-.022-10-.07-14.992 1.868-17.543 23.782-15.85 21.249.796" id="Fill-95" fill="#FFF"/><g id="Group-22" transform="translate(34.474)"><path d="M19.958 42.994s-4.705 3.963-12.096 0L8.928 30.24h9.966l1.064 12.754z" id="Fill-96" fill="#997659"/><path d="M1.02 19.76S-.459 11.645 2.166 6.63C5.468.32 15.362-2.96 22.928 3.555c4.86 4.184 2.51 17.007 2.51 17.007L8.874 13.596 1.02 19.76z" id="Fill-97" fill="#313140"/><path d="M24.921 16.157c0-6.11-4.928-10.109-11.01-10.109s-11.013 4-11.013 10.11c0 0-.479 7.794-.479 8.171 0 5.804 7.099 13.169 11.491 13.169 5.071 0 11.492-8.77 11.492-13.169 0-.377-.48-8.172-.48-8.172" id="Fill-98" fill="#B28B67"/><path d="M3.086 17.221s-1.457-.927-2.584.552c-1.127 1.478-.376 7.024 2.44 7.024 2.819 0 .144-7.576.144-7.576" id="Fill-99" fill="#B28B67"/><path d="M24.13 17.221s1.457-.927 2.584.552c1.127 1.478.376 7.024-2.441 7.024-2.818 0-.143-7.576-.143-7.576" id="Fill-100" fill="#B28B67"/><path d="M1.917 23.587s2.917 8.543 4.86 9.131c1.94.59 3-2.464 7.129-2.41 4.129.055 4.529 2.507 6.857 2.334 2.327-.174 5.183-8.618 5.183-8.618s.3 4.491-.44 6.928c-.567 1.867-1.643 5.211-3.053 6.546-1.782 1.688-6.079 4.773-8.519 4.837-2.402.062-6.885-3.093-8.613-4.78-1.371-1.337-2.459-4.859-3.01-6.702-.8-2.676-.394-7.266-.394-7.266" id="Fill-42" fill="#313140"/></g><path d="M37.011 220.438c-1.568-.78-3.369-1.096-5.37-.766-1.784.297-3.355 1.054-4.552 2.098l-1.687 14.765.447 2.769c-.014-.013-.003.082.088.229 2.152.657 5.342.78 8.811.206 3.812-.63 7.04-1.95 8.798-3.429l-.437-2.703-6.098-13.169z" id="Fill-101" fill="#FFF"/><path d="M70.701 222.314c-1.311-1.143-2.968-1.91-4.985-2.115-1.799-.183-3.51.125-4.936.801l-5.45 13.509-.284 2.73c-.01-.015-.023.077.026.239 1.907 1.178 4.955 2.122 8.452 2.48 3.842.392 7.3-.018 9.379-.959l.278-2.666-2.48-14.019z" id="Fill-102" fill="#FFF"/></g><g id="Group-47" transform="translate(719.194 83.336)"><g id="Group-13"><path d="M60.157 48.062c-4.295-1.807-6.36-.354-12.056 0-6.697.416-16.325 3.791-21.058 9.198-1.323 9.12.88 63.232.22 72.167h55.615c-.204-8.308 5.3-61.017-2.025-72.167-3.15-4.794-17.14-8.299-20.696-9.198z" id="Fill-18" fill="#313140"/><path d="M51.29 59.636l-6.736-11.103 3.83-2.318v2.475l5.746 5.17-2.84 5.776z" id="Fill-16" fill="#FFF"/><path d="M59.897 58.79l-5.767-9.226c1.215-1.997 2.025-2.932 2.429-2.805.525.164.5.926-.074 2.285l6.424 4.816-3.012 4.93z" id="Fill-16" fill="#FFF" transform="matrix(-1 0 0 1 117.039 0)"/><path d="M41.747 26.772s-3.041-6.816-2.202-12.9c.84-6.083 4.404-6.716 4.404-6.716S47.375-.2 62.763.996c0 0 1.195-.135 4.6.775L57.072 6.359s7.366-.633 10.655-3.164c-.78 2.452-4.181 6.023-4.704 6.656.452.333 3.341-2.062 4.266-3.407 3.661 9.936-.598 19.531-.598 19.531l-1.196 2.537-7.088-12.417-7.12.87-9.54 9.807z" id="Fill-559" fill="#313140"/><path id="Fill-25" fill="#BA8B72" d="M60.48 48.69l-6.048 5.742-6.048-5.742 1.064-13.007h9.969z"/><path d="M65.431 21.187c0-6.225-5.06-10.3-11.301-10.3-6.243 0-11.303 4.075-11.303 10.3 0 0-.491 7.945-.491 8.33 0 5.917 7.286 13.424 11.794 13.424 5.203 0 11.793-8.942 11.793-13.424 0-.385-.492-8.33-.492-8.33" id="Fill-27" fill="#D4A181"/><path d="M43.608 22.664s-1.456-.926-2.584.552c-1.127 1.479-.376 7.024 2.44 7.024 2.819 0 .144-7.576.144-7.576" id="Fill-29" fill="#D4A181"/><path d="M65.255 22.664s1.457-.926 2.585.552c1.127 1.479.376 7.024-2.44 7.024-2.818 0-.145-7.576-.145-7.576" id="Fill-31" fill="#D4A181"/><path d="M81.149 57.456s22.001 26.143 20.371 52.292c-.823 13.183-23.5 15.446-23.5 15.446l3.129-67.738z" id="Fill-33" fill="#313140"/><path d="M28.165 56.545S-.84 86.922.02 100.047c.859 13.124 27.196 29.38 27.196 29.38l.949-72.882z" id="Fill-35" fill="#313140"/></g><path d="M30.059 155.657l49.901.381s6.77-1.058 2.926-25.194a6.613 6.613 0 01-.056-.812H27.096a8.2 8.2 0 01-.11.946c-4.88 23.865 3.073 24.679 3.073 24.679" id="Fill-20" fill="#404052"/><path d="M30.059 155.657l49.901.381s6.77-1.058 2.926-25.194a6.613 6.613 0 01-.056-.812H27.096a8.2 8.2 0 01-.11.946c-4.88 23.865 3.073 24.679 3.073 24.679" id="Fill-20-Copy" fill="#C5CFD6" style="mix-blend-mode:multiply"/><path id="Fill-37" fill="#DDE7F0" d="M21.168 137.29h67.738V93.744H21.168z"/><path id="Fill-39" fill="#FFF" d="M51.408 119.146h7.258v-7.258h-7.258z"/><path d="M26.006 119.146c0 4.342-2.165 7.862-4.838 7.862-2.671 0-4.838-3.52-4.838-7.862 0-4.342 2.167-7.863 4.838-7.863 2.673 0 4.838 3.52 4.838 7.863" id="Fill-40" fill="#D4A181"/><path id="Fill-41" fill="#AFB9C5" d="M31.23 239.5l-10.062-2.655.235-12.464 10.651.001z"/><path d="M19.095 148.313c.276 5.2-.712 10.472-.516 15.678-2.273 28.86-.167 57.083.22 60.968l14.67.027c.126-7.559 1.759-34.908 4.977-59.525.656-5.025 1.354-10.12 2.068-15.17.466-18.005-21.74-19.162-21.419-1.978" id="Fill-42" fill="#404052"/><path id="Fill-43" fill="#FFF" d="M33.264 249.782H16.33v-4.11l4.614-11.614h10.323l1.997 11.614z"/><path id="Fill-44" fill="#AFB9C5" d="M78.845 239.5l10.06-2.655-.233-12.464-10.653.001z"/><path d="M90.979 148.313c-.278 5.2.711 10.472.516 15.678 2.273 28.86.167 57.083-.222 60.968l-14.67.027c-.124-7.559-1.758-34.908-4.975-59.525-.657-5.025-1.354-10.12-2.069-15.17-.465-18.005 21.738-19.162 21.42-1.978" id="Fill-45" fill="#404052"/><path id="Fill-46" fill="#FFF" d="M76.81 249.782h16.934v-4.11l-4.616-11.614h-10.32l-1.998 11.614z"/></g><g id="Group-139" transform="translate(0 264.776)"><rect id="Rectangle" fill="#49267F" transform="rotate(-90 27.994 39.917)" x="3.11" y="33.696" width="49.766" height="12.442" rx="6.221"/><rect id="Rectangle-Copy-2" fill="#49267F" transform="rotate(-90 69.984 46.138)" x="51.322" y="39.917" width="37.325" height="12.442" rx="6.221"/><rect id="Rectangle-Copy-4" fill="#00C4B3" transform="rotate(-90 91.757 41.472)" x="68.429" y="35.251" width="46.656" height="12.442" rx="6.221"/><g id="Rectangle-Copy-3" transform="rotate(-90 47.434 32.14)"><use fill="#FF7F40" xlink:href="#path-5"/><use fill="#00C4B3" xlink:href="#path-5"/></g><circle id="Oval-Copy-5" fill="#00C4B3" transform="rotate(-90 6.22 58.58)" cx="6.221" cy="58.579" r="6.221"/></g><g id="Group-137" transform="translate(837.216 269.96)"><rect id="Rectangle" fill="#49267F" transform="rotate(-90 6.826 41.99)" x="-9.504" y="35.77" width="32.659" height="12.442" rx="6.221"/><rect id="Rectangle-Copy-2" fill="#49267F" transform="rotate(-90 69.811 29.549)" x="40.262" y="23.328" width="59.098" height="12.442" rx="6.221"/><rect id="Rectangle-Copy-4" fill="#49267F" transform="rotate(-90 91.584 35.77)" x="68.256" y="29.549" width="46.656" height="12.442" rx="6.221"/><rect id="Rectangle-Copy-3" fill="#00C4B3" transform="rotate(-90 47.26 38.88)" x="27.821" y="32.659" width="38.88" height="12.442" rx="6.221"/><circle id="Oval-Copy-5" fill="#00C4B3" transform="rotate(-90 26.266 52.877)" cx="26.266" cy="52.877" r="6.221"/></g></g></g></g></svg>